<?xml version="1.0" encoding="utf-8"?>
<!-- Generator: Adobe Illustrator 19.2.1, SVG Export Plug-In . SVG Version: 6.00 Build 0)  -->
<svg version="1.1" xmlns="http://www.w3.org/2000/svg" xmlns:xlink="http://www.w3.org/1999/xlink" x="0px" y="0px"
	 viewBox="0 0 235 119" style="enable-background:new 0 0 235 119;" xml:space="preserve">
<style type="text/css">
	.st0{display:none;}
	.st1{display:inline;fill:#4B4A4B;}
	.st2{fill:#9B9A9A;}
	.st3{opacity:0.35;fill:#9B9A9A;}
	.st4{opacity:0.25;fill:#9B9A9A;}
	.st5{fill-rule:evenodd;clip-rule:evenodd;fill:#9B9A9A;}
	.st6{fill:none;stroke:#9B9A9A;stroke-width:0.4311;stroke-miterlimit:10;}
	.st7{fill:none;}
	.st8{display:inline;fill:#9B9A9A;}
	.st9{display:inline;fill-rule:evenodd;clip-rule:evenodd;fill:#9B9A9A;}
	.st10{display:inline;}
</style>
<g id="Background" class="st0">
	<rect class="st1" width="235" height="119"/>
</g>
<g id="Logos">
	<g>
		<g>
			<path class="st2" d="M128.1,38.8c-1.7-4.2-5.4-6.8-10-6.8c-4.4,0-8.4,2.4-10.3,6.2c-1.4,2.3-2.1,5.2-2.2,8.2
				c-0.1,2.6,0.5,5.6,1.5,7.9c1.7,4.1,5.4,6.5,10,6.5c4.5,0,8.5-2.4,10.4-6.3c1.2-2.3,2-5,2-8C129.6,43.6,129.1,41,128.1,38.8
				L128.1,38.8z M112.5,40.1c1.1-3.8,2.8-5.4,5.6-5.4c3.5,0,4.5,2.6,5.1,5.4c0.4,1.8,0.5,4.1,0.4,6.6c-0.1,2.4-0.4,4.4-0.9,6
				c-1,3.7-2.8,5.4-5.5,5.4c-3.3,0-4.3-2.5-5-5.2c0,0-0.1-0.4-0.1-0.4c-0.4-1.8-0.6-4.1-0.6-6.2C111.6,44.7,111.8,42.3,112.5,40.1z"
				/>
			<path class="st2" d="M158,52.3l-1.5,1.4c-1.9,1.8-3.5,3.4-6.3,3.6c-1.7,0.2-3.2-0.4-4.3-1.5c-1.7-1.9-2.3-5.3-1.6-9.4
				c1.3-7.8,3.4-11,7.2-11c2.2,0,3.3,1.8,4.4,5.1c0.1,0.4,0.6,0.7,1,0.6c0.4,0,0.8-0.4,0.9-0.8c0.3-1.5,2.1-3.9,2.1-4l0.1-0.1l0-0.1
				c0.2-0.5,0.1-1-0.4-1.3c-2.6-1.6-5.4-2.4-8.1-2.4c-7.1,0-12.8,6.3-13.4,14.7c-0.3,4.4,0.9,8.3,3.4,10.8c2,2,4.6,3,7.5,2.9
				c4.5-0.2,7.1-3.5,8.5-5.2l0.7-0.8v-0.1L158,52.3z"/>
			<path class="st2" d="M98.8,32.3l0.1,1.2l0.2,4.5c0,4.3-0.1,9.3-0.3,14.9l0,0.1c0,2.3-0.3,10-3.5,11.8c-0.9,0.5-1.4,0.7-2.1,0.8
				l-0.9,0.2c-0.3,0.1-0.5,0.4-0.4,0.7c0,0,0.3,1.2,0.3,1.2l0,0.1l0.3,0.3l0.4,0.1c0.6,0,1.2-0.1,1.7-0.2c6-0.6,8.7-3.9,8.9-11.1
				l0.6-19.1l0.3-3l0.2-2.5l-0.3,0H98.8z"/>
			<polygon class="st2" points="131.2,32.3 131.2,33.5 131.4,37.9 131.3,45.7 131,55.2 130.7,58.2 130.5,60.7 130.8,60.7 
				136.3,60.7 136.2,59.5 136,55 136.2,47.2 136.5,37.7 136.7,34.7 137,32.3 136.7,32.3 			"/>
			<path class="st2" d="M77.8,59c-0.8-0.8-2-2-3.1-3.4c-2-2.4-4-5.4-5.3-7.2c0,0-0.6-0.9-0.9-1.3c4.7-1.3,7.5-4.1,7.6-7.8l0-0.3
				c0-1.8-0.6-3.4-1.6-4.5c-1.6-1.7-4.4-2.6-8.3-2.6c0,0-3.9,0.1-3.9,0.1l-6.8,0l0.1,1.2l0.2,4.5l-0.1,7.9l-0.3,9.6l-0.3,3.1
				l-0.2,2.4l0.3,0h5.6l-0.1-1.3c-0.1-0.9-0.3-2.3-0.3-4.2c0-0.1,0-0.1,0-0.2l0.1-7.9l0.3-9.5c0,0,0.1-1.4,0.2-1.9
				c0.4,0,3.8-0.1,3.8-0.1c2.4,0,4.1,0.5,5,1.4c0.6,0.6,0.9,1.5,0.9,2.6l0,0.2c-0.1,4.1-4.4,5.7-7.1,5.8c-0.3,0-0.6,0.2-0.7,0.5
				c-0.2,0.3-0.1,0.7,0.1,1.1l4.9,7.6l1,1.5c1,1.6,2.7,4.2,2.8,4.4l0.1,0.1l0.2,0H79l0-0.3C79,60.2,78.7,59.9,77.8,59z"/>
			<path class="st2" d="M179.7,37.2c0-0.1,0-0.2,0-0.3c-0.2-2.9-2.5-4.7-6.1-4.7l-1.2,0.1c0,0-0.8,0.1-0.8,0.1
				c-5.5,1-9.8,6.5-11.5,11.5l-0.5,1.3l7.1-2.2l0.1-0.4c1.3-4.5,4.2-7.6,6-7.7c0.6,0,1,0.1,1.3,0.3c0.4,0.3,0.6,0.9,0.6,1.7
				c0.1,1.7-0.5,3.3-1.8,4.6c-0.8,0.8-3.1,2.1-7,3.1c0,0-6.4,1.8-6.4,1.8l-0.1,0.4c-0.2,1.4-0.3,2.8-0.2,4.2
				c0.3,4.9,3.3,8.8,7.2,9.5l0.3,0.1l1.2,0.2c4.5-0.2,7.1-3.5,8.5-5.2l0.7-0.8l0-0.1l-0.2-2.4l-1.6,1.5c-1.9,1.8-3.5,3.4-6.2,3.6
				c-0.9,0.1-1.8-0.4-2.6-1.4c-0.9-1.2-1.6-3.1-1.6-5.4c0-1.1,0.2-2.2,0.6-3.4C175.1,44.3,179.7,41.1,179.7,37.2z"/>
			<path class="st2" d="M94,54.6l0-0.1l-0.2-2.4l-1.6,1.5c-1.9,1.8-3.5,3.4-6.2,3.6c-0.9,0.1-1.8-0.4-2.6-1.4
				c-0.9-1.2-1.6-3.1-1.6-5.4c0-1.1,0.2-2.2,0.6-3.4c9.5-2.7,14.1-5.9,14.1-9.8c0-0.1,0-0.2,0-0.3c-0.2-2.9-2.5-4.7-6.1-4.7
				l-1.2,0.1c0,0-0.8,0.1-0.8,0.1c-5.5,1-9.8,6.5-11.5,11.5l-0.5,1.3l7.1-2.2l0.1-0.4c1.3-4.5,4.2-7.6,6-7.7c0.6,0,1,0.1,1.3,0.3
				c0.4,0.3,0.6,0.9,0.6,1.7c0.1,1.7-0.5,3.3-1.8,4.6c-0.8,0.8-3.1,2.1-7,3.1c0,0-6.4,1.8-6.4,1.8l-0.1,0.4
				c-0.2,1.4-0.3,2.8-0.2,4.2c0.3,4.9,3.3,8.8,7.2,9.5l0.3,0.1l1.2,0.2c4.5-0.2,7.1-3.5,8.5-5.2L94,54.6z"/>
		</g>
		<g>
			<path class="st2" d="M126.3,84c0.6,0.1,0.9,0.2,0.9,0.4c0,0.2-0.1,0.4-0.3,0.5c-0.3,0.1-0.5,0.3-0.6,0.6c-0.6,1-1.3,2.1-2.2,3.3
				c-0.2-0.3-0.5-0.5-0.9-0.6c-0.4-0.2-0.8-0.2-1.2-0.2c0.4-0.4,0.8-0.9,1.3-1.7c0.5-0.7,0.8-1.2,0.9-1.5c0.2-0.4,0.3-0.8,0.4-1.3
				C125.2,83.8,125.8,83.9,126.3,84z M135.7,80.4c-0.1,0.4-0.1,0.7-0.1,1.1c0,0.3,0,0.7,0.1,1.1c-0.7-0.1-1.4-0.1-2.2-0.1h-3v5.6
				c0,1-0.2,1.7-0.7,2.3c-0.5,0.5-1.4,0.8-3,0.8c-0.2-0.6-0.4-1.1-0.5-1.6c-0.2-0.4-0.6-0.9-1.1-1.4c0.9,0,1.6,0.1,2.2,0.1
				c0.3,0,0.5-0.1,0.6-0.3c0.1-0.2,0.2-0.6,0.2-1.2v-4.2h-3.6c-0.7,0-1.4,0.1-2.2,0.1c0-0.4,0.1-0.7,0.1-1.1c0-0.4,0-0.7-0.1-1.1
				c0.7,0.1,1.4,0.2,2.2,0.2h8.9C134.3,80.6,135,80.5,135.7,80.4z M136.1,64.8c-0.1,0.4-0.1,0.8-0.1,1.2c0,0.4,0,0.8,0.1,1.2
				c-0.8-0.1-1.6-0.2-2.4-0.2h-1.8v2.1h1.8c0.7,0,1.4-0.1,2-0.2V69c-0.1,0.6-0.2,1.3-0.2,1.9v2.9c0,0.7,0.1,1.4,0.2,2
				c-0.7-0.1-1.4-0.1-2-0.1h-8.5c-0.7,0-1.3,0.1-2,0.1c0.1-0.7,0.2-1.4,0.2-2v-2.9c0-0.7-0.1-1.3-0.2-2c0.7,0.1,1.3,0.2,2,0.2h1.7
				V67h-2c-0.8,0-1.6,0.1-2.4,0.2c0.1-0.4,0.1-0.8,0.1-1.2c0-0.4,0-0.8-0.1-1.2c0.8,0.1,1.6,0.2,2.4,0.2h8.7
				C134.5,64.9,135.3,64.9,136.1,64.8z M126.8,77.2h5.2c0.8,0,1.4-0.1,2.2-0.2c-0.1,0.4-0.1,0.8-0.1,1.1c0,0.4,0,0.7,0.1,1.1
				c-0.7-0.1-1.4-0.1-2.2-0.1h-5.2c-0.7,0-1.4,0.1-2.2,0.1c0-0.4,0.1-0.8,0.1-1.1c0-0.3,0-0.7-0.1-1.1
				C125.4,77.1,126.1,77.2,126.8,77.2z M126.9,70.8h-1.6v3.1h1.6V70.8z M128.6,69.1h1.7V67h-1.7V69.1z M130.2,70.8h-1.7v3.1h1.7
				V70.8z M134.6,86.1c-0.3,0.1-0.6,0.3-0.9,0.4c-0.3,0.1-0.6,0.3-0.9,0.6c-0.3-0.9-0.8-1.7-1.4-2.6c0.3-0.1,0.6-0.2,0.9-0.4
				c0.3-0.2,0.5-0.4,0.7-0.6C133.4,84.3,134,85.2,134.6,86.1z M147.8,88c0.1,0.4,0.1,0.6,0.2,0.6c0.1,0,0.2-0.2,0.2-0.6
				c0-0.4,0.1-1.4,0.1-3c0.5,0.5,0.9,0.9,1.3,1.2c0.5,0.3,0.9,0.6,1.4,0.7c-0.2,1.3-0.6,2.4-1.1,3.4c-0.5,0.9-1.1,1.4-1.7,1.4
				c-0.1,0-0.1,0-0.2,0c-0.8,0-1.4-0.7-2-1.9c-0.7-1.4-1-3.5-1-6.4V71c-0.1,0.1-0.3,0.3-0.3,0.5c-0.5,3.3-1,5.9-1.5,7.8
				c0.9,2.7,1.4,5.1,1.7,7c-0.3,0-0.6,0-1,0.1c-0.4,0.1-0.8,0.3-1.1,0.5c0-1.4-0.2-3-0.6-4.8c-0.7,1.8-1.7,3.7-2.9,5.7
				c-0.2-0.3-0.5-0.6-0.8-0.8c-0.3-0.2-0.5-0.4-0.8-0.5c1.5-2,2.6-4.2,3.5-6.4c0.1-0.3,0.2-0.6,0.3-0.9c0-0.1,0-0.2-0.1-0.3
				c-0.7-2.2-1.4-4.2-2.1-6v4.6c0,3.1-0.4,5.6-1.2,7.5c-1,2.5-2.7,4.9-5,7.2c-0.1-0.5-0.4-1.1-0.7-1.5c-0.2-0.3-0.5-0.6-0.8-1
				c2.2-1.7,3.6-3.4,4.2-5.2c0.7-1.8,1.1-4.2,1.1-7v-9.2c0-1.3-0.1-2.5-0.2-3.8c1.2,0.1,2.5,0.2,3.7,0.2h3.5c1.2,0,2.5-0.1,3.7-0.2
				c-0.1,1.3-0.2,2.5-0.2,3.8v15C147.4,85.1,147.5,86.6,147.8,88z M131.8,73.9h1.7v-3.1h-1.7V73.9z M139.3,67.1v4
				c0.1,0,0.2-0.1,0.2-0.1c0.3-0.1,0.6-0.2,0.9-0.4c0.1,0.8,0.3,1.4,0.5,2c0.3,0.7,0.7,2,1.3,3.8c0.4-1.7,0.6-3.5,0.8-5.4
				c0-0.4,0-0.7,0.1-1.1c0.6,0.2,1.1,0.3,1.6,0.3c0.2,0,0.3,0,0.4,0.1v-3.1H139.3z"/>
			<path class="st2" d="M177.5,64.9c-0.3,0.5-0.5,0.8-0.5,1.3c-0.1,0.4,0,0.9,0.1,1.4c-0.3,0-0.5-0.1-0.8-0.1
				c-2.2,0.8-3.9,1.6-5.2,2.3c-0.9,0.5-1.7,0.9-2.4,1.3c0,0,0.1,0,0.1,0.1h5.6c0.8,0,2.3-0.1,4.5-0.2c-0.5,0.7-0.9,1.5-1.4,2.5
				c-0.8,1.5-1.3,2.5-1.6,3.2c-0.4-0.2-0.8-0.4-1.3-0.5c-0.4-0.1-0.9-0.2-1.4-0.2c0.7-1,1.2-1.7,1.6-2.4h-5.8v3.3
				c0,1-0.3,1.7-0.9,2.3c-0.5,0.5-1.7,0.7-3.7,0.7c-0.1-0.5-0.3-1.1-0.5-1.5c-0.2-0.4-0.5-0.9-1.1-1.4c0.8,0,1.5,0.1,2,0.1
				c0.6,0,1-0.1,1.3-0.3c0.3-0.2,0.4-0.7,0.4-1.2v-1.9h-0.4c-1.7,1.6-3.4,2.8-5,3.7c-2,1-4.2,1.8-6.6,2.5c-0.2-0.4-0.5-0.8-0.8-1.1
				c-0.4-0.4-0.9-0.8-1.5-1.3c2.6-0.3,4.6-0.8,6.2-1.5c1.4-0.6,2.9-1.4,4.4-2.3h-6.3c-0.9,0-1.7,0.1-2.6,0.1c0-0.5,0.1-0.9,0.1-1.3
				c0-0.4,0-0.9-0.1-1.3c0.9,0.1,1.7,0.2,2.6,0.2h8.3c-0.8-0.6-1.8-1.1-2.8-1.7c0.4-0.3,0.7-0.6,0.9-1c0.2-0.3,0.4-0.6,0.6-1
				c1,0.9,2.1,1.7,3.2,2.5c1.2-0.9,2.4-1.7,3.6-2.4c0.1-0.1,0.3-0.2,0.5-0.3h-12.4c-0.9,0-1.8,0.1-2.6,0.2c0.1-0.5,0.1-0.9,0.1-1.3
				s0-0.9-0.1-1.3c0.9,0.1,1.8,0.2,2.6,0.2h15.1C175,65.1,176.2,65,177.5,64.9z M154.2,90c-0.4-0.5-0.9-1-1.4-1.4
				c2.8-0.7,5-1.4,6.5-2.1c1.2-0.6,2.3-1.3,3.4-2.1h-6.4c-0.9,0-1.8,0.1-2.6,0.2c0.1-0.4,0.1-0.9,0.1-1.3c0-0.4,0-0.9-0.1-1.3
				c0.9,0.1,1.8,0.2,2.6,0.2h8.9c0-0.8,0-1.5-0.1-2c1,0.1,1.8,0.1,2.6,0.1c0,0,0.1,0,0.1,0c0.4,0,0.7,0.1,0.7,0.4
				c0,0.2-0.1,0.5-0.4,0.6c-0.2,0.2-0.4,0.5-0.4,0.8V82h9.3c0.9,0,1.8-0.1,2.6-0.2c-0.1,0.4-0.1,0.9-0.1,1.3c0,0.5,0,0.9,0.1,1.3
				c-0.9-0.1-1.7-0.2-2.6-0.2h-7c1.1,1,2.3,1.8,3.4,2.4c1.6,0.8,3.9,1.4,6.8,1.7c-0.4,0.3-0.9,0.6-1.3,1.1c-0.5,0.5-0.9,1.1-1.2,1.9
				c-2.5-1-4.5-2-5.9-2.9c-1.3-0.9-2.7-2.1-4-3.6v3.9c0,1,0.1,2,0.2,3c-0.5,0-1-0.1-1.4-0.1c-0.5,0-1,0-1.4,0.1c0.1-1,0.2-2,0.2-3
				v-3.9c-0.8,0.9-1.7,1.8-2.6,2.5c-1.7,1.2-4.2,2.5-7.4,4C154.9,90.9,154.6,90.5,154.2,90z"/>
		</g>
	</g>
	<rect y="0.1" class="st7" width="235" height="119"/>
</g>
<g id="legal" class="st0">
	<path class="st8" d="M177.9,27.2c0.5,0,1,0.2,1.4,0.6c0.4,0.4,0.6,0.8,0.6,1.4c0,0.5-0.2,1-0.6,1.4c-0.4,0.4-0.9,0.6-1.4,0.6
		c-0.5,0-1-0.2-1.4-0.6c-0.4-0.4-0.6-0.9-0.6-1.4c0-0.5,0.2-1,0.6-1.4C176.9,27.4,177.3,27.2,177.9,27.2z M180.2,29.2
		c0-0.6-0.2-1.2-0.7-1.6c-0.4-0.4-1-0.7-1.6-0.7c-0.6,0-1.2,0.2-1.6,0.7c-0.4,0.4-0.7,1-0.7,1.6c0,0.6,0.2,1.2,0.7,1.6
		c0.4,0.4,1,0.7,1.6,0.7c0.6,0,1.2-0.2,1.6-0.7C179.9,30.4,180.2,29.8,180.2,29.2z M178.5,28.7c0,0.2-0.1,0.3-0.3,0.4
		c-0.1,0-0.2,0.1-0.4,0.1h-0.4v-0.9h0.4c0.3,0,0.4,0,0.5,0.1C178.4,28.4,178.5,28.5,178.5,28.7z M176.9,27.9v2.5h0.4v-1h0.4
		c0.2,0,0.4,0,0.5,0.1c0.2,0.1,0.2,0.3,0.2,0.6v0.2l0,0.1c0,0,0,0,0,0c0,0,0,0,0,0h0.4l0,0c0,0,0-0.1,0-0.1c0-0.1,0-0.1,0-0.2v-0.2
		c0-0.1,0-0.3-0.1-0.4c-0.1-0.1-0.2-0.2-0.4-0.2c0.2,0,0.3-0.1,0.4-0.1c0.2-0.1,0.2-0.3,0.2-0.5c0-0.3-0.1-0.5-0.4-0.6
		c-0.1-0.1-0.4-0.1-0.7-0.1H176.9z"/>
	<path class="st8" d="M177.9,59.4c0.5,0,1,0.2,1.4,0.6c0.4,0.4,0.6,0.8,0.6,1.4c0,0.5-0.2,1-0.6,1.4c-0.4,0.4-0.9,0.6-1.4,0.6
		c-0.5,0-1-0.2-1.4-0.6c-0.4-0.4-0.6-0.9-0.6-1.4c0-0.5,0.2-1,0.6-1.4C176.9,59.6,177.3,59.4,177.9,59.4z M180.2,61.4
		c0-0.6-0.2-1.2-0.7-1.6c-0.4-0.4-1-0.7-1.6-0.7c-0.6,0-1.2,0.2-1.6,0.7c-0.4,0.4-0.7,1-0.7,1.6c0,0.6,0.2,1.2,0.7,1.6
		c0.4,0.4,1,0.7,1.6,0.7c0.6,0,1.2-0.2,1.6-0.7C179.9,62.6,180.2,62,180.2,61.4z M178.5,60.9c0,0.2-0.1,0.3-0.3,0.4
		c-0.1,0-0.2,0.1-0.4,0.1h-0.4v-0.9h0.4c0.3,0,0.4,0,0.5,0.1C178.4,60.6,178.5,60.7,178.5,60.9z M176.9,60.1v2.5h0.4v-1h0.4
		c0.2,0,0.4,0,0.5,0.1c0.2,0.1,0.2,0.3,0.2,0.6v0.2l0,0.1c0,0,0,0,0,0c0,0,0,0,0,0h0.4l0,0c0,0,0-0.1,0-0.1c0-0.1,0-0.1,0-0.2v-0.2
		c0-0.1,0-0.3-0.1-0.4c-0.1-0.1-0.2-0.2-0.4-0.2c0.2,0,0.3-0.1,0.4-0.1c0.2-0.1,0.2-0.3,0.2-0.5c0-0.3-0.1-0.5-0.4-0.6
		c-0.1-0.1-0.4-0.1-0.7-0.1H176.9z"/>
</g>
</svg>
