<?xml version="1.0" encoding="utf-8"?>
<!-- Generator: Adobe Illustrator 19.2.1, SVG Export Plug-In . SVG Version: 6.00 Build 0)  -->
<svg version="1.1" xmlns="http://www.w3.org/2000/svg" xmlns:xlink="http://www.w3.org/1999/xlink" x="0px" y="0px"
	 viewBox="0 0 235 119" style="enable-background:new 0 0 235 119;" xml:space="preserve">
<style type="text/css">
	.st0{display:none;}
	.st1{display:inline;fill:#4B4A4B;}
	.st2{fill:#9B9A9A;}
	.st3{opacity:0.35;fill:#9B9A9A;}
	.st4{opacity:0.25;fill:#9B9A9A;}
	.st5{fill-rule:evenodd;clip-rule:evenodd;fill:#9B9A9A;}
	.st6{fill:none;stroke:#9B9A9A;stroke-width:0.4311;stroke-miterlimit:10;}
	.st7{fill:none;}
	.st8{display:inline;fill:#9B9A9A;}
	.st9{display:inline;fill-rule:evenodd;clip-rule:evenodd;fill:#9B9A9A;}
	.st10{display:inline;}
</style>
<g id="Background" class="st0">
	<rect class="st1" width="235" height="119"/>
</g>
<g id="Logos">
	<rect x="0" y="-0.1" class="st7" width="235" height="119"/>
	<g>
		<path class="st5" d="M178.2,44.5c-4.8,0-8.7,3.9-8.7,8.7c0,4.8,3.9,8.7,8.7,8.7c4.8,0,8.7-3.9,8.7-8.7
			C186.9,48.4,183,44.5,178.2,44.5L178.2,44.5L178.2,44.5L178.2,44.5z"/>
		<path class="st5" d="M174.4,43.5c2.4,0,4.4-1.9,4.4-4.4c0-2.4-1.9-4.4-4.4-4.4c-2.4,0-4.4,1.9-4.4,4.4
			C170,41.6,172,43.5,174.4,43.5L174.4,43.5L174.4,43.5L174.4,43.5z"/>
		<path class="st5" d="M185.7,44.3c2.4,0,4.4-1.9,4.4-4.4c0-2.4-1.9-4.4-4.4-4.4c-2.4,0-4.4,1.9-4.4,4.4
			C181.3,42.3,183.3,44.3,185.7,44.3L185.7,44.3L185.7,44.3L185.7,44.3z"/>
		<path class="st5" d="M192.8,44.6c-2.4,0-4.4,1.9-4.4,4.4c0,2.4,1.9,4.4,4.4,4.4c2.4,0,4.4-1.9,4.4-4.4
			C197.2,46.5,195.2,44.6,192.8,44.6L192.8,44.6L192.8,44.6L192.8,44.6z"/>
		<path class="st5" d="M192,56.4c-2.4,0-4.4,1.9-4.4,4.4c0,2.4,1.9,4.4,4.4,4.4c2.4,0,4.4-1.9,4.4-4.4
			C196.3,58.3,194.4,56.4,192,56.4L192,56.4L192,56.4L192,56.4z"/>
		<path class="st5" d="M63.3,51.7c-2.8,0-5.1,2.3-5.1,5.1l0,0v21.6l0,0c0,2.8,2.3,5.1,5.1,5.1s5.1-2.3,5.1-5.1l0,0V56.8l0,0
			C68.4,54,66.1,51.7,63.3,51.7L63.3,51.7L63.3,51.7L63.3,51.7z"/>
		<path class="st5" d="M100.4,76.2L89.8,54.5l0,0c-0.8-1.6-2-2.9-4.6-2.9c-2.7,0-3.8,1.3-4.6,2.9l0,0L70.1,76.2l0,0
			c-0.3,0.7-0.5,1.4-0.5,2.2c0,2.8,2.3,5.1,5.1,5.1c2,0,3.8-1.2,4.6-2.9l0,0l0.7-1.4l0,0.1h10.7l0.6,1.3l0,0
			c0.8,1.7,2.6,2.9,4.6,2.9c2.8,0,5.1-2.3,5.1-5.1C100.9,77.6,100.7,76.9,100.4,76.2L100.4,76.2L100.4,76.2L100.4,76.2z M83.4,72.1
			l1.8-3.7l1.9,3.7H83.4L83.4,72.1L83.4,72.1z"/>
		<path class="st5" d="M137.1,56.5c-0.1-1.8-1.2-3.4-2.9-4.2c-2.5-1.2-5.6-0.2-6.8,2.4l0,0l-5.9,12.1l-5.9-12.1l0,0
			c-1.2-2.5-4.3-3.6-6.8-2.4c-1.7,0.8-2.7,2.5-2.9,4.2l0,0l-3.8,21l0,0c-0.5,2.8,1.3,5.4,4.1,6c2.8,0.5,5.4-1.3,6-4.1l0,0l1.1-6.1
			l3.6,7.4l0,0c0.9,1.8,2.7,2.9,4.6,2.9c1.9,0,3.7-1.1,4.6-2.9l0,0l3.6-7.4l1.1,6.1l0,0c0.5,2.8,3.2,4.6,6,4.1
			c2.8-0.5,4.6-3.2,4.1-6l0,0L137.1,56.5L137.1,56.5L137.1,56.5z"/>
		<path class="st5" d="M161.4,64.8c-1.3-0.8-4.4-2.1-6.6-2.9c-2.2-0.7-2.4-1.7-2.1-2.4c0.4-0.7,2.2-1,4.5,0.9
			c0.8,0.6,1.7,0.9,2.7,0.9c2.5,0,4.3-1.9,4.3-4.4c0-1.1-0.4-2.1-1-2.8c-1.1-1.3-4.3-4-9.4-3.9c-5.1,0.1-8.7,2.9-10.1,5
			c-1.4,2.1-3.1,9.9,2.7,13.3c1.7,1,3.3,1.7,6,2.3c2.7,0.7,2.8,2.4,2.4,3c-0.5,0.8-2.5,0.8-3.5-0.2c-0.3-0.2-1.4-1.1-1.8-1.4
			c-0.8-0.5-1.8-0.9-2.8-0.9c-2.8,0-5.1,2.3-5.1,5.1c0,1.5,0.6,2.8,1.6,3.7c1.7,1.6,6,3.8,10.4,3.7c4.4-0.1,9-2.4,10.7-6.5
			C166.3,73.4,165.4,67.1,161.4,64.8L161.4,64.8L161.4,64.8L161.4,64.8z"/>
	</g>
</g>
<g id="legal" class="st0">
	<path class="st9" d="M198.1,61.4c0.4,0,0.7-0.2,0.7-0.7c0-0.5-0.3-0.7-0.9-0.7l0,0h-1v2.5h0.4v-1.1h0.4l0.7,1.1h0.4L198.1,61.4
		L198.1,61.4L198.1,61.4z M197.3,61.1v-0.8h0.5l0,0c0.3,0,0.6,0.1,0.6,0.4c0,0.4-0.3,0.4-0.6,0.4l0,0H197.3L197.3,61.1L197.3,61.1z"
		/>
	<path class="st9" d="M197.8,59c-1.2,0-2.2,0.9-2.2,2.2c0,1.3,1,2.2,2.2,2.2c1.2,0,2.2-0.9,2.2-2.2C200,60,199,59,197.8,59L197.8,59
		L197.8,59L197.8,59z M197.8,63.1c-1,0-1.8-0.8-1.8-1.8c0-1,0.8-1.8,1.8-1.8c1,0,1.8,0.8,1.8,1.8C199.6,62.3,198.8,63.1,197.8,63.1
		L197.8,63.1L197.8,63.1L197.8,63.1z"/>
</g>
</svg>
