<?xml version="1.0" encoding="utf-8"?>
<!-- Generator: Adobe Illustrator 19.2.1, SVG Export Plug-In . SVG Version: 6.00 Build 0)  -->
<svg version="1.1" xmlns="http://www.w3.org/2000/svg" xmlns:xlink="http://www.w3.org/1999/xlink" x="0px" y="0px"
	 viewBox="0 0 235 119" style="enable-background:new 0 0 235 119;" xml:space="preserve">
<style type="text/css">
	.st0{display:none;}
	.st1{display:inline;fill:#4B4A4B;}
	.st2{fill:#9B9A9A;}
	.st3{opacity:0.35;fill:#9B9A9A;}
	.st4{opacity:0.25;fill:#9B9A9A;}
	.st5{fill-rule:evenodd;clip-rule:evenodd;fill:#9B9A9A;}
	.st6{fill:none;stroke:#9B9A9A;stroke-width:0.4311;stroke-miterlimit:10;}
	.st7{fill:none;}
	.st8{display:inline;fill:#9B9A9A;}
	.st9{display:inline;fill-rule:evenodd;clip-rule:evenodd;fill:#9B9A9A;}
	.st10{display:inline;}
</style>
<g id="Background" class="st0">
	<rect class="st1" width="235" height="119"/>
</g>
<g id="Logos">
	<g>
		<g>
			<path class="st2" d="M76,62.3c0-8.1-5.5-10.4-9.6-10.4c-4.1,0-7.2,1.6-9.2,4.4c-2,2.9-2.5,6.4-2.3,13.2
				c0.2,6.9,1.2,13.8,1.7,17.8c0.5,4,2.3,4.8,4.5,4.8c2.2,0,2.5-0.8,2.2-2.4c-0.3-2.4-1.4-11.9-1.4-11.9C74.3,76.3,76,66.6,76,62.3z
				 M61.2,72.4c0,0-2.3-14.5,4.5-14.8c3.9,0,4.4,4.3,4.4,5.4S70.2,70.9,61.2,72.4z"/>
			<path class="st2" d="M80.2,67.5c-1.4,0-3.9,0.2-3.9,2.5c0,2.3,1.8,2.2,3.1,2.2s2.3,0.8,2.3,1.6c0,0.8,0,1.1,0,1.1
				c-8.3,0-12.2,4-12.2,7.7c0,3.7,2.5,7,6.1,7s5.8-3.8,5.8-3.8s-0.1,1.7,0.6,2.8c0.8,1.1,3.3,0.9,3.9,0.9s0.7-0.7,0.7-2.1
				c0-2.6,0-9.2,0-13.3C86.6,68.3,81.6,67.5,80.2,67.5z M80.5,82.8c-1,1.9-3.8,3-4.8,1.6c-1.1-1.4,0-3.4,1-4.2
				c1.9-1.7,4.8-1.3,4.8-1.3S81.6,80.8,80.5,82.8z"/>
			<path class="st2" d="M94.8,77.6c0,1.6,0,9.2,0,10.7c0,1.5-0.3,1.8-1.2,1.8c-0.9,0-4.7-0.2-4.7-4.8s0-13.4,0-14.4s1.2-3.4,3.5-3.4
				c0.9,0,1.6,0.6,1.6,1.7c0,0.8,0,1.7,0,1.7s1.8-2.3,5.4-2.3c3.6,0,5.1,2.9,5.1,2.9s1.6-2.9,5.5-2.9c3.9,0,6.1,3.4,6.1,6.2
				s0,11.6,0,13.1s-1.2,1.6-2.1,1.6s-3.8-0.9-3.8-4.5c0-3.6,0-7.2,0-8.6c0-1.4-0.8-2.3-2.2-2.3c-1.3,0-2.7,1.2-2.7,2.6s0,8.2,0,10
				s-1.8,1.9-2.2,1.9c-0.5,0-3.5-0.5-3.5-3.6c0-3.1,0-5.9,0-7.6c0-1.7-0.4-3.3-2-3.3C96.1,74.2,94.8,75.1,94.8,77.6z"/>
			<path class="st2" d="M125.9,67.1c-6.9,0-7.7,5.7-7.7,8.2c0,2.5,0,16.1,0,18.8s2.3,2.9,3.2,2.9s1.8-0.5,1.8-1.2s0-7.4,0-7.4
				c8.1-0.6,11.2-7.5,11.2-12.3C134.5,70.5,131,67.1,125.9,67.1z M123.3,83.6c0,0,0-6.7,0-8.2c0-1.5,0.8-3,3-3s3.1,2.1,3.1,3.8
				S128.7,83.4,123.3,83.6z"/>
			<path class="st2" d="M150.8,81.6c-0.4-0.6-1.5-1.2-2.9,0.1c-1.4,1.3-2.7,2.4-4.6,2.4s-2.1-1.6-2.1-2.6c0,0,7.1-2.4,8.6-3.1
				c1.4-0.7,1.5-1.6,1.5-2.9c0-1.4-1.1-7.9-7.6-7.9c-3,0-6.4,3-7.5,8c-0.5,2.8-1.8,13.4,6.6,13.4c5.4,0,7.8-3.7,8.3-5
				C151.7,82.7,151.2,82.2,150.8,81.6z M143.8,72.3c2.3-0.5,2.5,2.9,2.5,2.9l-5,1.7C141.3,76,141.4,72.8,143.8,72.3z"/>
			<path class="st2" d="M153.4,70.6c0-0.9,1.2-2.9,3.5-2.9c1.3,0,1.7,0.7,1.7,1.2c0,0.5,0,1.8,0,1.8s2.3-2.7,4.7-2.7
				c1.6,0,1.9,1.8,1.9,2.6s0.2,1.5-0.9,1.9c-1.1,0.4-5.2,2.1-5.2,4.1s0,10.6,0,11.5c0,1.5-1.4,1.6-2,1.6s-3.7-0.1-3.7-3.8
				C153.4,82.4,153.4,70.6,153.4,70.6z"/>
			<path class="st2" d="M166.3,73.6c0-1.8,0.3-6.4,7-6.4c4.6,0,6.8,3.8,6.8,6c0,0.8-0.5,1.5-1.6,1.8c-1.1,0.4-2.4,0.2-2.8-0.8
				c-0.4-1-1.2-2.3-2.5-2.3c-1.3,0-1.7,1.3-1.7,1.6c0,1.3,1.6,2.3,4.5,5c3,2.7,3.4,4.1,3.4,6.6s-2.3,6-7,6c-4.1,0-6.9-2.1-8.4-4.3
				c-0.6-1-0.2-2.3,0.4-3.2c0.6-0.9,1.6-1.4,2.5-0.5c0.9,0.9,2.8,3.2,5.3,3.2c1.3,0,1.9-0.9,1.9-1.7c0-1.6-3.1-2.9-5.3-5.3
				C166.1,76.2,166.3,73.6,166.3,73.6z"/>
			<path class="st2" d="M156.6,48.2c1,0,1.8,0,1.8-0.8s0-0.9,0-1.7s-0.1-1-1.4-1c-1.4,0-4.5,0.4-6.2,3.4v1.8
				C150.7,49.7,153.6,48.2,156.6,48.2z"/>
			<path class="st2" d="M154.8,31.2c0.5-0.6,0.7-1,0.3-1.4c-0.5-0.5-1.2-1.1-1.5-1.4c-0.3-0.3-0.9-0.4-1.7,0.4
				c-0.8,0.8-3.1,3-3.8,4.9c-0.1,0.3-0.3,1.4,0.7,2.3c0.3,0.2,0.7,0.6,1.2,0C150.6,35.4,154.8,31.2,154.8,31.2z"/>
			<path class="st2" d="M139.7,30c0,0-0.1-5.7-0.1-6.1c0-0.3-1.3-1.9-3.4-1.9c-0.2,0-0.3,0.1-0.3,0.6c0,0.5,0.1,4.2,0.2,5
				C136.1,28.3,137,30,139.7,30z"/>
			<path class="st2" d="M124.7,31.7c0.3,0,1.1,0.3,1.9,0.9c0.7,0.6,2.4,2.1,3.1,3.4c0.1,0.3,0,0.3-0.5,0.3s-2.7-0.2-3.3-0.8
				c-0.6-0.6-2.1-2.4-2.3-2.8C123.2,32.4,123.4,31.7,124.7,31.7z"/>
			<path class="st2" d="M140.8,33.6c-8.6-0.4-11.3,11.3-11.3,11.3s-4.2-3.1-9-3.1c-3.7,0-6.4,3.1-6.4,6.4c0,4.5,3.5,9.3,7.8,12.6
				c5.6,4.4,11.3,7.1,14.3,7.1c3,0,6-4.8,7.7-7.7c4.1-7.2,4.3-14.2,4.3-16.9C148.2,40.4,146,34,140.8,33.6z M132.1,50.7
				c0,0,4.3,2.5,2.7,4.6C134.3,56,132,53.9,132.1,50.7z M142.1,49.6c-0.9,4.3-3.8,15-7.7,15c-2.8,0-14.3-9.1-14.3-14.8
				c0-2,1.4-3.2,2.7-3.2c2,0,6,2.2,6,2.2s0.3,10,4.4,10c1.6,0,4-2.3,4-4.2c0-1.4-0.9-4.6-5-7.5c0,0,1.3-7.5,7-7.5
				C141.8,39.6,143.4,43.4,142.1,49.6z"/>
		</g>
		<path class="st3" d="M129,48.7c0,0,2.9,1.8,3.1,2c-0.1,0.7,0.2,1.7,0.2,1.7l-2.9,0.2C129.4,52.5,129,50.5,129,48.7z"/>
		<polygon class="st4" points="129.4,44.9 132.4,47 132.6,46.5 129.6,44.4 		"/>
	</g>
	<rect x="0" y="0" class="st7" width="235" height="119"/>
</g>
<g id="legal" class="st0">
	<g class="st10">
		<path class="st2" d="M180.7,87.1c1.2,0,2.1,0.9,2.1,2.1s-0.9,2.1-2.2,2.1s-2.2-0.9-2.2-2.1S179.5,87.1,180.7,87.1L180.7,87.1z
			 M180.7,87.5c-0.9,0-1.6,0.8-1.6,1.7c0,0.9,0.7,1.7,1.6,1.7c0.9,0,1.6-0.7,1.6-1.7C182.3,88.2,181.6,87.5,180.7,87.5L180.7,87.5z
			 M180.3,90.3h-0.5v-2.1c0.2,0,0.5-0.1,0.8-0.1c0.4,0,0.6,0.1,0.7,0.2c0.1,0.1,0.2,0.2,0.2,0.4c0,0.3-0.2,0.4-0.4,0.5v0
			c0.2,0.1,0.3,0.2,0.4,0.5c0.1,0.3,0.1,0.4,0.2,0.5h-0.5c-0.1-0.1-0.1-0.3-0.2-0.5c0-0.2-0.2-0.3-0.4-0.3h-0.2V90.3z M180.4,89.1
			h0.2c0.3,0,0.5-0.1,0.5-0.3c0-0.2-0.1-0.3-0.4-0.3c-0.1,0-0.2,0-0.3,0V89.1z"/>
	</g>
</g>
</svg>
