<?xml version="1.0" encoding="utf-8"?>
<!-- Generator: Adobe Illustrator 19.2.1, SVG Export Plug-In . SVG Version: 6.00 Build 0)  -->
<svg version="1.1" xmlns="http://www.w3.org/2000/svg" xmlns:xlink="http://www.w3.org/1999/xlink" x="0px" y="0px"
	 viewBox="0 0 235 119" style="enable-background:new 0 0 235 119;" xml:space="preserve">
<style type="text/css">
	.st0{display:none;}
	.st1{display:inline;fill:#4B4A4B;}
	.st2{fill:#9B9A9A;}
	.st3{opacity:0.35;fill:#9B9A9A;}
	.st4{opacity:0.25;fill:#9B9A9A;}
	.st5{fill-rule:evenodd;clip-rule:evenodd;fill:#9B9A9A;}
	.st6{fill:none;stroke:#9B9A9A;stroke-width:0.4311;stroke-miterlimit:10;}
	.st7{fill:none;}
	.st8{display:inline;fill:#9B9A9A;}
	.st9{display:inline;fill-rule:evenodd;clip-rule:evenodd;fill:#9B9A9A;}
	.st10{font-family:'HelveticaNeue-Roman';}
	.st11{font-size:8.2532px;}
	.st12{display:inline;}
</style>
<g id="Background" class="st0">
	<rect class="st1" width="235" height="119"/>
</g>
<g id="Logos">
	<g>
		<path class="st2" d="M80.8,57.8l-3.2,13.6c-2.1,1.5-6.5,3.5-12,3.6c-7.7,0.1-14.4-4.8-13.5-13.7c2-18.3,26.4-21.1,29.5-7.4
			l-9.3,2.3c-1.7-4.6-9.1-1.4-10.1,4.6c-1.3,8.6,7.4,7,7.9,3.5h-5.4l1.6-6.6H80.8z M83.3,54.7l-4.6,19.7h9.6l4.6-19.7H83.3z
			 M108.6,43.5l-7.3,31h9.6l7.3-31H108.6z M97.2,43.5l-7.3,31h9.6l7.3-31H97.2z M94.9,46.3h-9.6l-1.7,7.2L93.8,51L94.9,46.3z
			 M161.9,61.6h-2.6l-3.1,12.8h-9.6l3-12.8h-2.1l-3,12.8h-9.6l3-12.8h-2.7c0,0.5,0,1,0,1.5c-0.1,1.7-0.4,2.2-0.5,2.7l-14,0
			c-0.4,1.6,0.2,3.3,2.2,3.3c1.2,0,2.5-0.7,3.3-1.7l7.5,1.3c-1.3,3.9-6.9,6.7-11.2,6.7c-8.9,0-10.1-6.8-9.6-10.2
			c0.9-6.5,5.8-11.9,12.6-11.9c4,0,8.3,2.1,9.4,6.7l1.4-5.2l3.1,0l2-8.5h9.6l-2,8.5l2.2,0l2-8.5h9.6l-2,8.5h4c0,0-0.4,1.7-0.8,3.1
			 M164.1,58c2.3-2.7,5.5-4.5,9.5-4.5c4.8,0,10.1,3.1,9.6,9.7c-0.1,1.7-0.4,2.3-0.5,2.7l-14,0l0,0c-0.4,1.6,0.2,3.3,2.2,3.3
			c1.2,0,2.5-0.7,3.3-1.7l7.5,1.3c-1.3,3.9-6.9,6.7-11.2,6.7c-8.9,0-10.1-6.8-9.6-10.2v0c0.2-1.3,0.5-2.5,1-3.6c0,0,0,0,0,0
			 M127.1,61.9c0.4-3.4-4.5-2.8-5.3,0L127.1,61.9 M175,61.9c0.4-3.4-4.5-2.8-5.3,0L175,61.9"/>
	</g>
	<rect x="0.1" y="0" class="st7" width="235" height="119"/>
</g>
<g id="legal" class="st0">
	<text transform="matrix(1.0006 0 0 1 180.138 62.5221)" class="st8 st10 st11">®</text>
</g>
</svg>
