<?xml version="1.0" encoding="utf-8"?>
<!-- Generator: Adobe Illustrator 19.2.1, SVG Export Plug-In . SVG Version: 6.00 Build 0)  -->
<svg version="1.1" id="Layer_1" xmlns="http://www.w3.org/2000/svg" xmlns:xlink="http://www.w3.org/1999/xlink" x="0px" y="0px"
	 viewBox="0 0 235 119" style="enable-background:new 0 0 235 119;" xml:space="preserve">
<style type="text/css">
	.st0{display:none;}
	.st1{display:inline;fill:#4B4A4B;}
	.st2{fill:#9B9A9A;}
	.st3{display:inline;}
</style>
<g id="Background" class="st0">
	<rect class="st1" width="235" height="119"/>
</g>
<g id="Logos">
	<g>
		<path class="st2" d="M134.5,41c-0.7,1.4-1.3,2.9-1.5,3.1c-0.4,0.9-1.1,2.3-1.8,3.8c-1.4,3.1-3.3,7.3-5.3,11.5
			c-3.5,7.6-7.1,15.5-8.4,18.3c0.7-0.1,2.1-0.5,3.4-2.7c1-1.9,9.5-20.9,11.4-25l0.8-1.7l0.8,1.7c0.6,1.4,4.7,10.7,5.2,11.9l5.4,12.3
			c0.1,0.2,0.2,0.4,0.2,0.5c1.1,2,2.9,2.6,4.3,2.7l1.6-0.1C147.9,71.1,137.6,47.8,134.5,41"/>
		<path class="st2" d="M176.8,40.9c-0.7,0.1-2.1,0.5-3.4,2.7c-1,1.9-10.2,22.4-12.1,26.5l-0.4,0.8l-0.4-0.8
			c-0.6-1.4-4.7-10.7-5.2-11.9l-6.2-14.1c-0.1-0.2-0.2-0.4-0.2-0.5c-1.1-2-3.1-2.7-4.3-2.7S143,41,143,41
			c2.8,6.3,13.1,29.5,15.7,35.2c-3.3,7.2-5,11-6.2,13.7c0.7-0.1,2.1-0.5,3.4-2.7c0.6-1,3.2-7.1,7.2-16.1c1.4-3,3-6.6,4.7-10.4
			C171.2,53.1,175.5,43.8,176.8,40.9"/>
		<path class="st2" d="M129.3,66.3h6.7c0.1,0,0.2,0,0.3,0c1.1,0.1,1.8,0.8,2.1,1.4l0.3,0.8c-2.3,0-10.2,0-14.8,0l0.2-2.1
			C125.8,66.3,128.8,66.3,129.3,66.3"/>
		<path class="st2" d="M88.4,39.8c-12.1-0.4-20,10-20.2,18.2c-0.4,10.8,9.3,19,19,19.3c8,0.3,19.4-6.5,19.9-18.3
			C107.4,47.1,96.8,40.1,88.4,39.8 M88.8,75.5c-8.2,0-14.8-7.6-14.8-16.9s6.6-16.9,14.8-16.9s14.8,7.6,14.8,16.9
			C103.6,67.9,97,75.5,88.8,75.5"/>
		<path class="st2" d="M117.6,77.7c0,0-2.5-0.4-3-2.7c0-0.5,0-1.1,0-2c0-7,0-16.2,0-16.8l0.1-17.5c0-0.2,0-0.4,0-0.5
			c-0.2-2.2-2.2-3.5-3.4-4.3l-0.8-0.3c0,5.8,0,35.5,0,39.2c0,1.1,0.4,2.2,1.1,3c0.6,0.7,1.3,1.1,2,1.5c0.6,0.3,1.2,0.3,1.8,0.3
			c0.5,0,1.1,0,1.6,0L117.6,77.7L117.6,77.7z"/>
	</g>
</g>
<g id="legal" class="st0">
	<g class="st3">
		<path class="st2" d="M180.7,87.1c1.2,0,2.1,0.9,2.1,2.1s-0.9,2.1-2.2,2.1s-2.2-0.9-2.2-2.1S179.5,87.1,180.7,87.1L180.7,87.1z
			 M180.7,87.5c-0.9,0-1.6,0.8-1.6,1.7c0,0.9,0.7,1.7,1.6,1.7c0.9,0,1.6-0.7,1.6-1.7S181.6,87.5,180.7,87.5L180.7,87.5z M180.3,90.3
			h-0.5v-2.1c0.2,0,0.5-0.1,0.8-0.1c0.4,0,0.6,0.1,0.7,0.2c0.1,0.1,0.2,0.2,0.2,0.4c0,0.3-0.2,0.4-0.4,0.5l0,0
			c0.2,0.1,0.3,0.2,0.4,0.5c0.1,0.3,0.1,0.4,0.2,0.5h-0.5c-0.1-0.1-0.1-0.3-0.2-0.5c0-0.2-0.2-0.3-0.4-0.3h-0.2v0.9H180.3z
			 M180.4,89.1h0.2c0.3,0,0.5-0.1,0.5-0.3c0-0.2-0.1-0.3-0.4-0.3c-0.1,0-0.2,0-0.3,0V89.1z"/>
	</g>
</g>
</svg>
