<?xml version="1.0" encoding="utf-8"?>
<!-- Generator: Adobe Illustrator 19.2.1, SVG Export Plug-In . SVG Version: 6.00 Build 0)  -->
<svg version="1.1" id="Layer_1" xmlns="http://www.w3.org/2000/svg" xmlns:xlink="http://www.w3.org/1999/xlink" x="0px" y="0px"
	 viewBox="0 0 235 119" style="enable-background:new 0 0 235 119;" xml:space="preserve">
<style type="text/css">
	.st0{display:none;}
	.st1{display:inline;fill:#4B4A4B;}
	.st2{fill:#9B9A9A;}
	.st3{display:inline;fill:#9B9A9A;}
</style>
<g id="Background" class="st0">
	<rect class="st1" width="235" height="119"/>
</g>
<g id="Logos">
	<g>
		<path class="st2" d="M173.9,37c-4.8,0-8.7,3.9-8.7,8.7s3.9,8.7,8.7,8.7s8.7-3.9,8.7-8.7C182.6,40.9,178.7,37,173.9,37L173.9,37
			L173.9,37L173.9,37z"/>
		<path class="st2" d="M170,36c2.4,0,4.4-1.9,4.4-4.4c0-2.4-1.9-4.4-4.4-4.4c-2.4,0-4.4,1.9-4.4,4.4C165.7,34,167.6,36,170,36
			L170,36L170,36L170,36z"/>
		<path class="st2" d="M181.3,36.7c2.4,0,4.4-1.9,4.4-4.4c0-2.4-1.9-4.4-4.4-4.4c-2.4,0-4.4,1.9-4.4,4.4
			C177,34.8,178.9,36.7,181.3,36.7L181.3,36.7L181.3,36.7L181.3,36.7z"/>
		<path class="st2" d="M188.5,37.1c-2.4,0-4.4,1.9-4.4,4.4c0,2.4,1.9,4.4,4.4,4.4c2.4,0,4.4-1.9,4.4-4.4
			C192.8,39,190.9,37.1,188.5,37.1L188.5,37.1L188.5,37.1L188.5,37.1z"/>
		<path class="st2" d="M187.6,48.9c-2.4,0-4.4,1.9-4.4,4.4c0,2.4,1.9,4.4,4.4,4.4c2.4,0,4.4-1.9,4.4-4.4
			C192,50.8,190,48.9,187.6,48.9L187.6,48.9L187.6,48.9L187.6,48.9z"/>
		<path class="st2" d="M59,44.2c-2.8,0-5.1,2.3-5.1,5.1l0,0v21.6l0,0c0,2.8,2.3,5.1,5.1,5.1s5.1-2.3,5.1-5.1l0,0V49.3l0,0
			C64.1,46.4,61.8,44.2,59,44.2L59,44.2L59,44.2L59,44.2z"/>
		<path class="st2" d="M96.1,68.7L85.5,47l0,0c-0.8-1.6-2-2.9-4.6-2.9c-2.7,0-3.8,1.3-4.6,2.9l0,0L65.7,68.7l0,0
			c-0.3,0.7-0.5,1.4-0.5,2.2c0,2.8,2.3,5.1,5.1,5.1c2,0,3.8-1.2,4.6-2.9l0,0l0.7-1.4v0.1h10.7l0.6,1.3l0,0c0.8,1.7,2.6,2.9,4.6,2.9
			c2.8,0,5.1-2.3,5.1-5.1C96.6,70.1,96.4,69.3,96.1,68.7L96.1,68.7L96.1,68.7L96.1,68.7z M79.1,64.6l1.8-3.7l1.9,3.7H79.1L79.1,64.6
			L79.1,64.6z"/>
		<path class="st2" d="M132.8,48.9c-0.1-1.8-1.2-3.4-2.9-4.2c-2.5-1.2-5.6-0.2-6.8,2.4l0,0l-5.9,12.1l-5.9-12.1l0,0
			c-1.2-2.5-4.3-3.6-6.8-2.4c-1.7,0.8-2.7,2.5-2.9,4.2l0,0l-3.8,21l0,0c-0.5,2.8,1.3,5.4,4.1,6c2.8,0.5,5.4-1.3,6-4.1l0,0l1.1-6.1
			l3.6,7.4l0,0c0.9,1.8,2.7,2.9,4.6,2.9s3.7-1.1,4.6-2.9l0,0l3.6-7.4l1.1,6.1l0,0c0.5,2.8,3.2,4.6,6,4.1s4.6-3.2,4.1-6l0,0
			L132.8,48.9L132.8,48.9L132.8,48.9z"/>
		<path class="st2" d="M157.1,57.3c-1.3-0.8-4.4-2.1-6.6-2.9c-2.2-0.7-2.4-1.7-2.1-2.4c0.4-0.7,2.2-1,4.5,0.9
			c0.8,0.6,1.7,0.9,2.7,0.9c2.5,0,4.3-1.9,4.3-4.4c0-1.1-0.4-2.1-1-2.8c-1.1-1.3-4.3-4-9.4-3.9c-5.1,0.1-8.7,2.9-10.1,5
			c-1.4,2.1-3.1,9.9,2.7,13.3c1.7,1,3.3,1.7,6,2.3c2.7,0.7,2.8,2.4,2.4,3c-0.5,0.8-2.5,0.8-3.5-0.2c-0.3-0.2-1.4-1.1-1.8-1.4
			c-0.8-0.5-1.8-0.9-2.8-0.9c-2.8,0-5.1,2.3-5.1,5.1c0,1.5,0.6,2.8,1.6,3.7c1.7,1.6,6,3.8,10.4,3.7c4.4-0.1,9-2.4,10.7-6.5
			C161.9,65.9,161.1,59.6,157.1,57.3L157.1,57.3L157.1,57.3L157.1,57.3z"/>
	</g>
</g>
<g id="legal" class="st0">
	<path class="st3" d="M198.1,61.4c0.4,0,0.7-0.2,0.7-0.7s-0.3-0.7-0.9-0.7l0,0h-1v2.5h0.4v-1.1h0.4l0.7,1.1h0.4L198.1,61.4
		L198.1,61.4L198.1,61.4z M197.3,61.1v-0.8h0.5l0,0c0.3,0,0.6,0.1,0.6,0.4c0,0.4-0.3,0.4-0.6,0.4l0,0L197.3,61.1L197.3,61.1
		L197.3,61.1z"/>
	<path class="st3" d="M197.8,59c-1.2,0-2.2,0.9-2.2,2.2s1,2.2,2.2,2.2s2.2-0.9,2.2-2.2C200,60,199,59,197.8,59L197.8,59L197.8,59
		L197.8,59z M197.8,63.1c-1,0-1.8-0.8-1.8-1.8s0.8-1.8,1.8-1.8s1.8,0.8,1.8,1.8S198.8,63.1,197.8,63.1L197.8,63.1L197.8,63.1
		L197.8,63.1z"/>
</g>
</svg>
