<?xml version="1.0" encoding="utf-8"?>
<!-- Generator: Adobe Illustrator 19.2.1, SVG Export Plug-In . SVG Version: 6.00 Build 0)  -->
<svg version="1.1" id="Layer_1" xmlns="http://www.w3.org/2000/svg" xmlns:xlink="http://www.w3.org/1999/xlink" x="0px" y="0px"
	 viewBox="0 0 235 119" style="enable-background:new 0 0 235 119;" xml:space="preserve">
<style type="text/css">
	.st0{display:none;}
	.st1{display:inline;fill:#4B4A4B;}
	.st2{fill:#9B9A9A;}
</style>
<g id="Background" class="st0">
	<rect class="st1" width="235" height="119"/>
</g>
<g id="Logos">
	<g id="XMLID_10224_">
		<g id="XMLID_10225_">
			<g id="XMLID_10226_">
				<polygon id="XMLID_10240_" class="st2" points="86.1,59.1 89.4,55.4 93.9,50.2 88.7,50.2 84.1,55.4 80.9,59.1 84.3,62.9 
					88.9,68.1 94.2,68.1 89.5,62.9 				"/>
				<g id="XMLID_10235_">
					<polygon id="XMLID_10239_" class="st2" points="42.6,60.8 50.9,60.8 50.9,57.3 42.6,57.3 42.6,54.1 52.8,54.1 52.8,50.6 
						38.6,50.6 38.6,68.1 53,68.1 53,64.6 42.6,64.6 					"/>
					<path id="XMLID_10238_" class="st2" d="M68.8,62.6c0,1.4-0.9,2.2-2.4,2.2h-3.5c-1.2,0-2.7-0.6-2.7-2.2V50.3h-4v12.3
						c0,4,3.3,5.7,6.7,5.7h3.5c3.8,0,6.4-2.3,6.4-5.7V50.3h-4V62.6z"/>
					<g id="XMLID_10236_">
						<rect id="XMLID_10237_" x="76.7" y="50.3" class="st2" width="4" height="17.8"/>
					</g>
				</g>
				<polygon id="XMLID_10234_" class="st2" points="98,68.1 100.2,63.5 105.5,63.5 103.9,60.2 101.7,60.2 103.7,56 109.5,68.1 
					113.8,68.1 105.2,50.3 102.2,50.3 94.6,66.3 96.3,68.1 				"/>
				<polygon id="XMLID_10233_" class="st2" points="192.4,68.1 196.7,68.1 188.1,50.3 185.1,50.3 176.6,68.1 180.9,68.1 183.1,63.5 
					188.3,63.5 186.8,60.2 184.6,60.2 186.6,56 				"/>
				<polygon id="XMLID_10232_" class="st2" points="129.6,61.6 119.6,50.3 116.2,50.3 116.2,68.1 120.2,68.1 120.2,56.7 130.2,68 
					130.3,68.1 133.6,68.1 133.6,50.3 129.6,50.3 				"/>
				<path id="XMLID_10231_" class="st2" d="M150.4,62.6c0,1.4-0.9,2.2-2.4,2.2h-3.5c-1.2,0-2.7-0.6-2.7-2.2V50.3h-4v12.3
					c0,4,3.3,5.7,6.7,5.7h3.5c3.8,0,6.4-2.3,6.4-5.7V50.3h-4V62.6z"/>
				<path id="XMLID_10227_" class="st2" d="M173.3,58.6c0.8-0.7,1.3-1.6,1.3-2.7v-0.6c0-3.3-2.1-5-6.2-5h-9.7v17.8h10.1
					c3.9,0,6.4-2,6.4-5.1v-0.6C175.3,60.6,174.6,59.3,173.3,58.6z M162.7,60.7h6.2c2.2,0,2.5,0.9,2.5,1.7V63c0,1-0.9,1.6-2.5,1.6
					h-6.2V60.7z M170.6,55.8c0,0.8-0.8,1.3-2.2,1.3h-5.7v-3.3h5.7c1.9,0,2.2,0.7,2.2,1.4V55.8z"/>
			</g>
		</g>
	</g>
</g>
<g id="legal" class="st0">
</g>
</svg>
