<?xml version="1.0" encoding="utf-8"?>
<!-- Generator: Adobe Illustrator 19.2.1, SVG Export Plug-In . SVG Version: 6.00 Build 0)  -->
<svg version="1.1" id="Layer_1" xmlns="http://www.w3.org/2000/svg" xmlns:xlink="http://www.w3.org/1999/xlink" x="0px" y="0px"
	 viewBox="0 0 235 119" style="enable-background:new 0 0 235 119;" xml:space="preserve">
<style type="text/css">
	.st0{display:none;}
	.st1{display:inline;fill:#4B4A4B;}
	.st2{fill:#9B9A9A;}
</style>
<g id="Background" class="st0">
	<rect class="st1" width="235" height="119"/>
</g>
<g id="Logos">
	<g>
		<path class="st2" d="M79,77.8h-0.7c-0.1,0-0.2,0.1-0.2,0.2v2.8h-3.7V78c0-0.1-0.1-0.2-0.2-0.2h-0.7c-0.1,0-0.2,0.1-0.2,0.2v6.7
			c0,0.1,0.1,0.2,0.2,0.2h0.7c0.1,0,0.2-0.1,0.2-0.2v-2.9h3.7v2.9c0,0.1,0.1,0.2,0.2,0.2H79c0.1,0,0.2-0.1,0.2-0.2V78
			C79.2,77.9,79.1,77.8,79,77.8z"/>
		<path class="st2" d="M106.7,77.8H106c-0.1,0-0.2,0.1-0.2,0.2v2.8h-3.7V78c0-0.1-0.1-0.2-0.2-0.2h-0.7c-0.1,0-0.2,0.1-0.2,0.2v6.7
			c0,0.1,0.1,0.2,0.2,0.2h0.7c0.1,0,0.2-0.1,0.2-0.2v-2.9h3.7v2.9c0,0.1,0.1,0.2,0.2,0.2h0.7c0.1,0,0.2-0.1,0.2-0.2V78
			C106.9,77.9,106.8,77.8,106.7,77.8z"/>
		<path class="st2" d="M61.8,77.8h-0.7c-0.1,0-0.2,0.1-0.2,0.2v2.8h-3.7V78c0-0.1-0.1-0.2-0.2-0.2h-0.7c-0.1,0-0.2,0.1-0.2,0.2v6.7
			c0,0.1,0.1,0.2,0.2,0.2H57c0.1,0,0.2-0.1,0.2-0.2v-2.9h3.7v2.9c0,0.1,0.1,0.2,0.2,0.2h0.7c0.1,0,0.2-0.1,0.2-0.2V78
			C62,77.9,61.9,77.8,61.8,77.8z"/>
		<path class="st2" d="M54.4,77.8h-1.8h-0.7H50c-0.1,0-0.2,0.1-0.2,0.2v0.5c0,0.1,0.1,0.2,0.2,0.2h1.6v5.9c0,0.1,0.1,0.2,0.2,0.2
			h0.7c0.1,0,0.2-0.1,0.2-0.2v-5.9h1.6c0.1,0,0.2-0.1,0.2-0.2V78C54.6,77.9,54.5,77.8,54.4,77.8z"/>
		<path class="st2" d="M68.6,78.8c0.1,0,0.2-0.1,0.2-0.2V78c0-0.1-0.1-0.2-0.2-0.2h-3.4h-0.6h-0.1c-0.1,0-0.2,0.1-0.2,0.2v6.7
			c0,0.1,0.1,0.2,0.2,0.2h0.1h0.6h3.4c0.1,0,0.2-0.1,0.2-0.2v-0.5c0-0.1-0.1-0.2-0.2-0.2h-3.2v-2.2h2.7c0.1,0,0.2-0.1,0.2-0.2V81
			c0-0.1-0.1-0.2-0.2-0.2h-2.7v-2H68.6z"/>
		<path class="st2" d="M169.1,78c0-0.1-0.1-0.2-0.2-0.2h-0.7c-0.1,0-0.2,0.1-0.2,0.2v4.7l-4.3-4.9c-0.1-0.1-0.3-0.1-0.4-0.1
			c-0.1,0-0.2,0.1-0.2,0.2v0.6v6.2c0,0.1,0.1,0.2,0.2,0.2h0.7c0.1,0,0.2-0.1,0.2-0.2V80l4.3,4.8c0.1,0.1,0.3,0.1,0.4,0.1
			c0.1,0,0.2-0.1,0.2-0.2V78z"/>
		<path class="st2" d="M146.8,77.9c-0.1-0.2-0.5-0.3-0.7,0l-2,5.3l-2-5.3c-0.1-0.3-0.6-0.2-0.7,0l-1.3,6.8c0,0.1,0.1,0.2,0.2,0.2
			h0.7c0.1,0,0.2-0.1,0.2-0.2l0.8-4.5l1.7,4.5c0,0.1,0.1,0.1,0.1,0.2c0.1,0.1,0.2,0.2,0.3,0.2l0,0l0,0c0.1,0,0.2,0,0.3-0.2
			c0,0,0.1-0.1,0.1-0.2l1.7-4.5l0.8,4.5c0,0.1,0.1,0.2,0.2,0.2h0.7c0.1,0,0.2-0.1,0.2-0.2L146.8,77.9z"/>
		<path class="st2" d="M85.8,78.8c0.1,0,0.2-0.1,0.2-0.2V78c0-0.1-0.1-0.2-0.2-0.2h-3.4h-0.6h-0.1c-0.1,0-0.2,0.1-0.2,0.2v6.7
			c0,0.1,0.1,0.2,0.2,0.2h0.1h0.6h3.4c0.1,0,0.2-0.1,0.2-0.2v-0.5c0-0.1-0.1-0.2-0.2-0.2h-3.2v-2.2h2.7c0.1,0,0.2-0.1,0.2-0.2V81
			c0-0.1-0.1-0.2-0.2-0.2h-2.7v-2H85.8z"/>
		<path class="st2" d="M113.4,78.8c0.1,0,0.2-0.1,0.2-0.2V78c0-0.1-0.1-0.2-0.2-0.2H110h-0.6h-0.1c-0.1,0-0.2,0.1-0.2,0.2v6.7
			c0,0.1,0.1,0.2,0.2,0.2h0.1h0.6h3.4c0.1,0,0.2-0.1,0.2-0.2v-0.5c0-0.1-0.1-0.2-0.2-0.2h-3.2v-2.2h2.7c0.1,0,0.2-0.1,0.2-0.2V81
			c0-0.1-0.1-0.2-0.2-0.2h-2.7v-2H113.4z"/>
		<path class="st2" d="M91.7,81.9c0.8-0.3,1.4-1.1,1.4-2c0-1.1-0.9-2-2-2.1h-2.3h-0.3h-0.3c-0.1,0-0.2,0.1-0.2,0.2v6.7
			c0,0.1,0.1,0.2,0.2,0.2h0.7c0.1,0,0.2-0.1,0.2-0.2v-2.6h1.5l1.3,2.6c0.1,0.1,0.1,0.2,0.2,0.2h0.8c0.2,0,0.3-0.1,0.2-0.3L91.7,81.9
			z M89.1,81.2v-2.4h2l0,0l0,0l0,0c0.6,0,1.1,0.5,1.1,1.2c0,0.8-0.5,1.2-1.1,1.2l0,0l0,0C91.1,81.2,89.1,81.2,89.1,81.2z"/>
		<path class="st2" d="M154.6,79.9c0-1.1-0.9-2-2-2.1l0,0h-1.8h-0.4H150c-0.1,0-0.2,0.1-0.2,0.2v6.7c0,0.1,0.1,0.2,0.2,0.2h0.7
			c0.1,0,0.2-0.1,0.2-0.2v-2.6h1.7c0,0,0,0,0.1,0C153.8,82,154.6,81,154.6,79.9z M152.6,81.2C152.6,81.2,152.5,81.2,152.6,81.2
			L152.6,81.2H151v-2.4h1.6l0,0l0,0l0,0c0.6,0,1.1,0.5,1.1,1.2C153.6,80.7,153.2,81.2,152.6,81.2z"/>
		<path class="st2" d="M120.3,77.8h-0.8c-0.1,0-0.1,0-0.2,0.1l-1.8,2.6l-1.8-2.6c0-0.1-0.1-0.1-0.2-0.1h-0.8c-0.1,0-0.2,0.2-0.1,0.3
			l2.4,3.4v3.2c0,0.1,0.1,0.2,0.2,0.2h0.7c0.1,0,0.2-0.1,0.2-0.2v-3.2l2.4-3.4C120.6,78,120.5,77.8,120.3,77.8z"/>
		<path class="st2" d="M176.1,77.8h-0.8c-0.1,0-0.1,0-0.2,0.1l-1.8,2.6l-1.8-2.6c0-0.1-0.1-0.1-0.2-0.1h-0.8c-0.1,0-0.2,0.2-0.1,0.3
			l2.4,3.4v3.2c0,0.1,0.1,0.2,0.2,0.2h0.7c0.1,0,0.2-0.1,0.2-0.2v-3.2l2.4-3.4C176.3,78,176.2,77.8,176.1,77.8z"/>
		<path class="st2" d="M135.1,77.7c-2,0-3.6,1.6-3.6,3.6s1.6,3.6,3.6,3.6s3.6-1.6,3.6-3.6C138.8,79.3,137.1,77.7,135.1,77.7z
			 M135.1,84c-1.5,0-2.7-1.2-2.7-2.7s1.2-2.7,2.7-2.7s2.7,1.2,2.7,2.7S136.6,84,135.1,84z"/>
		<path class="st2" d="M127.6,84c-1.6,0-2.8-1.4-2.6-3c0.1-1.2,1.2-2.2,2.4-2.3c0.8-0.1,1.5,0.2,2,0.7c0.1,0.1,0.2,0.1,0.3,0
			l0.4-0.4c0.1-0.1,0.1-0.2,0-0.3c-0.7-0.6-1.7-1-2.7-0.9c-1.8,0.1-3.2,1.6-3.3,3.4c-0.1,2.1,1.5,3.9,3.6,3.9c0.9,0,1.8-0.4,2.5-1
			c0.1-0.1,0.1-0.2,0-0.3l-0.4-0.4c-0.1-0.1-0.2-0.1-0.3,0C129,83.7,128.3,84,127.6,84z"/>
		<path class="st2" d="M161.6,84.6l-2.5-5.6l-0.5-1c-0.1-0.3-0.5-0.4-0.7,0l-0.5,1l-2.5,5.6c-0.1,0.2,0,0.3,0.1,0.3h0.6
			c0.2,0,0.2-0.1,0.3-0.2l0.6-1.3h3.3l0.6,1.3c0.1,0.1,0.1,0.2,0.3,0.2h0.6C161.6,84.9,161.7,84.8,161.6,84.6z M157.1,82.4l1.2-2.8
			l1.2,2.8H157.1z"/>
		<path class="st2" d="M98.2,81.4c-0.7-0.4-1.7-0.7-2.1-1c-0.3-0.2-0.4-0.4-0.4-0.8c0-0.5,0.4-0.9,1-1c0.5,0,1,0.1,1.6,0.4
			c0.1,0.1,0.2,0,0.3,0l0.3-0.4c0.1-0.1,0.1-0.2,0-0.3c-0.6-0.5-1.4-0.6-2.2-0.6l0,0c-1,0-1.9,0.9-1.9,1.9c0,0.7,0.4,1.3,0.9,1.6
			c0.6,0.3,1.2,0.6,1.9,0.9c0.3,0.2,0.6,0.5,0.6,0.9c0,0.5-0.4,1-1,1l0,0l0,0c-0.8,0-1.4-0.3-1.9-0.7c-0.1-0.1-0.2,0-0.3,0l-0.3,0.5
			c-0.1,0.1-0.1,0.2,0,0.3c0.7,0.5,1.5,0.8,2.5,0.8c1.1,0,1.9-0.9,1.9-1.9C99.1,82.4,98.8,81.8,98.2,81.4z"/>
		<polygon class="st2" points="58.8,36.5 58.8,50.7 56.1,50.7 56.1,36.5 49.8,36.5 49.8,73.8 56.1,73.8 56.1,56 58.8,56 58.8,73.8 
			65.1,73.8 65.1,36.5 		"/>
		<polygon class="st2" points="74.3,68.3 74.3,56.3 79,56.3 79,51 74.3,51 74.3,41.9 79.3,41.9 79.3,36.5 68,36.5 68,73.8 
			79.6,73.8 79.6,68.3 		"/>
		<polygon class="st2" points="125,36.5 125,50.7 122.3,50.7 122.3,36.5 116,36.5 116,73.7 122.3,73.7 122.3,56 125,56 125,73.7 
			131.3,73.7 131.3,36.5 		"/>
		<polygon class="st2" points="140.5,68.3 140.5,56.3 145.2,56.3 145.2,51 140.5,51 140.5,41.9 145.5,41.9 145.5,36.5 134.2,36.5 
			134.2,73.7 145.8,73.7 145.8,68.3 		"/>
		<path class="st2" d="M96.5,68v-8.9c0-2.7-0.8-5-3-5.5l0,0c1.9-0.5,3.1-2.1,3.1-5.5v-5.7c0-3.7-2.3-5.8-5.4-5.8h-3.3h-4.7h-1.5
			v37.3h6.2V56.2H89c0.9,0,1.4,0.5,1.4,1.6c-0.1,7-0.4,14.4,0.8,15.9h7.5C97.6,72.5,96.5,70.6,96.5,68z M90.7,50.1
			c0,0.7-0.6,1.3-1.3,1.3h-1.2V42h1.2c0.7,0,1.3,0.6,1.3,1.3V50.1z"/>
		<polygon class="st2" points="162.4,36.5 157.2,36.5 155.3,50.5 153.3,36.5 146.9,36.5 151.4,62.3 151.4,73.7 157.8,73.7 
			157.8,62.3 		"/>
		<path class="st2" d="M110.8,54.6l-3.3-3.7c-1.2-1.3-2.3-2.5-2.4-4.8c0,0,0-3.1,0-3.2c0-0.9,0.6-1.2,1.3-1.2s1.2,0.4,1.2,1.3v5.4
			h5.9v-6.1l0,0c-0.1-3.8-2.3-6.2-7-6.2c-4.1,0-7.3,2.1-7.3,6.2V47c0,4,1.8,5.8,3.3,7.7l3.4,3.9c1.2,1.3,1.7,2,1.8,4.3v4.7l0,0
			c0,0.7-0.6,1.3-1.3,1.3c-0.7,0-1.3-0.6-1.3-1.3c0,0,0-4.6,0-5.9v-0.3v-0.9H99v7.7l0,0c0.1,3.8,3.1,6.2,7.2,6.2s7.5-2.3,7.5-6.4
			v-5.5C113.6,58.2,112.2,56.4,110.8,54.6z"/>
		<path class="st2" d="M174.8,64.3c-2.4-2.3-4.7-4.9-5.2-7.9c0-0.2-0.2-0.3-0.3-0.3s-0.3,0.1-0.3,0.3c-0.5,3.1-2.8,5.6-5.2,7.9
			c-5.1,4.4-3.3,9.3,0,9.3h5.5h5.5C178.1,73.7,179.8,68.8,174.8,64.3z"/>
		<path class="st2" d="M177,46.4c-5.7,0.9-7.9,2.6-8,6.2v1.9l0,0l0,0c0,0.1,0.1,0.2,0.2,0.2c0.1,0,0.2-0.1,0.2-0.1l0,0
			c1.3-2.1,2.8-3,6.2-3.5c4.5-0.6,8.3-1.4,9.7-3.1v-5.1C184.1,44.8,180.5,45.7,177,46.4z"/>
	</g>
</g>
<g id="legal" class="st0">
</g>
</svg>
