<?xml version="1.0" encoding="utf-8"?>
<!-- Generator: Adobe Illustrator 19.2.1, SVG Export Plug-In . SVG Version: 6.00 Build 0)  -->
<svg version="1.1" id="Layer_1" xmlns="http://www.w3.org/2000/svg" xmlns:xlink="http://www.w3.org/1999/xlink" x="0px" y="0px"
	 viewBox="0 0 235 119" style="enable-background:new 0 0 235 119;" xml:space="preserve">
<style type="text/css">
	.st0{display:none;}
	.st1{display:inline;fill:#4B4A4B;}
	.st2{fill:#9B9A9A;}
	.st3{display:inline;fill:#9B9A9A;}
</style>
<g id="Background" class="st0">
	<rect class="st1" width="235" height="119"/>
</g>
<g id="Logos">
	<g id="XMLID_138_">
		<g id="XMLID_139_">
			<path id="XMLID_146_" class="st2" d="M141,78.1L141,78.1V52.4h-3.8v25.8l0,0c0,0.7,0.3,4.9,2.4,5.4h4.1
				C140.9,82.8,141,78.1,141,78.1L141,78.1z M96.5,73.4c-0.5-2.5-2.2-4.4-5-5.5l-7.6-2.2c-2.6-0.9-4.1-2.1-4.4-3.7l-0.1-0.9
				c0-1.5,0.5-2.7,1.5-3.6c1-0.9,2.5-1.3,4.4-1.4c3.2,0,5.4,1.1,6.4,3.4v0.1h3.7l-0.1-0.2c-1.3-4.6-4.7-6.9-10.1-6.8
				c-3,0-5.4,0.8-7.1,2.4c-1.7,1.6-2.6,3.7-2.6,6.2c0,0.6,0,1.3,0.1,1.8c0.5,2.5,2.2,4.3,5,5.4l7.5,1.9c2.6,0.8,4.2,2,4.5,3.7
				c0.4,1.9-0.1,3.4-1.5,4.6c-1.3,1.1-3.1,1.7-5,1.7c-2,0-3.7-0.4-4.9-1.1l-0.5-0.3c-1.2-0.9-2-2.9-2.2-3.5v-0.1h-3.7l0.1,0.4
				c0.5,2.5,1.6,4.4,3.3,5.9c0.5,0.4,1,0.7,1.5,1c1.6,0.9,3.4,1.3,5.5,1.3c3.3,0,6-0.8,8-2.3c2.1-1.6,3.2-3.8,3.2-6.6
				C96.6,74.6,96.6,74,96.5,73.4L96.5,73.4z M145.2,67.9V45.4h3.8v7.1h6.4v3h-2.6l0,0c-3.1,0.1-3.7,2.6-3.8,3.6v0.2
				c0,1.4-0.3,10.9-0.1,16.1c0.1,1.9,0.6,3.2,0.7,3.4c0.6,1.3,1.8,1.9,3.5,1.9c0.7,0,1.4-0.1,2.2-0.3v3.3c-0.9,0.1-2,0.2-3.2,0.2
				c-4.7,0-7-2.7-7-8.1L145.2,67.9z M124.8,55.6v28.1h3.8V55.6h6.4v-3h-2.6l0,0c-3.1-0.1-3.7-2.6-3.8-3.6v-0.2c0-1.9,0.2-3.2,0.6-4
				c0.6-1.3,1.8-1.9,3.5-1.9c0.7,0,1.4,0.1,2.2,0.3v-3.3c-0.9-0.2-2-0.2-3.2-0.2c-4.7,0-7,2.7-7,8.1L124.8,55.6z M118.7,64
				c-1-5.2-3.8-7.8-8.5-7.8c-3,0-5.3,1.3-6.8,3.7c-1.4,2.2-2,4.9-2.1,8.3c0,1.4,0.1,2.7,0.3,3.9c0.5,2.5,1.5,4.5,2.9,5.9
				c1.5,1.4,3.3,2.1,5.6,2.1c3.6,0,6.1-1.8,7.6-5.4C119.2,71.6,119.5,68,118.7,64L118.7,64z M110.2,83.7c-3,0-5.6-0.9-7.7-2.7
				c-2.3-1.9-3.7-4.6-4.4-8.2c-0.3-1.4-0.4-2.9-0.4-4.5c0-4.5,1-8.2,3.1-11c2.2-3.1,5.4-4.6,9.4-4.6c3.3,0,6,1,8.1,3
				c2,1.9,3.3,4.5,3.9,7.8c0.3,1.4,0.4,3,0.4,4.6c0,4.7-1.1,8.4-3.4,11.3C117,82.2,114,83.7,110.2,83.7L110.2,83.7z M141.6,47.6
				c0,1.4-1.1,2.5-2.4,2.5c-1.3,0-2.4-1.1-2.4-2.5s1.1-2.5,2.4-2.5C140.5,45.2,141.6,46.3,141.6,47.6L141.6,47.6z"/>
		</g>
	</g>
</g>
<g id="legal" class="st0">
	<path id="XMLID_437_" class="st3" d="M157.8,82.6h0.3c0.2,0,0.3,0,0.3,0s0.1,0,0.1-0.1v-0.1c0-0.1,0-0.1-0.1-0.1l-0.1-0.1
		c0,0-0.1,0-0.3,0h-0.3v0.4H157.8z M157.4,83.7v-1.8h0.8c0.2,0,0.3,0,0.4,0.1c0.1,0,0.2,0.1,0.2,0.2c0.1,0.1,0.1,0.2,0.1,0.3
		c0,0.1,0,0.3-0.1,0.3c-0.1,0.1-0.2,0.1-0.4,0.2c0.1,0,0.1,0.1,0.2,0.2c0,0.1,0.1,0.2,0.2,0.3l0.2,0.4h-0.4l-0.3-0.4
		c-0.1-0.1-0.2-0.2-0.2-0.3l-0.1-0.1c0,0-0.1,0-0.2,0h-0.1v0.8h-0.3V83.7z M156.6,82.7c0-0.8,0.7-1.5,1.5-1.5s1.5,0.7,1.5,1.5
		s-0.7,1.5-1.5,1.5S156.6,83.5,156.6,82.7L156.6,82.7z M156.3,82.7c0,1,0.8,1.8,1.8,1.8s1.8-0.8,1.8-1.8s-0.8-1.8-1.8-1.8
		C157.1,80.9,156.3,81.7,156.3,82.7L156.3,82.7z"/>
</g>
</svg>
