<?xml version="1.0" encoding="utf-8"?>
<!-- Generator: Adobe Illustrator 19.2.1, SVG Export Plug-In . SVG Version: 6.00 Build 0)  -->
<svg version="1.1" xmlns="http://www.w3.org/2000/svg" xmlns:xlink="http://www.w3.org/1999/xlink" x="0px" y="0px"
	 viewBox="0 0 235 119" style="enable-background:new 0 0 235 119;" xml:space="preserve">
<style type="text/css">
	.st0{display:none;}
	.st1{display:inline;fill:#4B4A4B;}
	.st2{fill:#9B9A9A;}
	.st3{opacity:0.35;fill:#9B9A9A;}
	.st4{opacity:0.25;fill:#9B9A9A;}
	.st5{fill-rule:evenodd;clip-rule:evenodd;fill:#9B9A9A;}
	.st6{fill:none;stroke:#9B9A9A;stroke-width:0.4311;stroke-miterlimit:10;}
	.st7{fill:none;}
	.st8{display:inline;fill:#9B9A9A;}
	.st9{display:inline;fill-rule:evenodd;clip-rule:evenodd;fill:#9B9A9A;}
	.st10{display:inline;}
</style>
<g id="Background" class="st0">
	<rect class="st1" width="235" height="119"/>
</g>
<g id="Logos">
	<g id="XMLID_284_">
		<g id="XMLID_289_">
			<g id="XMLID_292_">
				<polygon id="XMLID_345_" class="st2" points="86,59.2 89.3,55.5 93.9,50.4 88.7,50.4 84.1,55.5 80.8,59.2 84.2,63 88.9,68.3 
					94.1,68.3 89.4,63 				"/>
				<g id="XMLID_317_">
					<polygon id="XMLID_344_" class="st2" points="42.5,60.9 50.8,60.9 50.8,57.4 42.5,57.4 42.5,54.2 52.7,54.2 52.7,50.7 
						38.6,50.7 38.6,68.2 52.9,68.2 52.9,64.7 42.5,64.7 					"/>
					<path id="XMLID_343_" class="st2" d="M68.8,62.7c0,1.4-0.9,2.2-2.4,2.2h-3.5c-1.2,0-2.7-0.6-2.7-2.2V50.4h-4v12.3
						c0,4,3.3,5.7,6.7,5.7h3.5c3.8,0,6.4-2.3,6.4-5.7V50.4h-4V62.7z"/>
					<g id="XMLID_327_">
						<rect id="XMLID_342_" x="76.7" y="50.4" class="st2" width="4" height="17.8"/>
					</g>
				</g>
				<polygon id="XMLID_316_" class="st2" points="98,68.3 100.2,63.7 105.4,63.7 103.9,60.3 101.7,60.3 103.7,56.1 109.5,68.3 
					113.7,68.3 105.2,50.4 102.2,50.4 94.6,66.4 96.2,68.3 				"/>
				<polygon id="XMLID_315_" class="st2" points="192.3,68.3 196.6,68.3 188,50.4 185.1,50.4 176.5,68.3 180.8,68.3 183,63.7 
					188.3,63.7 186.7,60.3 184.5,60.3 186.5,56.1 				"/>
				<polygon id="XMLID_314_" class="st2" points="129.6,61.7 119.6,50.4 116.2,50.4 116.2,68.3 120.1,68.3 120.1,56.8 130.1,68.1 
					130.3,68.3 133.5,68.3 133.5,50.4 129.6,50.4 				"/>
				<path id="XMLID_313_" class="st2" d="M150.3,62.7c0,1.4-0.9,2.2-2.4,2.2h-3.5c-1.2,0-2.7-0.6-2.7-2.2V50.4h-4v12.3
					c0,4,3.3,5.7,6.7,5.7h3.5c3.8,0,6.4-2.3,6.4-5.7V50.4h-4V62.7z"/>
				<path id="XMLID_309_" class="st2" d="M173.2,58.7c0.8-0.7,1.3-1.6,1.3-2.7v-0.6c0-3.3-2.1-5-6.2-5h-9.7v17.8h10.1
					c3.9,0,6.4-2,6.4-5.1v-0.6C175.2,60.7,174.5,59.4,173.2,58.7z M162.6,60.8h6.2c2.2,0,2.5,0.9,2.5,1.7v0.6c0,1-0.9,1.6-2.5,1.6
					h-6.2V60.8z M170.5,55.9c0,0.8-0.8,1.3-2.2,1.3h-5.7V54h5.7c1.9,0,2.2,0.7,2.2,1.4V55.9z"/>
			</g>
		</g>
	</g>
	<rect x="0.1" y="-0.1" class="st7" width="235" height="119"/>
</g>
<g id="legal" class="st0">
</g>
</svg>
