<?xml version="1.0" encoding="utf-8"?>
<!-- Generator: Adobe Illustrator 19.2.1, SVG Export Plug-In . SVG Version: 6.00 Build 0)  -->
<svg version="1.1" xmlns="http://www.w3.org/2000/svg" xmlns:xlink="http://www.w3.org/1999/xlink" x="0px" y="0px"
	 viewBox="0 0 235 119" style="enable-background:new 0 0 235 119;" xml:space="preserve">
<style type="text/css">
	.st0{display:none;}
	.st1{display:inline;fill:#4B4A4B;}
	.st2{fill:#9B9A9A;}
	.st3{opacity:0.35;fill:#9B9A9A;}
	.st4{opacity:0.25;fill:#9B9A9A;}
	.st5{fill-rule:evenodd;clip-rule:evenodd;fill:#9B9A9A;}
	.st6{fill:none;stroke:#9B9A9A;stroke-width:0.4311;stroke-miterlimit:10;}
	.st7{fill:none;}
	.st8{display:inline;fill:#9B9A9A;}
	.st9{display:inline;fill-rule:evenodd;clip-rule:evenodd;fill:#9B9A9A;}
	.st10{display:inline;}
</style>
<g id="Background" class="st0">
	<rect class="st1" width="235" height="119"/>
</g>
<g id="Logos">
	<g>
		<path id="XMLID_111_" class="st2" d="M119.1,26.9c0,0.2,0.2,0.4,0.2,0.6c0,0.1,0.1,0.2,0,0.4c-0.1,0.1-0.3,0.3-0.3,0.4
			c0.1,0.1,0.1,0.2,0.1,0.3c0.3,0.1,0.4-0.3,0.6-0.5c0.1,0,0.2-0.2,0.4-0.2c0.4,0.1,0.5,0.5,0.8,0.8c0.1,0.1,0,0.1,0,0.2
			c0,0.1-0.1,0.1-0.1,0.2c0.2,0.1,0.4,0.2,0.5,0.4c0.4,0.2,1-0.2,1.4,0.2c0.2,0,0.3,0.1,0.4,0.3c0.1,0.3-0.2,0.4-0.2,0.6
			c0,0.2,0.4,0.1,0.4,0.4c0,0.3,0.1,0.5,0.3,0.6c0.4,0.2,0.6-0.4,1-0.2c0.3,0,0.4,0.2,0.7,0.2c0.1,0.1,0.1,0.3,0.2,0.4
			c0.2,0.1,0.6,0.2,0.6,0.5c0,0.1-0.1,0.2-0.2,0.3c-0.2,0-0.2,0.4-0.5,0.4c-0.5,0-1.2-0.1-1.5,0.2c-0.2,0.1-0.7-0.1-0.7,0.3
			c0.3,0.2,0.7-0.1,1,0.2c0,0.1,0.1,0.2,0.2,0.3c0.3,0.1,0.5-0.4,0.8-0.3c0.6,0.1,1.2-0.1,1.8-0.3c0.2,0,0.3,0,0.5,0.1
			c0,0.4,0.4,0.5,0.6,0.7c0,0.1,0.2,0.2,0.1,0.4c-0.3,0.3-0.8,0.1-1.1,0.6c-0.2,0.1-0.4,0-0.6,0.2c0,0.1-0.1,0.2-0.1,0.3
			c-0.2,0.2-0.4,0.2-0.6,0.3c0,0.1-0.1,0.1,0,0.2c0.3,0,0.5,0.4,0.8,0.1c0.2,0,0.4,0.1,0.6,0.3c0,0.1,0,0.1,0.1,0.2
			c0.2,0.1,0.5,0.1,0.6,0.3c0.4-0.1,0.8,0,1.1,0.3c0.1,0.2,0.5,0.4,0.3,0.7c-0.2,0.1-0.4,0.1-0.6,0.2c-0.4,0-0.9,0.2-1.2-0.1
			c-0.1-0.1-0.1-0.2-0.2-0.3c-0.3-0.1-0.5,0.1-0.7,0.2c-0.1,0.3-0.5,0.4-0.4,0.8c-0.1,0.4-0.6,0.2-0.9,0.4c-0.1,0-0.2,0.1-0.3,0
			c-0.1-0.2-0.3-0.3-0.5-0.4c-0.2,0.1-0.4,0.3-0.7,0.3c-0.1,0.1-0.2,0.1-0.3,0.2c0,0.1,0.1,0.2,0.2,0.3c0.3,0,0.6-0.1,0.9-0.1
			c0.4,0.2,0.7-0.3,1.1-0.3c0.5,0.2,0.8-0.5,1.3-0.1c0.2,0.2,0.4,0.1,0.6,0.1c0.1-0.1,0.2-0.3,0.4-0.3c0.3,0,0.5,0.2,0.8,0.1
			c0.1,0,0.2,0.1,0.3,0.3c-0.1,0.3-0.4,0.4-0.7,0.7c-0.1,0.1-0.3,0.1-0.5,0c-0.1-0.1-0.2-0.1-0.3-0.1c-0.1,0.1-0.2,0.2-0.2,0.3
			c0,0.3,0.2,0.1,0.4,0.2c0.3,0.1,0.5-0.2,0.7-0.3c0.3,0.1,0.8-0.2,0.8,0.3c0,0.2,0.1,0.4,0.3,0.5c0,0.1,0.1,0.2,0,0.2
			c-0.1,0.3-0.5,0.2-0.4,0.5c-0.1,0,0,0.1-0.1,0.2c-0.1,0.1-0.1,0.2-0.2,0.3c0,0,0,0,0,0v0c0.3,0.1,0.6,0,0.8,0.3
			c0.1,0.1,0,0.3,0,0.4c-0.3,0.2-0.3,0.5-0.3,0.8c0,0.1-0.1,0.2-0.1,0.3c-0.4,0.1-0.7,0.5-1.1,0.3c-0.3-0.1-0.7,0.1-1,0
			c-0.2-0.1-0.5-0.4-0.8-0.2c-0.4,0.1-0.6,0.5-1.1,0.3c-0.2,0.2,0.3,0.3,0.2,0.5c0,0.2-0.1,0.5-0.3,0.5c-0.2,0.1-0.5,0-0.7,0.2
			c-0.4,0.1-1-0.3-1.2,0.2c-0.5,0.1-1.1-0.3-1.4,0.4c-0.3,0.3-0.6,0.6-0.6,1.1c-0.1,0.3-0.3,0.6-0.5,0.8c-0.1,0.5-0.1,1-0.2,1.4
			c-0.1,0.2,0,0.5,0.1,0.7c0.9,0.1,1.7,0.1,2.6,0.2c1-0.1,1.9-0.3,2.9-0.1c0.9,0.1,1.8,0.1,2.6,0.2c0.3,0,0.7-0.2,1,0
			c0.3,0.1,0.7,0.1,1.1,0.1c0.6,0.2,1.4,0.2,2.1,0.2c0.7,0.2,1.4,0.4,2.1,0.5c0.7,0.3,1.4,0.1,2,0.5c0.8,0.4,1.8,0.6,2.7,0.8
			c0.4,0,0.7,0.1,1,0.3c0.2,0.2,0.2,0.4,0.4,0.6c0,0.2-0.2,0.4-0.4,0.4c-0.4,0.1-0.8,0.2-1.3,0.3c-1.1,0.4-2.3,0.4-3.4,0.7
			c-0.1,0.1-0.2,0-0.3,0.1c-0.2,0-0.3,0.1-0.5,0.1c-0.8,0.1-1.5,0.4-2.3,0.4c-0.1,0.1,0,0.1,0,0.2c0.8,0.3,1.7,0.4,2.5,0.8
			c0.7,0.4,1.6,0.4,2.3,0.9c0.8,0.3,2,0.1,2.8,0.7c0.7,0.4,1.4,0.8,2.1,1.1c0.3,0.2,0.4,0.6,0.7,0.8c0.2,0.3-0.2,0.4-0.2,0.7
			c-0.5,0.5-1.2,0.3-1.9,0.5c-0.5,0.1-0.9,0.4-1.4,0.5c-0.4,0.3-0.9,0.4-1.4,0.6c-0.6,0.1-1.1-0.2-1.6,0c-0.7,0.7-1.8,0-2.5,0.5
			c-0.1,0-0.1,0.1-0.2,0.1c-0.6,0.2-1.2,0.7-1.9,0.6c-0.3,0.1-0.6,0.2-1,0.1c-0.2-0.1,0-0.3-0.2-0.4c-0.3-0.1-0.4,0.3-0.7,0.3
			c-0.5,0-0.8,0.2-1.2,0.4c-0.4,0.1-0.7,0-1,0.1c-0.9-0.1-1.6,0.2-2.4,0.2c-0.9,0.1-2,0-2.9,0.2c-0.2,0.1-0.5-0.1-0.7-0.2
			c0-0.1,0.1-0.2,0.2-0.2c0.3-0.1,0.6,0,0.8-0.1c0.8,0.1,1.4-0.3,2.1-0.2c0.7-0.1,1.4-0.4,2-0.7c0.6-0.1,1.3-0.2,2-0.3
			c0.4-0.1,0.8-0.1,1.2-0.3c0.9-0.2,1.7-0.5,2.6-0.7c0.9-0.2,1.7-0.7,2.6-0.9c0.7,0.1,1.3-0.2,2-0.3c0.5-0.2,1.1-0.4,1.7-0.5
			c0.7,0,1.4-0.4,2.1-0.3c0,0,0.1-0.1,0.1-0.2c-0.5-0.4-1.1-0.4-1.6-0.8c-0.8-0.7-2.1-0.5-3-1c-1.1-0.5-2.3-0.8-3.5-1.3
			c-0.6,0-1.1-0.5-1.8-0.4c-1,0.2-1.9-0.6-3.1-0.5c-0.5-0.1-1.1-0.1-1.2-0.7c-0.1,0,0-0.1,0-0.1c0.8-0.7,1.8-0.4,2.8-0.6
			c0.9-0.2,1.8-0.5,2.9-0.4c0.7,0,1.3-0.3,2-0.4c0.1-0.1,0.2,0,0.3,0c0.5-0.1,0.9,0,1.4-0.1c0.4-0.1,0.8-0.1,1.2-0.2
			c0.1,0,0.1-0.1,0.1-0.1c-0.1,0-0.2-0.1-0.3-0.1c-0.6-0.3-1.2-0.4-1.8-0.5c-0.7-0.4-1.6-0.3-2.5-0.6c-0.3-0.1-0.6,0-0.8-0.3
			c-0.5,0-1-0.1-1.5-0.1c-0.7-0.3-1.6,0.1-2.3-0.1c-0.6,0-1.3-0.1-1.9-0.1c-0.3-0.2-0.6,0.1-0.9,0.2c-0.6,0-1.3,0-1.9,0.1
			c-0.2,0-0.4-0.1-0.6-0.1l-3-0.1c0,0.3,0,0.6,0,0.8c0,0.1,0,0.4,0.2,0.4c0,0,0,0,0,0.1c0.2,0.2,0.5,0,0.7,0.3
			c0.1,0.1,0.2,0.1,0.2,0.2c-0.1,0.3-0.6,0.2-0.6,0.5c-0.1,0.1-0.2,0.2-0.4,0.2c-0.1,0-0.1,0.1-0.1,0.2c0.1,0,0.2,0.1,0.2,0.2
			c-0.1,0.1,0,0.2,0.1,0.3c-0.1,0.2-0.3,0.4-0.5,0.4c-0.2,0.5-0.9,0.2-1.2,0.5l-0.1,0c0.5,0.2,0.9-0.2,1.4,0c0.2,0,0.4,0.2,0.4,0.4
			c0,0.1-0.1,0.2-0.2,0.2c-0.7,0.1-1.2,0.4-2,0.3c-0.4,0-1,0.1-1.4-0.1c-0.4-0.1-0.9-0.2-1.2,0.1c-0.5,0.1-0.8,0-1.3,0
			c-0.2-0.1-0.2-0.4-0.2-0.6c0.4-0.2,0.9-0.4,1.5-0.3c0.2-0.2,0.5,0,0.8-0.1c0-0.4-0.5-0.3-0.6-0.6c0-0.2,0.1-0.2,0.3-0.3
			c0.4-0.2,0.8,0.1,1.1,0c0-0.1,0-0.1-0.1-0.2c-0.2,0-0.4,0-0.5-0.2c0.1-0.1,0-0.3,0.1-0.4c0.2-0.2,0.6,0,0.7-0.2
			c-0.2,0-0.4-0.1-0.6-0.3c0-0.3,0.4-0.2,0.3-0.5c0.1-0.2,0.5-0.1,0.6-0.4c0-0.3,0.2-0.5,0.2-0.8c0,0,0,0,0-0.1
			c-0.7,0-1.4-0.3-2.1,0c-0.4,0-0.9-0.1-1.3-0.1c-0.5,0.1-0.9-0.2-1.4,0c-0.4,0.2-0.8-0.1-1.2-0.2c-1-0.1-2.1-0.1-3-0.2
			c-0.3,0-0.6,0.1-0.9,0.1c-0.8-0.5-1.6,0.1-2.4-0.2c-0.4-0.2-0.9-0.2-1.4-0.2c-0.1,0-0.2,0-0.2-0.2c-0.1-0.2,0.1-0.2,0.2-0.2
			c0.8-0.1,1.6,0.1,2.4,0.1c0.4,0.1,0.7-0.3,1.2-0.2c0.7,0,1.3-0.2,2-0.1c0.5,0.2,1.1,0,1.6,0.1c1.1-0.2,2.2,0.2,3.3,0.3
			c0.4-0.1,0.8,0,1.2-0.1c0.7,0,1.4,0.1,2.1,0.1c0.1-0.5,0.2-1,0.2-1.5l0,0c0.2-0.7-0.2-1.3-0.5-1.8c-0.3-0.3-0.7,0-1-0.4
			c-0.3-0.2-0.7,0.2-1-0.1c-0.3,0-0.6-0.2-0.9-0.1c-0.2,0-0.2,0.3-0.4,0.2c-0.2,0.1-0.3,0-0.5,0c-0.4,0.1-0.6-0.3-1,0
			c-0.1,0-0.1-0.1-0.2-0.1c0-0.1,0.1-0.2,0.1-0.3c0.1-0.2,0.4-0.1,0.3-0.4c-0.1-0.1-0.3-0.2-0.3-0.3c0-0.1,0-0.2,0.1-0.2
			c0.2,0,0.3-0.3,0.5-0.3c0.1-0.1-0.2-0.2-0.2-0.3c-0.3-0.1-0.6-0.3-0.9-0.2c0,0-0.1,0.1,0,0.1c0.2,0.2,0.2,0.4,0.4,0.6
			c0,0.1,0,0.3-0.2,0.4c-0.1,0.1-0.2,0.1-0.3,0.2c-0.3-0.1-0.5,0.2-0.7,0.4c-0.4-0.1-0.4,0.4-0.7,0.4c-0.2,0-0.5,0.1-0.6-0.2l0-0.1
			c-0.4-0.1-0.9,0.4-1.2-0.1c0-0.2,0.2-0.4,0-0.5c-0.1-0.2,0-0.3,0.1-0.4c0-0.1,0.1-0.3,0.3-0.3c0.1,0,0.3,0.2,0.4,0
			c0-0.3,0.3-0.5,0.3-0.8c0.3-0.3,0.7,0.1,0.9-0.2c0.3,0,0.5,0.4,0.7,0.1c0.1-0.1,0.4,0,0.5-0.1c-0.2-0.1-0.5-0.2-0.5-0.4
			c-0.1-0.1-0.3,0-0.5,0c-0.3,0-0.6,0.1-0.9,0c-0.1-0.1,0-0.2,0-0.3c0.2-0.1,0.2-0.4,0.5-0.5c0.2-0.2,0.6-0.1,0.8-0.4
			c0.1,0,0.2,0,0.3-0.1c0-0.3,0.4-0.3,0.5-0.5c0-0.1,0-0.1,0-0.1c-0.4-0.1-0.7,0.2-1.1,0c-0.1,0,0,0.2-0.1,0.2
			c-0.4,0.2-0.4,0.8-1,0.9c-0.2,0-0.4-0.1-0.5,0c-0.1,0.4-0.6,0.1-0.8,0.2c-0.3,0.1-0.4-0.5-0.7-0.2c0,0.2-0.2,0.3-0.2,0.5
			c-0.2,0.1-0.5-0.1-0.7,0.2c-0.1,0-0.2,0.1-0.3,0.1c-0.3-0.1-0.2-0.4-0.3-0.6c0.2-0.2,0.5-0.3,0.8-0.5c0.1-0.1,0.3,0,0.4,0l0.1-0.3
			c0-0.2-0.3-0.4-0.1-0.5c0.1-0.5,0.7-0.6,1.1-0.6c0.1,0,0.2,0.1,0.3,0.1c0.3,0,0.5-0.1,0.8,0.1c0.1,0.2,0.3,0.4,0.2,0.6
			c0,0.1,0.1,0.1,0.2,0.1c0.1-0.1,0.2-0.2,0.2-0.4c-0.1-0.3-0.4-0.6-0.1-0.8c0-0.1,0-0.1,0-0.2c-0.1-0.1-0.2-0.1-0.3,0
			c-0.1,0.2-0.3,0.1-0.5,0.1c0-0.4-0.5-0.1-0.6-0.5c-0.1,0-0.2,0.1-0.3,0.1c-0.1,0-0.4,0-0.5-0.2c0-0.2,0-0.3,0.2-0.4
			c0.1-0.1,0.3-0.1,0.2-0.2c-0.1-0.1-0.3,0.1-0.5,0c-0.3,0.3-0.7,0.4-1.1,0.4c-0.1,0-0.2-0.1-0.2-0.2c-0.1-0.1,0-0.2,0-0.3
			c0-0.3-0.1-0.5,0.1-0.7c0.1-0.1,0.2-0.1,0.3-0.1c0.2-0.1,0.3-0.3,0.6-0.4c0.4,0.1,0.7,0.1,1-0.1c0.2-0.4,0.7-0.2,1-0.3
			c0.4,0,0.6,0.3,0.9,0.5c0.1,0.1,0.2-0.1,0.2-0.1c0.4-0.1,0.8,0,1.2,0.2c0.1,0,0.3,0.1,0.3,0c0-0.2-0.3-0.3-0.5-0.4
			c-0.3,0.1-0.3-0.3-0.6-0.2c-0.3,0-0.5,0.2-0.8,0c-0.1-0.2-0.4-0.3-0.4-0.6l0-0.1c-0.1,0-0.3,0.1-0.4,0c-0.2-0.1-0.1-0.3-0.3-0.3
			c-0.2,0-0.5,0.2-0.6-0.1c-0.1-0.1-0.2-0.1-0.3-0.2c0.2-0.3-0.3-0.5,0-0.8c0.2-0.3,0.5-0.6,0.8-0.6c0.2-0.4,0.7-0.4,1.1-0.4
			c0.2,0.1,0,0.5,0.3,0.5c0.1,0.1,0.3,0.2,0.4,0.4c-0.1,0.1,0,0.3,0,0.4c0.2,0,0.3,0,0.5,0.1c0.1-0.2,0.1-0.4,0.3-0.6
			c0.1-0.2-0.2-0.2-0.3-0.3c-0.3,0-0.6,0.3-0.7-0.1c0-0.1-0.1-0.2-0.2-0.3c0-0.1,0.1-0.2,0.1-0.4c-0.2-0.1-0.5,0.1-0.7-0.2
			c0,0-0.1-0.1-0.1-0.1c0-0.1,0-0.1,0-0.2c-0.1-0.2-0.5-0.3-0.3-0.6c0.1-0.3,0.4-0.2,0.7-0.3c0,0,0.1,0,0.1,0c0-0.2,0.3-0.3,0.5-0.4
			c0.3-0.2,0.5,0.3,0.8,0.2c0.1-0.1,0.2-0.2,0.2-0.4c0-0.1-0.2,0-0.3-0.1c-0.1,0.1-0.1,0.1-0.2,0c-0.1-0.1-0.1-0.2-0.2-0.4
			c0-0.2,0.1-0.3,0.2-0.5c0.2-0.1,0.5-0.1,0.6-0.4c0-0.2,0.1-0.3,0.1-0.5c0.4-0.3,0.5-1,1.2-0.9c0.1,0,0.4,0.1,0.5-0.1
			c0-0.4,0.5-0.2,0.7-0.3c0.1,0.1,0.3,0.2,0.5,0.1c0.1,0,0.2-0.1,0.4-0.2l0.4,0c0.1-0.2-0.2-0.4-0.1-0.6c0.1-0.1,0.2-0.3,0.4-0.3
			c0-0.2-0.1-0.4,0-0.6c-0.1-0.2,0.3-0.3,0.4-0.4c0.2,0,0.3-0.1,0.4-0.2c0-0.1,0.1-0.2,0.1-0.2c0.2-0.1,0.4-0.3,0.7-0.2
			C118.8,26.7,119,26.8,119.1,26.9 M115.8,28c-0.2,0-0.2,0.2-0.3,0.2c-0.1,0.1-0.4,0.1-0.3,0.4c0.1,0.3,0.4,0.1,0.6,0.3
			c0.3,0.1,0.6-0.2,0.8-0.3c0.2-0.1-0.1-0.3-0.1-0.4C116.3,28.1,116,28,115.8,28 M109.6,43.5c-0.2-0.1-0.2,0.1-0.4,0.2
			c-0.1,0.1-0.3,0.1-0.4,0.2c-0.1,0.2-0.3,0.3-0.3,0.5c0.3,0,0.3,0.4,0.6,0.3c0.3-0.1,0.5-0.2,0.8-0.3c0.1,0,0.2-0.2,0.3-0.1
			c0.2,0,0.1-0.3,0.2-0.4c-0.1-0.2-0.3-0.2-0.5-0.2C109.9,43.6,109.8,43.5,109.6,43.5 M101.2,50.6c-0.8-0.3-1.7-0.1-2.5,0
			c-1,0.2-2-0.2-3,0c-0.6-0.1-1.3,0-1.9,0l-0.2,0c-0.1,0.1-0.3,0.1-0.4,0.2c0.4,0.3,0.9,0.3,1.3,0.4c1,0.2,2.1-0.2,3.1-0.1
			c0.8,0.2,1.6-0.2,2.3,0.1c0.7,0.2,1.2-0.2,1.8-0.1c0.5,0.1,1,0.1,1.5,0.2c0.2-0.2,0.5,0,0.7-0.3c0,0,0,0,0-0.1
			c-0.2-0.2-0.6-0.1-0.8-0.2c-0.4,0.2-0.9-0.1-1.4-0.1L101.2,50.6z M117.3,57c-0.8,0.2-1.7,0.2-2.5,0.2c-0.8,0.1-1.5-0.1-2.3-0.1
			c-0.4,0.2-0.9,0.2-1.4,0.2c-0.1,0-0.2,0.2-0.1,0.3c0.1,0,0.2,0.1,0.3,0.2c0.4-0.1,0.9,0,1.3,0.1c0.4,0.2,0.8,0.1,1.2,0.1
			c0.5,0.2,1.1,0.1,1.6,0c0.4,0.1,0.9,0,1.3,0.1c0.3,0,0.6-0.1,0.8-0.1c0.9-0.2,1.9,0.3,2.7-0.1c0.2-0.2,0.5,0,0.7-0.1
			c0.2,0,0.4,0,0.6,0c0.6,0.2,1.3,0.3,2,0.3c0.2-0.1,0.5-0.2,0.7-0.2c0.1-0.1,0.2-0.1,0.2-0.2c-0.1-0.1-0.1-0.2-0.2-0.2
			c-0.4,0-0.7-0.2-1.1-0.2c-0.8,0.1-1.4-0.1-2.2,0c-0.8-0.1-1.7,0-2.5,0C118,57.1,117.7,56.9,117.3,57 M120.7,58.2
			c-0.3,0.1-0.6,0.1-0.9,0.2c-0.4,0.1-0.7-0.3-1.1-0.1c-0.3,0.1-0.5-0.1-0.7-0.1c-0.9,0-1.7-0.2-2.6,0c-0.3,0-0.6,0.2-0.9,0.3
			c-0.2-0.3-0.7-0.3-1.1-0.3c-0.5,0-0.9,0.5-1.5,0.3c-0.5,0-1.2-0.2-1.6,0c-0.3,0.4-0.7,0.3-1,0.6c0,0.1,0,0.1,0.1,0.2
			c0.3,0.1,0.6,0.1,0.8,0c0.6-0.1,1.3,0,2,0c0.2,0,0.5,0.2,0.8,0.2c0.6-0.1,1.3-0.4,1.8,0v0.1c-0.1,0.3-0.6,0.1-0.8,0.1
			c-0.6,0.2-1.3-0.1-1.9,0.1c-0.6,0.1-1.2-0.1-1.7,0c-0.4,0.1-1,0.1-1.3-0.1c-0.6-0.1-1.1-0.3-1.6,0c-0.5,0.3-1.2,0.1-1.8,0.2
			c-0.1,0.1-0.3,0.1-0.4,0.3c0,0.1,0.1,0.1,0.1,0.2c0.4,0.2,0.9,0.1,1.3,0.4c0.9,0.1,1.8,0.2,2.7,0.2c0.2,0.1,0.4,0,0.5-0.2
			c0.2-0.3,0.5-0.3,0.8-0.3c0.3-0.1,0.6-0.2,0.9-0.1c0.5,0.4,1.3,0.3,1.9,0.4c0.4-0.1,0.5,0.3,0.8,0.4c0.4,0,0.9-0.1,1.3,0
			c0,0,0.1,0.1,0.1,0.2c-0.1,0-0.1,0.1-0.2,0.1c-0.2,0.1-0.4,0.1-0.6,0.1c-0.1,0-0.3,0-0.5,0.1c0-0.1-0.1,0.1-0.2,0
			c-0.1,0.1-0.2-0.1-0.3,0c-0.1-0.1-0.2,0-0.2-0.1c-0.3-0.1-0.7-0.3-1.1-0.2c-0.2,0.1-0.2,0.3-0.3,0.4c-0.4,0.2-0.9,0.2-1.4,0.2
			c-0.2,0-0.2,0.2-0.2,0.3c0.1,0.2,0.2,0.3,0.4,0.4c0.2,0.2,0.5,0.1,0.8,0.3l-0.2,0.1c-0.2,0.5-0.8,0.2-1.1,0.4
			c-0.1,0.1,0,0.2,0,0.3c0.5,0.3,1,0.1,1.5,0.2c0.2,0.2,0.6,0.2,0.8,0.2c0.5-0.1,1.1,0.1,1.4-0.2c0.5-0.1,1-0.1,1.5-0.2l0,0
			c0.1,0,0.2-0.1,0.3-0.1c0.2-0.1,0-0.3,0-0.4c-0.2-0.1-0.5-0.1-0.8-0.1c-0.3-0.2-0.8-0.1-1.1-0.2c0.2-0.2,0.6-0.1,0.8-0.1
			c0.1,0,0.2-0.2,0.4-0.2c0.4,0.1,0.8-0.1,1.2,0c0.1,0.2-0.2,0.2-0.3,0.3c0,0.2,0.1,0.2,0.2,0.3c0,0.1,0,0.1,0,0.2
			c0.3,0.5,1,0.4,1.5,0.3c0.6,0.1,1-0.2,1.6-0.2l0.1-0.1c0.1-0.1,0-0.2-0.1-0.3c-0.3-0.2-0.6-0.1-1-0.1c-0.2,0-0.3-0.1-0.5-0.1
			c-0.2-0.2-0.7,0.1-0.7-0.2c0.3-0.1,0.5,0,0.8-0.1c0.3-0.1,0.8,0,1.1-0.2c0.2-0.3,0.7-0.2,0.9-0.6c0-0.1-0.1-0.2-0.2-0.2
			c-0.4,0-0.7,0-1.1-0.2c-0.3,0-0.6,0-1-0.1c0.3-0.1,0.4-0.4,0.6-0.5c0.4,0,0.8,0.2,1.2,0.1c0.5-0.2,0.9,0.4,1.4,0.3
			c0.5-0.1,1.1,0.1,1.6-0.1c0.3-0.2,0.7-0.2,1-0.1c0.6,0.1,1-0.3,1.6-0.2c0.4-0.1,0.7,0,1.1-0.1c0-0.1,0.1-0.1,0-0.2
			c-0.6-0.3-1.4-0.2-2.1-0.2c-0.2-0.1-0.5-0.1-0.8-0.1c-0.6,0.1-0.9-0.5-1.5-0.3c-0.5-0.1-1,0.1-1.6,0c-0.5,0.1-1-0.2-1.6-0.2
			c-0.6,0.3-1.4,0-2,0.2c-0.4,0.1-0.2,0.5-0.3,0.8c-0.1,0.2-0.3,0.1-0.5,0.1c-0.3-0.1,0-0.3-0.1-0.5c0-0.2-0.2-0.3-0.4-0.4
			c-0.1-0.1,0-0.2,0.1-0.2c0.3-0.2,0.7-0.1,1-0.2c0.3,0,0.4-0.2,0.7-0.2c0.3,0.2,0.6,0,0.9,0c0.8,0.1,1.6,0.4,2.5,0.2
			c0.6,0.1,1.2,0,1.8-0.2c0.4-0.1,0.9,0,1.3-0.2c0.1-0.1-0.1-0.2-0.1-0.3c-0.5-0.2-1.1-0.1-1.6-0.2
			C121.8,58.1,121.2,58.3,120.7,58.2 M110.4,60.7c-0.2,0-0.3,0.2-0.4,0.3c0,0.1-0.1,0.1,0,0.2c0,0.1,0.1,0.3,0.3,0.3
			c0.5,0.3,0.9-0.1,1.4-0.1c0.1-0.1,0.2-0.2,0.2-0.3C111.5,60.5,110.9,60.8,110.4,60.7 M116.4,63.5c-0.2,0-0.3,0.2-0.5,0.4
			c-0.1,0-0.1,0.1-0.2,0.1c-0.2,0.3,0.3,0.4,0.4,0.6c0.3,0.2,0.5-0.1,0.8-0.1c0.5-0.1,0.9,0,1.4,0c0.1,0,0.3-0.2,0.2-0.3
			c-0.1-0.2-0.3-0.3-0.4-0.3C117.5,63.9,117,63.5,116.4,63.5 M120.2,30.2c-0.2,0-0.6,0.1-0.7-0.2c-0.1-0.1-0.2,0.1-0.3,0.1
			c0,0.4-0.4,0.3-0.6,0.4c-0.1,0.2,0.1,0.2,0.1,0.4c0.4,0.2-0.1,0.4,0,0.6c0.2,0.2,0.4-0.1,0.7-0.1c0.2-0.2-0.2-0.2-0.2-0.3
			c-0.1-0.2,0.1-0.3,0.2-0.4c0.2-0.1,0.4,0,0.5,0c0.1,0,0.1,0.2,0.1,0.3c0.3-0.2,0.6,0.1,0.9-0.1c0.1,0,0.1-0.1,0.1-0.2
			c0.2-0.3-0.4-0.4-0.3-0.7C120.5,29.5,120.4,30.1,120.2,30.2 M116.5,30.1c-0.3-0.1-0.4,0.2-0.5,0.4c-0.2,0.2-0.6,0-0.5,0.4
			c0.4,0.4,0.7-0.4,1.1-0.1c0.1,0,0.1-0.1,0.2-0.2C116.6,30.4,116.5,30.3,116.5,30.1 M117.7,30.6c-0.1,0-0.3,0.1-0.3,0.2
			c-0.1,0.1-0.2,0.1-0.2,0.2c0.2,0.1,0.3,0,0.4-0.1c0.1-0.1,0.3,0,0.4-0.2C118,30.6,117.8,30.6,117.7,30.6 M114.7,32.4
			c-0.2,0.2-0.4,0.1-0.5,0.1c0,0.1,0.2,0.2,0.2,0.3c-0.1,0.3,0.3,0.5,0.3,0.8c0,0.1-0.1,0.1-0.1,0.2l0,0.1c0.4,0.1,0.7-0.4,1.1-0.2
			c0.1,0,0.2,0.2,0.3,0.1c0.1-0.1,0-0.2,0-0.3c-0.2,0-0.4,0-0.6-0.1c0-0.4-0.5,0.1-0.6-0.3c0.1-0.2,0-0.4,0.2-0.6
			C115.1,32.3,114.8,32.3,114.7,32.4 M122,32.7c-0.1,0-0.1,0.1-0.1,0.2c0.1,0.1-0.1,0.2-0.1,0.3c0.1,0.1,0.2,0.1,0.4,0.1l0.2-0.2
			c0.1-0.1,0.2-0.2,0.4-0.2c0.1-0.1,0-0.2,0-0.3C122.6,32.3,122.3,32.7,122,32.7 M113.1,33.1c-0.1,0-0.1,0-0.2,0.1
			c-0.1,0.2,0.1,0.3,0.1,0.4c0.1,0.1,0,0.2-0.1,0.4c0.2,0.1,0.2-0.2,0.4-0.2c0-0.1,0.1-0.1,0-0.2C113.3,33.4,113.2,33.2,113.1,33.1
			 M115.7,34.5c-0.2,0-0.1,0.3-0.2,0.4c0.1,0.1,0.2-0.2,0.4-0.1c0.1,0,0.1-0.1,0.1-0.2C115.9,34.6,115.8,34.6,115.7,34.5 M124.8,35
			c-0.1,0.2-0.3,0.2-0.5,0.3c-0.2,0.1-0.3-0.1-0.6-0.1c-0.2,0.1-0.2,0.3-0.4,0.4c0,0,0,0.1,0.1,0.1c0.4-0.1,0.8-0.1,1.2,0
			c0.1-0.2,0.4-0.3,0.4-0.6C125,35,124.8,35,124.8,35 M121.5,35.6c-0.4-0.1-0.2,0.3-0.4,0.5c-0.1,0.1-0.3,0-0.4,0
			c-0.1,0.2-0.4,0-0.6,0.1c0,0.1-0.1,0.2,0,0.3c0.2,0.2,0.6,0.2,0.9,0.1c0.2-0.4,0.9-0.3,0.8-0.8C121.6,35.7,121.6,35.5,121.5,35.6
			 M114.5,36c-0.3-0.1-0.5,0.4-0.8,0.3c0,0.2,0,0.3-0.2,0.4c0.1,0.2,0.2,0.2,0.3,0.4c0.2-0.1,0.4,0,0.6,0c0.1-0.1,0-0.3,0-0.5
			c0.1-0.2,0.3-0.2,0.4-0.3C114.9,35.9,114.6,36.1,114.5,36 M119.8,37.3c-0.1,0.3-0.1,0.6-0.4,0.7c-0.4-0.1-0.2,0.4-0.4,0.5
			c-0.4,0.4-0.8-0.1-1.2-0.1l0,0.2c0,0.1,0.1,0.2,0.2,0.1c0.2-0.2,0.4,0,0.6,0.1c0.2,0.2,0.1,0.4,0,0.6c0,0.2,0.2,0.1,0.3,0.3
			c0,0.1-0.1,0.2,0,0.3c0.1,0,0.3,0,0.3-0.1c0.1-0.2,0.2-0.4,0.1-0.5c-0.1-0.5,0.6-0.6,0.7-1.1c0.1-0.4,0-0.7,0.2-1
			C120.1,37.2,119.8,37.2,119.8,37.3 M122,38.1c-0.3,0.1-0.4,0.4-0.5,0.6c0,0.3-0.3,0.5-0.5,0.6c-0.2,0.1-0.2,0.4-0.4,0.5
			c0.1,0.1-0.1,0.3,0.1,0.3c0.2-0.1,0.3-0.2,0.5-0.4c0.6-0.1,1-0.6,1.6-0.9c0.1-0.1,0.3-0.1,0.4-0.2c-0.1-0.1-0.1-0.1-0.2-0.1
			c-0.1-0.1-0.2-0.2-0.2-0.4C122.4,38.2,122.2,38.3,122,38.1 M117.1,39.2c-0.3-0.1-0.2,0.2-0.2,0.4c0.2,0,0.3,0,0.4,0.1
			c0-0.1,0-0.2,0-0.3C117.3,39.2,117.2,39.2,117.1,39.2 M114.8,39.4c-0.2,0.1-0.6-0.1-0.8,0.2c0.1,0.1,0.2,0.3,0.2,0.4
			c-0.1,0.1-0.2,0.1-0.2,0.2l0.1,0.2c0.1,0.7-0.7,0.3-1,0.6c-0.1,0.1,0,0.1,0.1,0.1c0.2,0.3,0.5,0,0.8,0c0.3,0.2,0.5-0.2,0.7-0.1
			c0.1,0,0.2-0.1,0.2-0.2c-0.1-0.2-0.1-0.6,0-0.9c0.1-0.2,0.4-0.2,0.3-0.4C115,39.4,114.9,39.4,114.8,39.4 M125.6,40.3
			c-0.4,0-0.7,0.3-1.1,0.5v0.1c0,0.1,0.1,0.1,0.2,0.1c0.3-0.1,0.6-0.2,0.8-0.1c0-0.1,0.2-0.1,0.2-0.1c0.1,0,0.2-0.2,0.2-0.3l-0.1,0
			C125.8,40.3,125.7,40.3,125.6,40.3 M116.8,40.5c-0.2,0-0.1,0.3-0.3,0.3c-0.1,0-0.2,0.1-0.2,0c-0.1,0-0.3,0-0.3,0.1
			c0.1,0.3-0.2,0.5-0.4,0.6v0.1c0.3,0.1,0.6,0,0.9,0c0.3,0,0.4,0.4,0.7,0.3c0.1-0.1-0.1-0.3,0.1-0.4c0-0.1,0-0.2,0-0.2
			c0-0.1,0.2-0.2,0.3-0.2l0-0.3c-0.1,0-0.2,0-0.2-0.1C117,40.8,116.9,40.6,116.8,40.5 M121.3,40.9c-0.3-0.1-0.6,0.2-0.8,0.4
			c0,0.1,0,0.2,0.1,0.3c0.2,0,0.2,0.2,0.4,0.3c0.1,0,0.1,0,0.2,0c0.2-0.3,0.5-0.3,0.7-0.5c0-0.1,0-0.1,0-0.2
			C121.6,41.1,121.5,41,121.3,40.9 M114.1,41.9c-0.2,0.1-0.5,0.2-0.6,0.4c0.1,0,0,0.1,0.1,0.1c0.1-0.1,0.2,0,0.3,0
			c0.2,0,0.3-0.2,0.4-0.3c0-0.1,0.1,0,0.1-0.1C114.5,41.8,114.3,42,114.1,41.9 M115.3,42.4c-0.1,0-0.1,0-0.2,0
			c-0.1,0-0.1,0.1-0.1,0.2c0,0.1,0.1,0.2,0.2,0.2c0.1-0.1,0.3,0,0.3-0.2C115.5,42.6,115.3,42.6,115.3,42.4 M114.1,43.5
			c-0.1,0-0.2,0.1-0.3,0.2c0.1,0.1,0.2,0.3,0.4,0.4c0.4-0.1,0.6,0.4,1,0.2c0-0.1,0.1-0.3-0.1-0.4c-0.1-0.3-0.5-0.1-0.7-0.1
			C114.3,43.6,114.3,43.5,114.1,43.5 M120.8,45.3c-0.2,0.1-0.4,0.2-0.5,0.3c-0.3,0.2-0.7,0.1-1,0c-0.1,0.2,0.2,0.3,0.2,0.5
			c0.2,0.3,0.3,0.7,0.5,1c0,0.1,0.1,0.2,0.1,0.2c0.4-0.4,0.7-0.8,1-1.1c0.1-0.2,0.4-0.3,0.2-0.5C121.2,45.7,121.1,45.3,120.8,45.3"
			/>
		<g id="XMLID_93_">
			<g id="XMLID_94_">
				<path id="XMLID_108_" class="st2" d="M57.9,88.6c0,2.2,0.3,2.6,2.6,2.6v0.7h-7.9v-0.7c2.2,0.1,2.4-0.5,2.4-2.2V78.5
					c0-1.7-0.3-2.1-2.4-2.1v-0.7c0.6,0,1.9-0.1,3.7-0.2c1.4-0.1,2.6-0.1,3.2-0.1c5.2,0,7,2.3,7,4.6c0,1.9-1.1,3.3-3.3,4.2
					c0.4,0.3,1.5,1.4,1.9,1.8l1.7,1.7c2.3,2.3,4.1,3.3,6.2,3.6v0.7c-5.1,0.1-6.4-0.8-8.7-3.1L63,87.6c-1.3-1.3-1.7-1.7-2.8-2.5
					c-0.8,0.1-1.6,0.1-2.3,0V88.6z M57.9,84.4c0.2,0,0.7,0.1,0.8,0.1c3.5-0.2,4.6-1.5,4.6-4.1c0-2.6-1.4-4.2-4.2-4.2
					c-0.4,0-1,0.1-1.2,0.1V84.4z"/>
				<path id="XMLID_105_" class="st2" d="M82.5,75.3c5.6,0,9.5,3.3,9.5,8.2c0,4.7-3.7,8.8-9.6,8.8c-5.4,0-9.4-3.4-9.4-8
					C73.1,79,77,75.3,82.5,75.3 M82.8,91.4c3.6,0,6-2.9,6-7.3c0-4.7-2.7-8-6.5-8c-3.7,0-6.1,2.8-6.1,7.4
					C76.2,88.7,79.6,91.4,82.8,91.4"/>
				<path id="XMLID_102_" class="st2" d="M104.4,75.3c5.6,0,9.5,3.3,9.5,8.2c0,4.7-3.7,8.8-9.6,8.8c-5.4,0-9.4-3.4-9.4-8
					C94.9,79,98.9,75.3,104.4,75.3 M104.7,91.4c3.6,0,6-2.9,6-7.3c0-4.7-2.7-8-6.5-8c-3.7,0-6.1,2.8-6.1,7.4
					C98.1,88.7,101.4,91.4,104.7,91.4"/>
				<path id="XMLID_101_" class="st2" d="M126.9,91.8v-0.7c1,0,1.5-0.2,1.5-0.7c0-0.4-1-1.6-1.5-2.1l-2.2-2.3
					c-1.1-1.2-1.7-1.6-2.8-1.6v4.3c0,1.8,0.2,2.5,2.4,2.4v0.7h-7.8v-0.7c2.3,0,2.5-0.4,2.5-2.2V78.4c0-1.8-0.6-2.1-2.5-2v-0.7h7.8
					v0.7c-2.2,0-2.4,0.6-2.4,2.2v5c1.4-0.4,2.4-1.2,3.3-2.1c1.7-1.7,2.9-3.6,2.9-4.3c0-0.6-0.5-0.8-1.8-0.8v-0.7h7.4v0.7
					c-2.7,0-3.3,0.5-4.3,1.9l-2.1,2.9c-0.4,0.5-1.8,1.9-2.3,2.2l0.1,0.1c0.7,0,1.9,1.1,3.1,2.5l2.7,3.1c1.8,2,2,2.2,4.2,2.2v0.7
					H126.9z"/>
				<path id="XMLID_100_" class="st2" d="M138.2,87.6h0.8c0.7,2.4,2.3,3.7,4.5,3.7c1.9,0,3.2-1.1,3.2-2.7c0-3.6-8.2-5.1-8.2-9.6
					c0-2.2,2-3.8,4.7-3.8c0.9,0,1.5,0.1,2,0.2c0.5,0.1,0.9,0.2,1.4,0.2c0.3,0,0.5-0.1,0.7-0.3h0.6l0.6,4h-0.8
					c-0.8-2-2.4-3.3-4.2-3.3c-1.7,0-2.5,1-2.5,2.1c0,3.5,8.2,4.5,8.2,9.5c0,2.7-2.3,4.5-5.6,4.5c-1.9,0-2.7-0.5-3.5-0.5
					c-0.3,0-0.5,0.1-0.7,0.3h-0.6L138.2,87.6z"/>
				<path id="XMLID_99_" class="st2" d="M153.5,75.7h7.2v0.7c-1.7,0-2.2,0.4-2.2,2.2v10.1c0,1.9,0.4,2.5,2.2,2.4v0.7h-7.2v-0.7
					c2,0,2.1-0.8,2.1-2.2V78.3c0-1.4-0.3-2-2.1-1.9V75.7z"/>
				<path id="XMLID_96_" class="st2" d="M167.9,78.7c0-1.9-0.5-2.3-2.5-2.3v-0.7c0.8,0,3-0.1,4.1-0.2c1.4,0,2.7,0,3.7,0
					c3.9,0,6.7,0.7,8.3,2.3c1.6,1.6,2.2,3.6,2.2,5.5c0,3.8-2.7,8.5-10.3,8.5h-8.1v-0.7c2.2,0,2.5-0.4,2.5-2.1V78.7z M170.8,89.2
					c0,1.6,0.2,1.9,1.9,1.9c3.1,0,4.7-0.7,5.9-1.9c1.6-1.6,2-3.8,2-5.6c0-1.9-0.4-4-2-5.6c-1.3-1.3-2.9-1.9-6-1.9
					c-0.4,0-1.2,0-1.9,0V89.2z"/>
				<path id="XMLID_95_" class="st2" d="M186.3,91.8v-0.7c2.1,0,2.6-0.3,2.6-1.8V78.1c0-1.7-0.9-1.8-2.6-1.8v-0.7h13.3l0.2,3.9h-0.7
					L199,79c-0.5-2.1-0.9-2.2-2.6-2.2h-4.6v6h4c1.5,0,1.8-0.2,1.9-2h0.7v5.2h-0.7c-0.2-1.8-0.5-2.1-1.9-2.1h-4v4.7
					c0,1.6,0.2,1.9,1.5,1.9h2.9c2.6,0,3.1-0.4,3.8-2.9h0.7l-0.4,4.1H186.3z"/>
			</g>
		</g>
		<path id="XMLID_89_" class="st2" d="M37.1,79c0-1.7-0.2-2.6-2-2.6h-0.9v-0.7c0.8,0,2.4-0.1,3.6-0.1c1-0.1,2.5-0.1,3.5-0.1
			c4.4,0,7.4,0.9,7.4,3.8c0,1.7-1.2,2.9-3.1,3.3v0c2.6,0.7,4,2.3,4,4.4c0,2.6-2.1,4.8-6.5,4.8h-8.8v-0.7c2.3,0,2.9-0.4,2.9-1.8V79z
			 M40,82.4h1.9c2.5,0,3.7-0.9,3.7-2.8c0-1.9-1.1-3.4-4.1-3.4c-0.5,0-1,0-1.5,0.1V82.4z M40,88c0,2,0.5,2.9,2.7,2.9
			c2.3,0,3.8-1.5,3.8-3.8c0-2.6-1.8-3.9-5-3.9H40V88z"/>
	</g>
	<rect y="-0.1" class="st7" width="235" height="119"/>
</g>
<g id="legal" class="st0">
</g>
</svg>
