<?xml version="1.0" encoding="utf-8"?>
<!-- Generator: Adobe Illustrator 19.2.1, SVG Export Plug-In . SVG Version: 6.00 Build 0)  -->
<svg version="1.1" id="Layer_1" xmlns="http://www.w3.org/2000/svg" xmlns:xlink="http://www.w3.org/1999/xlink" x="0px" y="0px"
	 viewBox="0 0 235 119" style="enable-background:new 0 0 235 119;" xml:space="preserve">
<style type="text/css">
	.st0{display:none;}
	.st1{display:inline;fill:#4B4A4B;}
	.st2{fill:#9B9A9A;}
	.st3{display:inline;}
</style>
<g id="Background" class="st0">
	<rect class="st1" width="235" height="119"/>
</g>
<g id="Logos">
	<g>
		<g id="XMLID_326_">
			<path id="XMLID_329_" class="st2" d="M145.4,69.7c-2.6-1.1-4.3-1.8-4.3-3.4c0-1.1,1-2.1,2.7-2.1s3.2,0.3,4.9,1.3c0,0,0-3.4,0-3.5
				c-1.3-0.8-2.8-1.1-4.8-1.1c-3.3,0-6.6,1.8-6.7,5.7c-0.1,3.2,2,4.6,4.5,5.7c2.6,1.2,5.3,2,5.3,3.9c0,1.6-1.1,2.7-3.5,2.7
				c-4.5,0-6.4-4.1-6.4-4.1s-1.5,3.8-3.6,3.8c-1.3,0-1.9-1.2-2.1-3.1c-0.1-0.5-0.1-2.4-0.1-2.7V60.9c0,0-2,0-3.7,0
				c-8.3,0-12.8,5.4-13.4,11.2c-0.9,4.2-3.6,6.6-6.9,6.6c-2.8,0-5.3-2.2-5.3-7c0-5.1,2.7-7.3,6.2-7.3c1.8,0,3.5,0.5,4.7,1.1l0.7-3.5
				c-1.3-0.7-3.4-1.1-5.4-1.1c-5.9,0-9.9,3.9-9.9,10.8c0,0.8,0,1.5,0.1,2.2c-0.2,2.5-1,4.8-2.5,4.8c-1.7,0-2-1.6-2-4v-6.3
				c0-3.9-1.5-7.6-6.4-7.6c-2.8,0-4.7,1.4-6,3.6v-3h-3.8v6.2v5.1c0,4.9-1.1,6-2.7,6c-1.8,0-2.5-1.7-2.5-6V60.9c0,0-2,0-3.7,0
				c-8.8,0-13.4,6.1-13.4,12.3c0,0.3,0,0.6,0,0.9c-0.9,3.2-2.6,4.7-4.9,4.7c-1.5,0-3.2-1.1-5.2-2.3c1.3-3.5,1.2-7.2,1.1-10.9
				c3.5-2.4,8.3-7.1,8.3-13.3c0-3.2-1.7-6-4.8-6c-2.2,0-4.8,1.8-6.1,5.5c-1.4,4-1.4,8-1.3,12.1c-1.4,0.7-2.8,1.3-4.1,1.7l1.2,3.4
				c1-0.3,2-0.7,3-1.2c0,1.6-0.1,4.3-0.8,6.9c-1.7-0.8-3.4-1.3-5.1-1.3c-3.5,0-5.8,2.4-5.8,5c0,4,3.3,4.9,5.8,4.9
				c2.7,0,5.1-1.3,6.8-3.4c2.3,1.4,4.6,2.6,6.8,2.6c3.3,0,5.4-1.4,6.8-3.5c1.3,1.9,3.4,3.1,6.4,3.1c3.1,0,5-1.5,6.2-3.5
				c0.6,2,2.2,3.5,5.3,3.5c3.2,0,6.6-2.1,6.6-7.3c0-0.3,0-1.1,0-1.4c0-6.9,2.8-9.1,5.5-9.1c1.8,0,2.9,1.4,2.9,4.2v6
				c0,4,1,7.6,5.5,7.6c2.5,0,3.7-1.5,4.7-3.3c1.6,2.2,4.2,3.3,7,3.3c3.1,0,6-1.4,7.9-4.2c0.2,0.4,0.4,0.7,0.7,1.1
				c1.3,1.9,3.4,3.1,6.4,3.1c3.1,0,5-1.5,6.2-3.5c0.5,2.1,1.9,3.5,4.3,3.5c2.1,0,3.6-1.3,4.5-2.9c1.2,1.7,3.8,2.7,6.2,2.7
				c4.6,0,7.5-2.2,7.4-6.2C150.9,72.1,148.1,70.9,145.4,69.7z M49.7,50.2c1.2,0,1.9,1.9,1,4.7c-0.8,2.6-2.4,4.8-4.4,6.5
				C46.2,54.9,47.9,50.2,49.7,50.2z M37.3,80.1c-1.9,0-2.6-0.9-2.6-1.8s0.7-1.5,1.7-1.5c1.3,0,2.7,0.6,4.1,1.3
				C39.7,79.3,38.7,80.1,37.3,80.1z M68.8,70c0,5.4-1.5,8.8-4.9,8.8c-3.2,0-4.6-2.5-4.6-5.6c0-4.4,3-8.7,9.5-8.7V70z M127.5,70
				c0,5.4-1.5,8.8-4.9,8.8c-3.2,0-4.6-2.5-4.6-5.6c0-4.4,3-8.7,9.5-8.7V70z"/>
			<path id="XMLID_328_" class="st2" d="M200.9,75c-0.1,2-0.9,4-2.6,4c-1.1,0-2.4-1-2.4-3.4c-0.1-4.9,1.1-9.6,2.1-13.2l-2.7-1.6
				c-0.8,0.6-3.8,1.3-6.6,1.4c-0.1-1.6-1.5-2.9-3.2-2.9c-1.8,0-3.2,1.4-3.2,3.2c0,1.7,1.3,3,3,3.1c-0.5,5.3-3,13.1-10.1,13.1
				c-2.1,0-3.6-0.7-4.6-2.3c-0.8-1.3-1.5-2.7-1.3-5c0.5-4.4,3.3-7,5.4-7c1.6,0,2.7,1.5,1.9,4.2c-0.8,2.4-3.9,4.1-6.5,4.7
				c0,0.3,0.2,1,0.5,1.7s0.6,1.1,0.8,1.3c4.6-1,7.6-3.2,8.7-6.9c1.6-5.4-1.3-8.5-5.1-8.5c-2.2,0-4.6,1.1-6.5,3l0,0
				c-1.6,1.7-2.9,4.2-3.1,7.5c-0.1,1.8,0.1,3.5,0.6,4.9c-1.1,1.4-2.6,2.4-4.3,2.4c-2.4,0-3.5-2.4-3.5-7.8c0-1.9,0.2-4.2,0.4-6.4h6.6
				l0.5-3.2H159c0.4-2.7,0.7-4.8,0.9-5.8H156c-0.2,1-0.6,3.1-0.9,5.8h-0.9c-1.2,0-3.8,0-4.7,0.6v3.2c1.6-0.8,3.5-0.6,4.4-0.6h0.8
				c-0.2,2.1-0.4,4.4-0.4,6.4c0,6.8,1.4,11.2,7.1,11.2c2.3,0,4.5-1.1,6.3-3c0.2,0.3,0.5,0.6,0.8,0.8l0,0c1.5,1.3,3.5,2.2,6.3,2.2
				c11,0,13.3-10.2,14-16.9c1,0,4.3-0.4,5.2-0.5c-1,3-1.8,7.8-1.8,11c0,4,2.2,6.4,5.9,6.4c1.6,0,5.7-0.7,5.9-7.1L200.9,75L200.9,75z
				"/>
		</g>
		<g id="XMLID_234_">
			<g>
				<path class="st2" d="M145.5,54.8h-0.2V50c0-0.2-0.2-0.4-0.4-0.4s-0.4,0.2-0.4,0.4v0.5h-1.7v-1.1H141v5.3h-2.9c0,0,0-2.8,0.1-3
					c0.1-0.5,0.5-1.1,0.8-1.5c0.3-0.5,0.6-1,0.6-1.6c0-1.6-1.3-1.9-1.8-1.9l0,0c-0.4,0-1.8,0.3-1.8,1.9c0,0.6,0.2,1.1,0.6,1.6
					c0.3,0.5,0.7,1,0.8,1.5c0,0.2,0.1,3,0.1,3h-0.9h-3c-0.1-3-0.2-6.1-0.2-6.3c0-0.7,0.5-0.5,1.1-0.5s0.8-0.4,0.8-0.8v-5.8
					c0-0.6-0.2-0.8-0.7-0.8H133c-2.4,0-2.5,1.7-2.5,2.1c0,0.3-0.1,3.7-0.1,4.5s0.7,0.8,0.8,0.8s0.4,0,0.8,0c0.4,0,0.4,0.4,0.4,0.6
					c0,0,0,0.8,0,1.9h-3.1v-6.1l-7.8-6.9l-8,7.1c0,0-0.1,0.1-0.2,0.1h-8.7v10.2H104c0-3,0-10.5,0-10.6c0-0.4,0-1.1-0.3-1.6
					c-0.3-0.6-1-1.6-1.1-1.9c-0.1-0.3-0.1-0.4-0.1-0.6c0.1-0.2,0.3-0.3,0.3-0.6c0-0.5-0.5-0.6-0.5-0.6h-3.5c0,0-0.5,0.1-0.5,0.6
					c0,0.3,0.2,0.4,0.3,0.6c0.1,0.1,0.1,0.3-0.1,0.6c-0.1,0.3-0.8,1.3-1.1,1.9c-0.3,0.5-0.5,1.2-0.5,1.6v6.3h-2.2V50
					c0-0.2-0.2-0.4-0.4-0.4c-0.2,0-0.4,0.2-0.4,0.4v0.5h-3.7V50c0-0.2-0.2-0.4-0.4-0.4c-0.2,0-0.4,0.2-0.4,0.4v4.8
					c-0.3,0-0.5,0.2-0.5,0.5s0.2,0.5,0.5,0.5h26.3c0-0.1,0.1-0.2,0.1-0.3c0.1-0.2,0.1-1.1,0.1-1.5c0-0.3-0.2-1.4-0.5-1.9
					s-1.3-1.6-1.5-1.8s-0.4-0.6-0.5-0.7c-0.3,0.2-0.9,0.2-0.9,0.2h-1.6l-0.5-0.4c0,0-0.2-0.2,0-0.3s2.1-1.9,2.1-1.9s0.5-0.5,1.1-0.2
					c0,0,0.1-0.1,0.3-0.3c0.2-0.3,0.2-0.4,0.2-0.4s0.5,0.2,0.2,0.8c0,0.1-0.1,0.2-0.3,0.3c-0.1,0-0.1,0.2,0.2,0.2c0.2,0,1,0,1.3,0.1
					c0.3,0,1.1,0.2,1.4,0.2h7.1c0.1,0,0.2,0,0.3,0l0,0c1.3,0,1.9,0.4,1.9,1.6c0,1.1-1.1,1.9-1.2,2.4c0,0,0.4,0.1,0.5,0.7
					c0,0.3,0,0.5,0,0.5s-0.9,0.1-1.2-0.5l0,0c0,1.4,0,2.8,0,3.4h20.8c0.3,0,0.5-0.2,0.5-0.5C146,55,145.8,54.8,145.5,54.8z
					 M93.9,54.8c0,0-0.6,0-1.3,0h-2.4V53h3.7C93.9,53,93.9,54.8,93.9,54.8z M93.9,52.2h-3.7v-0.9h3.7V52.2z M96.9,54.8
					c-0.8,0-1.5,0-2.2,0V53h2.2V54.8z M96.9,52.2h-2.2v-0.9h2.2V52.2z M122.5,42.9c0,0.3,0.5,1.3,0.4,1.5c-0.6,0.1-1-0.4-1.5-0.6
					c-0.5-0.2-1.5,1-2,0.8c-0.1-0.4,0.1-1.1,0.2-1.5c-0.3-0.4-0.9-0.7-1.1-1.2c0.1-0.2,1.4-0.3,1.6-0.3c0.4-0.6,0.6-1.1,1-1.6
					c0.5-0.1,0.3,1.2,0.7,1.5c0.4,0.3,1.4-0.1,1.9,0.2l0,0v0.1C123.6,41.9,122.8,42.6,122.5,42.9z M132.2,54.8h-3.1V53h3.1
					C132.3,53.3,132.3,54.3,132.2,54.8z M132.3,52.2h-3.1v-0.9h3.1C132.3,51.6,132.3,51.9,132.3,52.2z M144.5,54.6
					c-0.5,0-1.6,0-1.7,0V53h1.7V54.6z M144.5,52.2h-1.7v-0.9h1.7V52.2z M124.9,48.7c-0.2,0-0.2,0.2-0.2,0.5c0,0.1,0,1.2,0,2.6
					c0.2-0.4,0.6-1,0.8-1.3C125.9,49.6,125.9,48.7,124.9,48.7z M123.9,54.2c0-0.1-0.4-0.8-0.5-0.8l0,0c-0.1,0.1-0.2,0.1-0.3,0.1v0.4
					c0,0.1-0.1,0.2-0.2,0.2s-0.2-0.1-0.2-0.2v-0.3l0,0c-0.1,0-0.2,0-0.3,0l-0.1,0.3c0,0.1-0.1,0.2-0.3,0.1c-0.1,0-0.2-0.1-0.1-0.3
					l0.1-0.3c-0.1-0.1-0.2-0.1-0.3-0.2l-0.2,0.2c-0.1,0.1-0.2,0.1-0.3,0.1c-0.1-0.1-0.1-0.2-0.1-0.3l0.2-0.3
					c-0.1-0.1-0.1-0.2-0.1-0.3c-0.1,0-0.1,0-0.2,0.1c-0.7,0.2-1.5,0.3-2.7,0l0,0c0,0.1-0.1,0.1-0.1,0.2c0,0.4,0.1,0.8,0.1,1.2
					c0,0.3,0.1,1.5,0.1,1.8h5.4c0-0.1,0.1-0.2,0.1-0.3c0,0,0-1,0-1.2C124,54.4,124,54.3,123.9,54.2L123.9,54.2z M98.8,38.5h3.5
					c0,0,0.2-0.1,0.2-0.2c0-0.1,0-0.5,0-0.7s-0.2-0.3-0.3-0.3h-3.4c-0.2,0-0.3,0.1-0.3,0.3s0,0.6,0,0.7
					C98.6,38.4,98.8,38.5,98.8,38.5z M121,37.1v-1.4h-8.5v1.5l-7.8,6.9h8.4L121,37.1z M141.3,48.7l0.1,0.1h1.1l0.1-0.1
					c0.3-0.5,0.6-1.1,0.9-1.6c0.9-1.7,1.9-3.5,1.9-5.3c0-2.4-1.5-4.4-3.3-4.5l0,0c0,0,0,0-0.1,0l0,0l0,0c-1.8,0-3.3,2-3.3,4.5
					c0,1.8,1,3.6,1.9,5.3C140.7,47.6,141,48.2,141.3,48.7z M144.8,41.8c0,1.3-0.6,2.6-1.2,3.9c0.5-1.3,0.9-2.6,0.9-3.9
					c0-1.2-0.3-2.3-0.7-3.1C144.4,39.5,144.8,40.6,144.8,41.8z M144,41.8c0,1.5-0.5,2.9-1.1,4.3c0.3-1.4,0.6-2.8,0.6-4.3
					c0-1.2-0.2-2.5-0.5-3.4C143.6,39.2,144,40.5,144,41.8z M142.4,38.2c0.4,0.6,0.7,1.9,0.7,3.6c0,1.6-0.4,3.2-0.7,4.7
					c0.1-1.5,0.2-3.1,0.2-4.7C142.6,39.9,142.5,38.8,142.4,38.2z M141.9,38.3c0.1,0.7,0.2,1.9,0.2,3.6c0,1.5-0.1,3-0.2,4.4
					c-0.1-1.4-0.2-2.9-0.2-4.4C141.7,40.2,141.8,38.9,141.9,38.3z M141.4,46.5c-0.4-1.5-0.7-3.1-0.7-4.7c0-1.8,0.3-3,0.7-3.6
					c-0.1,0.6-0.2,1.7-0.2,3.6C141.2,43.4,141.3,45,141.4,46.5z M140.2,41.8c0,1.5,0.3,2.9,0.6,4.3c-0.6-1.4-1.1-2.9-1.1-4.3
					c0-1.4,0.4-2.6,1-3.3C140.4,39.4,140.2,40.6,140.2,41.8z M139,41.8c0-1.2,0.4-2.3,1-3.1c-0.4,0.8-0.7,1.9-0.7,3.1
					c0,1.3,0.4,2.6,0.9,3.9C139.5,44.5,139,43.1,139,41.8z M117.1,53.3C117,53.2,117,53.3,117.1,53.3c-0.1,0.2-0.3,1.8-0.5,2.6h1.1
					c0-0.1,0.1-0.3,0.1-0.4c0-0.1-0.1-1-0.2-1.3C117.5,53.9,117.2,53.3,117.1,53.3z"/>
			</g>
		</g>
		<g id="XMLID_171_">
			<path id="XMLID_173_" class="st2" d="M145.4,69.7c-2.6-1.1-4.3-1.8-4.3-3.4c0-1.1,1-2.1,2.7-2.1s3.2,0.3,4.9,1.3c0,0,0-3.4,0-3.5
				c-1.3-0.8-2.8-1.1-4.8-1.1c-3.3,0-6.6,1.8-6.7,5.7c-0.1,3.2,2,4.6,4.5,5.7c2.6,1.2,5.3,2,5.3,3.9c0,1.6-1.1,2.7-3.5,2.7
				c-4.5,0-6.4-4.1-6.4-4.1s-1.5,3.8-3.6,3.8c-1.2,0-1.9-1.2-2.1-3.1c-0.1-0.5-0.1-2.4-0.1-2.7V60.9c0,0-2,0-3.7,0
				c-8.3,0-12.8,5.4-13.4,11.2c-0.9,4.2-3.6,6.6-6.9,6.6c-2.8,0-5.3-2.2-5.3-7c0-5.1,2.7-7.3,6.2-7.3c1.8,0,3.5,0.5,4.7,1.1l0.7-3.5
				c-1.3-0.7-3.4-1.1-5.4-1.1c-5.9,0-9.9,3.9-9.9,10.8c0,0.8,0,1.5,0.1,2.2c-0.2,2.5-1,4.8-2.5,4.8c-1.7,0-2-1.6-2-4v-6.3
				c0-3.9-1.5-7.6-6.4-7.6c-2.8,0-4.7,1.4-6,3.6v-3h-3.8v6.2v5.1c0,4.9-1.1,6-2.7,6c-1.8,0-2.5-1.7-2.5-6V60.9c0,0-2,0-3.7,0
				c-8.8,0-13.4,6.1-13.4,12.3c0,0.3,0,0.6,0,0.9c-0.9,3.2-2.6,4.7-4.9,4.7c-1.5,0-3.2-1.1-5.2-2.3c1.3-3.5,1.2-7.2,1.1-10.9
				c3.5-2.4,8.3-7.1,8.3-13.3c0-3.2-1.7-6-4.8-6c-2.2,0-4.8,1.8-6.1,5.5c-1.4,4-1.4,8-1.3,12.1c-1.4,0.7-2.8,1.3-4.1,1.7l1.2,3.4
				c1-0.3,2-0.7,3-1.2c0,1.6-0.1,4.3-0.8,6.9c-1.7-0.8-3.4-1.3-5.1-1.3c-3.5,0-5.8,2.4-5.8,5c0,4,3.3,4.9,5.8,4.9
				c2.7,0,5.1-1.3,6.8-3.4c2.3,1.4,4.6,2.6,6.8,2.6c3.3,0,5.4-1.4,6.8-3.5c1.3,1.9,3.4,3.1,6.4,3.1c3.1,0,5-1.5,6.2-3.5
				c0.6,2,2.2,3.5,5.3,3.5c3.2,0,6.6-2.1,6.6-7.3c0-0.3,0-1.1,0-1.4c0-6.9,2.8-9.1,5.5-9.1c1.8,0,2.9,1.4,2.9,4.2v6
				c0,4,1,7.6,5.5,7.6c2.5,0,3.7-1.5,4.7-3.3c1.6,2.2,4.2,3.3,7,3.3c3.1,0,6-1.4,7.9-4.2c0.2,0.4,0.4,0.7,0.7,1.1
				c1.3,1.9,3.4,3.1,6.4,3.1c3.1,0,5-1.5,6.2-3.5c0.5,2.1,1.9,3.5,4.3,3.5c2,0,3.6-1.3,4.5-2.9c1.2,1.7,3.8,2.7,6.2,2.7
				c4.6,0,7.5-2.2,7.4-6.2C150.9,72.1,148.1,70.9,145.4,69.7z M49.7,50.2c1.2,0,1.9,1.9,1,4.7c-0.8,2.6-2.4,4.8-4.4,6.5
				C46.2,54.9,47.9,50.2,49.7,50.2z M37.3,80.1c-1.9,0-2.6-0.9-2.6-1.8s0.7-1.5,1.7-1.5c1.3,0,2.7,0.6,4.1,1.3
				C39.7,79.3,38.7,80.1,37.3,80.1z M68.8,70c0,5.4-1.5,8.8-4.9,8.8c-3.2,0-4.6-2.5-4.6-5.6c0-4.4,3-8.7,9.5-8.7V70z M127.5,70
				c0,5.4-1.5,8.8-4.9,8.8c-3.2,0-4.6-2.5-4.6-5.6c0-4.4,3-8.7,9.5-8.7V70z"/>
			<path id="XMLID_172_" class="st2" d="M200.9,75c-0.1,2-0.9,4-2.6,4c-1.1,0-2.4-1-2.4-3.4c-0.1-4.9,1.1-9.6,2.1-13.2l-2.7-1.6
				c-0.8,0.6-3.8,1.3-6.6,1.4c-0.1-1.6-1.5-2.9-3.2-2.9c-1.8,0-3.2,1.4-3.2,3.2c0,1.7,1.3,3,3,3.1c-0.5,5.3-3,13.1-10.1,13.1
				c-2.1,0-3.6-0.7-4.6-2.3c-0.8-1.3-1.5-2.7-1.3-5c0.5-4.4,3.3-7,5.4-7c1.6,0,2.7,1.5,1.9,4.2c-0.8,2.4-3.9,4.1-6.5,4.7
				c0,0.3,0.2,1,0.5,1.7s0.6,1.1,0.8,1.3c4.6-1,7.6-3.2,8.7-6.9c1.6-5.4-1.3-8.5-5.1-8.5c-2.2,0-4.6,1.1-6.5,3l0,0
				c-1.6,1.7-2.9,4.2-3.1,7.5c-0.1,1.8,0.1,3.5,0.6,4.9c-1.1,1.4-2.6,2.4-4.3,2.4c-2.4,0-3.5-2.4-3.5-7.8c0-1.9,0.2-4.2,0.4-6.4h6.6
				l0.5-3.2H159c0.4-2.7,0.7-4.8,0.9-5.8H156c-0.2,1-0.6,3.1-0.9,5.8h-0.9c-1.2,0-3.8,0-4.7,0.6v3.2c1.6-0.8,3.5-0.6,4.4-0.6h0.8
				c-0.2,2.1-0.4,4.4-0.4,6.4c0,6.8,1.4,11.2,7.1,11.2c2.3,0,4.5-1.1,6.3-3c0.2,0.3,0.5,0.6,0.8,0.8l0,0c1.5,1.3,3.5,2.2,6.3,2.2
				c11,0,13.3-10.2,14-16.9c1,0,4.3-0.4,5.2-0.5c-1,3-1.8,7.8-1.8,11c0,4,2.2,6.4,5.9,6.4c1.6,0,5.7-0.7,5.9-7.1L200.9,75L200.9,75z
				"/>
		</g>
		<g id="XMLID_34_">
			<g>
				<path class="st2" d="M98.8,38.5h3.5c0,0,0.2-0.1,0.2-0.2c0-0.1,0-0.5,0-0.7s-0.2-0.3-0.3-0.3h-3.4c-0.2,0-0.3,0.1-0.3,0.3
					s0,0.6,0,0.7C98.6,38.4,98.8,38.5,98.8,38.5z M123.9,54.2c0-0.1-0.4-0.8-0.5-0.8l0,0c-0.1,0.1-0.2,0.1-0.3,0.1v0.4
					c0,0.1-0.1,0.2-0.2,0.2s-0.2-0.1-0.2-0.2v-0.3l0,0c-0.1,0-0.2,0-0.3,0l-0.1,0.3c0,0.1-0.1,0.2-0.3,0.1c-0.1,0-0.2-0.1-0.1-0.3
					l0.1-0.3c-0.1-0.1-0.2-0.1-0.3-0.2l-0.2,0.2c-0.1,0.1-0.2,0.1-0.3,0.1c-0.1-0.1-0.1-0.2-0.1-0.3l0.2-0.3
					c-0.1-0.1-0.1-0.2-0.1-0.3c-0.1,0-0.1,0-0.2,0.1c-0.7,0.2-1.5,0.3-2.7,0l0,0c0,0.1-0.1,0.1-0.1,0.2c0,0.4,0.1,0.8,0.1,1.2
					c0,0.3,0.1,1.5,0.1,1.8h5.4c0-0.1,0.1-0.2,0.1-0.3c0,0,0-1,0-1.2C124,54.4,124,54.3,123.9,54.2L123.9,54.2z M141.3,48.7l0.1,0.1
					h1.1l0.1-0.1c0.3-0.5,0.6-1.1,0.9-1.6c0.9-1.7,1.9-3.5,1.9-5.3c0-2.4-1.5-4.4-3.3-4.5l0,0c0,0,0,0-0.1,0l0,0l0,0
					c-1.8,0-3.3,2-3.3,4.5c0,1.8,1,3.6,1.9,5.3C140.7,47.6,141,48.2,141.3,48.7z M144.8,41.8c0,1.3-0.6,2.6-1.2,3.9
					c0.5-1.3,0.9-2.6,0.9-3.9c0-1.2-0.3-2.3-0.7-3.1C144.4,39.5,144.8,40.6,144.8,41.8z M144,41.8c0,1.5-0.5,2.9-1.1,4.3
					c0.3-1.4,0.6-2.8,0.6-4.3c0-1.2-0.2-2.5-0.5-3.4C143.6,39.2,144,40.5,144,41.8z M142.4,38.2c0.4,0.6,0.7,1.9,0.7,3.6
					c0,1.6-0.4,3.2-0.7,4.7c0.1-1.5,0.2-3.1,0.2-4.7C142.6,39.9,142.5,38.8,142.4,38.2z M141.9,38.3c0.1,0.7,0.2,1.9,0.2,3.6
					c0,1.5-0.1,3-0.2,4.4c-0.1-1.4-0.2-2.9-0.2-4.4C141.7,40.2,141.8,38.9,141.9,38.3z M141.4,46.5c-0.4-1.5-0.7-3.1-0.7-4.7
					c0-1.8,0.3-3,0.7-3.6c-0.1,0.6-0.2,1.7-0.2,3.6C141.2,43.4,141.3,45,141.4,46.5z M140.2,41.8c0,1.5,0.3,2.9,0.6,4.3
					c-0.6-1.4-1.1-2.9-1.1-4.3c0-1.4,0.4-2.6,1-3.3C140.4,39.4,140.2,40.6,140.2,41.8z M139,41.8c0-1.2,0.4-2.3,1-3.1
					c-0.4,0.8-0.7,1.9-0.7,3.1c0,1.3,0.4,2.6,0.9,3.9C139.5,44.5,139,43.1,139,41.8z M124.9,48.7c-0.2,0-0.2,0.2-0.2,0.5
					c0,0.1,0,1.2,0,2.6c0.2-0.4,0.6-1,0.8-1.3C125.9,49.6,125.9,48.7,124.9,48.7z M145.5,54.8h-0.2V50c0-0.2-0.2-0.4-0.4-0.4
					s-0.4,0.2-0.4,0.4v0.5h-1.7v-1.1H141v5.3h-2.9c0,0,0-2.8,0.1-3c0.1-0.5,0.5-1.1,0.8-1.5c0.3-0.5,0.6-1,0.6-1.6
					c0-1.6-1.3-1.9-1.8-1.9l0,0c-0.4,0-1.8,0.3-1.8,1.9c0,0.6,0.2,1.1,0.6,1.6c0.3,0.5,0.7,1,0.8,1.5c0,0.2,0.1,3,0.1,3h-0.9h-3
					c-0.1-3-0.2-6.1-0.2-6.3c0-0.7,0.5-0.5,1.1-0.5s0.8-0.4,0.8-0.8v-5.8c0-0.6-0.2-0.8-0.7-0.8H133c-2.4,0-2.5,1.7-2.5,2.1
					c0,0.3-0.1,3.7-0.1,4.5s0.7,0.8,0.8,0.8s0.4,0,0.8,0c0.4,0,0.4,0.4,0.4,0.6c0,0,0,0.8,0,1.9h-3.1v-6.1l-7.8-6.9l-8,7.1
					c0,0-0.1,0.1-0.2,0.1h-8.7v10.2H104c0-3,0-10.5,0-10.6c0-0.4,0-1.1-0.3-1.6c-0.3-0.6-1-1.6-1.1-1.9c-0.1-0.3-0.1-0.4-0.1-0.6
					c0.1-0.2,0.3-0.3,0.3-0.6c0-0.5-0.5-0.6-0.5-0.6h-3.5c0,0-0.5,0.1-0.5,0.6c0,0.3,0.2,0.4,0.3,0.6c0.1,0.1,0.1,0.3-0.1,0.6
					c-0.1,0.3-0.8,1.3-1.1,1.9c-0.3,0.5-0.5,1.2-0.5,1.6v6.3h-2.2V50c0-0.2-0.2-0.4-0.4-0.4c-0.2,0-0.4,0.2-0.4,0.4v0.5h-3.7V50
					c0-0.2-0.2-0.4-0.4-0.4c-0.2,0-0.4,0.2-0.4,0.4v4.8c-0.3,0-0.5,0.2-0.5,0.5s0.2,0.5,0.5,0.5h26.3c0-0.1,0.1-0.2,0.1-0.3
					c0.1-0.2,0.1-1.1,0.1-1.5c0-0.3-0.2-1.4-0.5-1.9s-1.3-1.6-1.5-1.8s-0.4-0.6-0.5-0.7c-0.3,0.2-0.9,0.2-0.9,0.2h-1.6l-0.5-0.4
					c0,0-0.2-0.2,0-0.3s2.1-1.9,2.1-1.9s0.5-0.5,1.1-0.2c0,0,0.1-0.1,0.3-0.3c0.2-0.3,0.2-0.4,0.2-0.4s0.5,0.2,0.2,0.8
					c0,0.1-0.1,0.2-0.3,0.3c-0.1,0-0.1,0.2,0.2,0.2c0.2,0,1,0,1.3,0.1c0.3,0,1.1,0.2,1.4,0.2h7.1c0.1,0,0.2,0,0.3,0l0,0
					c1.3,0,1.9,0.4,1.9,1.6c0,1.1-1.1,1.9-1.2,2.4c0,0,0.4,0.1,0.5,0.7c0,0.3,0,0.5,0,0.5s-0.9,0.1-1.2-0.5l0,0c0,1.4,0,2.8,0,3.4
					h20.8c0.3,0,0.5-0.2,0.5-0.5C146,55,145.8,54.8,145.5,54.8z M93.9,54.8c0,0-0.6,0-1.3,0h-2.4V53h3.7
					C93.9,53,93.9,54.8,93.9,54.8z M93.9,52.2h-3.7v-0.9h3.7V52.2z M96.9,54.8c-0.8,0-1.5,0-2.2,0V53h2.2V54.8z M96.9,52.2h-2.2
					v-0.9h2.2V52.2z M122.5,42.9c0,0.3,0.5,1.3,0.4,1.5c-0.6,0.1-1-0.4-1.5-0.6c-0.5-0.2-1.5,1-2,0.8c-0.1-0.4,0.1-1.1,0.2-1.5
					c-0.3-0.4-0.9-0.7-1.1-1.2c0.1-0.2,1.4-0.3,1.6-0.3c0.4-0.6,0.6-1.1,1-1.6c0.5-0.1,0.3,1.2,0.7,1.5c0.4,0.3,1.4-0.1,1.9,0.2l0,0
					v0.1C123.6,41.9,122.8,42.6,122.5,42.9z M132.2,54.8h-3.1V53h3.1C132.3,53.3,132.3,54.3,132.2,54.8z M132.3,52.2h-3.1v-0.9h3.1
					C132.3,51.6,132.3,51.9,132.3,52.2z M144.5,54.6c-0.5,0-1.6,0-1.7,0V53h1.7V54.6z M144.5,52.2h-1.7v-0.9h1.7V52.2z M121,37.1
					v-1.4h-8.5v1.5l-7.8,6.9h8.4L121,37.1z M117.1,53.3C117,53.2,117,53.3,117.1,53.3c-0.1,0.2-0.3,1.8-0.5,2.6h1.1
					c0-0.1,0.1-0.3,0.1-0.4c0-0.1-0.1-1-0.2-1.3C117.5,53.9,117.2,53.3,117.1,53.3z"/>
			</g>
		</g>
	</g>
</g>
<g id="legal" class="st0">
	<g id="XMLID_428_" class="st3">
		<g id="XMLID_429_">
			<g id="XMLID_430_">
				<g id="XMLID_431_">
					<path id="XMLID_432_" class="st2" d="M198.5,59.1h-0.6v-0.4h1.5v0.4h-0.6v1.5h-0.4v-1.5H198.5z M199.9,58.8h0.4l0.5,0.8
						l0.5-0.8h0.4v1.9h-0.4v-1.3l-0.5,0.8l0,0l-0.5-0.8v1.3h-0.4V58.8z"/>
				</g>
			</g>
		</g>
	</g>
	<g id="XMLID_352_" class="st3">
		<g id="XMLID_353_">
			<g id="XMLID_354_">
				<g id="XMLID_355_">
					<path id="XMLID_356_" class="st2" d="M198.5,59.1h-0.6v-0.4h1.5v0.4h-0.6v1.5h-0.4v-1.5H198.5z M199.9,58.8h0.4l0.5,0.8
						l0.5-0.8h0.4v1.9h-0.4v-1.3l-0.5,0.8l0,0l-0.5-0.8v1.3h-0.4V58.8z"/>
				</g>
			</g>
		</g>
	</g>
</g>
</svg>
