<?xml version="1.0" encoding="utf-8"?>
<!-- Generator: Adobe Illustrator 19.2.1, SVG Export Plug-In . SVG Version: 6.00 Build 0)  -->
<svg version="1.1" id="Layer_1" xmlns="http://www.w3.org/2000/svg" xmlns:xlink="http://www.w3.org/1999/xlink" x="0px" y="0px"
	 viewBox="0 0 235 119" style="enable-background:new 0 0 235 119;" xml:space="preserve">
<style type="text/css">
	.st0{display:none;}
	.st1{display:inline;fill:#4B4A4B;}
	.st2{fill:#9B9A9A;}
	.st3{display:inline;fill:#9B9A9A;}
</style>
<g id="Background" class="st0">
	<rect class="st1" width="235" height="119"/>
</g>
<g id="Logos">
	<g>
		<g>
			<path class="st2" d="M128.1,40.2c-1.7-4.2-5.4-6.8-10-6.8c-4.4,0-8.4,2.4-10.3,6.2c-1.4,2.3-2.1,5.2-2.2,8.2
				c-0.1,2.6,0.5,5.6,1.5,7.9c1.7,4.1,5.4,6.5,10,6.5c4.5,0,8.5-2.4,10.4-6.3c1.2-2.3,2-5,2-8C129.6,45,129.1,42.4,128.1,40.2
				L128.1,40.2z M112.5,41.5c1.1-3.8,2.8-5.4,5.6-5.4c3.5,0,4.5,2.6,5.1,5.4c0.4,1.8,0.5,4.1,0.4,6.6c-0.1,2.4-0.4,4.4-0.9,6
				c-1,3.7-2.8,5.4-5.5,5.4c-3.3,0-4.3-2.5-5-5.2l-0.1-0.4c-0.4-1.8-0.6-4.1-0.6-6.2C111.6,46.1,111.8,43.7,112.5,41.5z"/>
			<path class="st2" d="M158,53.7l-1.5,1.4c-1.9,1.8-3.5,3.4-6.3,3.6c-1.7,0.2-3.2-0.4-4.3-1.5c-1.7-1.9-2.3-5.3-1.6-9.4
				c1.3-7.8,3.4-11,7.2-11c2.2,0,3.3,1.8,4.4,5.1c0.1,0.4,0.6,0.7,1,0.6c0.4,0,0.8-0.4,0.9-0.8c0.3-1.5,2.1-3.9,2.1-4l0.1-0.1v-0.1
				c0.2-0.5,0.1-1-0.4-1.3c-2.6-1.6-5.4-2.4-8.1-2.4c-7.1,0-12.8,6.3-13.4,14.7c-0.3,4.4,0.9,8.3,3.4,10.8c2,2,4.6,3,7.5,2.9
				c4.5-0.2,7.1-3.5,8.5-5.2l0.7-0.8v-0.1L158,53.7z"/>
			<path class="st2" d="M98.8,33.7l0.1,1.2l0.2,4.5c0,4.3-0.1,9.3-0.3,14.9v0.1c0,2.3-0.3,10-3.5,11.8c-0.9,0.5-1.4,0.7-2.1,0.8
				l-0.9,0.2c-0.3,0.1-0.5,0.4-0.4,0.7l0.3,1.2v0.1l0.3,0.3l0.4,0.1c0.6,0,1.2-0.1,1.7-0.2c6-0.6,8.7-3.9,8.9-11.1l0.6-19.1l0.3-3
				l0.2-2.5h-0.3C104.3,33.7,98.8,33.7,98.8,33.7z"/>
			<polygon class="st2" points="131.2,33.7 131.2,34.9 131.4,39.3 131.3,47.1 131,56.6 130.7,59.6 130.5,62.1 130.8,62.1 
				136.3,62.1 136.2,60.9 136,56.4 136.2,48.6 136.5,39.1 136.7,36.1 137,33.7 136.7,33.7 			"/>
			<path class="st2" d="M77.8,60.4c-0.8-0.8-2-2-3.1-3.4c-2-2.4-4-5.4-5.3-7.2c0,0-0.6-0.9-0.9-1.3c4.7-1.3,7.5-4.1,7.6-7.8v-0.3
				c0-1.8-0.6-3.4-1.6-4.5c-1.6-1.7-4.4-2.6-8.3-2.6l-3.9,0.1h-6.8l0.1,1.2l0.2,4.5L55.6,47l-0.3,9.6L55,59.7l-0.2,2.4h0.3h5.6
				l-0.1-1.3c-0.1-0.9-0.3-2.3-0.3-4.2c0-0.1,0-0.1,0-0.2l0.1-7.9l0.3-9.5c0,0,0.1-1.4,0.2-1.9c0.4,0,3.8-0.1,3.8-0.1
				c2.4,0,4.1,0.5,5,1.4c0.6,0.6,0.9,1.5,0.9,2.6v0.2c-0.1,4.1-4.4,5.7-7.1,5.8c-0.3,0-0.6,0.2-0.7,0.5c-0.2,0.3-0.1,0.7,0.1,1.1
				l4.9,7.6l1,1.5c1,1.6,2.7,4.2,2.8,4.4l0.1,0.1h0.2H79v-0.3C79,61.6,78.7,61.3,77.8,60.4z"/>
			<path class="st2" d="M179.7,38.6c0-0.1,0-0.2,0-0.3c-0.2-2.9-2.5-4.7-6.1-4.7l-1.2,0.1l-0.8,0.1c-5.5,1-9.8,6.5-11.5,11.5
				l-0.5,1.3l7.1-2.2l0.1-0.4c1.3-4.5,4.2-7.6,6-7.7c0.6,0,1,0.1,1.3,0.3c0.4,0.3,0.6,0.9,0.6,1.7c0.1,1.7-0.5,3.3-1.8,4.6
				c-0.8,0.8-3.1,2.1-7,3.1l-6.4,1.8l-0.1,0.4c-0.2,1.4-0.3,2.8-0.2,4.2c0.3,4.9,3.3,8.8,7.2,9.5l0.3,0.1l1.2,0.2
				c4.5-0.2,7.1-3.5,8.5-5.2l0.7-0.8v-0.1l-0.2-2.4l-1.6,1.5c-1.9,1.8-3.5,3.4-6.2,3.6c-0.9,0.1-1.8-0.4-2.6-1.4
				c-0.9-1.2-1.6-3.1-1.6-5.4c0-1.1,0.2-2.2,0.6-3.4C175.1,45.7,179.7,42.5,179.7,38.6z"/>
			<path class="st2" d="M94,56L94,56l-0.2-2.5L92.2,55c-1.9,1.8-3.5,3.4-6.2,3.6c-0.9,0.1-1.8-0.4-2.6-1.4c-0.9-1.2-1.6-3.1-1.6-5.4
				c0-1.1,0.2-2.2,0.6-3.4c9.5-2.7,14.1-5.9,14.1-9.8c0-0.1,0-0.2,0-0.3c-0.2-2.9-2.5-4.7-6.1-4.7l-1.2,0.1l-0.8,0.1
				c-5.5,1-9.8,6.5-11.5,11.5l-0.5,1.3l7.1-2.2l0.1-0.4c1.3-4.5,4.2-7.6,6-7.7c0.6,0,1,0.1,1.3,0.3c0.4,0.3,0.6,0.9,0.6,1.7
				c0.1,1.7-0.5,3.3-1.8,4.6c-0.8,0.8-3.1,2.1-7,3.1l-6.4,1.8l-0.1,0.4C76,49.6,75.9,51,76,52.4c0.3,4.9,3.3,8.8,7.2,9.5l0.3,0.1
				l1.2,0.2c4.5-0.2,7.1-3.5,8.5-5.2L94,56z"/>
		</g>
		<g>
			<path class="st2" d="M126.3,85.4c0.6,0.1,0.9,0.2,0.9,0.4c0,0.2-0.1,0.4-0.3,0.5c-0.3,0.1-0.5,0.3-0.6,0.6
				c-0.6,1-1.3,2.1-2.2,3.3c-0.2-0.3-0.5-0.5-0.9-0.6c-0.4-0.2-0.8-0.2-1.2-0.2c0.4-0.4,0.8-0.9,1.3-1.7c0.5-0.7,0.8-1.2,0.9-1.5
				c0.2-0.4,0.3-0.8,0.4-1.3C125.2,85.2,125.8,85.3,126.3,85.4z M135.7,81.8c-0.1,0.4-0.1,0.7-0.1,1.1c0,0.3,0,0.7,0.1,1.1
				c-0.7-0.1-1.4-0.1-2.2-0.1h-3v5.6c0,1-0.2,1.7-0.7,2.3c-0.5,0.5-1.4,0.8-3,0.8c-0.2-0.6-0.4-1.1-0.5-1.6
				c-0.2-0.4-0.6-0.9-1.1-1.4c0.9,0,1.6,0.1,2.2,0.1c0.3,0,0.5-0.1,0.6-0.3c0.1-0.2,0.2-0.6,0.2-1.2V84h-3.6c-0.7,0-1.4,0.1-2.2,0.1
				c0-0.4,0.1-0.7,0.1-1.1s0-0.7-0.1-1.1c0.7,0.1,1.4,0.2,2.2,0.2h8.9C134.3,82,135,81.9,135.7,81.8z M136.1,66.2
				c-0.1,0.4-0.1,0.8-0.1,1.2c0,0.4,0,0.8,0.1,1.2c-0.8-0.1-1.6-0.2-2.4-0.2h-1.8v2.1h1.8c0.7,0,1.4-0.1,2-0.2v0.1
				c-0.1,0.6-0.2,1.3-0.2,1.9v2.9c0,0.7,0.1,1.4,0.2,2c-0.7-0.1-1.4-0.1-2-0.1h-8.5c-0.7,0-1.3,0.1-2,0.1c0.1-0.7,0.2-1.4,0.2-2
				v-2.9c0-0.7-0.1-1.3-0.2-2c0.7,0.1,1.3,0.2,2,0.2h1.7v-2.1h-2c-0.8,0-1.6,0.1-2.4,0.2c0.1-0.4,0.1-0.8,0.1-1.2
				c0-0.4,0-0.8-0.1-1.2c0.8,0.1,1.6,0.2,2.4,0.2h8.7C134.5,66.4,135.3,66.3,136.1,66.2z M126.8,78.6h5.2c0.8,0,1.4-0.1,2.2-0.2
				c-0.1,0.4-0.1,0.8-0.1,1.1c0,0.4,0,0.7,0.1,1.1c-0.7-0.1-1.4-0.1-2.2-0.1h-5.2c-0.7,0-1.4,0.1-2.2,0.1c0-0.4,0.1-0.8,0.1-1.1
				c0-0.3,0-0.7-0.1-1.1C125.4,78.5,126.1,78.6,126.8,78.6z M126.9,72.3h-1.6v3.1h1.6V72.3z M128.6,70.5h1.7v-2.1h-1.7V70.5z
				 M130.2,72.3h-1.7v3.1h1.7V72.3z M134.6,87.5c-0.3,0.1-0.6,0.3-0.9,0.4c-0.3,0.1-0.6,0.3-0.9,0.6c-0.3-0.9-0.8-1.7-1.4-2.6
				c0.3-0.1,0.6-0.2,0.9-0.4c0.3-0.2,0.5-0.4,0.7-0.6C133.4,85.7,134,86.6,134.6,87.5z M147.8,89.4c0.1,0.4,0.1,0.6,0.2,0.6
				c0.1,0,0.2-0.2,0.2-0.6s0.1-1.4,0.1-3c0.5,0.5,0.9,0.9,1.3,1.2c0.5,0.3,0.9,0.6,1.4,0.7c-0.2,1.3-0.6,2.4-1.1,3.4
				c-0.5,0.9-1.1,1.4-1.7,1.4c-0.1,0-0.1,0-0.2,0c-0.8,0-1.4-0.7-2-1.9c-0.7-1.4-1-3.5-1-6.4V72.4c-0.1,0.1-0.3,0.3-0.3,0.5
				c-0.5,3.3-1,5.9-1.5,7.8c0.9,2.7,1.4,5.1,1.7,7c-0.3,0-0.6,0-1,0.1s-0.8,0.3-1.1,0.5c0-1.4-0.2-3-0.6-4.8
				c-0.7,1.8-1.7,3.7-2.9,5.7c-0.2-0.3-0.5-0.6-0.8-0.8c-0.3-0.2-0.5-0.4-0.8-0.5c1.5-2,2.6-4.2,3.5-6.4c0.1-0.3,0.2-0.6,0.3-0.9
				c0-0.1,0-0.2-0.1-0.3c-0.7-2.2-1.4-4.2-2.1-6V79c0,3.1-0.4,5.6-1.2,7.5c-1,2.5-2.7,4.9-5,7.2c-0.1-0.5-0.4-1.1-0.7-1.5
				c-0.2-0.3-0.5-0.6-0.8-1c2.2-1.7,3.6-3.4,4.2-5.2c0.7-1.8,1.1-4.2,1.1-7v-9.2c0-1.3-0.1-2.5-0.2-3.8c1.2,0.1,2.5,0.2,3.7,0.2h3.5
				c1.2,0,2.5-0.1,3.7-0.2c-0.1,1.3-0.2,2.5-0.2,3.8v15C147.4,86.5,147.5,88,147.8,89.4z M131.8,75.4h1.7v-3.1h-1.7V75.4z
				 M139.3,68.6v4c0.1,0,0.2-0.1,0.2-0.1c0.3-0.1,0.6-0.2,0.9-0.4c0.1,0.8,0.3,1.4,0.5,2c0.3,0.7,0.7,2,1.3,3.8
				c0.4-1.7,0.6-3.5,0.8-5.4c0-0.4,0-0.7,0.1-1.1c0.6,0.2,1.1,0.3,1.6,0.3c0.2,0,0.3,0,0.4,0.1v-3.1h-5.8V68.6z"/>
			<path class="st2" d="M177.5,66.3c-0.3,0.5-0.5,0.8-0.5,1.3c-0.1,0.4,0,0.9,0.1,1.4c-0.3,0-0.5-0.1-0.8-0.1
				c-2.2,0.8-3.9,1.6-5.2,2.3c-0.9,0.5-1.7,0.9-2.4,1.3c0,0,0.1,0,0.1,0.1h5.6c0.8,0,2.3-0.1,4.5-0.2c-0.5,0.7-0.9,1.5-1.4,2.5
				c-0.8,1.5-1.3,2.5-1.6,3.2c-0.4-0.2-0.8-0.4-1.3-0.5c-0.4-0.1-0.9-0.2-1.4-0.2c0.7-1,1.2-1.7,1.6-2.4H169v3.3
				c0,1-0.3,1.7-0.9,2.3c-0.5,0.5-1.7,0.7-3.7,0.7c-0.1-0.5-0.3-1.1-0.5-1.5s-0.5-0.9-1.1-1.4c0.8,0,1.5,0.1,2,0.1
				c0.6,0,1-0.1,1.3-0.3c0.3-0.2,0.4-0.7,0.4-1.2v-1.9h-0.4c-1.7,1.6-3.4,2.8-5,3.7c-2,1-4.2,1.8-6.6,2.5c-0.2-0.4-0.5-0.8-0.8-1.1
				c-0.4-0.4-0.9-0.8-1.5-1.3c2.6-0.3,4.6-0.8,6.2-1.5c1.4-0.6,2.9-1.4,4.4-2.3h-6.3c-0.9,0-1.7,0.1-2.6,0.1c0-0.5,0.1-0.9,0.1-1.3
				s0-0.9-0.1-1.3c0.9,0.1,1.7,0.2,2.6,0.2h8.3c-0.8-0.6-1.8-1.1-2.8-1.7c0.4-0.3,0.7-0.6,0.9-1c0.2-0.3,0.4-0.6,0.6-1
				c1,0.9,2.1,1.7,3.2,2.5c1.2-0.9,2.4-1.7,3.6-2.4c0.1-0.1,0.3-0.2,0.5-0.3h-12.4c-0.9,0-1.8,0.1-2.6,0.2c0.1-0.5,0.1-0.9,0.1-1.3
				c0-0.5,0-0.9-0.1-1.3c0.9,0.1,1.8,0.2,2.6,0.2h15.1C175,66.5,176.2,66.4,177.5,66.3z M154.2,91.4c-0.4-0.5-0.9-1-1.4-1.4
				c2.8-0.7,5-1.4,6.5-2.1c1.2-0.6,2.3-1.3,3.4-2.1h-6.4c-0.9,0-1.8,0.1-2.6,0.2c0.1-0.4,0.1-0.9,0.1-1.3s0-0.9-0.1-1.3
				c0.9,0.1,1.8,0.2,2.6,0.2h8.9c0-0.8,0-1.5-0.1-2c1,0.1,1.8,0.1,2.6,0.1h0.1c0.4,0,0.7,0.1,0.7,0.4c0,0.2-0.1,0.5-0.4,0.6
				c-0.2,0.2-0.4,0.5-0.4,0.8v0.1h9.3c0.9,0,1.8-0.1,2.6-0.2c-0.1,0.4-0.1,0.9-0.1,1.3c0,0.5,0,0.9,0.1,1.3
				c-0.9-0.1-1.7-0.2-2.6-0.2h-7c1.1,1,2.3,1.8,3.4,2.4c1.6,0.8,3.9,1.4,6.8,1.7c-0.4,0.3-0.9,0.6-1.3,1.1c-0.5,0.5-0.9,1.1-1.2,1.9
				c-2.5-1-4.5-2-5.9-2.9c-1.3-0.9-2.7-2.1-4-3.6v3.9c0,1,0.1,2,0.2,3c-0.5,0-1-0.1-1.4-0.1c-0.5,0-1,0-1.4,0.1c0.1-1,0.2-2,0.2-3
				v-3.9c-0.8,0.9-1.7,1.8-2.6,2.5c-1.7,1.2-4.2,2.5-7.4,4C154.9,92.3,154.6,91.9,154.2,91.4z"/>
		</g>
	</g>
</g>
<g id="legal" class="st0">
	<path class="st3" d="M177.9,27.2c0.5,0,1,0.2,1.4,0.6s0.6,0.8,0.6,1.4c0,0.5-0.2,1-0.6,1.4c-0.4,0.4-0.9,0.6-1.4,0.6
		s-1-0.2-1.4-0.6s-0.6-0.9-0.6-1.4s0.2-1,0.6-1.4C176.9,27.4,177.3,27.2,177.9,27.2z M180.2,29.2c0-0.6-0.2-1.2-0.7-1.6
		c-0.4-0.4-1-0.7-1.6-0.7s-1.2,0.2-1.6,0.7c-0.4,0.4-0.7,1-0.7,1.6s0.2,1.2,0.7,1.6c0.4,0.4,1,0.7,1.6,0.7s1.2-0.2,1.6-0.7
		C179.9,30.4,180.2,29.8,180.2,29.2z M178.5,28.7c0,0.2-0.1,0.3-0.3,0.4c-0.1,0-0.2,0.1-0.4,0.1h-0.4v-0.9h0.4c0.3,0,0.4,0,0.5,0.1
		C178.4,28.4,178.5,28.5,178.5,28.7z M176.9,27.9v2.5h0.4v-1h0.4c0.2,0,0.4,0,0.5,0.1c0.2,0.1,0.2,0.3,0.2,0.6v0.2v0.1l0,0l0,0h0.4
		l0,0v-0.1c0-0.1,0-0.1,0-0.2v-0.2c0-0.1,0-0.3-0.1-0.4s-0.2-0.2-0.4-0.2c0.2,0,0.3-0.1,0.4-0.1c0.2-0.1,0.2-0.3,0.2-0.5
		c0-0.3-0.1-0.5-0.4-0.6c-0.1-0.1-0.4-0.1-0.7-0.1L176.9,27.9L176.9,27.9z"/>
	<path class="st3" d="M177.9,59.4c0.5,0,1,0.2,1.4,0.6c0.4,0.4,0.6,0.8,0.6,1.4c0,0.5-0.2,1-0.6,1.4c-0.4,0.4-0.9,0.6-1.4,0.6
		s-1-0.2-1.4-0.6c-0.4-0.4-0.6-0.9-0.6-1.4s0.2-1,0.6-1.4C176.9,59.6,177.3,59.4,177.9,59.4z M180.2,61.4c0-0.6-0.2-1.2-0.7-1.6
		c-0.4-0.4-1-0.7-1.6-0.7s-1.2,0.2-1.6,0.7c-0.4,0.4-0.7,1-0.7,1.6s0.2,1.2,0.7,1.6c0.4,0.4,1,0.7,1.6,0.7s1.2-0.2,1.6-0.7
		C179.9,62.6,180.2,62,180.2,61.4z M178.5,60.9c0,0.2-0.1,0.3-0.3,0.4c-0.1,0-0.2,0.1-0.4,0.1h-0.4v-0.9h0.4c0.3,0,0.4,0,0.5,0.1
		C178.4,60.6,178.5,60.7,178.5,60.9z M176.9,60.1v2.5h0.4v-1h0.4c0.2,0,0.4,0,0.5,0.1c0.2,0.1,0.2,0.3,0.2,0.6v0.2v0.1l0,0l0,0h0.4
		l0,0v-0.1c0-0.1,0-0.1,0-0.2v-0.2c0-0.1,0-0.3-0.1-0.4c-0.1-0.1-0.2-0.2-0.4-0.2c0.2,0,0.3-0.1,0.4-0.1c0.2-0.1,0.2-0.3,0.2-0.5
		c0-0.3-0.1-0.5-0.4-0.6c-0.1-0.1-0.4-0.1-0.7-0.1L176.9,60.1L176.9,60.1z"/>
</g>
</svg>
