<?xml version="1.0" encoding="utf-8"?>
<!-- Generator: Adobe Illustrator 19.2.1, SVG Export Plug-In . SVG Version: 6.00 Build 0)  -->
<svg version="1.1" xmlns="http://www.w3.org/2000/svg" xmlns:xlink="http://www.w3.org/1999/xlink" x="0px" y="0px"
	 viewBox="0 0 235 119" style="enable-background:new 0 0 235 119;" xml:space="preserve">
<style type="text/css">
	.st0{display:none;}
	.st1{display:inline;fill:#4B4A4B;}
	.st2{fill:#9B9A9A;}
	.st3{opacity:0.35;fill:#9B9A9A;}
	.st4{opacity:0.25;fill:#9B9A9A;}
	.st5{fill-rule:evenodd;clip-rule:evenodd;fill:#9B9A9A;}
	.st6{fill:none;stroke:#9B9A9A;stroke-width:0.4311;stroke-miterlimit:10;}
	.st7{fill:none;}
	.st8{display:inline;fill:#9B9A9A;}
	.st9{display:inline;fill-rule:evenodd;clip-rule:evenodd;fill:#9B9A9A;}
	.st10{display:inline;}
</style>
<g id="Background" class="st0">
	<rect class="st1" width="235" height="119"/>
</g>
<g id="Logos">
	<g>
		<path class="st5" d="M93.6,80.1h-2.1c-1.5,0-1.8-0.8-1.8-2.2v-9.2c0-2.5,1.7-5.9,4.4-5.9c0.7,0,1.1,0.1,1.6,0.6
			C94,63.7,93,64.8,93,66.5c0,2.4,1.9,3.4,4.1,3.4c2.4,0,4.1-2.4,4.1-4.6c0-3.4-2.7-5.8-5.8-5.8c-3,0-5,2.4-6,4.9h-0.1v-4.1H77.2
			v4.1h2.1c1.5,0,1.8,0.8,1.8,2.2v11.4c0,1.4-0.4,2.2-1.8,2.2h-2.1v4.1h16.4"/>
		<path class="st5" d="M114.2,59.5c-7.3,0-13,4.8-13,12.8c0,7.9,4.2,12.8,13,12.8c5.5,0,11.5-2.7,12.4-8.8h-5.9
			c-0.5,3-3.4,4.4-5.2,4.4c-4.3,0-5.1-3.6-5.1-7.2h16.9C127.2,65.4,122.5,59.5,114.2,59.5 M118.1,69.3h-7.7V68
			c0-2.6,1.4-4.4,3.9-4.4c2.5,0,3.8,1.8,3.8,4.4V69.3z"/>
		<path class="st5" d="M154.2,77.9V42.9h-12.5V47h2.1c1.5,0,1.8,0.8,1.8,2.2v13.6l-0.1,0.1c-1.1-2.3-4-3.4-7-3.4
			c-7.7,0-10.1,6.5-10.1,12.8c0,6.3,2.3,12.8,10.1,12.8c3.3,0,5.9-1.4,7.4-4.5h0.1v3.7h12v-4.1h-2C154.5,80.1,154.2,79.4,154.2,77.9
			 M141.6,80.2c-2.9,0-4.1-3.2-4.1-8.2c0-5,1.2-8.2,4.1-8.2c2.9,0,4.1,3.1,4.1,8.2C145.7,77.1,144.5,80.2,141.6,80.2z"/>
		<path class="st5" d="M88.7,94.1c-4-1-6.2-0.9-6.2-2.8c0-1.3,1.1-2.3,3.2-2.3c3.2,0,5.4,1.7,5.8,4.6h2.7v-7.1h-2.4l-0.6,1.4
			c-1.5-1.1-3.4-1.6-5.9-1.6c-5.1,0-8,2.3-8,6.2c0,1.7,0.7,3.2,2,4.2c1.4,1.1,3.5,1.6,6.2,2.3c2.7,0.6,4.4,0.8,4.4,2.7
			c0,1.4-1.3,2.3-3.5,2.3c-3.2,0-5.6-2-6.1-5.2h-2.6v7.7H80l0.8-1.4c1.4,1,3.8,1.8,6.3,1.8c5.1,0,8.1-2.5,8.1-6.4
			C95.2,97.1,93.1,95.2,88.7,94.1"/>
		<path class="st5" d="M108.8,89.3h0.3c2.7,0,3.9,1.6,3.9,4.9h2.7v-7.6h-19v7.6h2.6c0-3.4,1.3-4.9,3.9-4.9h0.3v12.1v0.4
			c0,1,0,1.6-0.5,1.7c-0.6,0.2-1.4,0.3-2.7,0.3v2.5h11.6v-2.5c-1.2,0-2.1-0.1-2.6-0.3c-0.4-0.1-0.5-0.7-0.5-1.8v-0.4"/>
		<path class="st5" d="M133,101.9l-4.8-15.2h-5.8l-5,15.1c-0.5,1.4-0.7,1.9-2.3,1.9h-0.7v2.6h8.6v-2.6h-1c-1.1,0-1.6-0.1-1.6-0.7
			c0-0.1,0-0.4,0.1-0.8l0.7-2.2h5.6l0.8,2.4c0.1,0.2,0.1,0.4,0.1,0.6c0,0.6-0.5,0.7-1.8,0.7h-0.8v2.6H136v-2.6h-1
			C133.8,103.7,133.4,103.2,133,101.9 M122.1,97.4l2-6.2l2,6.2H122.1z"/>
		<path class="st5" d="M145.4,98.4h1.4c1.3,0,1.4,0.3,1.4,1.5v1.4c0,1.9-0.6,2.6-3,2.6c-3.2,0-4.5-2.5-4.5-7.8
			c0-4.7,1.6-7.1,4.6-7.1c3,0,4.6,1.7,5,5.3h2.8v-7.9h-2.7l-0.5,1.4c-1.7-1.2-3.6-1.8-5.7-1.8c-5.8,0-9.9,4.3-9.9,10.6
			c0,6.2,3.8,10.1,9.8,10.1c2.2,0,4.3-0.6,6.2-1.9l0.7,1.5h2.6v-6.7c0-1,0.3-1.3,1.3-1.3h1v-2.6h-10.7"/>
		<path class="st5" d="M161.7,92.5c0-0.6-0.4-0.8-0.8-0.9v0c0.4-0.1,0.7-0.3,0.7-0.8c0-0.5-0.3-0.9-1.3-0.9h-1.9v0.4h0.4
			c0.2,0,0.2,0.1,0.2,0.2v2.3c0,0.1-0.1,0.2-0.2,0.2h-0.4v0.4h2.2C161.4,93.4,161.7,93,161.7,92.5 M159.6,90.3h0.5
			c0.4,0,0.7,0.1,0.7,0.5c0,0.5-0.3,0.5-0.7,0.5h-0.5V90.3z M159.6,93v-1.2h0.6c0.4,0,0.8,0.1,0.8,0.6c0,0.5-0.4,0.6-0.8,0.6H159.6z
			"/>
		<path class="st5" d="M162.3,90.5l1,1.4v0.9c0,0.1-0.1,0.2-0.2,0.2h-0.4v0.4h2V93h-0.4c-0.2,0-0.2-0.1-0.2-0.2V92l1.1-1.5
			c0.1-0.1,0.2-0.2,0.4-0.2h0.1V90H164v0.4h0.4c0.1,0,0.1,0.1,0.1,0.1c0,0,0,0.1,0,0.1l-0.6,0.9l-0.6-0.9c0,0,0-0.1,0-0.1
			c0-0.1,0-0.1,0.1-0.1h0.4V90h-1.8v0.4h0.1C162.1,90.3,162.3,90.4,162.3,90.5"/>
		<path class="st5" d="M159.8,100c0.8,0,1.5-0.4,1.5-1.2v-2.9c0-0.2,0.1-0.3,0.3-0.3h0.5v-0.5h-2.6v0.5h0.5c0.2,0,0.3,0.1,0.3,0.3v3
			c0,0.4-0.3,0.5-0.7,0.5c-0.2,0-0.5,0-0.7-0.2c0.3,0,0.5-0.2,0.5-0.6c0-0.3-0.3-0.5-0.6-0.5c-0.5,0-0.7,0.4-0.7,0.8
			C158.2,99.7,159.1,100,159.8,100"/>
		<path class="st5" d="M164.5,95.7h0.3v-0.5h-2.5v0.5h0.4c0.3,0,0.4,0.1,0.4,0.3v3.1c0,0.2-0.1,0.3-0.4,0.3h-0.4v0.5h2.5v-0.5h-0.4
			c-0.2,0-0.3-0.1-0.3-0.3v-3C164.1,95.8,164.3,95.7,164.5,95.7"/>
		<path class="st5" d="M165.1,95.7h0.4c0.2,0,0.3,0.1,0.3,0.2v3.2c0,0.2-0.1,0.2-0.3,0.2h-0.4v0.5h2.2v-0.5h-0.4
			c-0.2,0-0.3-0.1-0.3-0.2v-3.2h0l1.3,4h0.6l1.4-4h0v3.2c0,0.1-0.1,0.2-0.3,0.2h-0.5v0.5h2.5v-0.5h-0.4c-0.2,0-0.3-0.1-0.3-0.3v-3.1
			c0-0.2,0.1-0.2,0.3-0.2h0.5v-0.5h-2.2l-1.1,3.1h0l-1-3.1h-2.2"/>
		<path class="st5" d="M161.9,103.9L161.9,103.9c0.6-0.1,1-0.4,1-1.1c0-0.7-0.4-1.2-1.8-1.2h-2.6v0.5h0.5c0.2,0,0.3,0.1,0.3,0.3v3.2
			c0,0.2-0.1,0.3-0.3,0.3h-0.5v0.5h3.1c1.2,0,1.6-0.5,1.6-1.3C163,104.2,162.5,104,161.9,103.9 M160.2,102.2h0.7c0.6,0,1,0.1,1,0.8
			c0,0.6-0.4,0.7-1,0.7h-0.7V102.2z M161,105.8h-0.8v-1.7h0.8c0.6,0,1.1,0.1,1.1,0.8C162,105.7,161.5,105.8,161,105.8z"/>
		<path class="st5" d="M163.2,102.2h0.3c0.4,0,0.5,0.1,0.5,0.4v2.8c0,0.4-0.1,0.5-0.4,0.5h-0.4v0.5h4.7v-2h-0.5
			c-0.1,1.1-0.3,1.5-1,1.5H165v-1.7h0.4c0.4,0,0.6,0.2,0.6,0.8v0.2h0.5v-2.4H166v0.1c0,0.6-0.2,0.8-0.6,0.8H165v-1.5h1.3
			c1,0,1,0.4,1.1,1.4h0.5v-1.9h-4.7"/>
		<path class="st5" d="M172.7,105.5l-1.4-3.8h-1l-1.4,3.8c-0.1,0.3-0.4,0.4-0.7,0.4v0.5h2.2v-0.5h-0.6c-0.1,0-0.2,0-0.2-0.1
			c0-0.1,0-0.1,0-0.1l0.2-0.7h1.6l0.2,0.7c0,0,0,0.1,0,0.2c0,0.1-0.1,0.1-0.2,0.1H171v0.5h2.5v-0.5
			C173.1,105.8,172.9,105.8,172.7,105.5 M170.1,104.3l0.6-1.7h0l0.6,1.7H170.1z"/>
		<path class="st5" d="M177,104.7L177,104.7l-1-3.1h-2.2v0.5h0.4c0.2,0,0.3,0.1,0.3,0.2v3.2c0,0.2-0.1,0.2-0.3,0.2h-0.4v0.5h2.2
			v-0.5h-0.4c-0.1,0-0.3-0.1-0.3-0.2v-3.2h0l1.3,4h0.6l1.4-4h0v3.2c0,0.1-0.1,0.2-0.3,0.2h-0.5v0.5h2.5v-0.5h-0.4
			c-0.2,0-0.3-0.1-0.3-0.3v-3.1c0-0.2,0.1-0.2,0.3-0.2h0.5v-0.5h-2.2"/>
		<path class="st5" d="M97.6,23.3c0.7,1.8,1.2,3.6,1.2,6c0.1,2.2,0.3,4.2,0.6,6.3c0.3,2,0.7,4,1.4,5.9c0.8,2.1,3.1,3.9,4.6,5.6
			c1.1,1.1,2.1,2.4,3.1,3.6c1,1.2,2.1,2.4,2.7,3.8c-0.3,0.3-0.2,0.6-0.2,1c0,0-0.3,1.5,0.6,2c0,0,5.2-0.1,8.5,1.5c0,0,0.5-2,1.4-1.7
			c0.7,0.2,1.4-0.1,2-0.1c2.5,0.2,4.4-0.1,6.4-1c1.8-0.8,3.3-2.1,4.4-4.5c-0.9,0.5-1.4,1.4-2.2,1.9c-0.4,0.3-0.8,0.5-1.2,0.8
			c-0.4,0.2-0.8,0.5-1.3,0.4c1.1-1.2,1.2-1.8,2.2-3c-0.6-0.1-1.1,0.4-1.6,0.7c-0.5,0.3-1,1-1.5,1.4c-0.9,0.6-0.4,0.6-1.4,0.9
			c-0.7,0.2-1.5,0.1-2.4-0.1c-2.6-0.8-4.3-2.1-3.2-4.8c0.7-1.6,1.9-3.9,2.8-4.7c1-0.9,2.3-1.2,3.4-1.9c1.1-0.8,1.9-1.7,3-2.8
			c2.1-2.3,4.5-4.4,5.5-8.4c-1,1.1-1.6,2.7-2.7,4.1c-0.5,0.6-1.1,1-1.6,1.5c-0.6,0.6-1.2,1-1.7,1.5c-1.2,1.1-2.3,2.6-3.8,3
			c-0.4,0.1-1.2,0.2-1.6,0c-1.4-0.5-1.3-2.6-1.4-3.8c-0.1-1-0.2-2.8,0.4-3.9c0.2-0.5,0.8-1,1.3-1.5c1.8-1.9,3.3-3.7,4.5-6.5
			c0.2-0.5,0.7-1,0.5-1.6c-1.8,3.1-3.8,5.9-6.4,7.4c-0.1-3,1-7.5,2.6-10.6c0.3-0.5,0.8-1.2,0.5-1.8c-0.7,0.3-1,1.1-1.4,1.7
			c-0.5,0.7-0.9,1.4-1.2,2.2c-1.3,2.7-1.8,5.7-2.3,8.4c-1.3-0.9-1.9-2.5-2.2-4.2c-0.3-1.5-0.7-3.4-0.3-5.1c0.1-0.6,0.5-1.3,0.7-2
			c0.2-0.6,0.7-1.4,0.2-1.9c-0.8,1.4-1.5,2.3-1.9,3.9c-0.3,1.1-0.2,2.1-0.1,3.2c0.2,2.2,0.3,4,1.2,5.7c0.4,0.8,1.2,1.3,1.8,2.3
			c0.5,0.8,0.2,2,0.2,3.1c-0.1,1.5,0.1,2.9,0.2,4.4c0.1,1,0.4,1.8,0.1,2.6c-0.7,2.3-2.9,5.5-2.7,7.7c0,0.3,0.4,0.7,0.2,1
			c-0.1,0.5-1,0.8-1.3,1.4c-0.3,0.5-0.4,0.9-0.7,1.4c-0.6,0-0.7,0.8-1.2,0.8c-0.2,0-0.8-0.3-1-0.6c-0.3-0.4-0.1-1.1-0.4-1.6
			c-0.2-0.4-0.4-0.4-0.5-0.7c-0.4-1.2,1.1-1.9,1.5-2.9c0.4-0.9,0.3-2.1,0.6-3.2c0.6-1.9,1.6-4,1-5.4c-0.3,2.3-2,4.1-2.5,6.3
			c-0.1,0.4,0,0.8-0.1,1.2c-0.2,0.6-1.7,2.2-2.3,2c-0.4-0.1-1-1-1.4-1.4c-1-1.2-1.6-1.7-2.5-2.9c-0.3-0.4-1.1-1.1-1.1-1.5
			c0-0.9,0.6-2.2,0.9-3.1c0.4-1.1,0.9-2,1-3c-0.4,0.2-0.6,0.7-0.9,1.1c-0.8,1.3-1.5,2.9-2.3,4.1c-1.2-1.3-2.5-2.3-3.2-3.8
			c-0.7-1.3-1.5-3.7-1.5-5.2c0-1,0.3-2.4,0.6-3.6c0.6-2.4,1.8-3.4,2.9-5.1c0.8-1.3,1.5-2.8,2-4.4c-0.7,0.4-1,1.2-1.5,1.8
			c-1.5,1.9-3.1,3.5-4.5,5.6c-0.3-0.5-0.1-1.3-0.1-2c0-0.8,0-1.6,0.1-2.2c0.3-1.2,0.9-1,1.5-1.6c1.1-1.1,1.9-2.6,3-4
			c0.5-0.6,1.1-1.1,1.7-1.6c0.6-0.5,1.1-1.2,1.7-1.6c1.3-1,3.3-1.2,4.2-2.5c-0.4-0.2-0.9,0.1-1.2,0.2c-1.2,0.4-2.7,0.7-3.7,1.4
			c-0.5,0.3-0.8,0.7-1.3,1.1c-0.5,0.4-0.9,0.5-1.4,0.8c-1.7,1.1-2.2,3.4-3.9,4.7c0.9-3.7,3.2-6.1,5-8.6c-0.4-0.1-0.8,0.3-1,0.6
			c-2.3,2-4.9,4.9-5.9,8.8c-1.2-0.9-2.1-3.6-1.7-5.4c0.4-1.9,1.4-3.1,2.2-4.5c0.6-1.1,1.4-2,1.6-3c-1.8,1.1-2.9,3.6-4.3,5.5
			c-0.3-0.2,0-0.8-0.4-1c-0.2,1.9-0.8,3.9-0.5,5.6C96.8,21.4,97.2,22.4,97.6,23.3"/>
	</g>
	<rect y="0" class="st7" width="235" height="119"/>
</g>
<g id="legal" class="st0">
	<path class="st8" d="M167.7,102.7c0-0.8,0.6-1.4,1.4-1.4c0.8,0,1.4,0.6,1.4,1.4c0,0.8-0.6,1.4-1.4,1.4
		C168.3,104,167.7,103.4,167.7,102.7"/>
	<path class="st8" d="M170.1,102.7c0-0.6-0.5-1.2-1.1-1.2c-0.6,0-1.1,0.5-1.1,1.2c0,0.6,0.5,1.2,1.1,1.2S170.1,103.3,170.1,102.7z"
		/>
	<path class="st8" d="M168.4,101.9h0.8c0.2,0,0.5,0.1,0.5,0.4c0,0.2-0.1,0.3-0.3,0.4l0.2,0.3c0.1,0.1,0.2,0.3,0.3,0.3v0h-0.3
		c-0.1,0-0.2-0.3-0.4-0.6h-0.1v0.4c0,0.1,0,0.2,0.2,0.2v0.1h-0.7v-0.1c0.2,0,0.2,0,0.2-0.2v-1C168.6,102,168.6,102,168.4,101.9
		L168.4,101.9z"/>
	<path class="st8" d="M168.9,102.7h0.1c0.2,0,0.2-0.2,0.2-0.3c0-0.2-0.1-0.3-0.2-0.3h-0.1V102.7z"/>
</g>
</svg>
