<?xml version="1.0" encoding="utf-8"?>
<!-- Generator: Adobe Illustrator 19.2.1, SVG Export Plug-In . SVG Version: 6.00 Build 0)  -->
<svg version="1.1" id="Layer_1" xmlns="http://www.w3.org/2000/svg" xmlns:xlink="http://www.w3.org/1999/xlink" x="0px" y="0px"
	 viewBox="0 0 235 119" style="enable-background:new 0 0 235 119;" xml:space="preserve">
<style type="text/css">
	.st0{display:none;}
	.st1{display:inline;fill:#4B4A4B;}
	.st2{fill:#9B9A9A;}
</style>
<g id="Background" class="st0">
	<rect class="st1" width="235" height="119"/>
</g>
<g id="Logos">
	<g id="XMLID_176_">
		<path id="XMLID_196_" class="st2" d="M64.5,61h2.4l1.5-3.6c1.3,2.2,3.1,3.8,6.1,3.8c1.8,0,3.6-0.8,4.8-2c1.7-1.7,2.6-4.4,2.6-7.4
			c0-3.3-0.7-5.8-2.4-7.5c-1.1-1.1-2.6-1.8-4.7-1.8c-2.5,0-4.7,1.5-5.9,3.9v-11h-7.3v3h2.8L64.5,61L64.5,61z M73.3,45.4
			c2.4,0,3.7,2.3,3.7,6.4c0,4.3-1.4,6.6-3.7,6.6c-2.5,0-4.5-2.3-4.5-6.2S70.6,45.4,73.3,45.4"/>
		<path id="XMLID_195_" class="st2" d="M94,57.9h-3.4v-8.3c0.7-2.3,1.9-3.9,3.3-3.9c0,0.2-0.1,0.3-0.1,0.5c0,1.6,1.2,2.5,2.7,2.5
			s2.6-1.3,2.6-2.9c0-1.7-1.2-3.3-3.3-3.3c-2.2,0-4.5,1.5-5.4,4.7v-4.4h-7.1v2.9H86v12.2h-2.7v2.9H94V57.9z"/>
		<path id="XMLID_192_" class="st2" d="M108.8,61.1c4.4,0,7.1-2.2,8-6h-2.3c-1,2.3-2.5,3.2-4.7,3.2c-3.2,0-5-1.8-5.2-6.2h12.3
			c0.2-5.2-2.4-9.7-8-9.7c-5.2,0-9.1,4.1-9.1,9.5C99.8,57.3,103.1,61.1,108.8,61.1 M108.6,44.8c2.4,0,3.5,1.9,3.8,5.4h-7.8
			C105,46.2,106.4,44.8,108.6,44.8"/>
		<path id="XMLID_189_" class="st2" d="M135.4,58.3c-0.8,0-1.1-0.3-1.1-1.2v-8.8c0-3.8-2.2-5.8-6.8-5.8c-4.2,0-7.8,1.7-7.8,4.7
			c0,1.3,0.9,2.5,2.6,2.5c1.5,0,2.5-1,2.5-2.3c0-0.9-0.4-1.6-1-1.9c0.8-0.5,1.7-0.7,2.7-0.7c2.3,0,3.4,0.9,3.4,3.2v1.8
			c0,0.6-0.3,0.6-2.5,0.9c-3.8,0.5-5.7,1.1-7,2.4c-0.9,0.9-1.3,2-1.3,3.2c0,2.8,2.1,4.7,5.4,4.7c2.4,0,4.8-1.2,5.9-3.5h0.2
			c0.1,2.4,1.7,3.4,3.6,3.4c2.1,0,3.5-1,4.3-3.6l-1.6-0.7C136.4,57.8,135.9,58.3,135.4,58.3 M129.8,54.5c0,2.2-1.7,3.8-3.4,3.8
			c-1.9,0-2.7-1.1-2.7-2.7c0-2.1,1-2.7,4.3-3.2c1-0.2,1.4-0.2,1.7-0.4v2.5H129.8z"/>
		<path id="XMLID_186_" class="st2" d="M98.3,81.4c-0.8,0-1.1-0.3-1.1-1.2v-8.8c0-3.8-2.2-5.8-6.8-5.8c-4.2,0-7.8,1.7-7.8,4.7
			c0,1.3,0.9,2.5,2.6,2.5c1.5,0,2.5-1,2.5-2.3c0-0.9-0.4-1.6-1-1.9c0.8-0.5,1.7-0.7,2.7-0.7c2.3,0,3.4,0.9,3.4,3.2v1.8
			c0,0.6-0.3,0.6-2.5,0.9c-3.8,0.5-5.7,1.1-7,2.4c-0.9,0.9-1.3,2-1.3,3.2c0,2.8,2.1,4.7,5.4,4.7c2.4,0,4.8-1.2,5.9-3.5h0.2
			c0.1,2.4,1.7,3.4,3.6,3.4c2.1,0,3.5-1,4.3-3.6l-1.6-0.7C99.3,80.9,98.8,81.4,98.3,81.4 M92.7,77.6c0,2.2-1.7,3.8-3.4,3.8
			c-1.9,0-2.7-1.1-2.7-2.7c0-2.1,1-2.7,4.3-3.2c1-0.2,1.4-0.2,1.7-0.4L92.7,77.6L92.7,77.6z"/>
		<path id="XMLID_185_" class="st2" d="M140.2,55.8c0,3.5,1.7,5.4,5.2,5.4c3,0,5-1.6,5.9-5.5l-2-0.7c-0.7,2.2-1.5,3.2-2.6,3.2
			c-1.5,0-2-0.9-2-2.6v-9.9h5.2v-2.9h-5.2v-4.4h-4.5v4.4h-3.5v2.9h3.4v10.1H140.2z"/>
		<path id="XMLID_184_" class="st2" d="M170.8,57.9v-9.5c0-3.6-1.8-5.9-5.1-5.9c-2.7,0-4.7,1.3-6.4,4.4V35.4H152v3h2.8v19.5H152v2.9
			h9.6v-2.9h-2.4V51c0-3.2,2.1-5.2,4.2-5.2c0.8,0,1.5,0.2,1.9,0.7c0.6,0.6,0.9,1.6,0.9,2.9v8.4h-2.4v2.9h9.7v-2.9L170.8,57.9
			L170.8,57.9z"/>
		<path id="XMLID_183_" class="st2" d="M73.3,72.8c-3.3-0.9-4.5-1.6-4.5-3c0-1.3,1.1-2.1,2.5-2.1c2.3,0,3.6,1.6,5,4h2.6v-6.2h-2.6
			l-0.5,2.1c-1-1.4-2.7-2.1-4.7-2.1c-3.8,0-6.4,2.5-6.4,5.5s1.9,4.5,6.2,5.6c3.6,0.9,4.7,1.6,4.7,3.1c0,1.3-0.8,2.2-2.7,2.2
			c-2.3,0-4.6-1.8-5.8-4.5h-2.6v6.7H67l0.5-2.4c1.2,1.4,3,2.4,5.5,2.4c4.2,0,6.6-2.9,6.6-5.8C79.6,75.2,77.4,73.9,73.3,72.8"/>
		<polygon id="XMLID_182_" class="st2" points="112.5,68.7 114.9,68.7 110.8,80.2 110.7,80.2 106.7,68.7 109.6,68.7 109.6,65.9 
			99.3,65.9 99.3,68.7 101.8,68.7 107.6,84 111.9,84 118,68.7 120.2,68.7 120.2,65.9 112.5,65.9 		"/>
		<path id="XMLID_179_" class="st2" d="M129.6,65.6c-5.2,0-9.1,4.1-9.1,9.5c0,5.3,3.3,9.2,9,9.2c4.4,0,7.1-2.2,8-6h-2.3
			c-1,2.3-2.5,3.2-4.7,3.2c-3.2,0-5-1.8-5.2-6.2h12.3C137.9,70.1,135.3,65.6,129.6,65.6 M125.4,73.2c0.3-4,1.8-5.4,4-5.4
			c2.4,0,3.5,1.9,3.8,5.4H125.4z"/>
		<path id="XMLID_178_" class="st2" d="M151.8,65.6c-2.2,0-4.5,1.5-5.4,4.7v-4.4h-7.1v2.9h2.7V81h-2.7v2.9h10.6V81h-3.4v-8.3
			c0.7-2.3,1.9-3.9,3.3-3.9c0,0.2-0.1,0.3-0.1,0.5c0,1.6,1.2,2.5,2.7,2.5s2.6-1.3,2.6-2.9C155.1,67.1,153.9,65.6,151.8,65.6"/>
		<path id="XMLID_177_" class="st2" d="M165.2,72.8c-3.3-0.9-4.5-1.6-4.5-3c0-1.3,1.1-2.1,2.5-2.1c2.3,0,3.6,1.6,5,4h2.6v-6.2h-2.6
			l-0.5,2.1c-1-1.4-2.7-2.1-4.7-2.1c-3.8,0-6.4,2.5-6.4,5.5s1.9,4.5,6.2,5.6c3.6,0.9,4.7,1.6,4.7,3.1c0,1.3-0.8,2.2-2.7,2.2
			c-2.3,0-4.6-1.8-5.8-4.5h-2.6v6.7h2.6l0.5-2.4c1.2,1.4,3,2.4,5.5,2.4c4.2,0,6.6-2.9,6.6-5.8C171.5,75.2,169.3,73.9,165.2,72.8"/>
	</g>
</g>
<g id="legal" class="st0">
</g>
</svg>
