<?xml version="1.0" encoding="utf-8"?>
<!-- Generator: Adobe Illustrator 19.2.1, SVG Export Plug-In . SVG Version: 6.00 Build 0)  -->
<svg version="1.1" id="Layer_1" xmlns="http://www.w3.org/2000/svg" xmlns:xlink="http://www.w3.org/1999/xlink" x="0px" y="0px"
	 viewBox="0 0 235 119" style="enable-background:new 0 0 235 119;" xml:space="preserve">
<style type="text/css">
	.st0{display:none;}
	.st1{display:inline;fill:#4B4A4B;}
	.st2{fill:#9B9A9A;}
</style>
<g id="Background" class="st0">
	<rect class="st1" width="235" height="119"/>
</g>
<g id="Logos">
	<g>
		<path class="st2" d="M59.7,69c4.1,0,7.4,3.3,7.4,7.3s-3.3,7.3-7.4,7.3h-6.4v5.2c0,1.8,0.8,2.8,0.8,2.8h-5.3c1-1,0.8-2.8,0.8-2.8
			v-5.2V72.4v-0.2c0-2.5-0.9-3.2-0.9-3.2L59.7,69z M53.4,71.2v10.5H58c0,0,4.9,0,4.9-5.4s-5-5.1-5-5.1H53.4z"/>
		<g>
			<path class="st2" d="M73.1,72.2h4.6c0,0,5.8,14.4,6.6,16.3c0.8,2,2.3,3.1,2.3,3.1h-5.7c0.2-1-0.3-2.1-0.3-2.1l-1.2-2.9h-7.8
				c0,0-1.2,2.7-1.4,3.5s-0.1,1.6-0.1,1.6h-4.3c1.4-1,2.2-3.1,2.2-3.1s5-12.2,5.6-13.9C74.3,73,73.1,72.2,73.1,72.2z M75.3,76.9
				l-2.9,7.5h6.2L75.3,76.9z"/>
			<path class="st2" d="M108.4,72.2h15v3.2c0,0-0.9-0.9-2.9-0.9s-2.8,0-2.8,0v14.6c0,0-0.1,1.7,0.6,2.5h-5.1c0,0,0.6-1.2,0.6-2.4
				c0-1.3,0-14.6,0-14.6h-3.3c0,0-1.3-0.1-2.2,0.8v-3.2H108.4z"/>
			<path class="st2" d="M126.8,72.2h13.7v3.2c0,0-1.1-0.9-3-0.9s-6.2,0-6.2,0v6.2h6.8c0,0,1,0,1.4-0.4v3.1c0,0-0.5-0.4-1.3-0.4
				s-6.9,0-6.9,0v6.5h6.9c0,0,1.6,0.1,2.5-0.7v2.8h-13.6c0,0,0.6-0.8,0.6-2.3c0-1.4,0-14.7,0-14.7C127.7,73.2,126.8,72.2,126.8,72.2
				z"/>
			<path class="st2" d="M146.1,74.9c0,0-0.1-1.6-1.2-2.7h3c0,0,0.8-0.1,2.5,2.1c1.8,2.3,8.9,11.5,8.9,11.5V74c0,0,0-1.1-0.7-1.8h3.5
				c0,0-0.4,1-0.4,1.8s0,17.6,0,17.6s-1.2,0.4-2.6-0.8c-1.4-1.3-3.8-4-5-5.6c-1.1-1.6-5.7-8.1-5.7-8.1v12.1c0,0-0.1,1.6,0.6,2.4
				h-3.7c0,0,0.7-1.2,0.7-2.4S146.1,74.9,146.1,74.9z"/>
			<path class="st2" d="M166.6,72.2h13.7v3.2c0,0-1.1-0.9-3-0.9s-6.2,0-6.2,0v6.2h6.8c0,0,1,0,1.4-0.4v3.1c0,0-0.5-0.4-1.3-0.4
				s-6.9,0-6.9,0v6.5h6.9c0,0,1.6,0.1,2.5-0.7v2.8h-13.6c0,0,0.6-0.8,0.6-2.3c0-1.4,0-14.7,0-14.7C167.4,73.2,166.6,72.2,166.6,72.2
				z"/>
			<path class="st2" d="M89.1,74.9c0,0-0.1-1.6-1.2-2.7h3c0,0,0.8-0.1,2.5,2.1c1.8,2.3,8.9,11.5,8.9,11.5v-8.7l2.4,2.3v12.1
				c0,0-1.2,0.4-2.6-0.8c-1.4-1.3-3.8-4-5-5.6C96,83.5,91.4,77,91.4,77v12.1c0,0-0.1,1.6,0.6,2.4h-3.7c0,0,0.7-1.2,0.7-2.4
				L89.1,74.9L89.1,74.9z"/>
			<path class="st2" d="M139.5,16.3c0,0,2.8,7.6-7.6,15.6s-37,14.6-37.4,27c0,0-0.1,0.7,0.3,0.7s0.3-0.5,0.4-0.9
				c0-0.4,0.2-7,13.7-12s28.3-9.1,32.3-19c0,0,2.6-5.3-1.1-11.3c0,0-0.2-0.4-0.5-0.3C139.3,16,139.5,16.3,139.5,16.3z"/>
			<path class="st2" d="M136.3,23.5c0,0,2.3,1.5,2.2,6.4s-5.2,10.6-8.7,12.6c0,0-0.7,0.5-0.5,0.9s0.9-0.1,1.2-0.3
				c0.3-0.1,9.3-5.6,10.2-13.2c0.3-2.5-1-5.7-3.9-7.1c0,0-0.6-0.3-0.8-0.1C135.8,23.1,136.3,23.5,136.3,23.5z"/>
			<path class="st2" d="M143.9,29.8c0.1,0.1,1.8,5.9-3.7,10.5s-13.6,8.1-27.8,14.6c-9,4.1-15,8.6-12.9,15.1c0,0,0.3,0.8,0.6,0.8
				c0.4-0.1,0.3-0.7,0.1-1.1c-0.1-0.4-1.5-4.9,3.9-8.3c5.4-3.4,14.3-6.4,21.6-8.6s19.9-7.5,21.1-16.6c0,0,0.1-3.6-2.5-6.6
				c0,0-0.4-0.5-0.6-0.4C143.5,29.2,143.8,29.5,143.9,29.8z"/>
			<path class="st2" d="M136.4,50.6c0,0,0.1,4.2-8.2,7.5c-8.4,3.3-26.9,6.4-26.6,12s6.7,8,9.5,10.2c0,0,0.4,0.3,0.7,0
				c0.3-0.3,0-0.8-0.6-1.2c-0.6-0.4-8.3-4.6-8.5-7.6s0-4,10.5-6.4c10.6-2.5,16-2.3,21.4-7.2c0,0,2.9-2.7,2.9-6c0,0,0.1-2.4-0.8-2.2
				C136.3,49.7,136.4,50.6,136.4,50.6z"/>
			<path class="st2" d="M102.2,52.5c0,0-10,7.5-5.5,14.1c0,0,0.5,0.5,0.9,0.4s0-0.8-0.1-1.2c-0.1-0.4-3.1-5.6,5.4-12.7
				c0,0,0.6-0.4,0.3-0.8C103,51.9,102.2,52.5,102.2,52.5z"/>
			<path class="st2" d="M119.9,88.2c0.2,0.2,4.3,3.8,5.7,5.6c1.4,1.8,1.8,3.1-1.8,2.6c-3.6-0.5-20-5-23.1,0.1c0,0-1,1.3-1,2.8
				c0,1.4,0.8,0.7,1.4-0.5s3.9-2.4,11.7-1.4s14.7,1.8,15.4-2c0,0,0-1.1-2.1-3c-2.1-1.8-5.7-4.9-5.7-4.9c-0.1-0.1-0.4-0.2-0.6,0
				C119.5,87.7,119.6,87.9,119.9,88.2z"/>
			<path class="st2" d="M167.9,95.7h1.3l3.6,6.4c0,0,2.6-4.9,2.9-5.6c0.3-0.7,0.5-0.8,0.5-0.8h0.9l-4.1,7.6h-1L167.9,95.7z
				 M142.6,95.6h3.6c0.4,0,4.1-0.2,4.1,2.4c0,1.6-1.4,2.2-2.5,2.3l2.7,3H149l-2.7-2.9h-2.4v2.9h-1.3L142.6,95.6L142.6,95.6z
				 M143.9,96.3v3.4h2.2c0,0,2.8,0.1,2.8-1.6c0-1.9-2.4-1.9-2.9-1.9L143.9,96.3L143.9,96.3z M152.1,99.5c0-2.3,2.3-4.2,5.2-4.2
				s5.2,1.9,5.2,4.2s-2.3,4.2-5.2,4.2C154.4,103.7,152.1,101.8,152.1,99.5z M153.5,99.5c0,1.9,1.7,3.4,3.8,3.4s3.8-1.5,3.8-3.4
				s-1.7-3.4-3.8-3.4S153.5,97.6,153.5,99.5z M133.2,95.6h3.6c0.4,0,3.9-0.1,3.9,2.4c0,2.7-3.6,2.6-3.6,2.6h-2.6v2.7h-1.3
				L133.2,95.6L133.2,95.6z M134.6,96.3v3.6h2.2c0,0,2.6,0.3,2.6-1.7s-2.2-1.9-2.7-1.9H134.6z M164,100.2c0,0,0.3-0.7,1.1-0.7h2
				c0,0-0.4,0.7-1,0.7H164z"/>
		</g>
	</g>
</g>
<g id="legal" class="st0">
</g>
</svg>
