<?xml version="1.0" encoding="utf-8"?>
<!-- Generator: Adobe Illustrator 19.2.1, SVG Export Plug-In . SVG Version: 6.00 Build 0)  -->
<svg version="1.1" id="Layer_1" xmlns="http://www.w3.org/2000/svg" xmlns:xlink="http://www.w3.org/1999/xlink" x="0px" y="0px"
	 viewBox="0 0 235 119" style="enable-background:new 0 0 235 119;" xml:space="preserve">
<style type="text/css">
	.st0{display:none;}
	.st1{display:inline;fill:#4B4A4B;}
	.st2{fill:#9B9A9A;}
	.st3{opacity:0.35;fill:#9B9A9A;enable-background:new    ;}
	.st4{opacity:0.25;fill:#9B9A9A;enable-background:new    ;}
</style>
<g id="Background" class="st0">
	<rect class="st1" width="235" height="119"/>
</g>
<g id="Logos">
	<g>
		<g>
			<path class="st2" d="M73.3,59.2c0-8.1-5.5-10.4-9.6-10.4s-7.2,1.6-9.2,4.4c-2,2.9-2.5,6.4-2.3,13.2s1.2,13.8,1.7,17.8
				c0.5,4,2.3,4.8,4.5,4.8s2.5-0.8,2.2-2.4c-0.3-2.4-1.4-11.9-1.4-11.9C71.6,73.3,73.3,63.6,73.3,59.2z M58.5,69.3
				c0,0-2.3-14.5,4.5-14.8c3.9,0,4.4,4.3,4.4,5.4C67.5,61,67.5,67.9,58.5,69.3z"/>
			<path class="st2" d="M77.5,64.5c-1.4,0-3.9,0.2-3.9,2.5s1.8,2.2,3.1,2.2S79,70,79,70.8c0,0.8,0,1.1,0,1.1c-8.3,0-12.2,4-12.2,7.7
				s2.5,7,6.1,7s5.8-3.8,5.8-3.8s-0.1,1.7,0.6,2.8c0.8,1.1,3.3,0.9,3.9,0.9s0.7-0.7,0.7-2.1c0-2.6,0-9.2,0-13.3
				C83.9,65.3,78.9,64.5,77.5,64.5z M77.8,79.8c-1,1.9-3.8,3-4.8,1.6c-1.1-1.4,0-3.4,1-4.2c1.9-1.7,4.8-1.3,4.8-1.3
				S78.8,77.8,77.8,79.8z"/>
			<path class="st2" d="M92.1,74.6c0,1.6,0,9.2,0,10.7s-0.3,1.8-1.2,1.8c-0.9,0-4.7-0.2-4.7-4.8s0-13.4,0-14.4s1.2-3.4,3.5-3.4
				c0.9,0,1.6,0.6,1.6,1.7c0,0.8,0,1.7,0,1.7s1.8-2.3,5.4-2.3s5.1,2.9,5.1,2.9s1.6-2.9,5.5-2.9s6.1,3.4,6.1,6.2s0,11.6,0,13.1
				s-1.2,1.6-2.1,1.6s-3.8-0.9-3.8-4.5s0-7.2,0-8.6s-0.8-2.3-2.2-2.3c-1.3,0-2.7,1.2-2.7,2.6s0,8.2,0,10s-1.8,1.9-2.2,1.9
				c-0.5,0-3.5-0.5-3.5-3.6s0-5.9,0-7.6s-0.4-3.3-2-3.3C93.3,71.1,92.1,72.1,92.1,74.6z"/>
			<path class="st2" d="M123.2,64c-6.9,0-7.7,5.7-7.7,8.2s0,16.1,0,18.8s2.3,2.9,3.2,2.9s1.8-0.5,1.8-1.2s0-7.4,0-7.4
				c8.1-0.6,11.2-7.5,11.2-12.3C131.7,67.5,128.2,64,123.2,64z M120.6,80.5c0,0,0-6.7,0-8.2s0.8-3,3-3s3.1,2.1,3.1,3.8
				S125.9,80.3,120.6,80.5z"/>
			<path class="st2" d="M148.1,78.6c-0.4-0.6-1.5-1.2-2.9,0.1c-1.4,1.3-2.7,2.4-4.6,2.4c-1.9,0-2.1-1.6-2.1-2.6c0,0,7.1-2.4,8.6-3.1
				c1.4-0.7,1.5-1.6,1.5-2.9c0-1.4-1.1-7.9-7.6-7.9c-3,0-6.4,3-7.5,8c-0.5,2.8-1.8,13.4,6.6,13.4c5.4,0,7.8-3.7,8.3-5
				C149,79.7,148.5,79.2,148.1,78.6z M141,69.3c2.3-0.5,2.5,2.9,2.5,2.9l-5,1.7C138.5,72.9,138.7,69.8,141,69.3z"/>
			<path class="st2" d="M150.7,67.6c0-0.9,1.2-2.9,3.5-2.9c1.3,0,1.7,0.7,1.7,1.2s0,1.8,0,1.8s2.3-2.7,4.7-2.7
				c1.6,0,1.9,1.8,1.9,2.6s0.2,1.5-0.9,1.9c-1.1,0.4-5.2,2.1-5.2,4.1s0,10.6,0,11.5c0,1.5-1.4,1.6-2,1.6s-3.7-0.1-3.7-3.8
				S150.7,67.6,150.7,67.6z"/>
			<path class="st2" d="M163.6,70.6c0-1.8,0.3-6.4,7-6.4c4.6,0,6.8,3.8,6.8,6c0,0.8-0.5,1.5-1.6,1.8c-1.1,0.4-2.4,0.2-2.8-0.8
				c-0.4-1-1.2-2.3-2.5-2.3s-1.7,1.3-1.7,1.6c0,1.3,1.6,2.3,4.5,5c3,2.7,3.4,4.1,3.4,6.6s-2.3,6-7,6c-4.1,0-6.9-2.1-8.4-4.3
				c-0.6-1-0.2-2.3,0.4-3.2c0.6-0.9,1.6-1.4,2.5-0.5s2.8,3.2,5.3,3.2c1.3,0,1.9-0.9,1.9-1.7c0-1.6-3.1-2.9-5.3-5.3
				C163.3,73.2,163.6,70.6,163.6,70.6z"/>
			<path class="st2" d="M153.8,45.1c1,0,1.8,0,1.8-0.8s0-0.9,0-1.7s-0.1-1-1.4-1c-1.4,0-4.5,0.4-6.2,3.4v1.8
				C148,46.7,150.9,45.1,153.8,45.1z"/>
			<path class="st2" d="M152.1,28.1c0.5-0.6,0.7-1,0.3-1.4c-0.5-0.5-1.2-1.1-1.5-1.4s-0.9-0.4-1.7,0.4s-3.1,3-3.8,4.9
				c-0.1,0.3-0.3,1.4,0.7,2.3c0.3,0.2,0.7,0.6,1.2,0C147.8,32.4,152.1,28.1,152.1,28.1z"/>
			<path class="st2" d="M136.9,27c0,0-0.1-5.7-0.1-6.1s-1.3-1.9-3.4-1.9c-0.2,0-0.3,0.1-0.3,0.6s0.1,4.2,0.2,5
				C133.4,25.3,134.3,27,136.9,27z"/>
			<path class="st2" d="M121.9,28.7c0.3,0,1.1,0.3,1.9,0.9s2.4,2.1,3.1,3.4c0.1,0.3,0,0.3-0.5,0.3s-2.7-0.2-3.3-0.8
				c-0.6-0.6-2.1-2.4-2.3-2.8C120.5,29.3,120.6,28.7,121.9,28.7z"/>
			<path class="st2" d="M138,30.6c-8.6-0.4-11.3,11.3-11.3,11.3s-4.2-3.1-9-3.1c-3.7,0-6.4,3.1-6.4,6.4c0,4.5,3.5,9.3,7.8,12.6
				c5.6,4.4,11.3,7.1,14.3,7.1s6-4.8,7.7-7.7c4.1-7.2,4.3-14.2,4.3-16.9C145.4,37.4,143.3,31,138,30.6z M129.4,47.7
				c0,0,4.3,2.5,2.7,4.6C131.5,53,129.3,50.9,129.4,47.7z M139.4,46.5c-0.9,4.3-3.8,15-7.7,15c-2.8,0-14.3-9.1-14.3-14.8
				c0-2,1.4-3.2,2.7-3.2c2,0,6,2.2,6,2.2s0.3,10,4.4,10c1.6,0,4-2.3,4-4.2c0-1.4-0.9-4.6-5-7.5c0,0,1.3-7.5,7-7.5
				C139.1,36.5,140.7,40.3,139.4,46.5z"/>
		</g>
		<path class="st3" d="M126.2,45.7c0,0,2.9,1.8,3.1,2c-0.1,0.7,0.2,1.7,0.2,1.7l-2.9,0.2C126.6,49.5,126.3,47.4,126.2,45.7z"/>
		<polygon class="st4" points="126.7,41.8 129.7,44 129.8,43.4 126.8,41.3 		"/>
	</g>
</g>
<g id="legal" class="st0">
</g>
</svg>
