<?xml version="1.0" encoding="utf-8"?>
<!-- Generator: Adobe Illustrator 19.2.1, SVG Export Plug-In . SVG Version: 6.00 Build 0)  -->
<svg version="1.1" id="Layer_1" xmlns="http://www.w3.org/2000/svg" xmlns:xlink="http://www.w3.org/1999/xlink" x="0px" y="0px"
	 viewBox="0 0 235 119" style="enable-background:new 0 0 235 119;" xml:space="preserve">
<style type="text/css">
	.st0{display:none;}
	.st1{display:inline;fill:#4B4A4B;}
	.st2{fill:#9B9A9A;}
</style>
<g id="Background" class="st0">
	<rect class="st1" width="235" height="119"/>
</g>
<g id="Logos">
	<g>
		<path class="st2" d="M108.4,48.2V46c0-0.9-0.4-1.3-1.2-1.4h-1.3v4.7h1.3C107.8,49.4,108.4,49,108.4,48.2z"/>
		<path class="st2" d="M96.5,55.6v-2.1c0-0.8-0.6-1.3-1.4-1.3h-1.2V57l1.3-0.1C96.1,56.9,96.5,56.5,96.5,55.6z"/>
		<path class="st2" d="M96.4,47.8V46c0-0.9-0.4-1.3-1.2-1.4h-1.3V49h1.3C95.8,49,96.4,48.6,96.4,47.8z"/>
		<path class="st2" d="M168.1,47.4v-1.3c0-1.6-0.6-2.4-1.7-2.3l-1.6,0.1v5.6h1.5C167.5,49.5,168.1,48.8,168.1,47.4z"/>
		<polygon class="st2" points="129.8,45.9 129.4,45.9 128.5,52.5 130.7,52.6 		"/>
		<path class="st2" d="M189.5,44.9L189.5,44.9v-1.8c0-2.9-1.2-5.3-3.3-6.8c-2-1.4-4.2-1.6-5.3-1.6c-0.2,0-0.4,0-0.7,0l0,0
			c-0.3,0-0.5,0-0.8,0.1l0,0c-18.8,2.7-40.5,4.1-63.6,4.1c-13.8,0-27-0.7-39.5-2l0,0h-0.1l0,0c-7.4-0.7-14.5-1.6-21.3-2.6l0,0h-0.1
			c-0.1,0-0.3,0-0.4,0c-0.8,0-1.5,0.3-2,0.8l0,0l0,0c-0.7,0.6-1.1,1.4-1.1,2.3v30.8c0,0.9,0,1.1-0.3,1.2c-1,0.3-2,0.7-3.1,1.1h-0.1
			h-0.1c0,0,0,0-0.1,0c-1.2,0.5-1.9,1.6-2,2.9c-0.1,2.4,2.6,3.9,2.7,3.9c1.1,0.5,2.5,0.8,4,1.1c3.3,0.6,7.4,1.3,10.8,4.9
			c0.8,0.9,1.9,1.4,2.9,1.4c0.5,0,1.1-0.1,1.6-0.4c0,0,0,0,0.1,0l0.1-0.1c0.1,0,0.1-0.1,0.1-0.1c19.8-12,48.4-14.6,68.9-14.6
			c18.8,0,33.5,2.1,40.7,3.3c0,0,0,0,0.1,0h0.1h0.1c0.1,0,0.2,0,0.4,0.1c0.2,0,0.4,0.1,0.6,0.1c7.8,0,9.9-6.5,10.5-10.2
			c0.1-0.7,0.2-1.4,0.2-2.3c0-0.2,0-0.2,0-0.2C189.6,48.4,189.5,44.9,189.5,44.9z M160.7,40.3c0-0.1,0-0.1,0.1-0.1l5.9-0.6
			c0.2,0,0.5,0,0.7,0c3.2,0,5.1,2.2,5.1,6.2c0,2.4-0.8,4-2.5,4.9c1.8,0.7,2.2,2.9,2.2,5l0.3,6.2c0,0.1,0,0.3,0,0.4l0.1,2.8v0.1
			c0,0,0,0-0.1,0l0,0h-0.2c-0.7-0.2-1.5-0.4-1.6-0.4c0,0-0.2-0.1-0.5-0.1l-2.1-0.4c-0.1,0-0.1-0.1-0.1-0.1V64c0-1,0-3.6,0-4.3
			c0-0.9-0.1-3.8-0.1-3.9c0-1.9-0.7-2.9-2-2.9h-1.1v10.5v0.1h-0.1h-0.1c0,0-1.7-0.3-2-0.4c-0.1,0-0.5-0.1-1.6-0.3h-0.2
			c-0.1,0-0.1-0.1-0.1-0.1L160.7,40.3L160.7,40.3z M150,41c0-0.1,0.1-0.1,0.1-0.1l8.3-0.6h0.1v0.1v3.7c0,0.1-0.1,0.1-0.1,0.1
			l-4.4,0.1v4.1h3.5c0.1,0,0.1,0.1,0.1,0.1V52c0,0.1-0.1,0.1-0.1,0.1H154v5.3l4.4,0.4c0.1,0,0.1,0.1,0.1,0.1v4.2v0.1h-0.1l0,0h-0.1
			c0,0-3.6-0.6-4.3-0.7c-0.9-0.1-3.7-0.5-3.7-0.5h-0.1c-0.1,0-0.1-0.1-0.1-0.1L150,41L150,41z M137.2,41.6c0-0.1,0-0.1,0.1-0.1
			l3.7-0.1h0.1v0.1v6.8l3.3-7l0.1-0.1L148,41c0,0,0.1,0,0.1,0.1v0.1l-3.3,7.4l3.4,12.1v0.1h-0.1l0,0l-4-0.4c0,0-0.1,0-0.1-0.1v-0.1
			l-2-7.6l-0.9,1.4v5.9V60H141l-3.7-0.3c-0.1,0-0.1-0.1-0.1-0.1L137.2,41.6L137.2,41.6z M127.4,41.9
			C127.4,41.8,127.5,41.8,127.4,41.9l4.5-0.2c0.1,0,0.1,0,0.1,0.1l3.7,17.9v0.1h-0.1l0,0h-0.2c-0.1,0-1.1-0.1-1.7-0.1l-1.9-0.1
			c-0.1,0-0.1,0-0.1-0.1l-0.6-3.8l-3-0.1l-0.6,3.7c0,0.1-0.1,0.1-0.1,0.1h-0.1c0,0-1.3,0-1.7,0c-0.4,0-1.4,0-1.4,0h-0.1H124v-0.1
			L127.4,41.9z M114.3,42C114.3,41.9,114.4,41.9,114.3,42l8.1-0.1c0.1,0,0.1,0.1,0.1,0.1v3.3c0,0.1-0.1,0.1-0.1,0.1h-4.2v3.1h3.3
			c0.1,0,0.1,0.1,0.1,0.1V52c0,0.1-0.1,0.1-0.1,0.1h-3.3v3.7h4.2c0.1,0,0.1,0.1,0.1,0.1v3.3v0.1h-0.1h-0.1c0,0-2.5,0-3,0
			c-3.4,0-4.7,0-4.7,0h-0.1l0,0h-0.1v-0.1V42H114.3z M102.2,41.7C102.2,41.7,102.2,41.6,102.2,41.7
			C102.3,41.6,102.3,41.6,102.2,41.7l5.1,0.1c1.6,0,2.8,0.4,3.6,1.2c0.8,0.8,1.2,2,1.2,3.6c0,1.7-0.8,3.3-2,4.1
			c1.4,0.5,1.7,1.7,1.8,3.3l0,0l0.2,5.5c0,0.1-0.1,0.1-0.1,0.1l-3.4,0.1h-0.1v-0.1l-0.2-5.9c0-1.1-0.4-1.5-1.3-1.5h-1v7.4
			c0,0.1,0,0.1-0.1,0.1l-3.5,0.2l0,0h-0.1v-0.1L102.2,41.7L102.2,41.7z M89.9,41.1L89.9,41.1C90,41,90,41,89.9,41.1l5.8,0.2
			c2.9,0.2,4.3,1.8,4.3,5c0,1.5-0.5,3.4-2,4.3c1.3,0.7,2.1,2.3,2.1,4.3c0,3.2-1.5,5.3-4,5.5L90,60.9l0,0h-0.1v-0.1V41.1z M75.7,40.1
			C75.7,40,75.7,40,75.7,40.1C75.8,40,75.8,40,75.7,40.1l8.6,0.6c0.1,0,0.1,0.1,0.1,0.1v3.8v0.1h-0.1L80,44.6v3.7h3.4
			c0.1,0,0.1,0.1,0.1,0.1V52c0,0.1-0.1,0.1-0.1,0.1L80,52.2V58l4.3-0.4h0.1v0.1v3.8c0,0.1,0,0.1-0.1,0.1L75.8,63l0,0h-0.1v-0.1
			C75.7,62.9,75.7,40.1,75.7,40.1z M62,44.6c0-3.6,2-5.9,5.1-5.9c0.3,0,0.7,0,0.9,0c3.4,0.4,5.3,2.5,5.3,5.9v3.3
			c0,0.1-0.1,0.1-0.1,0.1h-4.1C69,48,69,47.9,69,47.9v-3.3c0-1-0.4-1.5-1.3-1.5c-0.8,0-1.2,0.4-1.2,1.4v14.8c0,1.1,0.2,1.6,1,1.7
			l0,0c0.1,0,0.3,0,0.3,0c0.9-0.1,1.2-0.6,1.2-1.6v-4.5c0-0.1,0-0.1,0.1-0.1l4.1-0.3h0.1v0.1v4.7c0,3.4-1.8,5.4-5.4,5.9
			c-0.3,0-0.7,0-1,0h-0.3c-2.8,0-4.6-2.4-4.6-5.9C62,59.3,62,44.6,62,44.6z M54.1,37.4L54.1,37.4C54.2,37.3,54.2,37.3,54.1,37.4
			l5,0.6c0.1,0,0.1,0.1,0.1,0.1v28.8c0,0.1,0,0.1-0.1,0.1l-4.9,1.5l0,0h-0.1L54,68.4L54.1,37.4L54.1,37.4z M178.6,70
			c-0.2,0-0.4-0.1-0.4-0.1c-0.1,0-0.1,0-0.2,0h-0.1c-27.7-4.8-81-7-111.7,11.7l-0.1,0.1c-0.3,0.2-0.8-0.1-1-0.4
			c-5.8-6.1-13.3-5.3-15.7-6.6c-0.2-0.1-1.4-1.1-0.8-1.3h0.1c5-1.7,11.7-3.9,16.2-5l3.3-0.8c14.6-3.4,32.2-5.4,51-5.4
			c20.3,0,39.1,2.3,54.4,6.2c1.1,0.3,4.7,1.3,5.1,1.5c0,0,0.1,0,0.1,0.1C178.8,70,178.8,70.1,178.6,70z M186.5,46
			c0,0.1-0.1,0.1-0.1,0.1l0,0l-4.5,0.2l0,0c-0.1,0-0.1-0.1-0.1-0.1l0,0l-0.2-2.8c-0.1-0.9-0.8-1.3-1.2-1.2c-0.4,0-1.3,0.2-1.3,1.5
			c0,0.2,0.1,1.5,0.2,2c0.2,1,1.3,2.7,3,4.7c0.3,0.4,0.6,0.7,0.9,1c1.7,1.9,3.1,3.5,3.2,6.3l0.1,2.5c0,5.3-3.1,6.9-5.8,6.9
			c-0.1,0-0.5,0-0.6,0c-2.5,0-5.7-1.8-5.9-6.6l-0.1-3.5l0,0c0-0.1,0.1-0.1,0.1-0.1l0,0c0.7,0.1,3.9,0.4,4.6,0.5l0,0
			c0.1,0,0.1,0.1,0.1,0.1l0,0c0.1,3,0.2,3.7,0.2,3.7c0.1,1,0.7,1.2,1.1,1.2h0.2c0.4,0,1-0.3,1-1.2v-2.8c0-2.2-1.1-3.2-2.3-4.6
			c-0.3-0.3-0.6-0.7-0.9-1c-1.8-2.2-3.6-4.6-3.6-7.3v-1.7c0-4.4,3.6-6,5.8-6.2c0.1,0,0.4,0,0.5,0c2.1,0,5.7,1,5.7,5.4L186.5,46
			L186.5,46z"/>
	</g>
</g>
<g id="legal" class="st0">
</g>
</svg>
