<?xml version="1.0" encoding="utf-8"?>
<!-- Generator: Adobe Illustrator 19.2.1, SVG Export Plug-In . SVG Version: 6.00 Build 0)  -->
<svg version="1.1" id="Layer_1" xmlns="http://www.w3.org/2000/svg" xmlns:xlink="http://www.w3.org/1999/xlink" x="0px" y="0px"
	 viewBox="0 0 235 119" style="enable-background:new 0 0 235 119;" xml:space="preserve">
<style type="text/css">
	.st0{display:none;}
	.st1{display:inline;fill:#4B4A4B;}
	.st2{fill:#9B9A9A;}
	.st3{display:inline;fill:#9B9A9A;}
	.st4{font-family:'HelveticaNeue';}
	.st5{font-size:8.2532px;}
</style>
<g id="Background" class="st0">
	<rect class="st1" width="235" height="119"/>
</g>
<g id="Logos">
	<g>
		<path class="st2" d="M77,57.8l-3.2,13.6c-2.1,1.5-6.5,3.5-12,3.6c-7.7,0.1-14.4-4.8-13.5-13.7c2-18.3,26.4-21.1,29.5-7.4l-9.3,2.3
			c-1.7-4.6-9.1-1.4-10.1,4.6c-1.3,8.6,7.4,7,7.9,3.5h-5.4l1.6-6.6H77V57.8z M79.5,54.7l-4.6,19.7h9.6l4.6-19.7H79.5z M104.8,43.5
			l-7.3,31h9.6l7.3-31H104.8z M93.5,43.5l-7.3,31h9.6l7.3-31H93.5z M91.1,46.3h-9.6l-1.7,7.2L90.1,51L91.1,46.3z M158.1,61.6h-2.6
			l-3.1,12.8h-9.6l3-12.8h-2.1l-3,12.8h-9.6l3-12.8h-2.7c0,0.5,0,1,0,1.5c-0.1,1.7-0.4,2.2-0.5,2.7h-14c-0.4,1.6,0.2,3.3,2.2,3.3
			c1.2,0,2.5-0.7,3.3-1.7l7.5,1.3c-1.3,3.9-6.9,6.7-11.2,6.7c-8.9,0-10.1-6.8-9.6-10.2c0.9-6.5,5.8-11.9,12.6-11.9
			c4,0,8.3,2.1,9.4,6.7l1.4-5.2h3.1l2-8.5h9.6l-2,8.5h2.2l2-8.5h9.6l-2,8.5h4c0,0-0.4,1.7-0.8,3.1 M160.3,58
			c2.3-2.7,5.5-4.5,9.5-4.5c4.8,0,10.1,3.1,9.6,9.7c-0.1,1.7-0.4,2.3-0.5,2.7h-14l0,0c-0.4,1.6,0.2,3.3,2.2,3.3
			c1.2,0,2.5-0.7,3.3-1.7l7.5,1.3c-1.3,3.9-6.9,6.7-11.2,6.7c-8.9,0-10.1-6.8-9.6-10.2l0,0c0.2-1.3,0.5-2.5,1-3.6l0,0 M123.3,61.9
			c0.4-3.4-4.5-2.8-5.3,0H123.3 M171.2,61.9c0.4-3.4-4.5-2.8-5.3,0H171.2"/>
	</g>
</g>
<g id="legal" class="st0">
	<text transform="matrix(1.0006 0 0 1 180.1377 62.522)" class="st3 st4 st5">®</text>
</g>
</svg>
