<?xml version="1.0" encoding="utf-8"?>
<!-- Generator: Adobe Illustrator 19.2.1, SVG Export Plug-In . SVG Version: 6.00 Build 0)  -->
<svg version="1.1" id="Layer_1" xmlns="http://www.w3.org/2000/svg" xmlns:xlink="http://www.w3.org/1999/xlink" x="0px" y="0px"
	 viewBox="0 0 235 119" style="enable-background:new 0 0 235 119;" xml:space="preserve">
<style type="text/css">
	.st0{display:none;}
	.st1{display:inline;fill:#4B4A4B;}
	.st2{fill:#9B9A9A;}
	.st3{display:inline;fill:#9B9A9A;}
</style>
<g id="Background" class="st0">
	<rect class="st1" width="235" height="119"/>
</g>
<g id="Logos">
	<g>
		<path class="st2" d="M81,80.2h-2.1c-1.5,0-1.8-0.8-1.8-2.2v-9.2c0-2.5,1.7-5.9,4.4-5.9c0.7,0,1.1,0.1,1.6,0.6
			c-1.7,0.3-2.7,1.4-2.7,3.1c0,2.4,1.9,3.4,4.1,3.4c2.4,0,4.1-2.4,4.1-4.6c0-3.4-2.7-5.8-5.8-5.8c-3,0-5,2.4-6,4.9h-0.1v-4.1H64.6
			v4.1h2.1c1.5,0,1.8,0.8,1.8,2.2V78c0,1.4-0.4,2.2-1.8,2.2h-2.1v4.1H81"/>
		<path class="st2" d="M101.5,59.6c-7.3,0-13,4.8-13,12.8c0,7.9,4.2,12.8,13,12.8c5.5,0,11.5-2.7,12.4-8.8H108
			c-0.5,3-3.4,4.4-5.2,4.4c-4.3,0-5.1-3.6-5.1-7.2h16.9C114.6,65.5,109.9,59.6,101.5,59.6 M105.5,69.4h-7.7v-1.3
			c0-2.6,1.4-4.4,3.9-4.4s3.8,1.8,3.8,4.4C105.5,68.1,105.5,69.4,105.5,69.4z"/>
		<path class="st2" d="M141.6,78V43h-12.5v4.1h2.1c1.5,0,1.8,0.8,1.8,2.2v13.6l-0.1,0.1c-1.1-2.3-4-3.4-7-3.4
			c-7.7,0-10.1,6.5-10.1,12.8s2.3,12.8,10.1,12.8c3.3,0,5.9-1.4,7.4-4.5h0.1v3.7h12v-4.1h-2C141.9,80.2,141.6,79.5,141.6,78
			 M129,80.3c-2.9,0-4.1-3.2-4.1-8.2s1.2-8.2,4.1-8.2c2.9,0,4.1,3.1,4.1,8.2C133,77.2,131.9,80.3,129,80.3z"/>
		<path class="st2" d="M76.1,94.2c-4-1-6.2-0.9-6.2-2.8c0-1.3,1.1-2.3,3.2-2.3c3.2,0,5.4,1.7,5.8,4.6h2.7v-7.1h-2.4L78.6,88
			c-1.5-1.1-3.4-1.6-5.9-1.6c-5.1,0-8,2.3-8,6.2c0,1.7,0.7,3.2,2,4.2c1.4,1.1,3.5,1.6,6.2,2.3c2.7,0.6,4.4,0.8,4.4,2.7
			c0,1.4-1.3,2.3-3.5,2.3c-3.2,0-5.6-2-6.1-5.2H65v7.7h2.4l0.8-1.4c1.4,1,3.8,1.8,6.3,1.8c5.1,0,8.1-2.5,8.1-6.4
			C82.5,97.2,80.4,95.3,76.1,94.2"/>
		<path class="st2" d="M96.2,89.4h0.3c2.7,0,3.9,1.6,3.9,4.9h2.7v-7.6H84v7.6h2.6c0-3.4,1.3-4.9,3.9-4.9h0.3v12.1v0.4
			c0,1,0,1.6-0.5,1.7c-0.6,0.2-1.4,0.3-2.7,0.3v2.5h11.6v-2.5c-1.2,0-2.1-0.1-2.6-0.3c-0.4-0.1-0.5-0.7-0.5-1.8v-0.4"/>
		<path class="st2" d="M120.4,102l-4.8-15.2h-5.8l-5,15.1c-0.5,1.4-0.7,1.9-2.3,1.9h-0.7v2.6h8.6v-2.6h-1c-1.1,0-1.6-0.1-1.6-0.7
			c0-0.1,0-0.4,0.1-0.8l0.7-2.2h5.6l0.8,2.4c0.1,0.2,0.1,0.4,0.1,0.6c0,0.6-0.5,0.7-1.8,0.7h-0.8v2.6h10.8v-2.6h-1
			C121.2,103.8,120.8,103.3,120.4,102 M109.5,97.5l2-6.2l2,6.2H109.5z"/>
		<path class="st2" d="M132.7,98.5h1.4c1.3,0,1.4,0.3,1.4,1.5v1.4c0,1.9-0.6,2.6-3,2.6c-3.2,0-4.5-2.5-4.5-7.8
			c0-4.7,1.6-7.1,4.6-7.1s4.6,1.7,5,5.3h2.8v-7.9h-2.7l-0.5,1.4c-1.7-1.2-3.6-1.8-5.7-1.8c-5.8,0-9.9,4.3-9.9,10.6
			c0,6.2,3.8,10.1,9.8,10.1c2.2,0,4.3-0.6,6.2-1.9l0.7,1.5h2.6v-6.7c0-1,0.3-1.3,1.3-1.3h1V96h-10.7"/>
		<path class="st2" d="M149.1,92.6c0-0.6-0.4-0.8-0.8-0.9l0,0c0.4-0.1,0.7-0.3,0.7-0.8s-0.3-0.9-1.3-0.9h-1.9v0.4h0.4
			c0.2,0,0.2,0.1,0.2,0.2v2.3c0,0.1-0.1,0.2-0.2,0.2h-0.4v0.4h2.2C148.8,93.5,149.1,93.1,149.1,92.6 M147,90.4h0.5
			c0.4,0,0.7,0.1,0.7,0.5c0,0.5-0.3,0.5-0.7,0.5H147V90.4z M147,93.1v-1.2h0.6c0.4,0,0.8,0.1,0.8,0.6s-0.4,0.6-0.8,0.6H147z"/>
		<path class="st2" d="M149.7,90.6l1,1.4v0.9c0,0.1-0.1,0.2-0.2,0.2h-0.4v0.4h2v-0.4h-0.4c-0.2,0-0.2-0.1-0.2-0.2v-0.8l1.1-1.5
			c0.1-0.1,0.2-0.2,0.4-0.2h0.1V90h-1.6v0.4h0.4c0.1,0,0.1,0.1,0.1,0.1v0.1l-0.6,0.9l-0.6-0.9v-0.1c0-0.1,0-0.1,0.1-0.1h0.4V90h-1.8
			v0.4h0.1C149.5,90.4,149.6,90.5,149.7,90.6"/>
		<path class="st2" d="M147.2,100.1c0.8,0,1.5-0.4,1.5-1.2V96c0-0.2,0.1-0.3,0.3-0.3h0.5v-0.5h-2.6v0.5h0.5c0.2,0,0.3,0.1,0.3,0.3v3
			c0,0.4-0.3,0.5-0.7,0.5c-0.2,0-0.5,0-0.7-0.2c0.3,0,0.5-0.2,0.5-0.6c0-0.3-0.3-0.5-0.6-0.5c-0.5,0-0.7,0.4-0.7,0.8
			C145.6,99.8,146.5,100.1,147.2,100.1"/>
		<path class="st2" d="M151.9,95.8h0.3v-0.5h-2.5v0.5h0.4c0.3,0,0.4,0.1,0.4,0.3v3.1c0,0.2-0.1,0.3-0.4,0.3h-0.4v0.5h2.5v-0.5h-0.4
			c-0.2,0-0.3-0.1-0.3-0.3v-3C151.4,95.9,151.7,95.8,151.9,95.8"/>
		<path class="st2" d="M152.5,95.8h0.4c0.2,0,0.3,0.1,0.3,0.2v3.2c0,0.2-0.1,0.2-0.3,0.2h-0.4v0.5h2.2v-0.5h-0.4
			c-0.2,0-0.3-0.1-0.3-0.2V96l0,0l1.3,4h0.6l1.4-4l0,0v3.2c0,0.1-0.1,0.2-0.3,0.2h-0.5v0.5h2.5v-0.5h-0.4c-0.2,0-0.3-0.1-0.3-0.3V96
			c0-0.2,0.1-0.2,0.3-0.2h0.5v-0.5h-2.2l-1.1,3.1l0,0l-1-3.1h-2.2"/>
		<path class="st2" d="M149.2,104L149.2,104c0.6-0.1,1-0.4,1-1.1s-0.4-1.2-1.8-1.2h-2.6v0.5h0.5c0.2,0,0.3,0.1,0.3,0.3v3.2
			c0,0.2-0.1,0.3-0.3,0.3h-0.5v0.5h3.1c1.2,0,1.6-0.5,1.6-1.3C150.4,104.3,149.8,104.1,149.2,104 M147.5,102.3h0.7
			c0.6,0,1,0.1,1,0.8c0,0.6-0.4,0.7-1,0.7h-0.7V102.3z M148.3,105.9h-0.8v-1.7h0.8c0.6,0,1.1,0.1,1.1,0.8
			C149.4,105.8,148.9,105.9,148.3,105.9z"/>
		<path class="st2" d="M150.6,102.3h0.3c0.4,0,0.5,0.1,0.5,0.4v2.8c0,0.4-0.1,0.5-0.4,0.5h-0.4v0.5h4.7v-2h-0.5
			c-0.1,1.1-0.3,1.5-1,1.5h-1.4v-1.7h0.4c0.4,0,0.6,0.2,0.6,0.8v0.2h0.5v-2.4h-0.5v0.1c0,0.6-0.2,0.8-0.6,0.8h-0.4v-1.5h1.3
			c1,0,1,0.4,1.1,1.4h0.5v-1.9h-4.7"/>
		<path class="st2" d="M160.1,105.6l-1.4-3.8h-1l-1.4,3.8c-0.1,0.3-0.4,0.4-0.7,0.4v0.5h2.2V106h-0.6c-0.1,0-0.2,0-0.2-0.1
			s0-0.1,0-0.1l0.2-0.7h1.6l0.2,0.7c0,0,0,0.1,0,0.2s-0.1,0.1-0.2,0.1h-0.6v0.5h2.5v-0.5C160.5,105.9,160.2,105.9,160.1,105.6
			 M157.5,104.4l0.6-1.7l0,0l0.6,1.7H157.5z"/>
		<path class="st2" d="M164.4,104.8L164.4,104.8l-1-3.1h-2.2v0.5h0.4c0.2,0,0.3,0.1,0.3,0.2v3.2c0,0.2-0.1,0.2-0.3,0.2h-0.4v0.5h2.2
			v-0.5H163c-0.1,0-0.3-0.1-0.3-0.2v-3.2l0,0l1.3,4h0.6l1.4-4l0,0v3.2c0,0.1-0.1,0.2-0.3,0.2h-0.5v0.5h2.5v-0.5h-0.4
			c-0.2,0-0.3-0.1-0.3-0.3v-3.1c0-0.2,0.1-0.2,0.3-0.2h0.5v-0.5h-2.2"/>
		<path class="st2" d="M85,23.4c0.7,1.8,1.2,3.6,1.2,6c0.1,2.2,0.3,4.2,0.6,6.3c0.3,2,0.7,4,1.4,5.9c0.8,2.1,3.1,3.9,4.6,5.6
			c1.1,1.1,2.1,2.4,3.1,3.6c1,1.2,2.1,2.4,2.7,3.8c-0.3,0.3-0.2,0.6-0.2,1c0,0-0.3,1.5,0.6,2c0,0,5.2-0.1,8.5,1.5c0,0,0.5-2,1.4-1.7
			c0.7,0.2,1.4-0.1,2-0.1c2.5,0.2,4.4-0.1,6.4-1c1.8-0.8,3.3-2.1,4.4-4.5c-0.9,0.5-1.4,1.4-2.2,1.9c-0.4,0.3-0.8,0.5-1.2,0.8
			c-0.4,0.2-0.8,0.5-1.3,0.4c1.1-1.2,1.2-1.8,2.2-3c-0.6-0.1-1.1,0.4-1.6,0.7s-1,1-1.5,1.4c-0.9,0.6-0.4,0.6-1.4,0.9
			c-0.7,0.2-1.5,0.1-2.4-0.1c-2.6-0.8-4.3-2.1-3.2-4.8c0.7-1.6,1.9-3.9,2.8-4.7c1-0.9,2.3-1.2,3.4-1.9c1.1-0.8,1.9-1.7,3-2.8
			c2.1-2.3,4.5-4.4,5.5-8.4c-1,1.1-1.6,2.7-2.7,4.1c-0.5,0.6-1.1,1-1.6,1.5c-0.6,0.6-1.2,1-1.7,1.5c-1.2,1.1-2.3,2.6-3.8,3
			c-0.4,0.1-1.2,0.2-1.6,0c-1.4-0.5-1.3-2.6-1.4-3.8c-0.1-1-0.2-2.8,0.4-3.9c0.2-0.5,0.8-1,1.3-1.5c1.8-1.9,3.3-3.7,4.5-6.5
			c0.2-0.5,0.7-1,0.5-1.6c-1.8,3.1-3.8,5.9-6.4,7.4c-0.1-3,1-7.5,2.6-10.6c0.3-0.5,0.8-1.2,0.5-1.8c-0.7,0.3-1,1.1-1.4,1.7
			c-0.5,0.7-0.9,1.4-1.2,2.2c-1.3,2.7-1.8,5.7-2.3,8.4c-1.3-0.9-1.9-2.5-2.2-4.2c-0.3-1.5-0.7-3.4-0.3-5.1c0.1-0.6,0.5-1.3,0.7-2
			c0.2-0.6,0.7-1.4,0.2-1.9c-0.8,1.4-1.5,2.3-1.9,3.9c-0.3,1.1-0.2,2.1-0.1,3.2c0.2,2.2,0.3,4,1.2,5.7c0.4,0.8,1.2,1.3,1.8,2.3
			c0.5,0.8,0.2,2,0.2,3.1c-0.1,1.5,0.1,2.9,0.2,4.4c0.1,1,0.4,1.8,0.1,2.6c-0.7,2.3-2.9,5.5-2.7,7.7c0,0.3,0.4,0.7,0.2,1
			c-0.1,0.5-1,0.8-1.3,1.4c-0.3,0.5-0.4,0.9-0.7,1.4c-0.6,0-0.7,0.8-1.2,0.8c-0.2,0-0.8-0.3-1-0.6c-0.3-0.4-0.1-1.1-0.4-1.6
			c-0.2-0.4-0.4-0.4-0.5-0.7c-0.4-1.2,1.1-1.9,1.5-2.9c0.4-0.9,0.3-2.1,0.6-3.2c0.6-1.9,1.6-4,1-5.4c-0.3,2.3-2,4.1-2.5,6.3
			c-0.1,0.4,0,0.8-0.1,1.2c-0.2,0.6-1.7,2.2-2.3,2c-0.4-0.1-1-1-1.4-1.4c-1-1.2-1.6-1.7-2.5-2.9C95.8,47,95,46.3,95,45.9
			c0-0.9,0.6-2.2,0.9-3.1c0.4-1.1,0.9-2,1-3c-0.4,0.2-0.6,0.7-0.9,1.1c-0.8,1.3-1.5,2.9-2.3,4.1c-1.2-1.3-2.5-2.3-3.2-3.8
			C89.8,39.9,89,37.5,89,36c0-1,0.3-2.4,0.6-3.6c0.6-2.4,1.8-3.4,2.9-5.1c0.8-1.3,1.5-2.8,2-4.4c-0.7,0.4-1,1.2-1.5,1.8
			c-1.5,1.9-3.1,3.5-4.5,5.6c-0.3-0.5-0.1-1.3-0.1-2c0-0.8,0-1.6,0.1-2.2c0.3-1.2,0.9-1,1.5-1.6c1.1-1.1,1.9-2.6,3-4
			c0.5-0.6,1.1-1.1,1.7-1.6s1.1-1.2,1.7-1.6c1.3-1,3.3-1.2,4.2-2.5c-0.4-0.2-0.9,0.1-1.2,0.2c-1.2,0.4-2.7,0.7-3.7,1.4
			c-0.5,0.3-0.8,0.7-1.3,1.1S93.5,18,93,18.3c-1.7,1.1-2.2,3.4-3.9,4.7c0.9-3.7,3.2-6.1,5-8.6c-0.4-0.1-0.8,0.3-1,0.6
			c-2.3,2-4.9,4.9-5.9,8.8c-1.2-0.9-2.1-3.6-1.7-5.4c0.4-1.9,1.4-3.1,2.2-4.5c0.6-1.1,1.4-2,1.6-3c-1.8,1.1-2.9,3.6-4.3,5.5
			c-0.3-0.2,0-0.8-0.4-1c-0.2,1.9-0.8,3.9-0.5,5.6C84.2,21.5,84.6,22.5,85,23.4"/>
	</g>
</g>
<g id="legal" class="st0">
	<path class="st3" d="M167.7,102.7c0-0.8,0.6-1.4,1.4-1.4c0.8,0,1.4,0.6,1.4,1.4s-0.6,1.4-1.4,1.4
		C168.3,104,167.7,103.4,167.7,102.7"/>
	<path class="st3" d="M170.1,102.7c0-0.6-0.5-1.2-1.1-1.2s-1.1,0.5-1.1,1.2c0,0.6,0.5,1.2,1.1,1.2S170.1,103.3,170.1,102.7z"/>
	<path class="st3" d="M168.4,101.9h0.8c0.2,0,0.5,0.1,0.5,0.4c0,0.2-0.1,0.3-0.3,0.4l0.2,0.3c0.1,0.1,0.2,0.3,0.3,0.3l0,0h-0.3
		c-0.1,0-0.2-0.3-0.4-0.6h-0.1v0.4c0,0.1,0,0.2,0.2,0.2v0.1h-0.7v-0.1c0.2,0,0.2,0,0.2-0.2v-1C168.6,102,168.6,102,168.4,101.9
		L168.4,101.9z"/>
	<path class="st3" d="M168.9,102.7h0.1c0.2,0,0.2-0.2,0.2-0.3c0-0.2-0.1-0.3-0.2-0.3h-0.1V102.7z"/>
</g>
</svg>
