<?xml version="1.0" encoding="utf-8"?>
<!-- Generator: Adobe Illustrator 19.2.1, SVG Export Plug-In . SVG Version: 6.00 Build 0)  -->
<svg version="1.1" xmlns="http://www.w3.org/2000/svg" xmlns:xlink="http://www.w3.org/1999/xlink" x="0px" y="0px"
	 viewBox="0 0 235 119" style="enable-background:new 0 0 235 119;" xml:space="preserve">
<style type="text/css">
	.st0{display:none;}
	.st1{display:inline;fill:#4B4A4B;}
	.st2{fill:#9B9A9A;}
	.st3{opacity:0.35;fill:#9B9A9A;}
	.st4{opacity:0.25;fill:#9B9A9A;}
	.st5{fill-rule:evenodd;clip-rule:evenodd;fill:#9B9A9A;}
	.st6{fill:none;stroke:#9B9A9A;stroke-width:0.4311;stroke-miterlimit:10;}
	.st7{fill:none;}
	.st8{display:inline;fill:#9B9A9A;}
	.st9{display:inline;fill-rule:evenodd;clip-rule:evenodd;fill:#9B9A9A;}
	.st10{display:inline;}
</style>
<g id="Background" class="st0">
	<rect class="st1" width="235" height="119"/>
</g>
<g id="Logos">
	<g>
		<path class="st5" d="M123.3,66.8l5.2-16.8h-5.6l-0.7,0.8l0,0c-0.2-0.3-1.2-1.2-2.4-1.2c-4.3,0.2-7.9,3.2-10.4,6.7l0,0l1.5-6.1l0,0
			c-1.2-0.1-3.9,0.2-6.5,3.5c-0.2-1-0.9-2.7-1.7-3.8l0,0h-5.8l0,0c1,1.2,1.9,2.6,1.1,5.2l0,0l-5.4,17.5h5.6l3.7-12.1l0,0
			c0.3-0.8,4.2-8.5,7-3.5c-1.8,2.9-2.9,6-3,8.5c-0.2,4.6,1.5,7.5,4.6,7.5c3.1,0,5.8-2.7,7.1-4.4c-0.1,1.7,0.1,4.8,3.5,4.8
			s5.6-3.5,5.5-5.2C124.1,70.5,122.7,68.7,123.3,66.8L123.3,66.8L123.3,66.8L123.3,66.8z M121.1,55.8l-1.8,5.6l0,0
			c-2.4,7.9-5.1,7.8-6,7.4c-0.9-0.4-1.7-2.8,0.5-8.2c3-7.3,5.5-8.5,6.9-8.1C121.6,52.9,121.5,54.6,121.1,55.8L121.1,55.8L121.1,55.8
			L121.1,55.8z"/>
		<path class="st5" d="M184,52.7c-1.2-2.6-6.1-3.3-9.5-2c-2.4,0.9-10.1,6.5-10.3,15.4c-0.2,7.7,6.1,7.6,7.4,7.6
			c1.3,0,7.4-0.3,9.3-7.2c-2.3,1.8-9.9,4.7-9.7-1.1c3.1-0.5,10.5-2,12.5-7C184.2,57.2,184.9,54.4,184,52.7L184,52.7L184,52.7
			L184,52.7z M175.9,61.3c-1,1.2-2.9,1.7-4.4,2c1.1-6.5,4.2-9.6,5.3-10.6c1.2-1,2.3-0.5,2.2,1.1C178.9,56.6,177,59.9,175.9,61.3
			L175.9,61.3L175.9,61.3L175.9,61.3z"/>
		<path class="st5" d="M66.3,47.1c-1-4.7,1.1-8,4.9-8c4,0,5.9,3.3,2.7,8.5l0,0h1l0,0c0.8-0.9,1.7-3.1,1.8-5.2
			c0.1-1.5-1.4-5.4-6.7-5.4c-5.7,0-13.8,4.2-11.2,15.2l0,0l2.6,10.3l0,0c0.7,4.1,1,9.1-3.4,9.4c-3.5,0.1-8-6,1.3-11
			c-1-2.2-11.3-1.2-11.2,6.3c0.1,6.9,7.5,7.1,9.1,7.1c1.6,0,15-2.2,11.7-16.3l0,0L66.3,47.1L66.3,47.1L66.3,47.1z"/>
		<path class="st5" d="M88.7,66.8L93.9,50h-5.6l-0.7,0.8l0,0c-0.2-0.3-1.2-1.2-2.4-1.2c-8,0.5-13.8,10.3-14,16
			c-0.2,4.6,1.5,7.5,4.6,7.5s5.8-2.7,7.1-4.4c-0.1,1.7,0.1,4.8,3.5,4.8c3.5,0,5.6-3.5,5.5-5.2C89.5,70.5,88.1,68.7,88.7,66.8
			L88.7,66.8L88.7,66.8L88.7,66.8z M86.5,55.8l-1.8,5.6l0,0c-2.4,7.9-5.1,7.8-6,7.4c-0.9-0.4-1.7-2.8,0.5-8.2c3-7.3,5.5-8.5,6.9-8.1
			C87,52.9,86.9,54.6,86.5,55.8L86.5,55.8L86.5,55.8L86.5,55.8z"/>
		<path class="st5" d="M165,52.7c-1.2-2.6-6.1-3.3-9.5-2c-2.4,0.9-10.1,6.5-10.3,15.4c-0.2,7.7,6.1,7.6,7.4,7.6
			c1.3,0,7.4-0.3,9.3-7.2c-2.3,1.8-9.9,4.7-9.7-1.1c3.1-0.5,10.5-2,12.5-7C165.2,57.2,165.9,54.4,165,52.7L165,52.7L165,52.7
			L165,52.7z M156.9,61.3c-1,1.2-2.9,1.7-4.4,2c1.1-6.5,4.2-9.6,5.3-10.6c1.2-1,2.3-0.5,2.2,1.1C160,56.6,158.1,59.9,156.9,61.3
			L156.9,61.3L156.9,61.3L156.9,61.3z"/>
		<path class="st5" d="M142.3,76.4c-2.9,0-8.5,0.7-11.1,1.8c3.1-2.1,8.8-6.3,11.2-13.2c2.5-6.9,5-15.2,6-18.3c1-3.1,3.1-5.6,6.4-5.4
			c3,0.3,2.6,3.9,2.7,5.9l0,0l1.1-0.6l0,0c0.1-3.8-0.8-7.4-7.3-7.4c-6.5,0-10.2,6.1-11.6,10c-1.4,3.9-6.9,20.8-8.1,23.1
			c-1.2,2.4-2.7,5.2-9,10.2c4.1-1,9.8-1.6,12.9-1.6s32,0,32,0c5.2,0,9.9-3.3,12.3-8.2c-2,2-4.2,3.7-10.5,3.7l0,0H142.3L142.3,76.4
			L142.3,76.4z"/>
	</g>
	<rect y="0.2" class="st7" width="235" height="119"/>
</g>
<g id="legal" class="st0">
	<path class="st9" d="M184.5,69.3c-1.3,0-2.3,1-2.3,2.3c0,1.3,1,2.3,2.3,2.3c1.3,0,2.3-1,2.3-2.3C186.8,70.4,185.8,69.3,184.5,69.3
		L184.5,69.3L184.5,69.3L184.5,69.3z M184.5,73.8c-1.2,0-2.1-0.9-2.1-2.1c0-1.2,0.9-2.1,2.1-2.1c1.2,0,2.1,0.9,2.1,2.1
		C186.6,72.8,185.7,73.8,184.5,73.8L184.5,73.8L184.5,73.8L184.5,73.8z"/>
	<path class="st9" d="M185,71.8c0.4-0.1,0.7-0.3,0.7-0.7c0-0.5-0.3-0.8-0.9-0.8l0,0h-1V73h0.2v-1.3h0.7l0.8,1.3h0.3L185,71.8
		L185,71.8L185,71.8z M184.6,71.6H184v-1.1h0.8l0,0c0.3,0,0.7,0.1,0.7,0.5C185.5,71.5,185,71.6,184.6,71.6L184.6,71.6L184.6,71.6
		L184.6,71.6z"/>
</g>
</svg>
