<?xml version="1.0" encoding="utf-8"?>
<!-- Generator: Adobe Illustrator 19.2.1, SVG Export Plug-In . SVG Version: 6.00 Build 0)  -->
<svg version="1.1" xmlns="http://www.w3.org/2000/svg" xmlns:xlink="http://www.w3.org/1999/xlink" x="0px" y="0px"
	 viewBox="0 0 235 119" style="enable-background:new 0 0 235 119;" xml:space="preserve">
<style type="text/css">
	.st0{display:none;}
	.st1{display:inline;fill:#4B4A4B;}
	.st2{fill:#9B9A9A;}
	.st3{opacity:0.35;fill:#9B9A9A;}
	.st4{opacity:0.25;fill:#9B9A9A;}
	.st5{fill-rule:evenodd;clip-rule:evenodd;fill:#9B9A9A;}
	.st6{fill:none;stroke:#9B9A9A;stroke-width:0.4311;stroke-miterlimit:10;}
	.st7{fill:none;}
	.st8{display:inline;fill:#9B9A9A;}
	.st9{display:inline;fill-rule:evenodd;clip-rule:evenodd;fill:#9B9A9A;}
	.st10{display:inline;}
</style>
<g id="Background" class="st0">
	<rect class="st1" width="235" height="119"/>
</g>
<g id="Logos">
	<g>
		<path class="st2" d="M115.7,59.2c-0.5-0.1-0.6-1.6-0.6-2.8v-6.4c0-5.4,1.8-6,3.4-6c0.9,0,1.7,0.4,2.2,1c0.6,0.7,0.9,0.8,1.2,0.8
			c0.7,0,1-0.6,1.2-1.2l0.4-1.1c0.1-0.3,0.1-0.6,0.1-0.8c0-1.3-1.1-1.4-2.2-1.4c-5.8,0-9.5,5.5-9.5,13.6v1.7c0,1.7-0.1,3-0.1,3
			l0,0.3l4-0.1L115.7,59.2 M132.9,58.7c0.7,0,1.3-0.2,1.9-0.6c0.6-0.4,1.1-0.9,1.6-1.7c0.5-0.7,0.8-1.6,1.1-2.7
			c0.3-1,0.4-2.2,0.4-3.5c0-1.1-0.1-2.1-0.4-2.9c-0.3-0.8-0.6-1.5-1-2.1c-0.4-0.6-0.9-1-1.5-1.3c-0.5-0.3-1.1-0.4-1.7-0.4
			c-0.7,0-1.4,0.1-2.1,0.4c-0.6,0.3-1.2,0.7-1.7,1.3c-0.5,0.6-0.9,1.4-1.2,2.5c-0.3,1-0.4,2.3-0.4,3.8
			C127.8,56.4,129.5,58.7,132.9,58.7 M133.1,60.3c-4.9,0-8.5-2.9-8.5-2.9l0.1-2.7l0.1-2.9l0-2.7v-6.7c0-2.3-0.1-1.7-0.1-4
			c0-2.2,3.9-4.2,3.8-3.3c-0.1,1.5-0.4,4.8-0.4,6.6c0,1.9,0,2-0.1,3c0.7-1,1.5-1.9,2.4-2.4c1-0.6,2.2-1,3.6-1c1.3,0,2.4,0.3,3.4,0.8
			c1,0.5,1.8,1.2,2.4,2c0.6,0.8,1.1,1.8,1.4,2.8c0.3,1.1,0.5,2.2,0.5,3.4c0,1.5-0.2,2.8-0.6,4c-0.4,1.2-1,2.3-1.8,3.1
			c-0.8,0.9-1.7,1.6-2.7,2C135.4,60.1,134.2,60.3,133.1,60.3 M113,44.7c0.9,0,1.7-0.8,1.7-1.7c0-1-0.8-1.7-1.7-1.7
			c-0.9,0-1.7,0.8-1.7,1.7C111.3,43.9,112,44.7,113,44.7 M109.3,46.4c-0.3-0.9-0.8-1.8-1.5-2.5c-0.7-0.7-1.5-1.3-2.4-1.7
			c-1-0.4-2.1-0.6-3.4-0.6c-2.8,0-4.9,0.9-6.4,2.7c-1.4,1.8-2.2,4.2-2.2,7.3c0,1.3,0.2,2.4,0.7,3.5c0.4,1.1,1.1,2,1.9,2.8
			c0.8,0.8,1.8,1.4,2.9,1.8c1.1,0.4,2.3,0.6,3.7,0.6c1.2,0,2.3-0.2,3.5-0.6c3.7-1.5,3.1-3.7,3.1-3.7l-0.5-0.3l-0.1,0.2
			c-0.3,0.4-0.7,0.7-1.1,1c-0.4,0.3-0.8,0.6-1.3,0.8c-0.5,0.2-0.9,0.4-1.4,0.5c-0.5,0.1-1,0.2-1.4,0.2c-1,0-1.8-0.2-2.6-0.5
			c-0.7-0.3-1.4-0.8-1.9-1.4c-0.5-0.6-0.9-1.3-1.2-2.1c-0.1-0.2-0.3-1.1-0.3-1.4c-0.2-2.1,0-3.5,0.4-5.4l0,0c0-0.1,0-0.2,0.1-0.3
			c0.2-0.7,0.5-1.4,0.9-2c0.4-0.6,0.9-1.1,1.5-1.5c0.6-0.4,1.3-0.6,2.1-0.6c0.9,0,1.6,0.2,2.1,0.6c0.5,0.4,1,0.9,1.3,1.5
			c0.3,0.6,0.5,1.3,0.6,2c0.1,0.6,0.1,1.2,0.1,1.8l-2.1,0l-2.4,0l-2.1,0c0,0-0.3,0-0.6,0c-0.3,0-0.9,0.2-0.9,1
			c0,0.7,0.6,0.9,0.9,0.9c0.3,0,0.6,0,0.6,0l2.1,0l3.9,0c0,0,1.1,0,2.1,0c2.2,0,2.1-1.7,2.1-1.7C109.7,48.4,109.6,47.3,109.3,46.4
			 M132.9,58.7c0.7,0,1.3-0.2,1.9-0.6c0.6-0.4,1.1-0.9,1.6-1.7c0.5-0.7,0.8-1.6,1.1-2.7c0.3-1,0.4-2.2,0.4-3.5
			c0-1.1-0.1-2.1-0.4-2.9c-0.3-0.8-0.6-1.5-1-2.1c-0.4-0.6-0.9-1-1.5-1.3c-0.5-0.3-1.1-0.4-1.7-0.4c-0.7,0-1.4,0.1-2.1,0.4
			c-0.6,0.3-1.2,0.7-1.7,1.3c-0.5,0.6-0.9,1.4-1.2,2.5c-0.3,1-0.4,2.3-0.4,3.8C127.8,56.4,129.5,58.7,132.9,58.7 M133.1,60.3
			c-4.9,0-8.5-2.9-8.5-2.9l0.1-2.7l0.1-2.9l0-2.7v-6.7c0-2.3-0.1-1.7-0.1-4c0-2.2,3.9-4.2,3.8-3.3c-0.1,1.5-0.4,4.8-0.4,6.6
			c0,1.9,0,2-0.1,3c0.7-1,1.5-1.9,2.4-2.4c1-0.6,2.2-1,3.6-1c1.3,0,2.4,0.3,3.4,0.8c1,0.5,1.8,1.2,2.4,2c0.6,0.8,1.1,1.8,1.4,2.8
			c0.3,1.1,0.5,2.2,0.5,3.4c0,1.5-0.2,2.8-0.6,4c-0.4,1.2-1,2.3-1.8,3.1c-0.8,0.9-1.7,1.6-2.7,2C135.4,60.1,134.2,60.3,133.1,60.3
			 M156.3,49.7c0,0.4-0.1,4.8-0.2,7.1c0,2.2,4.5,4.1,4.4,3.2c-0.1-1.4-0.5-7.2-0.5-9.1c-0.6-0.1-1.2-0.6-1.8-0.9
			C157.6,49.7,156.8,50.1,156.3,49.7 M91.6,52.2l0-1.8V46h0v-1.4h0c0-2,0.2-4.1,0.3-6.1c-1.6,0.3-2.6,0.3-4.2,0l0.1,2.1l0.1,1.9
			l0.1,3.4V46h0v0.8c-0.4,0-3.2,0.1-3.2,0.1l-3.8,0l-2,0l-0.7,0c0,0-2.1,0-2.5,0v-1l0.1-3.4l0.1-1.9l0.1-2.1c-1.6,0.3-2.7,0.3-4.3,0
			c0.6,7.2,0.3,14.1,0.1,21.4l2.1,0l2,0.1v-0.3l-0.2-4.6l-0.1-4.7v-1.3c0.3,0,1,0,1,0l1.5,0l0.7,0l2,0l3.8,0c0,0,2.8,0,3.2,0.1v1.3
			l-0.1,4.7l-0.1,1.7h0c-0.1,1.1-0.1,2.2-0.2,3.2c-0.1,1.3,0.1,2,0.4,2.3c0.6,0.9,3.9-1.1,3.9-3.3C91.8,57.2,91.6,53.8,91.6,52.2
			 M154,57.3c-0.7,0.6-2,1.1-3.1,1.1c-1,0-1.9-0.5-2.5-1.1c-1.1-1.1-1.6-3.2-1.5-6.3c0.1-4.9,2.3-7.7,5.2-7.7c1,0,1.8,0.3,2.4,1
			c1.2,1.2,1.7,3.7,1.7,7.2l0,0.1c0.7-0.4,1.6-0.3,2.4-0.3c0.5,0,1,0,1.4-0.1c0-0.1,0-0.2,0-0.2c0.1-3-0.7-5.4-2.4-7.1
			c-1.4-1.5-3.4-2.3-5.6-2.3c-5.2,0-9.4,3.9-9.2,9.4c0.1,6,3,9.3,8.1,9.3c1.8,0,3.3-0.9,4.2-1.8c0,0,0.6-0.8,0.2-1.2
			C155.1,57,154.5,56.9,154,57.3 M163.1,53.9l-0.1,2.1l0,0.9c0,0-0.1,2.2-0.2,3c0,0.1,0,0.1,0.1,0.2c0.3,0.2,1.3,0,2.2-0.4
			c1.1-0.6,1.7-1.6,1.7-2.8c0-0.5-0.1-0.9-0.1-0.9l-0.1-2.1l0-2.7v-1.9h0c0-0.7,0-1.4,0-2.1c0-3.2-0.1-6.5,0.1-9.7
			c0,0,0.1-1.8,0.2-2.5c0-0.1,0-0.1-0.1-0.2c-0.3-0.2-1.5,0-2.4,0.5c-0.9,0.5-1.4,1.3-1.4,2.1c0,0.4,0,0.7,0.1,0.8
			c0.1,3.7,0.1,7.4,0,11.1h0v1.9L163.1,53.9"/>
		<path class="st2" d="M180.1,73.9c0.5,0.7,0.8,1.7,0.8,2.9c0,0.8-0.2,1.7-0.5,2.5c-0.4,0.8-0.9,1.5-1.5,2.2
			c-0.7,0.6-1.5,1.1-2.4,1.5c-0.9,0.4-2,0.5-3.2,0.5c-1.3,0-2.3-0.1-3.2-0.4c-0.9-0.3-1.6-0.5-2.2-0.9l-0.2-0.1l0.6-1.7
			c0.2-0.6,0.3-1.1,0.3-1.4v-0.3h1l0.1,0.2c0.1,0.2,0.3,0.5,0.6,0.8c0.3,0.3,0.6,0.6,1,0.9c0.4,0.3,0.8,0.5,1.3,0.7
			c0.5,0.2,1,0.3,1.5,0.3c0.5,0,1-0.1,1.4-0.2c0.4-0.2,0.8-0.4,1.2-0.7c0.3-0.3,0.6-0.6,0.8-1c0.2-0.4,0.3-0.9,0.3-1.5
			c0-0.8-0.2-1.3-0.6-1.7c-0.5-0.4-1-0.8-1.7-1c-0.7-0.3-1.5-0.5-2.3-0.7c-0.9-0.2-1.7-0.6-2.4-1c-0.7-0.4-1.4-1-1.9-1.7
			c-0.5-0.7-0.8-1.7-0.8-2.9c0-0.9,0.2-1.8,0.5-2.6c0.3-0.8,0.8-1.5,1.4-2.1c0.6-0.6,1.3-1,2.2-1.4c0.9-0.3,1.9-0.5,3-0.5
			c1,0,1.9,0.1,2.6,0.4c0.6,0.3,2.1,0.7,1.5,2.6l-0.4,1.3l-0.1,0.2h-0.9l-0.1-0.2c-0.2-0.6-0.6-1.1-1.2-1.6
			c-0.6-0.5-1.3-0.7-2.1-0.7c-0.4,0-0.7,0.1-1.1,0.2c-0.4,0.1-0.7,0.3-1,0.6c-0.3,0.2-0.5,0.6-0.7,1c-0.2,0.4-0.3,0.9-0.3,1.4
			c0,0.8,0.2,1.4,0.6,1.8c0.4,0.4,1,0.8,1.7,1.1c0.7,0.3,1.5,0.5,2.3,0.7c0.9,0.2,1.7,0.5,2.4,0.9C178.9,72.6,179.6,73.2,180.1,73.9
			"/>
		<path class="st2" d="M84.1,70c-0.7-0.3-1.4-0.6-2.2-0.8c-0.8-0.2-1.5-0.4-2.1-0.7c-0.6-0.2-1.1-0.6-1.5-1c-0.4-0.4-0.6-1-0.6-1.7
			c0-0.5,0.1-1,0.3-1.3c0.2-0.4,0.4-0.7,0.7-0.9c0.3-0.2,0.6-0.4,0.9-0.5c0.3-0.1,0.7-0.2,1-0.2c0.8,0,1.4,0.2,2,0.7
			c0.5,0.4,0.9,1,1.1,1.5l0.1,0.2h0.9l0.1-0.2l0.3-1.2c0.5-1.7-1.4-2.4-1.4-2.4C82.8,61.2,82,61,81.1,61c-1,0-2,0.2-2.8,0.5
			c-0.8,0.3-1.5,0.7-2,1.2c-0.5,0.5-1,1.2-1.3,1.9c-0.3,0.7-0.4,1.5-0.4,2.4c0,1.1,0.2,2,0.7,2.7c0.5,0.6,1,1.1,1.7,1.5
			c0.7,0.4,1.4,0.7,2.2,0.9c0.8,0.2,1.5,0.4,2.1,0.7c0.6,0.3,1.1,0.6,1.5,1c0.4,0.4,0.6,0.9,0.6,1.6c0,0.5-0.1,1-0.3,1.4
			c-0.2,0.4-0.4,0.7-0.7,1c-0.3,0.3-0.7,0.5-1.1,0.6c-0.4,0.1-0.8,0.2-1.3,0.2c-0.5,0-1-0.1-1.4-0.2c-0.4-0.2-0.8-0.4-1.2-0.6
			c-0.3-0.3-0.6-0.5-0.9-0.8c-0.2-0.3-0.4-0.5-0.5-0.8L76,75.9c-0.4-0.9-3.7,2.3,0.5,4.1c0.8,0.3,1.8,0.3,3,0.3
			c1.1,0,2.1-0.2,2.9-0.5c0.9-0.3,1.6-0.8,2.2-1.4c0.6-0.6,1.1-1.3,1.4-2c0.3-0.7,0.5-1.5,0.5-2.3c0-1.1-0.2-2-0.7-2.7
			C85.4,70.9,84.8,70.3,84.1,70"/>
		<path class="st2" d="M96.9,73.6c-0.7-0.4-1.4-0.6-2.2-0.8c-0.8-0.2-1.5-0.4-2.1-0.6c-0.6-0.2-1.1-0.6-1.5-1
			c-0.4-0.4-0.6-0.9-0.6-1.7c0-0.5,0.1-0.9,0.3-1.3c0.2-0.4,0.4-0.7,0.7-0.9c0.3-0.2,0.6-0.4,0.9-0.5c0.3-0.1,0.7-0.2,1-0.2
			c0.8,0,1.4,0.2,2,0.7c0.5,0.4,0.9,0.9,1.1,1.5l0.1,0.2h0.9l0.1-0.2l0.3-1.2c0.5-1.7-1.4-2.4-1.4-2.4c-0.7-0.3-1.5-0.4-2.4-0.4
			c-1,0-2,0.1-2.7,0.4c-0.8,0.3-1.5,0.7-2,1.2c-0.6,0.5-1,1.2-1.3,1.9c-0.3,0.7-0.4,1.5-0.4,2.4c0,1.1,0.2,2,0.7,2.6
			c0.5,0.6,1,1.1,1.7,1.5c0.7,0.4,1.4,0.7,2.2,0.9c0.8,0.2,1.5,0.4,2.1,0.7c0.6,0.2,1.1,0.6,1.5,1c0.4,0.4,0.6,0.9,0.6,1.6
			c0,0.5-0.1,1-0.3,1.3c-0.2,0.4-0.4,0.7-0.7,1c-0.3,0.3-0.7,0.5-1.1,0.6c-0.4,0.1-0.8,0.2-1.3,0.2c-0.5,0-1-0.1-1.4-0.2
			c-0.4-0.2-0.8-0.4-1.2-0.6c-0.3-0.3-0.6-0.5-0.9-0.8c-0.2-0.3-0.4-0.5-0.5-0.8l-0.1-0.1c-0.4-0.9-3.7,2.3,0.5,4.1
			c0.8,0.3,1.8,0.3,3,0.3c1.1,0,2.1-0.2,2.9-0.5c0.9-0.3,1.6-0.8,2.2-1.4c0.6-0.6,1.1-1.3,1.4-2c0.3-0.7,0.5-1.5,0.5-2.3
			c0-1.1-0.2-2-0.7-2.7C98.2,74.5,97.6,74,96.9,73.6"/>
		<path class="st2" d="M139.6,68.7c0.5-0.7,1.1-1.2,1.8-1.6c0.7-0.4,1.6-0.6,2.7-0.6c0.5,0,1,0.1,1.5,0.3c0.5,0.2,0.9,0.4,1.3,0.7
			c0.4,0.3,0.7,0.6,1,0.9c0.3,0.3,0.5,0.6,0.7,0.9l0.1,0.1h0.7l0.4-1.4l0.5-1.3l-0.1-0.1c-0.5-0.4-1.3-0.8-2.4-1.2
			c-1.1-0.3-2.3-0.5-3.7-0.5c-1.2,0-2.4,0.2-3.5,0.5c-1.1,0.4-2.2,0.9-3,1.7c-0.9,0.8-1.6,1.7-2.1,2.9c-0.5,1.2-0.8,2.6-0.8,4.2
			c0,1.7,0.3,3.1,0.8,4.3c0.5,1.2,1.2,2.1,2.1,2.9c0.9,0.7,1.9,1.3,2.9,1.6c1.1,0.3,2.2,0.5,3.2,0.5c1.2,0,2.3-0.2,3.5-0.6
			c2.8-1.1,3.3-2.9,3.1-3.5l0-0.2l-0.5-0.3l-0.1,0.2c-0.3,0.4-0.7,0.7-1.1,1c-0.4,0.3-0.8,0.6-1.3,0.8c-0.5,0.2-1,0.4-1.4,0.5
			c-0.5,0.1-1,0.2-1.4,0.2c-2,0-3.5-0.6-4.5-1.8c-1-1.2-1.5-3.1-1.5-5.5c0-1.1,0.1-2.1,0.3-3.1C138.8,70.1,139.1,69.3,139.6,68.7"/>
		<path class="st2" d="M116.1,69.6c-0.3-0.9-0.8-1.8-1.5-2.5c-0.6-0.7-1.5-1.3-2.4-1.7c-1-0.4-2.1-0.6-3.4-0.6
			c-2.8,0-4.9,0.9-6.4,2.6c-1.5,1.7-2.2,4.2-2.2,7.2c0,1.2,0.2,2.4,0.7,3.5c0.4,1.1,1.1,2,1.9,2.8c0.8,0.8,1.8,1.4,2.9,1.8
			c1.1,0.4,2.3,0.6,3.7,0.6c1.2,0,2.3-0.2,3.5-0.6c3.7-1.4,3.1-3.7,3.1-3.7l-0.5-0.3l-0.1,0.2c-0.3,0.4-0.7,0.7-1.1,1
			c-0.4,0.3-0.9,0.6-1.3,0.8c-0.5,0.2-1,0.4-1.4,0.5c-0.5,0.1-1,0.2-1.4,0.2c-1,0-1.8-0.2-2.6-0.5c-0.7-0.3-1.4-0.8-1.9-1.4
			c-0.5-0.6-0.9-1.3-1.2-2c-0.1-0.2-0.3-1.1-0.3-1.4c-0.2-2.1,0-3.5,0.4-5.3l0,0c0-0.1,0-0.2,0.1-0.3c0.2-0.7,0.5-1.4,0.9-2
			c0.4-0.6,0.9-1.1,1.5-1.5c0.6-0.4,1.3-0.6,2.1-0.6c0.9,0,1.6,0.2,2.1,0.6c0.5,0.4,1,0.9,1.3,1.5c0.3,0.6,0.5,1.3,0.6,2
			c0.1,0.6,0.1,1.2,0.1,1.8l-2.1,0l-2.4,0l-2.1,0c0,0-0.3,0-0.6,0c-0.3,0-0.9,0.2-0.9,0.9c0,0.7,0.6,0.9,0.9,0.9c0.3,0,0.6,0,0.6,0
			l2.1,0l3.9,0c0,0,1.1,0,2.1,0c2.2,0,2.1-1.7,2.1-1.7C116.6,71.5,116.5,70.5,116.1,69.6"/>
		<path class="st2" d="M56.7,65.5c-1.7,2.1-2.6,4.9-2.6,8.5c0,1.5,0.3,2.8,0.8,4.1c0.5,1.3,1.3,2.4,2.2,3.3c0.9,0.9,2.1,1.6,3.4,2.1
			c1.3,0.5,2.7,0.7,4.3,0.7c1.4,0,2.8-0.3,4.1-0.7c3.3-1.3,3.7-3,3.7-3.8c0-0.2,0-0.3,0-0.4c-0.1,0-0.3-0.2-0.5-0.3
			c0,0.1-0.1,0.1-0.1,0.1c-0.4,0.4-0.8,0.8-1.3,1.2c-0.5,0.4-1,0.7-1.6,1c-0.6,0.3-1.1,0.5-1.7,0.6c-0.6,0.2-1.2,0.2-1.7,0.2
			c-1.2,0-2.2-0.2-3.1-0.6c-0.9-0.4-1.7-1-2.3-1.6c-0.6-0.7-1.1-1.5-1.4-2.5c-0.1-0.3-0.4-1.3-0.4-1.7c-0.3-2.5-0.1-4.1,0.5-6.3
			l0-0.1l0-0.2c0.2-0.9,0.6-1.7,1.1-2.4c0.5-0.7,1.1-1.3,1.8-1.8c0.7-0.5,1.6-0.7,2.6-0.7c1.1,0,2,0.2,2.6,0.7
			c0.7,0.5,1.2,1.1,1.6,1.8c0.4,0.7,0.6,1.5,0.8,2.4c0.1,0.7,0.2,1.3,0.2,2.2c0,0.1-0.1,0.1-0.1,0.1l-2.5,0.1l-2.9,0l-2.5,0l-0.7,0
			c-0.4,0-1,0.2-1,1c0,0.7,0.6,0.9,0.9,0.9l0.7,0l2.5,0l4.6,0l2.5,0c0.8,0,1.5-0.2,1.9-0.6c0.5-0.5,0.5-1.2,0.5-1.2
			c0-1.2-0.2-2.4-0.5-3.5c-0.4-1.1-0.9-2.1-1.7-2.9c-0.8-0.8-1.7-1.5-2.8-2c-1.1-0.5-2.5-0.7-4-0.7C60.9,62.4,58.4,63.4,56.7,65.5"
			/>
		<path class="st2" d="M166.4,69.6c-0.3-0.9-0.8-1.8-1.5-2.5c-0.7-0.7-1.5-1.3-2.4-1.7c-1-0.4-2.1-0.6-3.4-0.6
			c-2.8,0-4.9,0.9-6.4,2.6c-1.4,1.7-2.2,4.2-2.2,7.2c0,1.2,0.2,2.4,0.7,3.5c0.4,1.1,1.1,2,1.9,2.8c0.8,0.8,1.8,1.4,2.9,1.8
			c1.1,0.4,2.3,0.6,3.7,0.6c1.2,0,2.3-0.2,3.5-0.6c3.7-1.4,3.1-3.7,3.1-3.7l-0.5-0.3l-0.1,0.2c-0.3,0.4-0.7,0.7-1.1,1
			c-0.4,0.3-0.8,0.6-1.3,0.8c-0.5,0.2-0.9,0.4-1.4,0.5c-0.5,0.1-1,0.2-1.4,0.2c-1,0-1.8-0.2-2.6-0.5c-0.7-0.3-1.4-0.8-1.9-1.4
			c-0.5-0.6-0.9-1.3-1.2-2c-0.1-0.2-0.3-1.1-0.3-1.4c-0.2-2.1,0-3.5,0.4-5.3v0c0-0.1,0-0.2,0.1-0.3c0.2-0.7,0.5-1.4,0.9-2
			c0.4-0.6,0.9-1.1,1.5-1.5c0.6-0.4,1.3-0.6,2.1-0.6c0.9,0,1.6,0.2,2.1,0.6c0.6,0.4,1,0.9,1.3,1.5c0.3,0.6,0.5,1.3,0.6,2
			c0.1,0.6,0.1,1.2,0.1,1.8l-2.1,0l-2.4,0l-2.1,0c0,0-0.3,0-0.6,0c-0.3,0-0.9,0.2-0.9,0.9c0,0.7,0.6,0.9,0.9,0.9c0.3,0,0.6,0,0.6,0
			l2.1,0l3.9,0c0,0,1.1,0,2.1,0c2.2,0,2.1-1.7,2.1-1.7C166.8,71.5,166.7,70.5,166.4,69.6"/>
		<path class="st2" d="M132.8,77.3h-3.3c0,1.2,0,2.8,0,2.8c0,3.7,3.6,3,3.6,3c-0.1-1-0.2-2.2-0.2-3.3L132.8,77.3"/>
		<path class="st2" d="M121.3,79.3l-0.1-3.4v-3.1c0-0.2,0-0.3,0-0.5l0-4c0-3.7-3.5-3-3.5-3c0.1,1,0.2,2.2,0.2,3.4l0.1,3.4v3.8
			l-0.1,3.4c0,1.2-0.1,2.3-0.2,3.2l0,0.3l1.9-0.1l1.9,0.1l0-0.3C121.4,81.6,121.4,80.5,121.3,79.3"/>
		<path class="st2" d="M128.6,68.4c0.7,0.9,1,2.2,1,4v2.2l-0.1,2.9h3.3l0-3l0.1-3.2c0-1.3-0.2-2.4-0.5-3.2c-0.4-0.8-0.8-1.5-1.4-2
			c-0.6-0.5-1.2-0.9-2-1.1c-0.7-0.2-1.4-0.3-2.1-0.3c-1.3,0-2.5,0.3-3.5,0.9c-0.3,0.2-0.6,0.4-0.9,0.6c-0.9,0.8-0.5,2.7,0.2,2.1
			c0.8-0.7,1.8-1.1,3.2-1.1C127.1,67.1,127.9,67.5,128.6,68.4"/>
	</g>
	<rect y="0" class="st7" width="235" height="119"/>
</g>
<g id="legal" class="st0">
</g>
</svg>
