<?xml version="1.0" encoding="utf-8"?>
<!-- Generator: Adobe Illustrator 19.2.1, SVG Export Plug-In . SVG Version: 6.00 Build 0)  -->
<svg version="1.1" xmlns="http://www.w3.org/2000/svg" xmlns:xlink="http://www.w3.org/1999/xlink" x="0px" y="0px"
	 viewBox="0 0 235 119" style="enable-background:new 0 0 235 119;" xml:space="preserve">
<style type="text/css">
	.st0{display:none;}
	.st1{display:inline;fill:#4B4A4B;}
	.st2{fill:#9B9A9A;}
	.st3{opacity:0.35;fill:#9B9A9A;}
	.st4{opacity:0.25;fill:#9B9A9A;}
	.st5{fill-rule:evenodd;clip-rule:evenodd;fill:#9B9A9A;}
	.st6{fill:none;stroke:#9B9A9A;stroke-width:0.4311;stroke-miterlimit:10;}
	.st7{fill:none;}
	.st8{display:inline;fill:#9B9A9A;}
	.st9{display:inline;fill-rule:evenodd;clip-rule:evenodd;fill:#9B9A9A;}
	.st10{display:inline;}
</style>
<g id="Background" class="st0">
	<rect class="st1" width="235" height="119"/>
</g>
<g id="Logos">
	<g>
		<path class="st2" d="M78.9,76.8h-0.7c-0.1,0-0.2,0.1-0.2,0.2v2.8h-3.7V77c0-0.1-0.1-0.2-0.2-0.2h-0.7c-0.1,0-0.2,0.1-0.2,0.2v6.7
			c0,0.1,0.1,0.2,0.2,0.2h0.7c0.1,0,0.2-0.1,0.2-0.2v-2.9H78v2.9c0,0.1,0.1,0.2,0.2,0.2h0.7c0.1,0,0.2-0.1,0.2-0.2V77
			C79.1,76.9,79,76.8,78.9,76.8z"/>
		<path class="st2" d="M106.6,76.8h-0.7c-0.1,0-0.2,0.1-0.2,0.2v2.8H102V77c0-0.1-0.1-0.2-0.2-0.2h-0.7c-0.1,0-0.2,0.1-0.2,0.2v6.7
			c0,0.1,0.1,0.2,0.2,0.2h0.7c0.1,0,0.2-0.1,0.2-0.2v-2.9h3.7v2.9c0,0.1,0.1,0.2,0.2,0.2h0.7c0.1,0,0.2-0.1,0.2-0.2V77
			C106.8,76.9,106.7,76.8,106.6,76.8z"/>
		<path class="st2" d="M61.7,76.8H61c-0.1,0-0.2,0.1-0.2,0.2v2.8h-3.7V77c0-0.1-0.1-0.2-0.2-0.2h-0.7c-0.1,0-0.2,0.1-0.2,0.2v6.7
			c0,0.1,0.1,0.2,0.2,0.2h0.7c0.1,0,0.2-0.1,0.2-0.2v-2.9h3.7v2.9c0,0.1,0.1,0.2,0.2,0.2h0.7c0.1,0,0.2-0.1,0.2-0.2V77
			C61.9,76.9,61.8,76.8,61.7,76.8z"/>
		<path class="st2" d="M54.3,76.8h-1.8h-0.7h-1.8c-0.1,0-0.2,0.1-0.2,0.2v0.5c0,0.1,0.1,0.2,0.2,0.2h1.6v5.9c0,0.1,0.1,0.2,0.2,0.2
			h0.7c0.1,0,0.2-0.1,0.2-0.2v-5.9h1.6c0.1,0,0.2-0.1,0.2-0.2V77C54.5,76.9,54.4,76.8,54.3,76.8z"/>
		<path class="st2" d="M68.5,77.7c0.1,0,0.2-0.1,0.2-0.2V77c0-0.1-0.1-0.2-0.2-0.2h-3.4h-0.6h-0.1c-0.1,0-0.2,0.1-0.2,0.2v6.7
			c0,0.1,0.1,0.2,0.2,0.2h0.1h0.6h3.4c0.1,0,0.2-0.1,0.2-0.2v-0.5c0-0.1-0.1-0.2-0.2-0.2h-3.2v-2.2h2.7c0.1,0,0.2-0.1,0.2-0.2V80
			c0-0.1-0.1-0.2-0.2-0.2h-2.7v-2H68.5z"/>
		<path class="st2" d="M168.9,77c0-0.1-0.1-0.2-0.2-0.2H168c-0.1,0-0.2,0.1-0.2,0.2v4.7l-4.3-4.9c-0.1-0.1-0.3-0.1-0.4-0.1
			c-0.1,0-0.2,0.1-0.2,0.2v0.6v6.2c0,0.1,0.1,0.2,0.2,0.2h0.7c0.1,0,0.2-0.1,0.2-0.2V79l4.3,4.8c0.1,0.1,0.3,0.1,0.4,0.1
			c0.1,0,0.2-0.1,0.2-0.2V77z"/>
		<path class="st2" d="M146.7,76.9c-0.1-0.2-0.5-0.3-0.7,0l-2,5.3l-2-5.3c-0.1-0.3-0.6-0.2-0.7,0l-1.3,6.8c0,0.1,0.1,0.2,0.2,0.2
			h0.7c0.1,0,0.2-0.1,0.2-0.2l0.8-4.5l1.7,4.5c0,0.1,0.1,0.1,0.1,0.2c0.1,0.1,0.2,0.2,0.3,0.2c0,0,0,0,0,0c0,0,0,0,0,0
			c0.1,0,0.2,0,0.3-0.2c0,0,0.1-0.1,0.1-0.2l1.7-4.5l0.8,4.5c0,0.1,0.1,0.2,0.2,0.2h0.7c0.1,0,0.2-0.1,0.2-0.2L146.7,76.9z"/>
		<path class="st2" d="M85.7,77.7c0.1,0,0.2-0.1,0.2-0.2V77c0-0.1-0.1-0.2-0.2-0.2h-3.4h-0.6h-0.1c-0.1,0-0.2,0.1-0.2,0.2v6.7
			c0,0.1,0.1,0.2,0.2,0.2h0.1h0.6h3.4c0.1,0,0.2-0.1,0.2-0.2v-0.5c0-0.1-0.1-0.2-0.2-0.2h-3.2v-2.2h2.7c0.1,0,0.2-0.1,0.2-0.2V80
			c0-0.1-0.1-0.2-0.2-0.2h-2.7v-2H85.7z"/>
		<path class="st2" d="M113.3,77.7c0.1,0,0.2-0.1,0.2-0.2V77c0-0.1-0.1-0.2-0.2-0.2h-3.4h-0.6h-0.1c-0.1,0-0.2,0.1-0.2,0.2v6.7
			c0,0.1,0.1,0.2,0.2,0.2h0.1h0.6h3.4c0.1,0,0.2-0.1,0.2-0.2v-0.5c0-0.1-0.1-0.2-0.2-0.2h-3.2v-2.2h2.7c0.1,0,0.2-0.1,0.2-0.2V80
			c0-0.1-0.1-0.2-0.2-0.2h-2.7v-2H113.3z"/>
		<path class="st2" d="M91.5,80.9c0.8-0.3,1.4-1.1,1.4-2c0-1.1-0.9-2-2-2.1c0,0-2.3,0-2.3,0h-0.3H88c-0.1,0-0.2,0.1-0.2,0.2v6.7
			c0,0.1,0.1,0.2,0.2,0.2h0.7c0.1,0,0.2-0.1,0.2-0.2v-2.6h1.5l1.3,2.6c0.1,0.1,0.1,0.2,0.2,0.2h0.8c0.2,0,0.3-0.1,0.2-0.3L91.5,80.9
			z M88.9,80.2v-2.4h2v0c0,0,0,0,0,0h0c0.6,0,1.1,0.5,1.1,1.2c0,0.8-0.5,1.2-1.1,1.2c0,0,0,0,0,0v0H88.9z"/>
		<path class="st2" d="M154.5,78.9c0-1.1-0.9-2-2-2.1c0,0,0,0,0,0h-1.8h-0.4h-0.3c-0.1,0-0.2,0.1-0.2,0.2v6.7c0,0.1,0.1,0.2,0.2,0.2
			h0.7c0.1,0,0.2-0.1,0.2-0.2v-2.6h1.7c0,0,0,0,0.1,0C153.6,81,154.5,80,154.5,78.9z M152.4,80.2C152.4,80.2,152.4,80.2,152.4,80.2
			L152.4,80.2h-1.6v-2.4h1.6v0c0,0,0,0,0,0h0c0.6,0,1.1,0.5,1.1,1.2C153.5,79.7,153,80.2,152.4,80.2z"/>
		<path class="st2" d="M120.2,76.8h-0.8c-0.1,0-0.1,0-0.2,0.1l-1.8,2.6l-1.8-2.6c0-0.1-0.1-0.1-0.2-0.1h-0.8c-0.1,0-0.2,0.2-0.1,0.3
			l2.4,3.4v3.2c0,0.1,0.1,0.2,0.2,0.2h0.7c0.1,0,0.2-0.1,0.2-0.2v-3.2l2.4-3.4C120.4,76.9,120.4,76.8,120.2,76.8z"/>
		<path class="st2" d="M176,76.8h-0.8c-0.1,0-0.1,0-0.2,0.1l-1.8,2.6l-1.8-2.6c0-0.1-0.1-0.1-0.2-0.1h-0.8c-0.1,0-0.2,0.2-0.1,0.3
			l2.4,3.4v3.2c0,0.1,0.1,0.2,0.2,0.2h0.7c0.1,0,0.2-0.1,0.2-0.2v-3.2l2.4-3.4C176.2,76.9,176.1,76.8,176,76.8z"/>
		<path class="st2" d="M135,76.7c-2,0-3.6,1.6-3.6,3.6s1.6,3.6,3.6,3.6s3.6-1.6,3.6-3.6S137,76.7,135,76.7z M135,83
			c-1.5,0-2.7-1.2-2.7-2.7c0-1.5,1.2-2.7,2.7-2.7c1.5,0,2.7,1.2,2.7,2.7C137.7,81.8,136.5,83,135,83z"/>
		<path class="st2" d="M127.5,83c-1.6,0-2.8-1.4-2.6-3c0.1-1.2,1.2-2.2,2.4-2.3c0.8-0.1,1.5,0.2,2,0.7c0.1,0.1,0.2,0.1,0.3,0
			l0.4-0.4c0.1-0.1,0.1-0.2,0-0.3c-0.7-0.6-1.7-1-2.7-0.9c-1.8,0.1-3.2,1.6-3.3,3.4c-0.1,2.1,1.5,3.9,3.6,3.9c0.9,0,1.8-0.4,2.5-1
			c0.1-0.1,0.1-0.2,0-0.3l-0.4-0.4c-0.1-0.1-0.2-0.1-0.3,0C128.9,82.7,128.2,83,127.5,83z"/>
		<path class="st2" d="M161.5,83.5l-2.5-5.6l-0.5-1c-0.1-0.3-0.5-0.4-0.7,0l-0.5,1l-2.5,5.6c-0.1,0.2,0,0.3,0.1,0.3h0.6
			c0.2,0,0.2-0.1,0.3-0.2l0.6-1.3h3.3l0.6,1.3c0.1,0.1,0.1,0.2,0.3,0.2h0.6C161.5,83.9,161.6,83.7,161.5,83.5z M157,81.4l1.2-2.8
			l1.2,2.8H157z"/>
		<path class="st2" d="M98.1,80.4c-0.7-0.4-1.7-0.7-2.1-1c-0.3-0.2-0.4-0.4-0.4-0.8c0-0.5,0.4-0.9,1-1c0.5,0,1,0.1,1.6,0.4
			c0.1,0.1,0.2,0,0.3,0l0.3-0.4c0.1-0.1,0.1-0.2,0-0.3c-0.6-0.5-1.4-0.6-2.2-0.6l0,0c-1,0-1.9,0.9-1.9,1.9c0,0.7,0.4,1.3,0.9,1.6
			c0.6,0.3,1.2,0.6,1.9,0.9c0.3,0.2,0.6,0.5,0.6,0.9c0,0.5-0.4,1-1,1c0,0,0,0,0,0v0c-0.8,0-1.4-0.3-1.9-0.7c-0.1-0.1-0.2,0-0.3,0
			l-0.3,0.5c-0.1,0.1-0.1,0.2,0,0.3c0.7,0.5,1.5,0.8,2.5,0.8c1.1,0,1.9-0.9,1.9-1.9C99,81.4,98.6,80.8,98.1,80.4z"/>
		<polygon class="st2" points="58.7,35.5 58.7,49.7 56,49.7 56,35.5 49.7,35.5 49.7,72.7 56,72.7 56,55 58.7,55 58.7,72.7 65,72.7 
			65,35.5 		"/>
		<polygon class="st2" points="74.2,67.3 74.2,55.3 78.8,55.3 78.8,50 74.2,50 74.2,40.9 79.1,40.9 79.1,35.5 67.9,35.5 67.9,72.7 
			79.5,72.7 79.5,67.3 		"/>
		<polygon class="st2" points="124.9,35.5 124.9,49.7 122.2,49.7 122.2,35.5 115.9,35.5 115.9,72.7 122.2,72.7 122.2,55 124.9,55 
			124.9,72.7 131.2,72.7 131.2,35.5 		"/>
		<polygon class="st2" points="140.4,67.3 140.4,55.3 145,55.3 145,50 140.4,50 140.4,40.9 145.3,40.9 145.3,35.5 134.1,35.5 
			134.1,72.7 145.7,72.7 145.7,67.3 		"/>
		<path class="st2" d="M96.3,67v-8.9c0-2.7-0.8-5-3-5.5c0,0,0,0,0,0c1.9-0.5,3.1-2.1,3.1-5.5v-5.7c0-3.7-2.3-5.8-5.4-5.8h-3.3h-4.7
			h-1.5v37.3h6.2V55.2h1.2c0.9,0,1.4,0.5,1.4,1.6c-0.1,7-0.4,14.4,0.8,15.9h7.5C97.4,71.5,96.3,69.5,96.3,67z M90.5,49.1
			c0,0.7-0.6,1.3-1.3,1.3H88V41h1.2c0.7,0,1.3,0.6,1.3,1.3V49.1z"/>
		<polygon class="st2" points="162.3,35.5 157.1,35.5 155.2,49.5 153.2,35.5 146.8,35.5 151.3,61.3 151.3,72.7 157.7,72.7 
			157.7,61.2 		"/>
		<path class="st2" d="M110.6,53.6l-3.3-3.7c-1.2-1.3-2.3-2.5-2.4-4.8c0,0,0-3.1,0-3.2c0-0.9,0.6-1.2,1.3-1.2s1.2,0.4,1.2,1.3
			c0,0,0,5.4,0,5.4h5.9v-6.1h0c-0.1-3.8-2.3-6.2-7-6.2c-4.1,0-7.3,2.1-7.3,6.2l0,4.7c0,4,1.8,5.8,3.3,7.7l3.4,3.9
			c1.2,1.3,1.7,2,1.8,4.3l0,4.7c0,0,0,0,0,0c0,0.7-0.6,1.3-1.3,1.3s-1.3-0.6-1.3-1.3c0,0,0-4.6,0-5.9v-0.3v-0.9h-6.1v7.7h0
			c0.1,3.8,3.1,6.2,7.2,6.2c4.1,0,7.5-2.3,7.5-6.4v-5.5C113.5,57.1,112.1,55.4,110.6,53.6z"/>
		<path class="st2" d="M174.7,63.3c-2.4-2.3-4.7-4.9-5.2-7.9c0-0.2-0.2-0.3-0.3-0.3c-0.1,0-0.3,0.1-0.3,0.3
			c-0.5,3.1-2.8,5.6-5.2,7.9c-5.1,4.4-3.3,9.3,0,9.3h5.5h5.5C178,72.6,179.7,67.8,174.7,63.3z"/>
		<path class="st2" d="M176.9,45.4c-5.7,0.9-7.9,2.6-8,6.2l0,1.9l0,0c0,0,0,0,0,0c0,0.1,0.1,0.2,0.2,0.2c0.1,0,0.2-0.1,0.2-0.1l0,0
			c1.3-2.1,2.8-3,6.2-3.5c4.5-0.6,8.3-1.4,9.7-3.1v-5.1C183.9,43.8,180.4,44.7,176.9,45.4z"/>
	</g>
	<rect class="st7" width="235" height="119"/>
</g>
<g id="legal" class="st0">
</g>
</svg>
