<?xml version="1.0" encoding="utf-8"?>
<!-- Generator: Adobe Illustrator 19.2.1, SVG Export Plug-In . SVG Version: 6.00 Build 0)  -->
<svg version="1.1" xmlns="http://www.w3.org/2000/svg" xmlns:xlink="http://www.w3.org/1999/xlink" x="0px" y="0px"
	 viewBox="0 0 235 119" style="enable-background:new 0 0 235 119;" xml:space="preserve">
<style type="text/css">
	.st0{display:none;}
	.st1{display:inline;fill:#4B4A4B;}
	.st2{fill:#9B9A9A;}
	.st3{opacity:0.35;fill:#9B9A9A;}
	.st4{opacity:0.25;fill:#9B9A9A;}
	.st5{fill-rule:evenodd;clip-rule:evenodd;fill:#9B9A9A;}
	.st6{fill:none;stroke:#9B9A9A;stroke-width:0.4311;stroke-miterlimit:10;}
	.st7{fill:none;}
	.st8{display:inline;fill:#9B9A9A;}
	.st9{display:inline;fill-rule:evenodd;clip-rule:evenodd;fill:#9B9A9A;}
	.st10{display:inline;}
</style>
<g id="Background" class="st0">
	<rect class="st1" width="235" height="119"/>
</g>
<g id="Logos">
	<g id="XMLID_435_">
		<g id="XMLID_436_">
			<path id="XMLID_442_" class="st5" d="M143.1,78.9L143.1,78.9l0-25.7l-3.8,0l0,25.8h0c0,0.7,0.3,4.9,2.4,5.4l4.1,0
				C143,83.5,143.1,78.9,143.1,78.9L143.1,78.9z M98.6,74.2c-0.5-2.5-2.2-4.4-5-5.5c0,0-7.6-2.2-7.6-2.2c-2.6-0.9-4.1-2.1-4.4-3.7
				l-0.1-0.9c0-1.5,0.5-2.7,1.5-3.6c1-0.9,2.5-1.3,4.4-1.4c3.2,0,5.4,1.1,6.4,3.4l0,0.1h3.7l-0.1-0.2c-1.3-4.6-4.7-6.9-10.1-6.8
				c-3,0-5.4,0.8-7.1,2.4c-1.7,1.6-2.6,3.7-2.6,6.2c0,0.6,0,1.3,0.1,1.8c0.5,2.5,2.2,4.3,5,5.4c0,0,7.5,1.9,7.5,1.9
				c2.6,0.8,4.2,2,4.5,3.7c0.4,1.9-0.1,3.4-1.5,4.6c-1.3,1.1-3.1,1.7-5,1.7c-2,0-3.7-0.4-4.9-1.1l-0.5-0.3c-1.2-0.9-2-2.9-2.2-3.5
				l0-0.1h-3.7l0.1,0.4c0.5,2.5,1.6,4.4,3.3,5.9c0.5,0.4,1,0.7,1.5,1c1.6,0.9,3.4,1.3,5.5,1.3c3.3,0,6-0.8,8-2.3
				c2.1-1.6,3.2-3.8,3.2-6.6C98.8,75.4,98.7,74.7,98.6,74.2L98.6,74.2z M147.4,68.6l0-22.5l3.8,0l0,7.1l6.4,0l0,3l-2.6,0l0,0
				c-3.1,0.1-3.7,2.6-3.8,3.6v0.2c0,1.4-0.3,10.9-0.1,16.1c0.1,1.9,0.6,3.2,0.7,3.4c0.6,1.3,1.8,1.9,3.5,1.9c0.7,0,1.4-0.1,2.2-0.3
				l0,3.3c-0.9,0.1-2,0.2-3.2,0.2c-4.7,0-7-2.7-7-8.1L147.4,68.6z M127,56.3l0,28.1l3.8,0l0-28.1l6.4,0l0-3l-2.6,0l0,0
				c-3.1-0.1-3.7-2.6-3.8-3.6v-0.2c0-1.9,0.2-3.2,0.6-4c0.6-1.3,1.8-1.9,3.5-1.9c0.7,0,1.4,0.1,2.2,0.3l0-3.3
				c-0.9-0.2-2-0.2-3.2-0.2c-4.7,0-7,2.7-7,8.1L127,56.3z M120.8,64.8c-1-5.2-3.8-7.8-8.5-7.8c-3,0-5.3,1.3-6.8,3.7
				c-1.4,2.2-2,4.9-2.1,8.3c0,1.4,0.1,2.7,0.3,3.9c0.5,2.5,1.5,4.5,2.9,5.9c1.5,1.4,3.3,2.1,5.6,2.1c3.6,0,6.1-1.8,7.6-5.4
				C121.3,72.4,121.6,68.8,120.8,64.8L120.8,64.8z M112.4,84.4c-3,0-5.6-0.9-7.7-2.7c-2.3-1.9-3.7-4.6-4.4-8.2
				c-0.3-1.4-0.4-2.9-0.4-4.5c0-4.5,1-8.2,3.1-11c2.2-3.1,5.4-4.6,9.4-4.6c3.3,0,6,1,8.1,3c2,1.9,3.3,4.5,3.9,7.8
				c0.3,1.4,0.4,3,0.4,4.6c0,4.7-1.1,8.4-3.4,11.3C119.1,83,116.1,84.5,112.4,84.4L112.4,84.4z M143.7,48.4c0,1.4-1.1,2.5-2.4,2.5
				c-1.3,0-2.4-1.1-2.4-2.5c0-1.4,1.1-2.5,2.4-2.5C142.6,45.9,143.7,47,143.7,48.4L143.7,48.4z"/>
		</g>
	</g>
	<rect class="st7" width="235" height="119"/>
</g>
<g id="legal" class="st0">
	<path id="XMLID_437_" class="st9" d="M157.8,82.6h0.3c0.2,0,0.3,0,0.3,0c0,0,0.1,0,0.1-0.1c0,0,0-0.1,0-0.1c0-0.1,0-0.1-0.1-0.1
		c0,0-0.1-0.1-0.1-0.1c0,0-0.1,0-0.3,0h-0.3V82.6z M157.4,83.7v-1.8h0.8c0.2,0,0.3,0,0.4,0.1c0.1,0,0.2,0.1,0.2,0.2
		c0.1,0.1,0.1,0.2,0.1,0.3c0,0.1,0,0.3-0.1,0.3c-0.1,0.1-0.2,0.1-0.4,0.2c0.1,0,0.1,0.1,0.2,0.2c0,0.1,0.1,0.2,0.2,0.3l0.2,0.4h-0.4
		l-0.3-0.4c-0.1-0.1-0.2-0.2-0.2-0.3c0,0-0.1-0.1-0.1-0.1c0,0-0.1,0-0.2,0h-0.1v0.8H157.4z M156.6,82.7c0-0.8,0.7-1.5,1.5-1.5
		c0.8,0,1.5,0.7,1.5,1.5c0,0.8-0.7,1.5-1.5,1.5C157.3,84.2,156.6,83.5,156.6,82.7L156.6,82.7z M156.3,82.7c0,1,0.8,1.8,1.8,1.8
		c1,0,1.8-0.8,1.8-1.8c0-1-0.8-1.8-1.8-1.8C157.1,80.9,156.3,81.7,156.3,82.7L156.3,82.7z"/>
</g>
</svg>
