<?xml version="1.0" encoding="utf-8"?>
<!-- Generator: Adobe Illustrator 19.2.1, SVG Export Plug-In . SVG Version: 6.00 Build 0)  -->
<svg version="1.1" xmlns="http://www.w3.org/2000/svg" xmlns:xlink="http://www.w3.org/1999/xlink" x="0px" y="0px"
	 viewBox="0 0 235 119" style="enable-background:new 0 0 235 119;" xml:space="preserve">
<style type="text/css">
	.st0{display:none;}
	.st1{display:inline;fill:#4B4A4B;}
	.st2{fill:#9B9A9A;}
	.st3{opacity:0.35;fill:#9B9A9A;}
	.st4{opacity:0.25;fill:#9B9A9A;}
	.st5{fill-rule:evenodd;clip-rule:evenodd;fill:#9B9A9A;}
	.st6{fill:none;stroke:#9B9A9A;stroke-width:0.4311;stroke-miterlimit:10;}
	.st7{fill:none;}
	.st8{display:inline;fill:#9B9A9A;}
	.st9{display:inline;fill-rule:evenodd;clip-rule:evenodd;fill:#9B9A9A;}
	.st10{display:inline;}
</style>
<g id="Background" class="st0">
	<rect class="st1" width="235" height="119"/>
</g>
<g id="Logos">
	<g id="XMLID_23_">
		<path id="XMLID_63_" class="st2" d="M64.3,60.7h2.4l1.5-3.6c1.3,2.2,3.1,3.8,6.1,3.8c1.8,0,3.6-0.8,4.8-2c1.7-1.7,2.6-4.4,2.6-7.4
			c0-3.3-0.7-5.8-2.4-7.5c-1.1-1.1-2.6-1.8-4.7-1.8c-2.5,0-4.7,1.5-5.9,3.9v-11h-7.3v3h2.8V60.7z M73.1,45.1c2.4,0,3.7,2.3,3.7,6.4
			c0,4.3-1.4,6.6-3.7,6.6c-2.5,0-4.5-2.3-4.5-6.2C68.6,48,70.5,45.1,73.1,45.1"/>
		<path id="XMLID_62_" class="st2" d="M93.8,57.6h-3.4v-8.3c0.7-2.3,1.9-3.9,3.3-3.9c0,0.2-0.1,0.3-0.1,0.5c0,1.6,1.2,2.5,2.7,2.5
			c1.5,0,2.6-1.3,2.6-2.9c0-1.7-1.2-3.3-3.3-3.3c-2.2,0-4.5,1.5-5.4,4.7v-4.4h-7.1v2.9h2.7v12.2h-2.7v2.9h10.6V57.6z"/>
		<path id="XMLID_50_" class="st2" d="M108.6,60.8c4.4,0,7.1-2.2,8-6h-2.3c-1,2.3-2.5,3.2-4.7,3.2c-3.2,0-5-1.8-5.2-6.2h12.3
			c0.2-5.2-2.4-9.7-8-9.7c-5.2,0-9.1,4.1-9.1,9.5C99.6,57,103,60.8,108.6,60.8 M108.5,44.5c2.4,0,3.5,1.9,3.8,5.4h-7.8
			C104.8,45.9,106.3,44.5,108.5,44.5"/>
		<path id="XMLID_41_" class="st2" d="M135.3,58c-0.8,0-1.1-0.3-1.1-1.2V48c0-3.8-2.2-5.8-6.8-5.8c-4.2,0-7.8,1.7-7.8,4.7
			c0,1.3,0.9,2.5,2.6,2.5c1.5,0,2.5-1,2.5-2.3c0-0.9-0.4-1.6-1-1.9c0.8-0.5,1.7-0.7,2.7-0.7c2.3,0,3.4,0.9,3.4,3.2v1.8
			c0,0.6-0.3,0.6-2.5,0.9c-3.8,0.5-5.7,1.1-7,2.4c-0.9,0.9-1.3,2-1.3,3.2c0,2.8,2.1,4.7,5.4,4.7c2.4,0,4.8-1.2,5.9-3.5h0.2
			c0.1,2.4,1.7,3.4,3.6,3.4c2.1,0,3.5-1,4.3-3.6l-1.6-0.7C136.2,57.5,135.8,58,135.3,58 M129.7,54.2c0,2.2-1.7,3.8-3.4,3.8
			c-1.9,0-2.7-1.1-2.7-2.7c0-2.1,1-2.7,4.3-3.2c1-0.2,1.4-0.2,1.7-0.4V54.2z"/>
		<path id="XMLID_33_" class="st2" d="M98.1,81.1c-0.8,0-1.1-0.3-1.1-1.2v-8.8c0-3.8-2.2-5.8-6.8-5.8c-4.2,0-7.8,1.7-7.8,4.7
			c0,1.3,0.9,2.5,2.6,2.5c1.5,0,2.5-1,2.5-2.3c0-0.9-0.4-1.6-1-1.9c0.8-0.5,1.7-0.7,2.7-0.7c2.3,0,3.4,0.9,3.4,3.2v1.8
			c0,0.6-0.3,0.6-2.5,0.9c-3.8,0.5-5.7,1.1-7,2.4c-0.9,0.9-1.3,2-1.3,3.2c0,2.8,2.1,4.7,5.4,4.7c2.4,0,4.8-1.2,5.9-3.5h0.2
			c0.1,2.4,1.7,3.4,3.6,3.4c2.1,0,3.5-1,4.3-3.6l-1.6-0.7C99.1,80.6,98.6,81.1,98.1,81.1 M92.5,77.3c0,2.2-1.7,3.8-3.4,3.8
			c-1.9,0-2.7-1.1-2.7-2.7c0-2.1,1-2.7,4.3-3.2c1-0.2,1.4-0.2,1.7-0.4V77.3z"/>
		<path id="XMLID_32_" class="st2" d="M140.1,55.4c0,3.5,1.7,5.4,5.2,5.4c3,0,5-1.6,5.9-5.5l-2-0.7c-0.7,2.2-1.5,3.2-2.6,3.2
			c-1.5,0-2-0.9-2-2.6v-9.9h5.2v-2.9h-5.2v-4.4h-4.5v4.4h-3.5v2.9h3.4V55.4z"/>
		<path id="XMLID_31_" class="st2" d="M170.6,57.6v-9.5c0-3.6-1.8-5.9-5.1-5.9c-2.7,0-4.7,1.3-6.4,4.4V35.1h-7.3v3h2.8v19.5h-2.8
			v2.9h9.6v-2.9h-2.4v-6.9c0-3.2,2.1-5.2,4.2-5.2c0.8,0,1.5,0.2,1.9,0.7c0.6,0.6,0.9,1.6,0.9,2.9v8.4h-2.4v2.9h9.7v-2.9H170.6z"/>
		<path id="XMLID_30_" class="st2" d="M73.1,72.5c-3.3-0.9-4.5-1.6-4.5-3c0-1.3,1.1-2.1,2.5-2.1c2.3,0,3.6,1.6,5,4h2.6v-6.2h-2.6
			l-0.5,2.1c-1-1.4-2.7-2.1-4.7-2.1c-3.8,0-6.4,2.5-6.4,5.5c0,3,1.9,4.5,6.2,5.6c3.6,0.9,4.7,1.6,4.7,3.1c0,1.3-0.8,2.2-2.7,2.2
			c-2.3,0-4.6-1.8-5.8-4.5h-2.6v6.7h2.6l0.5-2.4c1.2,1.4,3,2.4,5.5,2.4c4.2,0,6.6-2.9,6.6-5.8C79.5,74.9,77.2,73.6,73.1,72.5"/>
		<polygon id="XMLID_29_" class="st2" points="112.4,68.4 114.8,68.4 110.7,79.9 110.5,79.9 106.5,68.4 109.4,68.4 109.4,65.6 
			99.2,65.6 99.2,68.4 101.6,68.4 107.5,83.7 111.8,83.7 117.8,68.4 120.1,68.4 120.1,65.6 112.4,65.6 		"/>
		<path id="XMLID_26_" class="st2" d="M129.5,65.2c-5.2,0-9.1,4.1-9.1,9.5c0,5.3,3.3,9.2,9,9.2c4.4,0,7.1-2.2,8-6h-2.3
			c-1,2.3-2.5,3.2-4.7,3.2c-3.2,0-5-1.8-5.2-6.2h12.3C137.7,69.8,135.2,65.2,129.5,65.2 M125.3,72.9c0.3-4,1.8-5.4,4-5.4
			c2.4,0,3.5,1.9,3.8,5.4H125.3z"/>
		<path id="XMLID_25_" class="st2" d="M151.6,65.3c-2.2,0-4.5,1.5-5.4,4.7v-4.4h-7.1v2.9h2.7v12.2h-2.7v2.9h10.6v-2.9h-3.4v-8.3
			c0.7-2.3,1.9-3.9,3.3-3.9c0,0.2-0.1,0.3-0.1,0.5c0,1.6,1.2,2.5,2.7,2.5c1.5,0,2.6-1.3,2.6-2.9C155,66.8,153.7,65.3,151.6,65.3"/>
		<path id="XMLID_24_" class="st2" d="M165.1,72.5c-3.3-0.9-4.5-1.6-4.5-3c0-1.3,1.1-2.1,2.5-2.1c2.3,0,3.6,1.6,5,4h2.6v-6.2H168
			l-0.5,2.1c-1-1.4-2.7-2.1-4.7-2.1c-3.8,0-6.4,2.5-6.4,5.5c0,3,1.9,4.5,6.2,5.6c3.6,0.9,4.7,1.6,4.7,3.1c0,1.3-0.8,2.2-2.7,2.2
			c-2.3,0-4.6-1.8-5.8-4.5h-2.6v6.7h2.6l0.5-2.4c1.2,1.4,3,2.4,5.5,2.4c4.2,0,6.6-2.9,6.6-5.8C171.4,74.9,169.1,73.6,165.1,72.5"/>
	</g>
	<rect class="st7" width="235" height="119"/>
</g>
<g id="legal" class="st0">
</g>
</svg>
