<?xml version="1.0" encoding="utf-8"?>
<!-- Generator: Adobe Illustrator 19.2.1, SVG Export Plug-In . SVG Version: 6.00 Build 0)  -->
<svg version="1.1" xmlns="http://www.w3.org/2000/svg" xmlns:xlink="http://www.w3.org/1999/xlink" x="0px" y="0px"
	 viewBox="0 0 235 119" style="enable-background:new 0 0 235 119;" xml:space="preserve">
<style type="text/css">
	.st0{display:none;}
	.st1{display:inline;fill:#4B4A4B;}
	.st2{fill:#9B9A9A;}
	.st3{opacity:0.35;fill:#9B9A9A;}
	.st4{opacity:0.25;fill:#9B9A9A;}
	.st5{fill-rule:evenodd;clip-rule:evenodd;fill:#9B9A9A;}
	.st6{fill:none;stroke:#9B9A9A;stroke-width:0.4311;stroke-miterlimit:10;}
	.st7{fill:none;}
	.st8{display:inline;fill:#9B9A9A;}
	.st9{display:inline;fill-rule:evenodd;clip-rule:evenodd;fill:#9B9A9A;}
	.st10{display:inline;}
</style>
<g id="Background" class="st0">
	<rect class="st1" width="235" height="119"/>
</g>
<g id="Logos">
	<rect class="st7" width="235" height="119"/>
	<g>
		<g>
			<g>
				<g>
					<g>
						<g>
							<g>
								<g>
									<g>
										<g>
											<path class="st2" d="M167.7,35.3L167.7,35.3C167.7,35.3,167.6,35.3,167.7,35.3z"/>
											<path class="st2" d="M127.5,46.5c0.1-3.6,4.1-6,7.6-6c1.9,0,3.5,0.4,4,2.3c0,0,5.7-3.3,0.7-4.5c-7.8-1.9-16.7,2.4-17,9.4
												c-0.2,4.6,6.9,9.5,7.1,14c0.2,5.2-7.2,11.9-11.6,9.1c0,0-2.9,2.8,0.2,3.4c5.4,1.1,18.2-3.6,18.7-12.6
												C137.7,53.4,127.4,51.6,127.5,46.5z"/>
											<path class="st2" d="M167.9,38c-5.4,0.4-10.8,1.7-15.6,3.2c2.9-6.9,5.4-11.5,5.7-12.1c0.2-0.3,0.2-0.6,0.3-0.8l-7.5,1.5
												c-0.1,0.4-4.2,9.6-5.2,13.7c-3.4,1.3-6.2,2.5-8.1,3.3c-1.8,0.9-0.4,2.5-0.4,2.5c0.1,0,0.1-0.1,0.2-0.1
												c2.6-0.9,5.1-1.7,7.4-2.4c-4.3,15.3-4.4,21.5-4.6,24.3c-0.2,2.8,3.8-0.3,3.8-0.3c1.3-9.4,4.1-18.3,6.8-25.5
												c9.8-2.2,14.9-1.7,16-1.7L168,38C168,38,167.9,38,167.9,38z"/>
											<path class="st2" d="M74.9,82.7c-0.1-0.6,0.3-1.5,1-2.8c2-3.5,5.3-7.8,9.3-12.9c7.2-9.3,17-19.7,17.1-25.1l0-0.9
												c0,0-24,4.4-29.1,7.1c-3.5,1.9,0.7,4.3,0.7,4.3l0.6-0.2c5.9-2.6,12.8-4.3,17.6-5.1c-1.4,3.8-6.9,10.1-12,16.7
												C73.5,72.3,66.8,83,67,87.2c0.1,3.6,3.5,3.8,4.4,3.4c0.5-0.2,0.5-0.2,0.9-0.5c6.3-4.4,14.1-10.8,22.4-12.4
												c0,0,0.7-1.7-0.9-2.3C89.6,74,74.9,82.7,74.9,82.7z"/>
											<path class="st2" d="M114,42.5c-9.5,1.4-18.7,13-20.6,24.5c-1.1,6.8,3.3,11.1,9.4,11.6c5.1,0.4,11.1-3.4,12.9-6.1
												c1.8-2.8-1.1-2.6-1.1-2.6c-2.1,2.9-5.3,5.2-9.6,4.3c-4.2-0.9-4.3-4.6-4-8.1c0.9-0.1,3.2-0.7,6.9-2.3
												c6.8-3,12-7.6,12.8-13.5C121.5,44.5,119.2,41.7,114,42.5z M113.7,54.3c-3.2,5-8.9,8.3-12.5,9c1.2-7.2,8.8-17.3,13-18.4
												C116.6,44.4,116.4,50,113.7,54.3z"/>
										</g>
									</g>
								</g>
							</g>
						</g>
					</g>
				</g>
			</g>
		</g>
	</g>
</g>
<g id="legal" class="st0">
</g>
</svg>
