<?xml version="1.0" encoding="utf-8"?>
<!-- Generator: Adobe Illustrator 19.2.1, SVG Export Plug-In . SVG Version: 6.00 Build 0)  -->
<svg version="1.1" id="Layer_1" xmlns="http://www.w3.org/2000/svg" xmlns:xlink="http://www.w3.org/1999/xlink" x="0px" y="0px"
	 viewBox="0 0 235 119" style="enable-background:new 0 0 235 119;" xml:space="preserve">
<style type="text/css">
	.st0{display:none;}
	.st1{display:inline;fill:#4B4A4B;}
	.st2{fill:#9B9A9A;}
	.st3{display:inline;fill:#9B9A9A;}
</style>
<g id="Background" class="st0">
	<rect class="st1" width="235" height="119"/>
</g>
<g id="Logos">
	<g>
		<path class="st2" d="M123.4,66.6l5.2-16.8H123l-0.7,0.8l0,0c-0.2-0.3-1.2-1.2-2.4-1.2c-4.3,0.2-7.9,3.2-10.4,6.7l0,0L111,50l0,0
			c-1.2-0.1-3.9,0.2-6.5,3.5c-0.2-1-0.9-2.7-1.7-3.8l0,0H97l0,0c1,1.2,1.9,2.6,1.1,5.2l0,0l-5.4,17.5h5.6l3.7-12.1l0,0
			c0.3-0.8,4.2-8.5,7-3.5c-1.8,2.9-2.9,6-3,8.5c-0.2,4.6,1.5,7.5,4.6,7.5s5.8-2.7,7.1-4.4c-0.1,1.7,0.1,4.8,3.5,4.8
			c3.5,0,5.6-3.5,5.5-5.2C124.2,70.3,122.8,68.5,123.4,66.6L123.4,66.6L123.4,66.6L123.4,66.6z M121.2,55.6l-1.8,5.6l0,0
			c-2.4,7.9-5.1,7.8-6,7.4s-1.7-2.8,0.5-8.2c3-7.3,5.5-8.5,6.9-8.1C121.7,52.7,121.6,54.4,121.2,55.6L121.2,55.6L121.2,55.6
			L121.2,55.6z"/>
		<path class="st2" d="M184.1,52.5c-1.2-2.6-6.1-3.3-9.5-2c-2.4,0.9-10.1,6.5-10.3,15.4c-0.2,7.7,6.1,7.6,7.4,7.6
			c1.3,0,7.4-0.3,9.3-7.2c-2.3,1.8-9.9,4.7-9.7-1.1c3.1-0.5,10.5-2,12.5-7C184.3,57,185,54.2,184.1,52.5L184.1,52.5L184.1,52.5
			L184.1,52.5z M176,61.1c-1,1.2-2.9,1.7-4.4,2c1.1-6.5,4.2-9.6,5.3-10.6c1.2-1,2.3-0.5,2.2,1.1C179,56.5,177.1,59.7,176,61.1
			L176,61.1L176,61.1L176,61.1z"/>
		<path class="st2" d="M66.4,46.9c-1-4.7,1.1-8,4.9-8c4,0,5.9,3.3,2.7,8.5l0,0h1l0,0c0.8-0.9,1.7-3.1,1.8-5.2
			c0.1-1.5-1.4-5.4-6.7-5.4c-5.7,0-13.8,4.2-11.2,15.2l0,0l2.6,10.3l0,0c0.7,4.1,1,9.1-3.4,9.4c-3.5,0.1-8-6,1.3-11
			c-1-2.2-11.3-1.2-11.2,6.3c0.1,6.9,7.5,7.1,9.1,7.1c1.6,0,15-2.2,11.7-16.3l0,0L66.4,46.9L66.4,46.9L66.4,46.9z"/>
		<path class="st2" d="M88.8,66.6L94,49.8h-5.6l-0.7,0.8l0,0c-0.2-0.3-1.2-1.2-2.4-1.2c-8,0.5-13.8,10.3-14,16
			C71.1,70,72.7,73,75.8,73s5.8-2.7,7.1-4.4c-0.1,1.7,0.1,4.8,3.5,4.8c3.5,0,5.6-3.5,5.5-5.2C89.6,70.3,88.2,68.5,88.8,66.6
			L88.8,66.6L88.8,66.6L88.8,66.6z M86.6,55.6l-1.8,5.6l0,0c-2.4,7.9-5.1,7.8-6,7.4s-1.7-2.8,0.5-8.2c3-7.3,5.5-8.5,6.9-8.1
			C87.1,52.7,87,54.4,86.6,55.6L86.6,55.6L86.6,55.6L86.6,55.6z"/>
		<path class="st2" d="M165.1,52.5c-1.2-2.6-6.1-3.3-9.5-2c-2.4,0.9-10.1,6.5-10.3,15.4c-0.2,7.7,6.1,7.6,7.4,7.6
			c1.3,0,7.4-0.3,9.3-7.2c-2.3,1.8-9.9,4.7-9.7-1.1c3.1-0.5,10.5-2,12.5-7C165.3,57,166,54.2,165.1,52.5L165.1,52.5L165.1,52.5
			L165.1,52.5z M157,61.1c-1,1.2-2.9,1.7-4.4,2c1.1-6.5,4.2-9.6,5.3-10.6c1.2-1,2.3-0.5,2.2,1.1C160.1,56.5,158.2,59.7,157,61.1
			L157,61.1L157,61.1L157,61.1z"/>
		<path class="st2" d="M142.4,76.2c-2.9,0-8.5,0.7-11.1,1.8c3.1-2.1,8.8-6.3,11.2-13.2c2.5-6.9,5-15.2,6-18.3s3.1-5.6,6.4-5.4
			c3,0.3,2.6,3.9,2.7,5.9l0,0l1.1-0.6l0,0c0.1-3.8-0.8-7.4-7.3-7.4s-10.2,6.1-11.6,10c-1.4,3.9-6.9,20.8-8.1,23.1
			c-1.2,2.4-2.7,5.2-9,10.2c4.1-1,9.8-1.6,12.9-1.6c3.1,0,32,0,32,0c5.2,0,9.9-3.3,12.3-8.2c-2,2-4.2,3.7-10.5,3.7l0,0L142.4,76.2
			L142.4,76.2L142.4,76.2z"/>
	</g>
</g>
<g id="legal" class="st0">
	<path class="st3" d="M184.5,69.3c-1.3,0-2.3,1-2.3,2.3s1,2.3,2.3,2.3s2.3-1,2.3-2.3C186.8,70.4,185.8,69.3,184.5,69.3L184.5,69.3
		L184.5,69.3L184.5,69.3z M184.5,73.8c-1.2,0-2.1-0.9-2.1-2.1s0.9-2.1,2.1-2.1c1.2,0,2.1,0.9,2.1,2.1
		C186.6,72.8,185.7,73.8,184.5,73.8L184.5,73.8L184.5,73.8L184.5,73.8z"/>
	<path class="st3" d="M185,71.8c0.4-0.1,0.7-0.3,0.7-0.7c0-0.5-0.3-0.8-0.9-0.8l0,0h-1V73h0.2v-1.3h0.7l0.8,1.3h0.3L185,71.8
		L185,71.8L185,71.8z M184.6,71.6H184v-1.1h0.8l0,0c0.3,0,0.7,0.1,0.7,0.5C185.5,71.5,185,71.6,184.6,71.6L184.6,71.6L184.6,71.6
		L184.6,71.6z"/>
</g>
</svg>
