<?xml version="1.0" encoding="utf-8"?>
<!-- Generator: Adobe Illustrator 19.2.1, SVG Export Plug-In . SVG Version: 6.00 Build 0)  -->
<svg version="1.1" xmlns="http://www.w3.org/2000/svg" xmlns:xlink="http://www.w3.org/1999/xlink" x="0px" y="0px"
	 viewBox="0 0 235 119" style="enable-background:new 0 0 235 119;" xml:space="preserve">
<style type="text/css">
	.st0{display:none;}
	.st1{display:inline;fill:#4B4A4B;}
	.st2{fill:#9B9A9A;}
	.st3{opacity:0.35;fill:#9B9A9A;}
	.st4{opacity:0.25;fill:#9B9A9A;}
	.st5{fill-rule:evenodd;clip-rule:evenodd;fill:#9B9A9A;}
	.st6{fill:none;stroke:#9B9A9A;stroke-width:0.4311;stroke-miterlimit:10;}
	.st7{fill:none;}
	.st8{display:inline;fill:#9B9A9A;}
	.st9{display:inline;fill-rule:evenodd;clip-rule:evenodd;fill:#9B9A9A;}
	.st10{display:inline;}
</style>
<g id="Background" class="st0">
	<rect class="st1" width="235" height="119"/>
</g>
<g id="Logos">
	<g>
		<path class="st2" d="M62.6,68.7c4.1,0,7.4,3.3,7.4,7.3c0,4-3.3,7.3-7.4,7.3l-6.4,0l0,5.2c0,1.8,0.8,2.8,0.8,2.8h-5.3
			c1-1,0.8-2.8,0.8-2.8v-5.2V72.1l0-0.2c0-2.5-0.9-3.2-0.9-3.2L62.6,68.7z M56.4,70.9v10.5h4.6c0,0,4.9,0,4.9-5.4s-5-5.1-5-5.1H56.4
			z"/>
		<g>
			<path class="st5" d="M76,71.9h4.6c0,0,5.8,14.4,6.6,16.3c0.8,2,2.3,3.1,2.3,3.1h-5.7c0.2-1-0.3-2.1-0.3-2.1l-1.2-2.9h-7.8
				c0,0-1.2,2.7-1.4,3.5c-0.2,0.7-0.1,1.6-0.1,1.6h-4.3c1.4-1,2.2-3.1,2.2-3.1s5-12.2,5.6-13.9C77.2,72.7,76,71.9,76,71.9z
				 M78.2,76.6l-2.9,7.5h6.2L78.2,76.6z"/>
			<path class="st5" d="M111.3,71.9h15v3.2c0,0-0.9-0.9-2.9-0.9s-2.8,0-2.8,0v14.6c0,0-0.1,1.7,0.6,2.5h-5.1c0,0,0.6-1.2,0.6-2.4
				c0-1.3,0-14.6,0-14.6h-3.3c0,0-1.3-0.1-2.2,0.8V71.9z"/>
			<path class="st5" d="M129.7,71.9h13.7v3.2c0,0-1.1-0.9-3-0.9c-1.9,0-6.2,0-6.2,0v6.2h6.8c0,0,1,0,1.4-0.4v3.1
				c0,0-0.5-0.4-1.3-0.4c-0.8,0-6.9,0-6.9,0v6.5h6.9c0,0,1.6,0.1,2.5-0.7v2.8H130c0,0,0.6-0.8,0.6-2.3s0-14.7,0-14.7
				C130.6,72.9,129.7,71.9,129.7,71.9z"/>
			<path class="st5" d="M149,74.6c0,0-0.1-1.6-1.2-2.7h3c0,0,0.8-0.1,2.5,2.1c1.8,2.3,8.9,11.5,8.9,11.5V73.7c0,0,0-1.1-0.7-1.8h3.5
				c0,0-0.4,1-0.4,1.8c0,0.8,0,17.6,0,17.6s-1.2,0.4-2.6-0.8c-1.4-1.3-3.8-4-5-5.6c-1.1-1.6-5.7-8.1-5.7-8.1v12.1
				c0,0-0.1,1.6,0.6,2.4h-3.7c0,0,0.7-1.2,0.7-2.4C149,87.8,149,74.6,149,74.6z"/>
			<path class="st5" d="M169.5,71.9h13.7v3.2c0,0-1.1-0.9-3-0.9c-1.9,0-6.2,0-6.2,0v6.2h6.8c0,0,1,0,1.4-0.4v3.1
				c0,0-0.5-0.4-1.3-0.4c-0.8,0-6.9,0-6.9,0v6.5h6.9c0,0,1.6,0.1,2.5-0.7v2.8h-13.6c0,0,0.6-0.8,0.6-2.3s0-14.7,0-14.7
				C170.4,72.9,169.5,71.9,169.5,71.9z"/>
			<path class="st5" d="M92,74.6c0,0-0.1-1.6-1.2-2.7h3c0,0,0.8-0.1,2.5,2.1c1.8,2.3,8.9,11.5,8.9,11.5v-8.7l2.4,2.3v12.1
				c0,0-1.2,0.4-2.6-0.8c-1.4-1.3-3.8-4-5-5.6c-1.1-1.6-5.7-8.1-5.7-8.1v12.1c0,0-0.1,1.6,0.6,2.4h-3.7c0,0,0.7-1.2,0.7-2.4V74.6z"
				/>
			<path class="st5" d="M142.4,16c0,0,2.8,7.6-7.6,15.6S97.8,46.2,97.4,58.6c0,0-0.1,0.7,0.3,0.7c0.4,0,0.3-0.5,0.4-0.9
				c0-0.4,0.2-7,13.7-12s28.3-9.1,32.3-19c0,0,2.6-5.3-1.1-11.3c0,0-0.2-0.4-0.5-0.3C142.2,15.7,142.4,16,142.4,16z"/>
			<path class="st5" d="M139.2,23.2c0,0,2.3,1.5,2.2,6.4s-5.2,10.6-8.7,12.6c0,0-0.7,0.5-0.5,0.9c0.2,0.4,0.9-0.1,1.2-0.3
				c0.3-0.1,9.3-5.6,10.2-13.2c0.3-2.5-1-5.7-3.9-7.1c0,0-0.6-0.3-0.8-0.1C138.7,22.7,139.2,23.2,139.2,23.2z"/>
			<path class="st5" d="M146.8,29.5c0.1,0.1,1.8,5.9-3.7,10.5c-5.5,4.5-13.6,8.1-27.8,14.6c-9,4.1-15,8.6-12.9,15.1
				c0,0,0.3,0.8,0.6,0.8c0.4-0.1,0.3-0.7,0.1-1.1c-0.1-0.4-1.5-4.9,3.9-8.3c5.4-3.4,14.3-6.4,21.6-8.6c7.4-2.3,19.9-7.5,21.1-16.6
				c0,0,0.1-3.6-2.5-6.6c0,0-0.4-0.5-0.6-0.4C146.4,28.8,146.7,29.2,146.8,29.5z"/>
			<path class="st5" d="M139.3,50.3c0,0,0.1,4.2-8.2,7.5c-8.4,3.3-26.9,6.4-26.6,12c0.3,5.6,6.7,8,9.5,10.2c0,0,0.4,0.3,0.7,0
				c0.3-0.3,0-0.8-0.6-1.2c-0.6-0.4-8.3-4.6-8.5-7.6c-0.2-3,0-4,10.5-6.4s16-2.3,21.4-7.2c0,0,2.9-2.7,2.9-6c0,0,0.1-2.4-0.8-2.2
				C139.2,49.4,139.3,50.3,139.3,50.3z"/>
			<path class="st5" d="M105.2,52.2c0,0-10,7.5-5.5,14.1c0,0,0.5,0.5,0.9,0.4c0.4-0.1,0-0.8-0.1-1.2c-0.1-0.4-3.1-5.6,5.4-12.7
				c0,0,0.6-0.4,0.3-0.8C105.9,51.5,105.2,52.2,105.2,52.2z"/>
			<path class="st5" d="M122.8,87.9c0.2,0.2,4.3,3.8,5.7,5.6c1.4,1.8,1.8,3.1-1.8,2.6c-3.6-0.5-20-5-23.1,0.1c0,0-1,1.3-1,2.8
				c0,1.4,0.8,0.7,1.4-0.5s3.9-2.4,11.7-1.4c7.9,0.9,14.7,1.8,15.4-2c0,0,0-1.1-2.1-3c-2.1-1.8-5.7-4.9-5.7-4.9
				c-0.1-0.1-0.4-0.2-0.6,0C122.4,87.4,122.5,87.6,122.8,87.9z"/>
			<path class="st2" d="M170.8,95.4h1.3l3.6,6.4c0,0,2.6-4.9,2.9-5.6c0.3-0.7,0.5-0.8,0.5-0.8h0.9l-4.1,7.6h-1L170.8,95.4z
				 M145.5,95.3l3.6,0c0.4,0,4.1-0.2,4.1,2.4c0,1.6-1.4,2.2-2.5,2.3l2.7,3H152l-2.7-2.9h-2.4v2.9h-1.3V95.3z M146.9,96v3.4h2.2
				c0,0,2.8,0.1,2.8-1.6c0-1.9-2.4-1.9-2.9-1.9H146.9z M155,99.2c0-2.3,2.3-4.2,5.2-4.2c2.9,0,5.2,1.9,5.2,4.2s-2.3,4.2-5.2,4.2
				C157.3,103.4,155,101.5,155,99.2z M156.4,99.2c0,1.9,1.7,3.4,3.8,3.4c2.1,0,3.8-1.5,3.8-3.4s-1.7-3.4-3.8-3.4
				C158.1,95.8,156.4,97.3,156.4,99.2z M136.1,95.3l3.6,0c0.4,0,3.9-0.1,3.9,2.4c0,2.7-3.6,2.6-3.6,2.6h-2.6v2.7h-1.3V95.3z
				 M137.5,96v3.6h2.2c0,0,2.6,0.3,2.6-1.7c0-2-2.2-1.9-2.7-1.9H137.5z M166.9,99.9c0,0,0.3-0.7,1.1-0.7h2c0,0-0.4,0.7-1,0.7H166.9z
				"/>
		</g>
	</g>
	<rect x="0" class="st7" width="235" height="119"/>
</g>
<g id="legal" class="st0">
</g>
</svg>
