<?xml version="1.0" encoding="utf-8"?>
<!-- Generator: Adobe Illustrator 19.2.1, SVG Export Plug-In . SVG Version: 6.00 Build 0)  -->
<svg version="1.1" id="Layer_1" xmlns="http://www.w3.org/2000/svg" xmlns:xlink="http://www.w3.org/1999/xlink" x="0px" y="0px"
	 viewBox="0 0 235 119" style="enable-background:new 0 0 235 119;" xml:space="preserve">
<style type="text/css">
	.st0{display:none;}
	.st1{display:inline;fill:#4B4A4B;}
	.st2{fill:#9B9A9A;}
</style>
<g id="Background" class="st0">
	<rect class="st1" width="235" height="119"/>
</g>
<g id="Logos">
	<g>
		<path id="XMLID_1502_" class="st2" d="M119.2,26.9c0,0.2,0.2,0.4,0.2,0.6c0,0.1,0.1,0.2,0,0.4c-0.1,0.1-0.3,0.3-0.3,0.4
			c0.1,0.1,0.1,0.2,0.1,0.3c0.3,0.1,0.4-0.3,0.6-0.5c0.1,0,0.2-0.2,0.4-0.2c0.4,0.1,0.5,0.5,0.8,0.8c0.1,0.1,0,0.1,0,0.2
			s-0.1,0.1-0.1,0.2c0.2,0.1,0.4,0.2,0.5,0.4c0.4,0.2,1-0.2,1.4,0.2c0.2,0,0.3,0.1,0.4,0.3c0.1,0.3-0.2,0.4-0.2,0.6s0.4,0.1,0.4,0.4
			s0.1,0.5,0.3,0.6c0.4,0.2,0.6-0.4,1-0.2c0.3,0,0.4,0.2,0.7,0.2c0.1,0.1,0.1,0.3,0.2,0.4c0.2,0.1,0.6,0.2,0.6,0.5
			c0,0.1-0.1,0.2-0.2,0.3c-0.2,0-0.2,0.4-0.5,0.4c-0.5,0-1.2-0.1-1.5,0.2c-0.2,0.1-0.7-0.1-0.7,0.3c0.3,0.2,0.7-0.1,1,0.2
			c0,0.1,0.1,0.2,0.2,0.3c0.3,0.1,0.5-0.4,0.8-0.3c0.6,0.1,1.2-0.1,1.8-0.3c0.2,0,0.3,0,0.5,0.1c0,0.4,0.4,0.5,0.6,0.7
			c0,0.1,0.2,0.2,0.1,0.4c-0.3,0.3-0.8,0.1-1.1,0.6c-0.2,0.1-0.4,0-0.6,0.2c0,0.1-0.1,0.2-0.1,0.3c-0.2,0.2-0.4,0.2-0.6,0.3
			c0,0.1-0.1,0.1,0,0.2c0.3,0,0.5,0.4,0.8,0.1c0.2,0,0.4,0.1,0.6,0.3c0,0.1,0,0.1,0.1,0.2c0.2,0.1,0.5,0.1,0.6,0.3
			c0.4-0.1,0.8,0,1.1,0.3c0.1,0.2,0.5,0.4,0.3,0.7c-0.2,0.1-0.4,0.1-0.6,0.2c-0.4,0-0.9,0.2-1.2-0.1c-0.1-0.1-0.1-0.2-0.2-0.3
			c-0.3-0.1-0.5,0.1-0.7,0.2c-0.1,0.3-0.5,0.4-0.4,0.8c-0.1,0.4-0.6,0.2-0.9,0.4c-0.1,0-0.2,0.1-0.3,0c-0.1-0.2-0.3-0.3-0.5-0.4
			c-0.2,0.1-0.4,0.3-0.7,0.3c-0.1,0.1-0.2,0.1-0.3,0.2c0,0.1,0.1,0.2,0.2,0.3c0.3,0,0.6-0.1,0.9-0.1c0.4,0.2,0.7-0.3,1.1-0.3
			c0.5,0.2,0.8-0.5,1.3-0.1c0.2,0.2,0.4,0.1,0.6,0.1c0.1-0.1,0.2-0.3,0.4-0.3c0.3,0,0.5,0.2,0.8,0.1c0.1,0,0.2,0.1,0.3,0.3
			c-0.1,0.3-0.4,0.4-0.7,0.7c-0.1,0.1-0.3,0.1-0.5,0c-0.1-0.1-0.2-0.1-0.3-0.1c-0.1,0.1-0.2,0.2-0.2,0.3c0,0.3,0.2,0.1,0.4,0.2
			c0.3,0.1,0.5-0.2,0.7-0.3c0.3,0.1,0.8-0.2,0.8,0.3c0,0.2,0.1,0.4,0.3,0.5c0,0.1,0.1,0.2,0,0.2c-0.1,0.3-0.5,0.2-0.4,0.5
			c-0.1,0,0,0.1-0.1,0.2c-0.1,0.1-0.1,0.2-0.2,0.3l0,0l0,0c0.3,0.1,0.6,0,0.8,0.3c0.1,0.1,0,0.3,0,0.4c-0.3,0.2-0.3,0.5-0.3,0.8
			c0,0.1-0.1,0.2-0.1,0.3c-0.4,0.1-0.7,0.5-1.1,0.3c-0.3-0.1-0.7,0.1-1,0c-0.2-0.1-0.5-0.4-0.8-0.2c-0.4,0.1-0.6,0.5-1.1,0.3
			c-0.2,0.2,0.3,0.3,0.2,0.5c0,0.2-0.1,0.5-0.3,0.5c-0.2,0.1-0.5,0-0.7,0.2c-0.4,0.1-1-0.3-1.2,0.2c-0.5,0.1-1.1-0.3-1.4,0.4
			c-0.3,0.3-0.6,0.6-0.6,1.1c-0.1,0.3-0.3,0.6-0.5,0.8c-0.1,0.5-0.1,1-0.2,1.4c-0.1,0.2,0,0.5,0.1,0.7c0.9,0.1,1.7,0.1,2.6,0.2
			c1-0.1,1.9-0.3,2.9-0.1c0.9,0.1,1.8,0.1,2.6,0.2c0.3,0,0.7-0.2,1,0c0.3,0.1,0.7,0.1,1.1,0.1c0.6,0.2,1.4,0.2,2.1,0.2
			c0.7,0.2,1.4,0.4,2.1,0.5c0.7,0.3,1.4,0.1,2,0.5c0.8,0.4,1.8,0.6,2.7,0.8c0.4,0,0.7,0.1,1,0.3c0.2,0.2,0.2,0.4,0.4,0.6
			c0,0.2-0.2,0.4-0.4,0.4c-0.4,0.1-0.8,0.2-1.3,0.3c-1.1,0.4-2.3,0.4-3.4,0.7c-0.1,0.1-0.2,0-0.3,0.1c-0.2,0-0.3,0.1-0.5,0.1
			c-0.8,0.1-1.5,0.4-2.3,0.4c-0.1,0.1,0,0.1,0,0.2c0.8,0.3,1.7,0.4,2.5,0.8c0.7,0.4,1.6,0.4,2.3,0.9c0.8,0.3,2,0.1,2.8,0.7
			c0.7,0.4,1.4,0.8,2.1,1.1c0.3,0.2,0.4,0.6,0.7,0.8c0.2,0.3-0.2,0.4-0.2,0.7c-0.5,0.5-1.2,0.3-1.9,0.5c-0.5,0.1-0.9,0.4-1.4,0.5
			c-0.4,0.3-0.9,0.4-1.4,0.6c-0.6,0.1-1.1-0.2-1.6,0c-0.7,0.7-1.8,0-2.5,0.5c-0.1,0-0.1,0.1-0.2,0.1c-0.6,0.2-1.2,0.7-1.9,0.6
			c-0.3,0.1-0.6,0.2-1,0.1c-0.2-0.1,0-0.3-0.2-0.4c-0.3-0.1-0.4,0.3-0.7,0.3c-0.5,0-0.8,0.2-1.2,0.4c-0.4,0.1-0.7,0-1,0.1
			c-0.9-0.1-1.6,0.2-2.4,0.2c-0.9,0.1-2,0-2.9,0.2c-0.2,0.1-0.5-0.1-0.7-0.2c0-0.1,0.1-0.2,0.2-0.2c0.3-0.1,0.6,0,0.8-0.1
			c0.8,0.1,1.4-0.3,2.1-0.2c0.7-0.1,1.4-0.4,2-0.7c0.6-0.1,1.3-0.2,2-0.3c0.4-0.1,0.8-0.1,1.2-0.3c0.9-0.2,1.7-0.5,2.6-0.7
			c0.9-0.2,1.7-0.7,2.6-0.9c0.7,0.1,1.3-0.2,2-0.3c0.5-0.2,1.1-0.4,1.7-0.5c0.7,0,1.4-0.4,2.1-0.3c0,0,0.1-0.1,0.1-0.2
			c-0.5-0.4-1.1-0.4-1.6-0.8c-0.8-0.7-2.1-0.5-3-1c-1.1-0.5-2.3-0.8-3.5-1.3c-0.6,0-1.1-0.5-1.8-0.4c-1,0.2-1.9-0.6-3.1-0.5
			c-0.5-0.1-1.1-0.1-1.2-0.7c-0.1,0,0-0.1,0-0.1c0.8-0.7,1.8-0.4,2.8-0.6c0.9-0.2,1.8-0.5,2.9-0.4c0.7,0,1.3-0.3,2-0.4
			c0.1-0.1,0.2,0,0.3,0c0.5-0.1,0.9,0,1.4-0.1c0.4-0.1,0.8-0.1,1.2-0.2c0.1,0,0.1-0.1,0.1-0.1c-0.1,0-0.2-0.1-0.3-0.1
			c-0.6-0.3-1.2-0.4-1.8-0.5c-0.7-0.4-1.6-0.3-2.5-0.6c-0.3-0.1-0.6,0-0.8-0.3c-0.5,0-1-0.1-1.5-0.1c-0.7-0.3-1.6,0.1-2.3-0.1
			c-0.6,0-1.3-0.1-1.9-0.1c-0.3-0.2-0.6,0.1-0.9,0.2c-0.6,0-1.3,0-1.9,0.1c-0.2,0-0.4-0.1-0.6-0.1l-3-0.1c0,0.3,0,0.6,0,0.8
			c0,0.1,0,0.4,0.2,0.4c0,0,0,0,0,0.1c0.2,0.2,0.5,0,0.7,0.3c0.1,0.1,0.2,0.1,0.2,0.2c-0.1,0.3-0.6,0.2-0.6,0.5
			c-0.1,0.1-0.2,0.2-0.4,0.2c-0.1,0-0.1,0.1-0.1,0.2c0.1,0,0.2,0.1,0.2,0.2c-0.1,0.1,0,0.2,0.1,0.3c-0.1,0.2-0.3,0.4-0.5,0.4
			c-0.2,0.5-0.9,0.2-1.2,0.5h-0.1c0.5,0.2,0.9-0.2,1.4,0c0.2,0,0.4,0.2,0.4,0.4c0,0.1-0.1,0.2-0.2,0.2c-0.7,0.1-1.2,0.4-2,0.3
			c-0.4,0-1,0.1-1.4-0.1c-0.4-0.1-0.9-0.2-1.2,0.1c-0.5,0.1-0.8,0-1.3,0c-0.2-0.1-0.2-0.4-0.2-0.6c0.4-0.2,0.9-0.4,1.5-0.3
			c0.2-0.2,0.5,0,0.8-0.1c0-0.4-0.5-0.3-0.6-0.6c0-0.2,0.1-0.2,0.3-0.3c0.4-0.2,0.8,0.1,1.1,0c0-0.1,0-0.1-0.1-0.2
			c-0.2,0-0.4,0-0.5-0.2c0.1-0.1,0-0.3,0.1-0.4c0.2-0.2,0.6,0,0.7-0.2c-0.2,0-0.4-0.1-0.6-0.3c0-0.3,0.4-0.2,0.3-0.5
			c0.1-0.2,0.5-0.1,0.6-0.4c0-0.3,0.2-0.5,0.2-0.8c0,0,0,0,0-0.1c-0.7,0-1.4-0.3-2.1,0c-0.4,0-0.9-0.1-1.3-0.1
			c-0.5,0.1-0.9-0.2-1.4,0c-0.4,0.2-0.8-0.1-1.2-0.2c-1-0.1-2.1-0.1-3-0.2c-0.3,0-0.6,0.1-0.9,0.1c-0.8-0.5-1.6,0.1-2.4-0.2
			c-0.4-0.2-0.9-0.2-1.4-0.2c-0.1,0-0.2,0-0.2-0.2c-0.1-0.2,0.1-0.2,0.2-0.2c0.8-0.1,1.6,0.1,2.4,0.1c0.4,0.1,0.7-0.3,1.2-0.2
			c0.7,0,1.3-0.2,2-0.1c0.5,0.2,1.1,0,1.6,0.1c1.1-0.2,2.2,0.2,3.3,0.3c0.4-0.1,0.8,0,1.2-0.1c0.7,0,1.4,0.1,2.1,0.1
			c0.1-0.5,0.2-1,0.2-1.5l0,0c0.2-0.7-0.2-1.3-0.5-1.8c-0.3-0.3-0.7,0-1-0.4c-0.3-0.2-0.7,0.2-1-0.1c-0.3,0-0.6-0.2-0.9-0.1
			c-0.2,0-0.2,0.3-0.4,0.2c-0.2,0.1-0.3,0-0.5,0c-0.4,0.1-0.6-0.3-1,0c-0.1,0-0.1-0.1-0.2-0.1c0-0.1,0.1-0.2,0.1-0.3
			c0.1-0.2,0.4-0.1,0.3-0.4c-0.1-0.1-0.3-0.2-0.3-0.3s0-0.2,0.1-0.2c0.2,0,0.3-0.3,0.5-0.3c0.1-0.1-0.2-0.2-0.2-0.3
			c-0.3-0.1-0.6-0.3-0.9-0.2c0,0-0.1,0.1,0,0.1c0.2,0.2,0.2,0.4,0.4,0.6c0,0.1,0,0.3-0.2,0.4c-0.1,0.1-0.2,0.1-0.3,0.2
			c-0.3-0.1-0.5,0.2-0.7,0.4c-0.4-0.1-0.4,0.4-0.7,0.4c-0.2,0-0.5,0.1-0.6-0.2v-0.1c-0.4-0.1-0.9,0.4-1.2-0.1c0-0.2,0.2-0.4,0-0.5
			c-0.1-0.2,0-0.3,0.1-0.4c0-0.1,0.1-0.3,0.3-0.3c0.1,0,0.3,0.2,0.4,0c0-0.3,0.3-0.5,0.3-0.8c0.3-0.3,0.7,0.1,0.9-0.2
			c0.3,0,0.5,0.4,0.7,0.1c0.1-0.1,0.4,0,0.5-0.1c-0.2-0.1-0.5-0.2-0.5-0.4c-0.1-0.1-0.3,0-0.5,0c-0.3,0-0.6,0.1-0.9,0
			c-0.1-0.1,0-0.2,0-0.3c0.2-0.1,0.2-0.4,0.5-0.5c0.2-0.2,0.6-0.1,0.8-0.4c0.1,0,0.2,0,0.3-0.1c0-0.3,0.4-0.3,0.5-0.5
			c0-0.1,0-0.1,0-0.1c-0.4-0.1-0.7,0.2-1.1,0c-0.1,0,0,0.2-0.1,0.2c-0.4,0.2-0.4,0.8-1,0.9c-0.2,0-0.4-0.1-0.5,0
			c-0.1,0.4-0.6,0.1-0.8,0.2c-0.3,0.1-0.4-0.5-0.7-0.2c0,0.2-0.2,0.3-0.2,0.5c-0.2,0.1-0.5-0.1-0.7,0.2c-0.1,0-0.2,0.1-0.3,0.1
			c-0.3-0.1-0.2-0.4-0.3-0.6c0.2-0.2,0.5-0.3,0.8-0.5c0.1-0.1,0.3,0,0.4,0l0.1-0.3c0-0.2-0.3-0.4-0.1-0.5c0.1-0.5,0.7-0.6,1.1-0.6
			c0.1,0,0.2,0.1,0.3,0.1c0.3,0,0.5-0.1,0.8,0.1c0.1,0.2,0.3,0.4,0.2,0.6c0,0.1,0.1,0.1,0.2,0.1c0.1-0.1,0.2-0.2,0.2-0.4
			c-0.1-0.3-0.4-0.6-0.1-0.8c0-0.1,0-0.1,0-0.2c-0.1-0.1-0.2-0.1-0.3,0c-0.1,0.2-0.3,0.1-0.5,0.1c0-0.4-0.5-0.1-0.6-0.5
			c-0.1,0-0.2,0.1-0.3,0.1c-0.1,0-0.4,0-0.5-0.2c0-0.2,0-0.3,0.2-0.4c0.1-0.1,0.3-0.1,0.2-0.2c-0.1-0.1-0.3,0.1-0.5,0
			c-0.3,0.3-0.7,0.4-1.1,0.4c-0.1,0-0.2-0.1-0.2-0.2c-0.1-0.1,0-0.2,0-0.3c0-0.3-0.1-0.5,0.1-0.7c0.1-0.1,0.2-0.1,0.3-0.1
			c0.2-0.1,0.3-0.3,0.6-0.4c0.4,0.1,0.7,0.1,1-0.1c0.2-0.4,0.7-0.2,1-0.3c0.4,0,0.6,0.3,0.9,0.5c0.1,0.1,0.2-0.1,0.2-0.1
			c0.4-0.1,0.8,0,1.2,0.2c0.1,0,0.3,0.1,0.3,0c0-0.2-0.3-0.3-0.5-0.4c-0.3,0.1-0.3-0.3-0.6-0.2c-0.3,0-0.5,0.2-0.8,0
			c-0.1-0.2-0.4-0.3-0.4-0.6v-0.1c-0.1,0-0.3,0.1-0.4,0c-0.2-0.1-0.1-0.3-0.3-0.3c-0.2,0-0.5,0.2-0.6-0.1c-0.1-0.1-0.2-0.1-0.3-0.2
			c0.2-0.3-0.3-0.5,0-0.8c0.2-0.3,0.5-0.6,0.8-0.6c0.2-0.4,0.7-0.4,1.1-0.4c0.2,0.1,0,0.5,0.3,0.5c0.1,0.1,0.3,0.2,0.4,0.4
			c-0.1,0.1,0,0.3,0,0.4c0.2,0,0.3,0,0.5,0.1c0.1-0.2,0.1-0.4,0.3-0.6c0.1-0.2-0.2-0.2-0.3-0.3c-0.3,0-0.6,0.3-0.7-0.1
			c0-0.1-0.1-0.2-0.2-0.3c0-0.1,0.1-0.2,0.1-0.4c-0.2-0.1-0.5,0.1-0.7-0.2l-0.1-0.1c0-0.1,0-0.1,0-0.2c-0.1-0.2-0.5-0.3-0.3-0.6
			c0.1-0.3,0.4-0.2,0.7-0.3h0.1c0-0.2,0.3-0.3,0.5-0.4c0.3-0.2,0.5,0.3,0.8,0.2c0.1-0.1,0.2-0.2,0.2-0.4c0-0.1-0.2,0-0.3-0.1
			c-0.1,0.1-0.1,0.1-0.2,0s-0.1-0.2-0.2-0.4c0-0.2,0.1-0.3,0.2-0.5c0.2-0.1,0.5-0.1,0.6-0.4c0-0.2,0.1-0.3,0.1-0.5
			c0.4-0.3,0.5-1,1.2-0.9c0.1,0,0.4,0.1,0.5-0.1c0-0.4,0.5-0.2,0.7-0.3c0.1,0.1,0.3,0.2,0.5,0.1c0.1,0,0.2-0.1,0.4-0.2h0.4
			c0.1-0.2-0.2-0.4-0.1-0.6c0.1-0.1,0.2-0.3,0.4-0.3c0-0.2-0.1-0.4,0-0.6c-0.1-0.2,0.3-0.3,0.4-0.4c0.2,0,0.3-0.1,0.4-0.2
			c0-0.1,0.1-0.2,0.1-0.2c0.2-0.1,0.4-0.3,0.7-0.2C119,26.7,119.1,26.7,119.2,26.9 M115.9,28c-0.2,0-0.2,0.2-0.3,0.2
			c-0.1,0.1-0.4,0.1-0.3,0.4s0.4,0.1,0.6,0.3c0.3,0.1,0.6-0.2,0.8-0.3c0.2-0.1-0.1-0.3-0.1-0.4C116.4,28.1,116.2,28,115.9,28
			 M109.8,43.5c-0.2-0.1-0.2,0.1-0.4,0.2c-0.1,0.1-0.3,0.1-0.4,0.2c-0.1,0.2-0.3,0.3-0.3,0.5c0.3,0,0.3,0.4,0.6,0.3
			c0.3-0.1,0.5-0.2,0.8-0.3c0.1,0,0.2-0.2,0.3-0.1c0.2,0,0.1-0.3,0.2-0.4c-0.1-0.2-0.3-0.2-0.5-0.2C110,43.6,109.9,43.5,109.8,43.5
			 M101.4,50.6c-0.8-0.3-1.7-0.1-2.5,0c-1,0.2-2-0.2-3,0c-0.6-0.1-1.3,0-1.9,0h-0.2c-0.1,0.1-0.3,0.1-0.4,0.2
			c0.4,0.3,0.9,0.3,1.3,0.4c1,0.2,2.1-0.2,3.1-0.1c0.8,0.2,1.6-0.2,2.3,0.1c0.7,0.2,1.2-0.2,1.8-0.1c0.5,0.1,1,0.1,1.5,0.2
			c0.2-0.2,0.5,0,0.7-0.3c0,0,0,0,0-0.1c-0.2-0.2-0.6-0.1-0.8-0.2c-0.4,0.2-0.9-0.1-1.4-0.1L101.4,50.6z M117.4,57
			c-0.8,0.2-1.7,0.2-2.5,0.2c-0.8,0.1-1.5-0.1-2.3-0.1c-0.4,0.2-0.9,0.2-1.4,0.2c-0.1,0-0.2,0.2-0.1,0.3c0.1,0,0.2,0.1,0.3,0.2
			c0.4-0.1,0.9,0,1.3,0.1c0.4,0.2,0.8,0.1,1.2,0.1c0.5,0.2,1.1,0.1,1.6,0c0.4,0.1,0.9,0,1.3,0.1c0.3,0,0.6-0.1,0.8-0.1
			c0.9-0.2,1.9,0.3,2.7-0.1c0.2-0.2,0.5,0,0.7-0.1c0.2,0,0.4,0,0.6,0c0.6,0.2,1.3,0.3,2,0.3c0.2-0.1,0.5-0.2,0.7-0.2
			c0.1-0.1,0.2-0.1,0.2-0.2c-0.1-0.1-0.1-0.2-0.2-0.2c-0.4,0-0.7-0.2-1.1-0.2c-0.8,0.1-1.4-0.1-2.2,0c-0.8-0.1-1.7,0-2.5,0
			C118.1,57.1,117.8,56.9,117.4,57 M120.9,58.2c-0.3,0.1-0.6,0.1-0.9,0.2c-0.4,0.1-0.7-0.3-1.1-0.1c-0.3,0.1-0.5-0.1-0.7-0.1
			c-0.9,0-1.7-0.2-2.6,0c-0.3,0-0.6,0.2-0.9,0.3c-0.2-0.3-0.7-0.3-1.1-0.3c-0.5,0-0.9,0.5-1.5,0.3c-0.5,0-1.2-0.2-1.6,0
			c-0.3,0.4-0.7,0.3-1,0.6c0,0.1,0,0.1,0.1,0.2c0.3,0.1,0.6,0.1,0.8,0c0.6-0.1,1.3,0,2,0c0.2,0,0.5,0.2,0.8,0.2
			c0.6-0.1,1.3-0.4,1.8,0v0.1c-0.1,0.3-0.6,0.1-0.8,0.1c-0.6,0.2-1.3-0.1-1.9,0.1c-0.6,0.1-1.2-0.1-1.7,0c-0.4,0.1-1,0.1-1.3-0.1
			c-0.6-0.1-1.1-0.3-1.6,0s-1.2,0.1-1.8,0.2c-0.1,0.1-0.3,0.1-0.4,0.3c0,0.1,0.1,0.1,0.1,0.2c0.4,0.2,0.9,0.1,1.3,0.4
			c0.9,0.1,1.8,0.2,2.7,0.2c0.2,0.1,0.4,0,0.5-0.2c0.2-0.3,0.5-0.3,0.8-0.3c0.3-0.1,0.6-0.2,0.9-0.1c0.5,0.4,1.3,0.3,1.9,0.4
			c0.4-0.1,0.5,0.3,0.8,0.4c0.4,0,0.9-0.1,1.3,0c0,0,0.1,0.1,0.1,0.2c-0.1,0-0.1,0.1-0.2,0.1c-0.2,0.1-0.4,0.1-0.6,0.1
			c-0.1,0-0.3,0-0.5,0.1c0-0.1-0.1,0.1-0.2,0c-0.1,0.1-0.2-0.1-0.3,0c-0.1-0.1-0.2,0-0.2-0.1c-0.3-0.1-0.7-0.3-1.1-0.2
			c-0.2,0.1-0.2,0.3-0.3,0.4c-0.4,0.2-0.9,0.2-1.4,0.2c-0.2,0-0.2,0.2-0.2,0.3c0.1,0.2,0.2,0.3,0.4,0.4c0.2,0.2,0.5,0.1,0.8,0.3
			l-0.2,0.1c-0.2,0.5-0.8,0.2-1.1,0.4c-0.1,0.1,0,0.2,0,0.3c0.5,0.3,1,0.1,1.5,0.2c0.2,0.2,0.6,0.2,0.8,0.2c0.5-0.1,1.1,0.1,1.4-0.2
			c0.5-0.1,1-0.1,1.5-0.2l0,0c0.1,0,0.2-0.1,0.3-0.1c0.2-0.1,0-0.3,0-0.4c-0.2-0.1-0.5-0.1-0.8-0.1c-0.3-0.2-0.8-0.1-1.1-0.2
			c0.2-0.2,0.6-0.1,0.8-0.1c0.1,0,0.2-0.2,0.4-0.2c0.4,0.1,0.8-0.1,1.2,0c0.1,0.2-0.2,0.2-0.3,0.3c0,0.2,0.1,0.2,0.2,0.3
			c0,0.1,0,0.1,0,0.2c0.3,0.5,1,0.4,1.5,0.3c0.6,0.1,1-0.2,1.6-0.2l0.1-0.1c0.1-0.1,0-0.2-0.1-0.3c-0.3-0.2-0.6-0.1-1-0.1
			c-0.2,0-0.3-0.1-0.5-0.1c-0.2-0.2-0.7,0.1-0.7-0.2c0.3-0.1,0.5,0,0.8-0.1s0.8,0,1.1-0.2c0.2-0.3,0.7-0.2,0.9-0.6
			c0-0.1-0.1-0.2-0.2-0.2c-0.4,0-0.7,0-1.1-0.2c-0.3,0-0.6,0-1-0.1c0.3-0.1,0.4-0.4,0.6-0.5c0.4,0,0.8,0.2,1.2,0.1
			c0.5-0.2,0.9,0.4,1.4,0.3c0.5-0.1,1.1,0.1,1.6-0.1c0.3-0.2,0.7-0.2,1-0.1c0.6,0.1,1-0.3,1.6-0.2c0.4-0.1,0.7,0,1.1-0.1
			c0-0.1,0.1-0.1,0-0.2c-0.6-0.3-1.4-0.2-2.1-0.2c-0.2-0.1-0.5-0.1-0.8-0.1c-0.6,0.1-0.9-0.5-1.5-0.3c-0.5-0.1-1,0.1-1.6,0
			c-0.5,0.1-1-0.2-1.6-0.2c-0.6,0.3-1.4,0-2,0.2c-0.4,0.1-0.2,0.5-0.3,0.8c-0.1,0.2-0.3,0.1-0.5,0.1c-0.3-0.1,0-0.3-0.1-0.5
			c0-0.2-0.2-0.3-0.4-0.4c-0.1-0.1,0-0.2,0.1-0.2c0.3-0.2,0.7-0.1,1-0.2c0.3,0,0.4-0.2,0.7-0.2c0.3,0.2,0.6,0,0.9,0
			c0.8,0.1,1.6,0.4,2.5,0.2c0.6,0.1,1.2,0,1.8-0.2c0.4-0.1,0.9,0,1.3-0.2c0.1-0.1-0.1-0.2-0.1-0.3c-0.5-0.2-1.1-0.1-1.6-0.2
			C121.9,58,121.4,58.3,120.9,58.2 M110.6,60.7c-0.2,0-0.3,0.2-0.4,0.3c0,0.1-0.1,0.1,0,0.2c0,0.1,0.1,0.3,0.3,0.3
			c0.5,0.3,0.9-0.1,1.4-0.1c0.1-0.1,0.2-0.2,0.2-0.3C111.6,60.4,111,60.8,110.6,60.7 M116.5,63.5c-0.2,0-0.3,0.2-0.5,0.4
			c-0.1,0-0.1,0.1-0.2,0.1c-0.2,0.3,0.3,0.4,0.4,0.6c0.3,0.2,0.5-0.1,0.8-0.1c0.5-0.1,0.9,0,1.4,0c0.1,0,0.3-0.2,0.2-0.3
			c-0.1-0.2-0.3-0.3-0.4-0.3C117.6,63.9,117.2,63.5,116.5,63.5 M120.3,30.2c-0.2,0-0.6,0.1-0.7-0.2c-0.1-0.1-0.2,0.1-0.3,0.1
			c0,0.4-0.4,0.3-0.6,0.4c-0.1,0.2,0.1,0.2,0.1,0.4c0.4,0.2-0.1,0.4,0,0.6c0.2,0.2,0.4-0.1,0.7-0.1c0.2-0.2-0.2-0.2-0.2-0.3
			c-0.1-0.2,0.1-0.3,0.2-0.4c0.2-0.1,0.4,0,0.5,0s0.1,0.2,0.1,0.3c0.3-0.2,0.6,0.1,0.9-0.1c0.1,0,0.1-0.1,0.1-0.2
			c0.2-0.3-0.4-0.4-0.3-0.7C120.7,29.5,120.6,30.1,120.3,30.2 M116.6,30.1c-0.3-0.1-0.4,0.2-0.5,0.4c-0.2,0.2-0.6,0-0.5,0.4
			c0.4,0.4,0.7-0.4,1.1-0.1c0.1,0,0.1-0.1,0.2-0.2C116.7,30.4,116.7,30.3,116.6,30.1 M117.9,30.6c-0.1,0-0.3,0.1-0.3,0.2
			c-0.1,0.1-0.2,0.1-0.2,0.2c0.2,0.1,0.3,0,0.4-0.1s0.3,0,0.4-0.2C118.1,30.6,118,30.6,117.9,30.6 M114.9,32.3
			c-0.2,0.2-0.4,0.1-0.5,0.1c0,0.1,0.2,0.2,0.2,0.3c-0.1,0.3,0.3,0.5,0.3,0.8c0,0.1-0.1,0.1-0.1,0.2v0.1c0.4,0.1,0.7-0.4,1.1-0.2
			c0.1,0,0.2,0.2,0.3,0.1c0.1-0.1,0-0.2,0-0.3c-0.2,0-0.4,0-0.6-0.1c0-0.4-0.5,0.1-0.6-0.3c0.1-0.2,0-0.4,0.2-0.6
			C115.2,32.3,115,32.3,114.9,32.3 M122.2,32.6c-0.1,0-0.1,0.1-0.1,0.2c0.1,0.1-0.1,0.2-0.1,0.3c0.1,0.1,0.2,0.1,0.4,0.1l0.2-0.2
			c0.1-0.1,0.2-0.2,0.4-0.2c0.1-0.1,0-0.2,0-0.3C122.7,32.3,122.5,32.7,122.2,32.6 M113.3,33c-0.1,0-0.1,0-0.2,0.1
			c-0.1,0.2,0.1,0.3,0.1,0.4c0.1,0.1,0,0.2-0.1,0.4c0.2,0.1,0.2-0.2,0.4-0.2c0-0.1,0.1-0.1,0-0.2C113.4,33.4,113.4,33.2,113.3,33
			 M115.9,34.5c-0.2,0-0.1,0.3-0.2,0.4c0.1,0.1,0.2-0.2,0.4-0.1c0.1,0,0.1-0.1,0.1-0.2C116.1,34.5,116,34.5,115.9,34.5 M124.9,35
			c-0.1,0.2-0.3,0.2-0.5,0.3s-0.3-0.1-0.6-0.1c-0.2,0.1-0.2,0.3-0.4,0.4c0,0,0,0.1,0.1,0.1c0.4-0.1,0.8-0.1,1.2,0
			c0.1-0.2,0.4-0.3,0.4-0.6C125.1,35,125,34.9,124.9,35 M121.6,35.6c-0.4-0.1-0.2,0.3-0.4,0.5c-0.1,0.1-0.3,0-0.4,0
			c-0.1,0.2-0.4,0-0.6,0.1c0,0.1-0.1,0.2,0,0.3c0.2,0.2,0.6,0.2,0.9,0.1c0.2-0.4,0.9-0.3,0.8-0.8C121.8,35.7,121.8,35.5,121.6,35.6
			 M114.6,36c-0.3-0.1-0.5,0.4-0.8,0.3c0,0.2,0,0.3-0.2,0.4c0.1,0.2,0.2,0.2,0.3,0.4c0.2-0.1,0.4,0,0.6,0c0.1-0.1,0-0.3,0-0.5
			c0.1-0.2,0.3-0.2,0.4-0.3C115,35.9,114.7,36.1,114.6,36 M119.9,37.3c-0.1,0.3-0.1,0.6-0.4,0.7c-0.4-0.1-0.2,0.4-0.4,0.5
			c-0.4,0.4-0.8-0.1-1.2-0.1v0.2c0,0.1,0.1,0.2,0.2,0.1c0.2-0.2,0.4,0,0.6,0.1c0.2,0.2,0.1,0.4,0,0.6c0,0.2,0.2,0.1,0.3,0.3
			c0,0.1-0.1,0.2,0,0.3c0.1,0,0.3,0,0.3-0.1c0.1-0.2,0.2-0.4,0.1-0.5c-0.1-0.5,0.6-0.6,0.7-1.1c0.1-0.4,0-0.7,0.2-1
			C120.2,37.2,120,37.2,119.9,37.3 M122.1,38.1c-0.3,0.1-0.4,0.4-0.5,0.6c0,0.3-0.3,0.5-0.5,0.6s-0.2,0.4-0.4,0.5
			c0.1,0.1-0.1,0.3,0.1,0.3c0.2-0.1,0.3-0.2,0.5-0.4c0.6-0.1,1-0.6,1.6-0.9c0.1-0.1,0.3-0.1,0.4-0.2c-0.1-0.1-0.1-0.1-0.2-0.1
			c-0.1-0.1-0.2-0.2-0.2-0.4C122.6,38.1,122.3,38.2,122.1,38.1 M117.2,39.2c-0.3-0.1-0.2,0.2-0.2,0.4c0.2,0,0.3,0,0.4,0.1
			c0-0.1,0-0.2,0-0.3C117.5,39.2,117.3,39.2,117.2,39.2 M114.9,39.4c-0.2,0.1-0.6-0.1-0.8,0.2c0.1,0.1,0.2,0.3,0.2,0.4
			c-0.1,0.1-0.2,0.1-0.2,0.2l0.1,0.2c0.1,0.7-0.7,0.3-1,0.6c-0.1,0.1,0,0.1,0.1,0.1c0.2,0.3,0.5,0,0.8,0c0.3,0.2,0.5-0.2,0.7-0.1
			c0.1,0,0.2-0.1,0.2-0.2c-0.1-0.2-0.1-0.6,0-0.9c0.1-0.2,0.4-0.2,0.3-0.4C115.1,39.4,115,39.4,114.9,39.4 M125.8,40.3
			c-0.4,0-0.7,0.3-1.1,0.5v0.1c0,0.1,0.1,0.1,0.2,0.1c0.3-0.1,0.6-0.2,0.8-0.1c0-0.1,0.2-0.1,0.2-0.1c0.1,0,0.2-0.2,0.2-0.3H126
			C126,40.2,125.8,40.3,125.8,40.3 M116.9,40.5c-0.2,0-0.1,0.3-0.3,0.3c-0.1,0-0.2,0.1-0.2,0c-0.1,0-0.3,0-0.3,0.1
			c0.1,0.3-0.2,0.5-0.4,0.6v0.1c0.3,0.1,0.6,0,0.9,0s0.4,0.4,0.7,0.3c0.1-0.1-0.1-0.3,0.1-0.4c0-0.1,0-0.2,0-0.2
			c0-0.1,0.2-0.2,0.3-0.2v-0.3c-0.1,0-0.2,0-0.2-0.1C117.1,40.7,117.1,40.6,116.9,40.5 M121.5,40.9c-0.3-0.1-0.6,0.2-0.8,0.4
			c0,0.1,0,0.2,0.1,0.3c0.2,0,0.2,0.2,0.4,0.3c0.1,0,0.1,0,0.2,0c0.2-0.3,0.5-0.3,0.7-0.5c0-0.1,0-0.1,0-0.2
			C121.8,41.1,121.6,41,121.5,40.9 M114.3,41.9c-0.2,0.1-0.5,0.2-0.6,0.4c0.1,0,0,0.1,0.1,0.1c0.1-0.1,0.2,0,0.3,0
			c0.2,0,0.3-0.2,0.4-0.3c0-0.1,0.1,0,0.1-0.1C114.6,41.8,114.4,42,114.3,41.9 M115.4,42.4c-0.1,0-0.1,0-0.2,0s-0.1,0.1-0.1,0.2
			c0,0.1,0.1,0.2,0.2,0.2c0.1-0.1,0.3,0,0.3-0.2C115.6,42.6,115.5,42.6,115.4,42.4 M114.3,43.5c-0.1,0-0.2,0.1-0.3,0.2
			c0.1,0.1,0.2,0.3,0.4,0.4c0.4-0.1,0.6,0.4,1,0.2c0-0.1,0.1-0.3-0.1-0.4c-0.1-0.3-0.5-0.1-0.7-0.1
			C114.5,43.6,114.4,43.5,114.3,43.5 M120.9,45.3c-0.2,0.1-0.4,0.2-0.5,0.3c-0.3,0.2-0.7,0.1-1,0c-0.1,0.2,0.2,0.3,0.2,0.5
			c0.2,0.3,0.3,0.7,0.5,1c0,0.1,0.1,0.2,0.1,0.2c0.4-0.4,0.7-0.8,1-1.1c0.1-0.2,0.4-0.3,0.2-0.5C121.3,45.7,121.2,45.3,120.9,45.3"
			/>
		<g id="XMLID_1482_">
			<g id="XMLID_1483_">
				<path id="XMLID_1497_" class="st2" d="M58,88.5c0,2.2,0.3,2.6,2.6,2.6v0.7h-7.9v-0.7c2.2,0.1,2.4-0.5,2.4-2.2V78.5
					c0-1.7-0.3-2.1-2.4-2.1v-0.7c0.6,0,1.9-0.1,3.7-0.2c1.4-0.1,2.6-0.1,3.2-0.1c5.2,0,7,2.3,7,4.6c0,1.9-1.1,3.3-3.3,4.2
					c0.4,0.3,1.5,1.4,1.9,1.8l1.7,1.7c2.3,2.3,4.1,3.3,6.2,3.6V92c-5.1,0.1-6.4-0.8-8.7-3.1L63,87.5c-1.3-1.3-1.7-1.7-2.8-2.5
					c-0.8,0.1-1.6,0.1-2.3,0v3.5H58z M58,84.4c0.2,0,0.7,0.1,0.8,0.1c3.5-0.2,4.6-1.5,4.6-4.1s-1.4-4.2-4.2-4.2
					c-0.4,0-1,0.1-1.2,0.1C58,76.3,58,84.4,58,84.4z"/>
				<path id="XMLID_1494_" class="st2" d="M82.7,75.3c5.6,0,9.5,3.3,9.5,8.2c0,4.7-3.7,8.8-9.6,8.8c-5.4,0-9.4-3.4-9.4-8
					C73.2,79,77.2,75.3,82.7,75.3 M83,91.4c3.6,0,6-2.9,6-7.3c0-4.7-2.7-8-6.5-8c-3.7,0-6.1,2.8-6.1,7.4
					C76.4,88.7,79.7,91.4,83,91.4"/>
				<path id="XMLID_1491_" class="st2" d="M104.6,75.3c5.6,0,9.5,3.3,9.5,8.2c0,4.7-3.7,8.8-9.6,8.8c-5.4,0-9.4-3.4-9.4-8
					C95.1,79,99.1,75.3,104.6,75.3 M104.9,91.4c3.6,0,6-2.9,6-7.3c0-4.7-2.7-8-6.5-8c-3.7,0-6.1,2.8-6.1,7.4
					C98.2,88.7,101.6,91.4,104.9,91.4"/>
				<path id="XMLID_1490_" class="st2" d="M127.1,91.8v-0.7c1,0,1.5-0.2,1.5-0.7c0-0.4-1-1.6-1.5-2.1l-2.2-2.3
					c-1.1-1.2-1.7-1.6-2.8-1.6v4.3c0,1.8,0.2,2.5,2.4,2.4v0.7h-7.8v-0.7c2.3,0,2.5-0.4,2.5-2.2V78.4c0-1.8-0.6-2.1-2.5-2v-0.7h7.8
					v0.7c-2.2,0-2.4,0.6-2.4,2.2v5c1.4-0.4,2.4-1.2,3.3-2.1c1.7-1.7,2.9-3.6,2.9-4.3c0-0.6-0.5-0.8-1.8-0.8v-0.7h7.4v0.7
					c-2.7,0-3.3,0.5-4.3,1.9l-2.1,2.9c-0.4,0.5-1.8,1.9-2.3,2.2l0.1,0.1c0.7,0,1.9,1.1,3.1,2.5l2.7,3.1c1.8,2,2,2.2,4.2,2.2V92h-8.2
					V91.8z"/>
				<path id="XMLID_1489_" class="st2" d="M138.3,87.6h0.8c0.7,2.4,2.3,3.7,4.5,3.7c1.9,0,3.2-1.1,3.2-2.7c0-3.6-8.2-5.1-8.2-9.6
					c0-2.2,2-3.8,4.7-3.8c0.9,0,1.5,0.1,2,0.2s0.9,0.2,1.4,0.2c0.3,0,0.5-0.1,0.7-0.3h0.6l0.6,4h-0.8c-0.8-2-2.4-3.3-4.2-3.3
					c-1.7,0-2.5,1-2.5,2.1c0,3.5,8.2,4.5,8.2,9.5c0,2.7-2.3,4.5-5.6,4.5c-1.9,0-2.7-0.5-3.5-0.5c-0.3,0-0.5,0.1-0.7,0.3H139
					L138.3,87.6z"/>
				<path id="XMLID_1488_" class="st2" d="M153.7,75.7h7.2v0.7c-1.7,0-2.2,0.4-2.2,2.2v10.1c0,1.9,0.4,2.5,2.2,2.4v0.7h-7.2v-0.7
					c2,0,2.1-0.8,2.1-2.2V78.3c0-1.4-0.3-2-2.1-1.9V75.7z"/>
				<path id="XMLID_1485_" class="st2" d="M168.1,78.6c0-1.9-0.5-2.3-2.5-2.3v-0.7c0.8,0,3-0.1,4.1-0.2c1.4,0,2.7,0,3.7,0
					c3.9,0,6.7,0.7,8.3,2.3c1.6,1.6,2.2,3.6,2.2,5.5c0,3.8-2.7,8.5-10.3,8.5h-8.1V91c2.2,0,2.5-0.4,2.5-2.1V78.6H168.1z M170.9,89.2
					c0,1.6,0.2,1.9,1.9,1.9c3.1,0,4.7-0.7,5.9-1.9c1.6-1.6,2-3.8,2-5.6c0-1.9-0.4-4-2-5.6c-1.3-1.3-2.9-1.9-6-1.9
					c-0.4,0-1.2,0-1.9,0v13.1H170.9z"/>
				<path id="XMLID_1484_" class="st2" d="M186.4,91.8v-0.7c2.1,0,2.6-0.3,2.6-1.8V78.1c0-1.7-0.9-1.8-2.6-1.8v-0.7h13.3l0.2,3.9
					h-0.7l-0.1-0.5c-0.5-2.1-0.9-2.2-2.6-2.2h-4.6v6h4c1.5,0,1.8-0.2,1.9-2h0.7V86h-0.7c-0.2-1.8-0.5-2.1-1.9-2.1h-4v4.7
					c0,1.6,0.2,1.9,1.5,1.9h2.9c2.6,0,3.1-0.4,3.8-2.9h0.7l-0.4,4.1h-14V91.8z"/>
			</g>
		</g>
		<path id="XMLID_1188_" class="st2" d="M37.2,79c0-1.7-0.2-2.6-2-2.6h-0.9v-0.7c0.8,0,2.4-0.1,3.6-0.1c1-0.1,2.5-0.1,3.5-0.1
			c4.4,0,7.4,0.9,7.4,3.8c0,1.7-1.2,2.9-3.1,3.3l0,0c2.6,0.7,4,2.3,4,4.4c0,2.6-2.1,4.8-6.5,4.8h-8.8v-0.7c2.3,0,2.9-0.4,2.9-1.8V79
			H37.2z M40.1,82.4H42c2.5,0,3.7-0.9,3.7-2.8s-1.1-3.4-4.1-3.4c-0.5,0-1,0-1.5,0.1C40.1,76.3,40.1,82.4,40.1,82.4z M40.1,88
			c0,2,0.5,2.9,2.7,2.9c2.3,0,3.8-1.5,3.8-3.8c0-2.6-1.8-3.9-5-3.9h-1.4L40.1,88L40.1,88z"/>
	</g>
</g>
<g id="legal" class="st0">
</g>
</svg>
