<?xml version="1.0" encoding="utf-8"?>
<!-- Generator: Adobe Illustrator 19.2.1, SVG Export Plug-In . SVG Version: 6.00 Build 0)  -->
<svg version="1.1" xmlns="http://www.w3.org/2000/svg" xmlns:xlink="http://www.w3.org/1999/xlink" x="0px" y="0px"
	 viewBox="0 0 235 119" style="enable-background:new 0 0 235 119;" xml:space="preserve">
<style type="text/css">
	.st0{display:none;}
	.st1{display:inline;fill:#4B4A4B;}
	.st2{fill:#9B9A9A;}
	.st3{opacity:0.35;fill:#9B9A9A;}
	.st4{opacity:0.25;fill:#9B9A9A;}
	.st5{fill-rule:evenodd;clip-rule:evenodd;fill:#9B9A9A;}
	.st6{fill:none;stroke:#9B9A9A;stroke-width:0.4311;stroke-miterlimit:10;}
	.st7{fill:none;}
	.st8{display:inline;fill:#9B9A9A;}
	.st9{display:inline;fill-rule:evenodd;clip-rule:evenodd;fill:#9B9A9A;}
	.st10{display:inline;}
</style>
<g id="Background" class="st0">
	<rect class="st1" width="235" height="119"/>
</g>
<g id="Logos">
	<g>
		<path class="st5" d="M110.4,59.4c-0.3,1.2-0.8,2.4-1.5,3.5v0.2h-0.2l-0.2-1.8c0-1.5,0.4-3.4,0.8-5.1c0.5-1.9,1.1-2.6,1.8-2.6
			c0.4,0.2,0.8,0.5,0.7,1.4C111.5,55.5,111.2,56.9,110.4,59.4L110.4,59.4z M96.4,57.5c-0.4,1.2-0.7,2.1-0.9,2.6
			c-0.7,1.2-1.3,2.1-1.8,2.9h-0.1c-0.2-1.4,0.1-3.1,0.8-4.8l0.8-2.4c0.5-0.8,0.9-1,1.4-0.7C97,55.3,96.9,56.1,96.4,57.5L96.4,57.5z
			 M85.4,44.6c-0.2,0.9-0.4,2.3-0.7,4.2c-0.2,1-0.7,2.4-1.3,4.3c-0.8,2.7-1.8,5.3-2.7,7.3l0,0l-0.1-0.5c-0.2-0.7-0.2-2.4,0-5.5
			c0-2.4,0.3-5.1,0.9-7.8c0.8-3.4,1.5-4.9,2.5-4.9C85,41.6,85.5,42.6,85.4,44.6L85.4,44.6z M144.8,57.9c-0.5,2-1.4,3.8-2.5,5.3l0,0
			c-0.5-2.4-0.2-4.8,0.5-7.2c0.7-2.1,1.4-3.2,1.9-3.4c0.4-0.2,0.5,0,0.7,0.3l0.2,1.2C145.5,55.1,145.3,56.5,144.8,57.9L144.8,57.9z
			 M128.5,54.1c-1.2,1.5-2.1,3.7-2.9,6l0.5-6.5c0.1-2.1-0.5-3.3-2.1-3.1c-0.8,0-1.6,0.3-2.1,0.9c-0.4,0.5-0.7,1.4-1.2,2.9
			c-1.3,4.3-2.4,7.5-3.6,9.6c-1.7,3.1-3.4,4.8-4.6,4.6c-0.5-0.1-1.2-0.5-1.6-1c3.6-4.3,5.4-9,5.7-14.1c0.1-0.9,0-1.9-0.5-2.7
			c-0.4-0.8-0.8-1.4-1.6-1.9c-0.7-0.4-1.4-0.7-2.2-0.8c-1,0-1.9,0.4-2.9,0.8c-1.4,0.8-2.9,2.5-4.2,4.9c-1.3,2.4-1.9,5-2,7.4
			c-0.2,2.9,0,5.5,0.8,7.5c-0.7,0.5-1.2,1-1.7,1.2c-1.4,0.5-2.4,0.7-3.6,0.5c-1.2-0.2-2.2-0.7-2.9-1.6l-0.2-0.3
			c1.3-1.3,2.4-2.9,3.5-4.6c1.2-2.1,1.7-4,2.2-5.9c1.2-5.1,0.2-7.9-2.9-8.4c-1.5-0.4-3.2,0-4.8,1c-1.4,1-2.7,2.4-3.5,4.3
			c-0.8,1.8-1.3,3.8-1.6,6.6c-0.2,2.4-0.2,4.6,0,6.3v0.2C87.8,68,87,68.2,86.2,68c-1.4-0.1-2.6-0.8-3.1-1.7L83.1,66
			c2.4-3.4,4.1-7.2,5.5-11.5c1.6-5,2.1-9.3,1.4-12.9c-0.5-3.6-1.8-5.8-3.8-6.9c-0.8-0.5-1.7-0.5-2.6-0.3c-0.8,0.1-1.5,0.5-2.2,1
			c-1.4,1.2-2.9,3.1-4.1,5.7c-1.4,3-2.4,6-2.7,9.2c-0.1,2.4-0.1,5.5,0,9c0.4,3.6,0.8,6.2,1.3,7.6l-0.2,0.1c-1.6,0.9-3.1,1.3-4.5,1.2
			c-1-0.3-2.2-1-3.4-2.1c-1.4-1.5-2.5-3.5-3-5.9c-0.5-2.4-0.4-4.4,0.5-6.4c0.4-1.2,1.5-2.7,3.3-5c1.8-2,3-3.4,3.7-3.8
			c0.9-0.8,1.6-1.1,2.1-1.3c0.3,0,0.5-0.2,0.8-0.7c0.2-0.5,0.2-1-0.3-1.5c-0.9-1-1.4-1.6-1.8-1.9c-0.8-0.9-1.9-1.2-3-0.9
			c-1.4,0-2.4,0.4-3.4,1.4c-0.7,0.5-1.4,1.5-2.1,2.9l-6.5,10.5c-0.4,0.4-0.7,0.5-0.9,0.5c-0.5,0-0.9-0.5-0.9-1.4
			c0-3.2,0.2-5.8,0.7-8l0.5-1.7c0.2-0.9,0.2-1.4,0.2-1.6c0-1.7-1.6-2.6-4.8-2.6c-0.8,0-1.8,0.4-2.9,1c-1.2,0.8-1.8,1.8-1.6,2.9
			l0.5,4.7c0.2,2,0.2,3.8,0.2,5.3l-0.2,14.9v4.3c0.2,1.8,0.5,2.8,1.2,3.1c1,0.4,2.4,0.8,3.8,0.9c1.7,0.2,2.5-0.2,2.6-0.8
			c0.2-0.4,0-1.3-0.2-2.4l-0.5-3.2c0-2.3,0-3.7,0-4.1c0.2-1.4,0.9-2.2,1.8-2.2c0.8-0.2,1.5,0.3,2.4,1.4l1.5,2.9
			c0.4,0.8,1.3,1.7,2.3,2.9c0.8,1,1.8,1.8,2.5,2.4c0.8,0.8,2.1,1,3.8,1.2c1.6,0.2,3.1,0.2,4.2-0.3c1.9-0.9,3.1-1.4,3.9-2.1l0.4-0.3
			h0.1c0.9,0.8,1.6,1.4,2.6,1.9c1.2,0.5,2.2,0.8,3.1,0.8c3,0,5.1-0.4,6.5-1.6l0,0l0.2,0.2c1.7,1.8,3.8,2.6,5.8,2.6
			c1.9,0,3.5-0.2,4.7-0.4c1.3-0.5,2.7-1.2,4.1-2.3l0.3-0.3l0.7,0.7c1.2,0.8,2.4,1.2,4.1,1.2c1.4,0.2,2.9-0.2,4.2-0.8
			c0.8-0.4,1.7-1.3,2.9-2.4c0.9-1.2,1.7-2.1,2.2-3.1c0,3.2,0.2,5.1,0.3,5.9c0.5,1.5,1.6,2.2,3.3,1.7c0.7-0.2,1.4-0.7,1.7-1.1
			c0.3-0.5,0.5-1.1,0.7-2c0.8-4,1.5-6.6,2-8c0,1.6,0.2,3,0.7,4.5c0.4,1.2,0.9,2.2,1.7,2.9c0.9,0.8,1.6,1.4,2.8,1.7
			c1,0.4,2.2,0.4,3.1,0l1.4-0.5l1.3-0.7l0.9,1.1c1,1.1,1.9,1.8,2.9,2l2.4,0.2c0.9-0.2,1.8-0.3,2.4-0.7c1.6-0.8,3.2-2.2,4.9-4.3
			c1.2-1.4,2.6-3.6,4.1-6.7c0.2,1.3,0.5,2.6,0.9,3.7l-2.4,4.1l-1.8,3.4c-0.7,1.2-1.2,2.4-1.7,3.1c-1.2,2.4-1.3,4.3-0.5,5.4
			c0.8,1.2,1.9,1.3,3,0.5c1.2-0.8,1.9-1.9,2.3-3.1c0.1-0.5,0.5-1.4,1.3-2.9c0.8-1.8,1.9-3.5,3-5.4c2.4,2.6,5.3,3.8,8.9,3.8
			c3.1,0,5.8-1.2,8.1-3.4c1.5-1.4,2.7-3.5,4.1-6.2c0.4-0.7,0.5-1.3,0.4-1.8c-0.2-0.4-0.4-0.8-0.8-0.9l-1.3-0.2
			c-0.5,0.2-0.9,0.3-1.3,0.7c-1.2,1.5-2.1,2.6-2.9,3.3c-1.6,1.4-3.2,2-4.8,2c-1.8,0-3.2-0.3-4.2-1c-0.8-0.5-1.5-1.6-2.2-3.2
			c3.6-5.3,6-8.7,7.9-10.5l1.9-1.9l1.5-1.1c0.4-0.4,0.7-0.7,0.8-0.9c0.1-0.4,0.3-0.7,0.1-1.2c-0.1-0.5-0.5-0.9-1-1.4
			c-0.5-0.5-0.9-0.8-1.8-1.2c-1.4-0.5-2.5-0.5-3.4,0.4c-0.8,0.9-1.7,2-2.7,3.4l-1.9,3l-3.1,4.7c-0.5-1.8-0.7-3.4-0.7-4.7
			c0-2.4,0-3.6-0.2-3.9c-0.1-1-0.9-1.5-2-1.5c-1.2,0-2.1,0.3-2.9,0.8c-0.7,0.5-1.2,1.5-1.6,2.9c-2.7,7.1-4.6,11.3-5.5,12.6l-1.3,1.9
			l-1.5,1.5c-1.4,1.2-2.4,1-3.2-0.3l-0.1-0.2c2.7-2.6,4.4-5.7,5.3-9.1c2.2-9.1,0.8-13.2-4.3-12.4c-2.1,0.4-3.8,1.9-5.4,4.7
			c-1.4,2.4-2.2,4.9-2.4,7.6l-0.3,4.3c0,1.9,0.1,3.4,0.5,4.8c-1.2,0.7-2.1,0.7-2.8,0c-0.7-0.8-1.2-2.4-1.2-4.8
			c0-1.7,0.2-3.4,0.5-5.3c0.4-1.8,0.4-3.1,0.3-4c-0.1-1.3-0.8-2.1-2-2.2C131,51.5,129.7,52.3,128.5,54.1L128.5,54.1z"/>
		<path class="st5" d="M124.3,78.7c0,0.3-0.1,0.7-0.3,0.8c-0.2,0.2-0.5,0.2-0.8,0.2h-0.5v-1.6h0.6C124,78.1,124.3,78.3,124.3,78.7
			L124.3,78.7L124.3,78.7z M124.1,80c0.8-0.1,1.3-0.5,1.3-1.4c0-0.8-0.7-1.3-1.7-1.3h-2.1v5.8h1.9c0.8,0,1.3-0.2,1.6-0.5
			c0.4-0.3,0.5-0.7,0.5-1.2c0-0.5-0.1-0.8-0.5-1C124.9,80.2,124.6,80,124.1,80L124.1,80L124.1,80z M124.4,81.4c0,0.7-0.3,1-1.1,1
			h-0.6v-1.9h0.6C124.1,80.5,124.4,80.9,124.4,81.4L124.4,81.4z"/>
		<path class="st5" d="M128,78.1h0.5c0.5,0,0.9,0.4,0.9,1c0,0.7-0.4,0.9-0.9,0.9H128V78.1L128,78.1z M126.6,77.3v5.8h1.4v-2.2h0.5
			l1.2,2.4l1.3-0.4l-1.4-2.4c0.7-0.3,0.9-0.8,0.9-1.5c0-1.2-0.5-1.6-1.7-1.6H126.6L126.6,77.3z"/>
		<path class="st5" d="M132.9,80.9l0.8-2.4l0.8,2.4H132.9L132.9,80.9z M133.3,77.3l-2.4,5.8h1.2l0.4-1.6h2.1l0.4,1.6h1.5l-2.3-5.8
			H133.3L133.3,77.3z"/>
		<path class="st5" d="M142.3,77.3v5.8h-0.9c-1.5-1.8-2.4-3.1-3.3-4.1l0,0v4.1h-0.9v-5.8h0.9l3.4,4.1v-4.1H142.3L142.3,77.3z"/>
		<path class="st5" d="M147.4,80c0,1.4-0.7,2.3-1.9,2.3h-0.7v-4.2h0.9C146.7,78.1,147.4,78.7,147.4,80L147.4,80L147.4,80z
			 M145.5,77.3h-1.9v5.8h1.9c1,0,1.8-0.3,2.4-0.8c0.5-0.5,0.8-1.4,0.8-2.3C148.6,78.3,147.6,77.3,145.5,77.3L145.5,77.3z"/>
		<polygon class="st5" points="163.2,78.9 163.2,83.8 161.9,83.8 161.9,78.9 160.1,78.9 160.1,78.1 164.9,78.1 164.9,78.9 
			163.2,78.9 		"/>
		<polygon class="st5" points="166.8,78.1 166.8,83.8 165.6,83.8 165.6,78.1 166.8,78.1 		"/>
		<path class="st5" d="M171.5,78.5l-0.5,0.6l-0.9-0.3c-0.5,0-0.7,0.2-0.7,0.7c0,0.1,0.3,0.5,0.9,1c0.8,0.7,1.3,1.3,1.3,1.9
			c0,0.4-0.1,0.7-0.6,0.9c-0.4,0.4-0.8,0.5-1.4,0.5c-0.7,0-1.2-0.1-1.6-0.5l0.3-0.5l1.3,0.3c0.5,0,0.8-0.2,0.8-0.7l-0.3-0.8
			l-0.9-0.7c-0.8-0.5-1-1-1-1.5c0-0.5,0.1-0.9,0.5-1l1.4-0.5C170.6,78,171,78.1,171.5,78.5L171.5,78.5z"/>
		<path class="st5" d="M175.9,78.5l-0.3,0.6c-0.5-0.1-0.8-0.3-1-0.3c-0.4,0-0.7,0.2-0.7,0.7c0,0.1,0.3,0.5,1,1
			c0.8,0.7,1.2,1.3,1.2,1.9c0,0.4-0.2,0.7-0.5,0.9c-0.5,0.4-1,0.5-1.4,0.5c-0.8,0-1.3-0.1-1.8-0.5l0.5-0.5c0.5,0.1,0.8,0.3,1,0.3
			c0.7,0,1-0.2,1-0.7c0-0.3-0.1-0.6-0.5-0.8l-0.8-0.7c-0.7-0.5-0.9-1-0.9-1.5c0-0.5,0.2-0.9,0.4-1c0.3-0.4,0.8-0.5,1.3-0.5
			C175.1,78,175.6,78.1,175.9,78.5L175.9,78.5z"/>
		<path class="st5" d="M181.8,81.6c0,0.8-0.2,1.2-0.7,1.7c-0.5,0.4-1,0.5-1.5,0.5c-1.6,0-2.4-0.8-2.4-2.2v-3.6h1.1v3.2
			c0,1.1,0.4,1.8,1.3,1.8c0.8,0,1.3-0.5,1.3-1.6v-3.4h0.9V81.6L181.8,81.6z"/>
		<polygon class="st5" points="186.3,78.9 184.2,78.9 184.2,80.4 186.1,80.4 186.1,81.1 184.2,81.1 184.2,83.1 186.6,83.1 
			186.6,83.8 183.1,83.8 183.1,78.1 186.3,78.1 186.3,78.9 		"/>
	</g>
	<rect x="0" y="-0.1" class="st7" width="235" height="119"/>
</g>
<g id="legal" class="st0">
	<path class="st9" d="M181.1,57c0.8,0,1.4,0.4,1.9,0.9c0.5,0.5,0.5,0.9,0.5,1.7s-0.1,1.3-0.5,1.8c-0.5,0.4-1.2,0.8-1.9,0.8
		c-0.7,0-1.3-0.4-1.8-0.8c-0.5-0.5-0.8-1-0.8-1.8s0.3-1.2,0.8-1.7C179.7,57.4,180.4,57,181.1,57L181.1,57L181.1,57z M179.6,58
		c-0.5,0.4-0.7,0.9-0.7,1.6c0,0.7,0.2,1.2,0.7,1.6c0.5,0.4,0.9,0.5,1.4,0.5c0.6,0,1-0.1,1.5-0.5c0.5-0.5,0.7-1,0.7-1.6
		c0-0.7-0.2-1.2-0.7-1.6c-0.5-0.5-0.9-0.6-1.5-0.6C180.6,57.4,180.1,57.5,179.6,58L179.6,58L179.6,58z M181.1,59.4h0.6
		c0.2-0.1,0.4-0.3,0.4-0.5c0-0.3-0.2-0.5-0.7-0.5h-0.8v1H181.1L181.1,59.4z M182.5,59c0,0.5-0.4,0.7-0.9,0.9l0.8,1.2H182l-0.9-1.2
		h-0.6V61h-0.4v-2.9h1.2C182.1,58.2,182.5,58.5,182.5,59L182.5,59z"/>
</g>
</svg>
