<?xml version="1.0" encoding="utf-8"?>
<!-- Generator: Adobe Illustrator 19.2.1, SVG Export Plug-In . SVG Version: 6.00 Build 0)  -->
<svg version="1.1" id="Layer_1" xmlns="http://www.w3.org/2000/svg" xmlns:xlink="http://www.w3.org/1999/xlink" x="0px" y="0px"
	 viewBox="0 0 235 119" style="enable-background:new 0 0 235 119;" xml:space="preserve">
<style type="text/css">
	.st0{display:none;}
	.st1{display:inline;fill:#4B4A4B;}
	.st2{fill:#9B9A9A;}
</style>
<g id="Background" class="st0">
	<rect class="st1" width="235" height="119"/>
</g>
<g id="Logos">
	<g>
		<path class="st2" d="M115.8,61.3c-0.5-0.1-0.6-1.6-0.6-2.8v-6.4c0-5.4,1.8-6,3.4-6c0.9,0,1.7,0.4,2.2,1c0.6,0.7,0.9,0.8,1.2,0.8
			c0.7,0,1-0.6,1.2-1.2l0.4-1.1c0.1-0.3,0.1-0.6,0.1-0.8c0-1.3-1.1-1.4-2.2-1.4c-5.8,0-9.5,5.5-9.5,13.6v1.7c0,1.7-0.1,3-0.1,3V62
			l4-0.1L115.8,61.3 M133,60.8c0.7,0,1.3-0.2,1.9-0.6c0.6-0.4,1.1-0.9,1.6-1.7c0.5-0.7,0.8-1.6,1.1-2.7c0.3-1,0.4-2.2,0.4-3.5
			c0-1.1-0.1-2.1-0.4-2.9c-0.3-0.8-0.6-1.5-1-2.1s-0.9-1-1.5-1.3c-0.5-0.3-1.1-0.4-1.7-0.4c-0.7,0-1.4,0.1-2.1,0.4
			c-0.6,0.3-1.2,0.7-1.7,1.3s-0.9,1.4-1.2,2.5c-0.3,1-0.4,2.3-0.4,3.8C128,58.4,129.6,60.8,133,60.8 M133.2,62.4
			c-4.9,0-8.5-2.9-8.5-2.9l0.1-2.7l0.1-2.9v-2.7v-6.7c0-2.3-0.1-1.7-0.1-4c0-2.2,3.9-4.2,3.8-3.3c-0.1,1.5-0.4,4.8-0.4,6.6
			c0,1.9,0,2-0.1,3c0.7-1,1.5-1.9,2.4-2.4c1-0.6,2.2-1,3.6-1c1.3,0,2.4,0.3,3.4,0.8s1.8,1.2,2.4,2c0.6,0.8,1.1,1.8,1.4,2.8
			c0.3,1.1,0.5,2.2,0.5,3.4c0,1.5-0.2,2.8-0.6,4c-0.4,1.2-1,2.3-1.8,3.1c-0.8,0.9-1.7,1.6-2.7,2C135.5,62.2,134.4,62.4,133.2,62.4
			 M113.1,46.8c0.9,0,1.7-0.8,1.7-1.7c0-1-0.8-1.7-1.7-1.7c-0.9,0-1.7,0.8-1.7,1.7S112.1,46.8,113.1,46.8 M109.4,48.5
			c-0.3-0.9-0.8-1.8-1.5-2.5s-1.5-1.3-2.4-1.7c-1-0.4-2.1-0.6-3.4-0.6c-2.8,0-4.9,0.9-6.4,2.7c-1.4,1.8-2.2,4.2-2.2,7.3
			c0,1.3,0.2,2.4,0.7,3.5c0.4,1.1,1.1,2,1.9,2.8s1.8,1.4,2.9,1.8c1.1,0.4,2.3,0.6,3.7,0.6c1.2,0,2.3-0.2,3.5-0.6
			c3.7-1.5,3.1-3.7,3.1-3.7l-0.5-0.3l-0.1,0.2c-0.3,0.4-0.7,0.7-1.1,1s-0.8,0.6-1.3,0.8s-0.9,0.4-1.4,0.5s-1,0.2-1.4,0.2
			c-1,0-1.8-0.2-2.6-0.5c-0.7-0.3-1.4-0.8-1.9-1.4c-0.5-0.6-0.9-1.3-1.2-2.1c-0.1-0.2-0.3-1.1-0.3-1.4c-0.2-2.1,0-3.5,0.4-5.4l0,0
			c0-0.1,0-0.2,0.1-0.3c0.2-0.7,0.5-1.4,0.9-2s0.9-1.1,1.5-1.5s1.3-0.6,2.1-0.6c0.9,0,1.6,0.2,2.1,0.6c0.5,0.4,1,0.9,1.3,1.5
			s0.5,1.3,0.6,2c0.1,0.6,0.1,1.2,0.1,1.8h-2.1h-2.4H100c0,0-0.3,0-0.6,0c-0.3,0-0.9,0.2-0.9,1c0,0.7,0.6,0.9,0.9,0.9s0.6,0,0.6,0
			h2.1h3.9c0,0,1.1,0,2.1,0c2.2,0,2.1-1.7,2.1-1.7C109.9,50.5,109.7,49.4,109.4,48.5 M133,60.8c0.7,0,1.3-0.2,1.9-0.6
			c0.6-0.4,1.1-0.9,1.6-1.7c0.5-0.7,0.8-1.6,1.1-2.7c0.3-1,0.4-2.2,0.4-3.5c0-1.1-0.1-2.1-0.4-2.9c-0.3-0.8-0.6-1.5-1-2.1
			s-0.9-1-1.5-1.3c-0.5-0.3-1.1-0.4-1.7-0.4c-0.7,0-1.4,0.1-2.1,0.4c-0.6,0.3-1.2,0.7-1.7,1.3s-0.9,1.4-1.2,2.5
			c-0.3,1-0.4,2.3-0.4,3.8C128,58.4,129.6,60.8,133,60.8 M133.2,62.4c-4.9,0-8.5-2.9-8.5-2.9l0.1-2.7l0.1-2.9v-2.7v-6.7
			c0-2.3-0.1-1.7-0.1-4c0-2.2,3.9-4.2,3.8-3.3c-0.1,1.5-0.4,4.8-0.4,6.6c0,1.9,0,2-0.1,3c0.7-1,1.5-1.9,2.4-2.4c1-0.6,2.2-1,3.6-1
			c1.3,0,2.4,0.3,3.4,0.8s1.8,1.2,2.4,2c0.6,0.8,1.1,1.8,1.4,2.8c0.3,1.1,0.5,2.2,0.5,3.4c0,1.5-0.2,2.8-0.6,4
			c-0.4,1.2-1,2.3-1.8,3.1c-0.8,0.9-1.7,1.6-2.7,2C135.5,62.2,134.4,62.4,133.2,62.4 M156.4,51.8c0,0.4-0.1,4.8-0.2,7.1
			c0,2.2,4.5,4.1,4.4,3.2c-0.1-1.4-0.5-7.2-0.5-9.1c-0.6-0.1-1.2-0.6-1.8-0.9C157.7,51.8,156.9,52.2,156.4,51.8 M91.7,54.3v-1.8
			v-4.3l0,0v-1.4l0,0c0-2,0.2-4.1,0.3-6.1c-1.6,0.3-2.6,0.3-4.2,0l0.1,2.1l0.1,1.9l0.1,3.4v0.2l0,0v0.8c-0.4,0-3.2,0.1-3.2,0.1h-3.8
			h-2h-0.7c0,0-2.1,0-2.5,0v-1l0.1-3.4l0.1-1.9l0.1-2.1c-1.6,0.3-2.7,0.3-4.3,0c0.6,7.2,0.3,14.1,0.1,21.4h2.1l2,0.1V62l-0.2-4.6
			l0.1-4.9v-1.3c0.3,0,1,0,1,0h1.5h0.7h2H85c0,0,2.8,0,3.2,0.1v1.3l-0.1,4.7L88,58.9l0,0c-0.1,1.1-0.1,2.2-0.2,3.2
			c-0.1,1.3,0.1,2,0.4,2.3c0.6,0.9,3.9-1.1,3.9-3.3C91.9,59.3,91.8,55.9,91.7,54.3 M154.1,59.4c-0.7,0.6-2,1.1-3.1,1.1
			c-1,0-1.9-0.5-2.5-1.1c-1.1-1.1-1.6-3.2-1.5-6.3c0.1-4.9,2.3-7.7,5.2-7.7c1,0,1.8,0.3,2.4,1c1.2,1.2,1.7,3.7,1.7,7.2v0.1
			c0.7-0.4,1.6-0.3,2.4-0.3c0.5,0,1,0,1.4-0.1c0-0.1,0-0.2,0-0.2c0.1-3-0.7-5.4-2.4-7.1c-1.4-1.5-3.4-2.3-5.6-2.3
			c-5.2,0-9.4,3.9-9.2,9.4c0.1,6,3,9.3,8.1,9.3c1.8,0,3.3-0.9,4.2-1.8c0,0,0.6-0.8,0.2-1.2C155.2,59.1,154.7,58.9,154.1,59.4
			 M163.3,56l-0.1,2.1V59c0,0-0.1,2.2-0.2,3c0,0.1,0,0.1,0.1,0.2c0.3,0.2,1.3,0,2.2-0.4c1.1-0.6,1.7-1.6,1.7-2.8
			c0-0.5-0.1-0.9-0.1-0.9l-0.1-2.1v-2.7v-1.9l0,0c0-0.7,0-1.4,0-2.1c0-3.2-0.1-6.5,0.1-9.7c0,0,0.1-1.8,0.2-2.5c0-0.1,0-0.1-0.1-0.2
			c-0.3-0.2-1.5,0-2.4,0.5s-1.4,1.3-1.4,2.1c0,0.4,0,0.7,0.1,0.8c0.1,3.7,0.1,7.4,0,11.1l0,0v1.9V56"/>
		<path class="st2" d="M180.2,76c0.5,0.7,0.8,1.7,0.8,2.9c0,0.8-0.2,1.7-0.5,2.5c-0.4,0.8-0.9,1.5-1.5,2.2c-0.7,0.6-1.5,1.1-2.4,1.5
			s-2,0.5-3.2,0.5c-1.3,0-2.3-0.1-3.2-0.4s-1.6-0.5-2.2-0.9l-0.2-0.1l0.6-1.7c0.2-0.6,0.3-1.1,0.3-1.4v-0.3h1l0.1,0.2
			c0.1,0.2,0.3,0.5,0.6,0.8s0.6,0.6,1,0.9s0.8,0.5,1.3,0.7s1,0.3,1.5,0.3s1-0.1,1.4-0.2c0.4-0.2,0.8-0.4,1.2-0.7
			c0.3-0.3,0.6-0.6,0.8-1s0.3-0.9,0.3-1.5c0-0.8-0.2-1.3-0.6-1.7c-0.5-0.4-1-0.8-1.7-1c-0.7-0.3-1.5-0.5-2.3-0.7
			c-0.9-0.2-1.7-0.6-2.4-1s-1.4-1-1.9-1.7s-0.8-1.7-0.8-2.9c0-0.9,0.2-1.8,0.5-2.6c0.3-0.8,0.8-1.5,1.4-2.1c0.6-0.6,1.3-1,2.2-1.4
			c0.9-0.3,1.9-0.5,3-0.5c1,0,1.9,0.1,2.6,0.4c0.6,0.3,2.1,0.7,1.5,2.6L179,69l-0.1,0.2H178l-0.1-0.2c-0.2-0.6-0.6-1.1-1.2-1.6
			c-0.6-0.5-1.3-0.7-2.1-0.7c-0.4,0-0.7,0.1-1.1,0.2c-0.4,0.1-0.7,0.3-1,0.6c-0.3,0.2-0.5,0.6-0.7,1s-0.3,0.9-0.3,1.4
			c0,0.8,0.2,1.4,0.6,1.8c0.4,0.4,1,0.8,1.7,1.1c0.7,0.3,1.5,0.5,2.3,0.7c0.9,0.2,1.7,0.5,2.4,0.9C179.1,74.7,179.7,75.3,180.2,76"
			/>
		<path class="st2" d="M84.2,72.1c-0.7-0.3-1.4-0.6-2.2-0.8c-0.8-0.2-1.5-0.4-2.1-0.7c-0.6-0.2-1.1-0.6-1.5-1s-0.6-1-0.6-1.7
			c0-0.5,0.1-1,0.3-1.3c0.2-0.4,0.4-0.7,0.7-0.9c0.3-0.2,0.6-0.4,0.9-0.5s0.7-0.2,1-0.2c0.8,0,1.4,0.2,2,0.7c0.5,0.4,0.9,1,1.1,1.5
			l0.1,0.2h0.9l0.1-0.2l0.3-1.2c0.5-1.7-1.4-2.4-1.4-2.4c-0.7-0.3-1.5-0.4-2.4-0.4c-1,0-2,0.2-2.8,0.5s-1.5,0.7-2,1.2
			s-1,1.2-1.3,1.9c-0.3,0.7-0.4,1.5-0.4,2.4c0,1.1,0.2,2,0.7,2.7c0.5,0.6,1,1.1,1.7,1.5s1.4,0.7,2.2,0.9c0.8,0.2,1.5,0.4,2.1,0.7
			c0.6,0.3,1.1,0.6,1.5,1s0.6,0.9,0.6,1.6c0,0.5-0.1,1-0.3,1.4c-0.2,0.4-0.4,0.7-0.7,1c-0.3,0.3-0.7,0.5-1.1,0.6s-0.8,0.2-1.3,0.2
			s-1-0.1-1.4-0.2c-0.4-0.2-0.8-0.4-1.2-0.6c-0.3-0.3-0.6-0.5-0.9-0.8c-0.2-0.3-0.4-0.5-0.5-0.8l-0.1-0.1c-0.4-0.9-3.7,2.3,0.5,4.1
			c0.8,0.3,1.8,0.3,3,0.3c1.1,0,2.1-0.2,2.9-0.5c0.9-0.3,1.6-0.8,2.2-1.4s1.1-1.3,1.4-2s0.5-1.5,0.5-2.3c0-1.1-0.2-2-0.7-2.7
			C85.5,72.9,84.9,72.4,84.2,72.1"/>
		<path class="st2" d="M97.1,75.7c-0.7-0.4-1.4-0.6-2.2-0.8c-0.8-0.2-1.5-0.4-2.1-0.6s-1.1-0.6-1.5-1s-0.6-0.9-0.6-1.7
			c0-0.5,0.1-0.9,0.3-1.3c0.2-0.4,0.4-0.7,0.7-0.9c0.3-0.2,0.6-0.4,0.9-0.5s0.7-0.2,1-0.2c0.8,0,1.4,0.2,2,0.7
			c0.5,0.4,0.9,0.9,1.1,1.5l0.1,0.2h0.9l0.1-0.2l0.3-1.2c0.5-1.7-1.4-2.4-1.4-2.4c-0.7-0.3-1.5-0.4-2.4-0.4c-1,0-2,0.1-2.7,0.4
			c-0.8,0.3-1.5,0.7-2,1.2c-0.6,0.5-1,1.2-1.3,1.9c-0.3,0.7-0.4,1.5-0.4,2.4c0,1.1,0.2,2,0.7,2.6s1,1.1,1.7,1.5s1.4,0.7,2.2,0.9
			c0.8,0.2,1.5,0.4,2.1,0.7c0.6,0.2,1.1,0.6,1.5,1s0.6,0.9,0.6,1.6c0,0.5-0.1,1-0.3,1.3c-0.2,0.4-0.4,0.7-0.7,1
			c-0.3,0.3-0.7,0.5-1.1,0.6s-0.8,0.2-1.3,0.2s-1-0.1-1.4-0.2c-0.4-0.2-0.8-0.4-1.2-0.6c-0.3-0.3-0.6-0.5-0.9-0.8
			c-0.2-0.3-0.4-0.5-0.5-0.8L89,81.6c-0.4-0.9-3.7,2.3,0.5,4.1c0.8,0.3,1.8,0.3,3,0.3c1.1,0,2.1-0.2,2.9-0.5
			c0.9-0.3,1.6-0.8,2.2-1.4s1.1-1.3,1.4-2s0.5-1.5,0.5-2.3c0-1.1-0.2-2-0.7-2.7C98.3,76.6,97.7,76.1,97.1,75.7"/>
		<path class="st2" d="M139.8,70.8c0.5-0.7,1.1-1.2,1.8-1.6s1.6-0.6,2.7-0.6c0.5,0,1,0.1,1.5,0.3c0.5,0.2,0.9,0.4,1.3,0.7
			c0.4,0.3,0.7,0.6,1,0.9s0.5,0.6,0.7,0.9l0.1,0.1h0.7l0.4-1.4l0.5-1.3l-0.1-0.1c-0.5-0.4-1.3-0.8-2.4-1.2c-1.1-0.3-2.3-0.5-3.7-0.5
			c-1.2,0-2.4,0.2-3.5,0.5c-1.1,0.4-2.2,0.9-3,1.7c-0.9,0.8-1.6,1.7-2.1,2.9c-0.5,1.2-0.8,2.6-0.8,4.2c0,1.7,0.3,3.1,0.8,4.3
			c0.5,1.2,1.2,2.1,2.1,2.9c0.9,0.7,1.9,1.3,2.9,1.6c1.1,0.3,2.2,0.5,3.2,0.5c1.2,0,2.3-0.2,3.5-0.6c2.8-1.1,3.3-2.9,3.1-3.5v-0.2
			L150,81l-0.1,0.2c-0.3,0.4-0.7,0.7-1.1,1c-0.4,0.3-0.8,0.6-1.3,0.8c-0.5,0.2-1,0.4-1.4,0.5c-0.5,0.1-1,0.2-1.4,0.2
			c-2,0-3.5-0.6-4.5-1.8c-1-1.2-1.5-3.1-1.5-5.5c0-1.1,0.1-2.1,0.3-3.1C138.9,72.2,139.3,71.4,139.8,70.8"/>
		<path class="st2" d="M116.3,71.7c-0.3-0.9-0.8-1.8-1.5-2.5c-0.6-0.7-1.5-1.3-2.4-1.7c-1-0.4-2.1-0.6-3.4-0.6
			c-2.8,0-4.9,0.9-6.4,2.6s-2.2,4.2-2.2,7.2c0,1.2,0.2,2.4,0.7,3.5c0.4,1.1,1.1,2,1.9,2.8s1.8,1.4,2.9,1.8s2.3,0.6,3.7,0.6
			c1.2,0,2.3-0.2,3.5-0.6c3.7-1.4,3.1-3.7,3.1-3.7l-0.5-0.3l-0.1,0.2c-0.3,0.4-0.7,0.7-1.1,1s-0.9,0.6-1.3,0.8
			c-0.5,0.2-1,0.4-1.4,0.5c-0.5,0.1-1,0.2-1.4,0.2c-1,0-1.8-0.2-2.6-0.5c-0.7-0.3-1.4-0.8-1.9-1.4s-0.9-1.3-1.2-2
			c-0.1-0.2-0.3-1.1-0.3-1.4c-0.2-2.1,0-3.5,0.4-5.3l0,0c0-0.1,0-0.2,0.1-0.3c0.2-0.7,0.5-1.4,0.9-2s0.9-1.1,1.5-1.5
			s1.3-0.6,2.1-0.6c0.9,0,1.6,0.2,2.1,0.6s1,0.9,1.3,1.5s0.5,1.3,0.6,2c0.1,0.6,0.1,1.2,0.1,1.8h-2.1H109h-2.1c0,0-0.3,0-0.6,0
			c-0.3,0-0.9,0.2-0.9,0.9c0,0.7,0.6,0.9,0.9,0.9s0.6,0,0.6,0h2.1h3.9c0,0,1.1,0,2.1,0c2.2,0,2.1-1.7,2.1-1.7
			C116.7,73.6,116.6,72.6,116.3,71.7"/>
		<path class="st2" d="M56.8,67.6c-1.7,2.1-2.6,4.9-2.6,8.5c0,1.5,0.3,2.8,0.8,4.1c0.5,1.3,1.3,2.4,2.2,3.3s2.1,1.6,3.4,2.1
			c1.3,0.5,2.7,0.7,4.3,0.7c1.4,0,2.8-0.3,4.1-0.7c3.3-1.3,3.7-3,3.7-3.8c0-0.2,0-0.3,0-0.4c-0.1,0-0.3-0.2-0.5-0.3
			c0,0.1-0.1,0.1-0.1,0.1c-0.4,0.4-0.8,0.8-1.3,1.2c-0.5,0.4-1,0.7-1.6,1s-1.1,0.5-1.7,0.6c-0.6,0.2-1.2,0.2-1.7,0.2
			c-1.2,0-2.2-0.2-3.1-0.6c-0.9-0.4-1.7-1-2.3-1.6c-0.6-0.7-1.1-1.5-1.4-2.5c-0.1-0.3-0.4-1.3-0.4-1.7c-0.3-2.5-0.1-4.1,0.5-6.3
			v-0.1v-0.2c0.2-0.9,0.6-1.7,1.1-2.4c0.5-0.7,1.1-1.3,1.8-1.8s1.6-0.7,2.6-0.7c1.1,0,2,0.2,2.6,0.7c0.7,0.5,1.2,1.1,1.6,1.8
			c0.4,0.7,0.6,1.5,0.8,2.4c0.1,0.7,0.2,1.3,0.2,2.2c0,0.1-0.1,0.1-0.1,0.1l-2.5,0.1h-2.9h-2.5h-0.7c-0.4,0-1,0.2-1,1
			c0,0.7,0.6,0.9,0.9,0.9h0.7h2.5h4.6h2.5c0.8,0,1.5-0.2,1.9-0.6c0.5-0.5,0.5-1.2,0.5-1.2c0-1.2-0.2-2.4-0.5-3.5
			c-0.4-1.1-0.9-2.1-1.7-2.9c-0.8-0.8-1.7-1.5-2.8-2c-1.1-0.5-2.5-0.7-4-0.7C61.1,64.5,58.5,65.5,56.8,67.6"/>
		<path class="st2" d="M166.5,71.7c-0.3-0.9-0.8-1.8-1.5-2.5s-1.5-1.3-2.4-1.7c-1-0.4-2.1-0.6-3.4-0.6c-2.8,0-4.9,0.9-6.4,2.6
			c-1.4,1.7-2.2,4.2-2.2,7.2c0,1.2,0.2,2.4,0.7,3.5c0.4,1.1,1.1,2,1.9,2.8c0.8,0.8,1.8,1.4,2.9,1.8c1.1,0.4,2.3,0.6,3.7,0.6
			c1.2,0,2.3-0.2,3.5-0.6c3.7-1.4,3.1-3.7,3.1-3.7l-0.5-0.3l-0.1,0.2c-0.3,0.4-0.7,0.7-1.1,1c-0.4,0.3-0.8,0.6-1.3,0.8
			c-0.5,0.2-0.9,0.4-1.4,0.5s-1,0.2-1.4,0.2c-1,0-1.8-0.2-2.6-0.5c-0.7-0.3-1.4-0.8-1.9-1.4s-0.9-1.3-1.2-2
			c-0.1-0.2-0.3-1.1-0.3-1.4c-0.2-2.1,0-3.5,0.4-5.3l0,0c0-0.1,0-0.2,0.1-0.3c0.2-0.7,0.5-1.4,0.9-2s0.9-1.1,1.5-1.5
			s1.3-0.6,2.1-0.6c0.9,0,1.6,0.2,2.1,0.6c0.6,0.4,1,0.9,1.3,1.5s0.5,1.3,0.6,2c0.1,0.6,0.1,1.2,0.1,1.8h-2.1h-2.4h-2.1
			c0,0-0.3,0-0.6,0s-0.9,0.2-0.9,0.9c0,0.7,0.6,0.9,0.9,0.9c0.3,0,0.6,0,0.6,0h2.1h3.9c0,0,1.1,0,2.1,0c2.2,0,2.1-1.7,2.1-1.7
			C167,73.6,166.8,72.6,166.5,71.7"/>
		<path class="st2" d="M132.9,79.4h-3.3c0,1.2,0,2.8,0,2.8c0,3.7,3.6,3,3.6,3c-0.1-1-0.2-2.2-0.2-3.3L132.9,79.4"/>
		<path class="st2" d="M121.5,81.4l-0.1-3.4v-3.1c0-0.2,0-0.3,0-0.5v-4c0-3.7-3.5-3-3.5-3c0.1,1,0.2,2.2,0.2,3.4l0.1,3.4V78
			l-0.1,3.4c0,1.2-0.1,2.3-0.2,3.2v0.3l1.9-0.1l1.9,0.1v-0.3C121.6,83.7,121.5,82.6,121.5,81.4"/>
		<path class="st2" d="M128.7,70.5c0.7,0.9,1,2.2,1,4v2.2l-0.1,2.9h3.3v-3l0.1-3.2c0-1.3-0.2-2.4-0.5-3.2c-0.4-0.8-0.8-1.5-1.4-2
			c-0.6-0.5-1.2-0.9-2-1.1c-0.7-0.2-1.4-0.3-2.1-0.3c-1.3,0-2.5,0.3-3.5,0.9c-0.3,0.2-0.6,0.4-0.9,0.6c-0.9,0.8-0.5,2.7,0.2,2.1
			c0.8-0.7,1.8-1.1,3.2-1.1C127.2,69.2,128.1,69.6,128.7,70.5"/>
	</g>
</g>
<g id="legal" class="st0">
</g>
</svg>
