<?xml version="1.0" encoding="utf-8"?>
<!-- Generator: Adobe Illustrator 19.2.1, SVG Export Plug-In . SVG Version: 6.00 Build 0)  -->
<svg version="1.1" id="Layer_1" xmlns="http://www.w3.org/2000/svg" xmlns:xlink="http://www.w3.org/1999/xlink" x="0px" y="0px"
	 viewBox="0 0 235 119" style="enable-background:new 0 0 235 119;" xml:space="preserve">
<style type="text/css">
	.st0{display:none;}
	.st1{display:inline;fill:#4B4A4B;}
	.st2{fill:#9B9A9A;}
</style>
<g id="Background" class="st0">
	<rect class="st1" width="235" height="119"/>
</g>
<g id="Logos">
	<g>
		<g>
			<g>
				<g>
					<g>
						<g>
							<g>
								<g>
									<g>
										<g>
											<path class="st2" d="M172.6,39.5L172.6,39.5L172.6,39.5z"/>
											<path class="st2" d="M132.5,50.7c0.1-3.6,4.1-6,7.6-6c1.9,0,3.5,0.4,4,2.3c0,0,5.7-3.3,0.7-4.5c-7.8-1.9-16.7,2.4-17,9.4
												c-0.2,4.6,6.9,9.5,7.1,14c0.2,5.2-7.2,11.9-11.6,9.1c0,0-2.9,2.8,0.2,3.4c5.4,1.1,18.2-3.6,18.7-12.6
												C142.7,57.7,132.3,55.9,132.5,50.7z"/>
											<path class="st2" d="M172.8,42.3c-5.4,0.4-10.8,1.7-15.6,3.2c2.9-6.9,5.4-11.5,5.7-12.1c0.2-0.3,0.2-0.6,0.3-0.8
												l-7.5,1.5c-0.1,0.4-4.2,9.6-5.2,13.7c-3.4,1.3-6.2,2.5-8.1,3.3c-1.8,0.9-0.4,2.5-0.4,2.5c0.1,0,0.1-0.1,0.2-0.1
												c2.6-0.9,5.1-1.7,7.4-2.4c-4.3,15.3-4.4,21.5-4.6,24.3c-0.2,2.8,3.8-0.3,3.8-0.3c1.3-9.4,4.1-18.3,6.8-25.5
												c9.8-2.2,14.9-1.7,16-1.7L172.8,42.3C172.9,42.3,172.9,42.3,172.8,42.3z"/>
											<path class="st2" d="M79.9,87c-0.1-0.6,0.3-1.5,1-2.8c2-3.5,5.3-7.8,9.3-12.9c7.2-9.3,17-19.7,17.1-25.1v-0.9
												c0,0-24,4.4-29.1,7.1c-3.5,1.9,0.7,4.3,0.7,4.3l0.6-0.2c5.9-2.6,12.8-4.3,17.6-5.1c-1.4,3.8-6.9,10.1-12,16.7
												c-6.7,8.6-13.4,19.2-13.2,23.5c0.1,3.6,3.5,3.8,4.4,3.4c0.5-0.2,0.5-0.2,0.9-0.5C83.5,90,91.4,83.6,99.6,82
												c0,0,0.7-1.7-0.9-2.3C94.5,78.3,79.9,87,79.9,87z"/>
											<path class="st2" d="M119,46.7c-9.5,1.4-18.7,13-20.6,24.5c-1.1,6.8,3.3,11.1,9.4,11.6c5.1,0.4,11.1-3.4,12.9-6.1
												c1.8-2.8-1.1-2.6-1.1-2.6c-2.1,2.9-5.3,5.2-9.6,4.3c-4.2-0.9-4.3-4.6-4-8.1c0.9-0.1,3.2-0.7,6.9-2.3
												c6.8-3,12-7.6,12.8-13.5C126.4,48.8,124.2,46,119,46.7z M118.6,58.6c-3.2,5-8.9,8.3-12.5,9c1.2-7.2,8.8-17.3,13-18.4
												C121.6,48.7,121.4,54.3,118.6,58.6z"/>
										</g>
									</g>
								</g>
							</g>
						</g>
					</g>
				</g>
			</g>
		</g>
	</g>
</g>
<g id="legal" class="st0">
</g>
</svg>
