<?xml version="1.0" encoding="utf-8"?>
<!-- Generator: Adobe Illustrator 19.2.1, SVG Export Plug-In . SVG Version: 6.00 Build 0)  -->
<svg version="1.1" xmlns="http://www.w3.org/2000/svg" xmlns:xlink="http://www.w3.org/1999/xlink" x="0px" y="0px"
	 viewBox="0 0 235 119" style="enable-background:new 0 0 235 119;" xml:space="preserve">
<style type="text/css">
	.st0{display:none;}
	.st1{display:inline;fill:#4B4A4B;}
	.st2{fill:#9B9A9A;}
	.st3{opacity:0.35;fill:#9B9A9A;}
	.st4{opacity:0.25;fill:#9B9A9A;}
	.st5{fill-rule:evenodd;clip-rule:evenodd;fill:#9B9A9A;}
	.st6{fill:none;stroke:#9B9A9A;stroke-width:0.4311;stroke-miterlimit:10;}
	.st7{fill:none;}
	.st8{display:inline;fill:#9B9A9A;}
	.st9{display:inline;fill-rule:evenodd;clip-rule:evenodd;fill:#9B9A9A;}
	.st10{display:inline;}
</style>
<g id="Background" class="st0">
	<rect class="st1" width="235" height="119"/>
</g>
<g id="Logos">
	<g>
		<path class="st2" d="M108.4,48.3v-2.2c0-0.9-0.4-1.3-1.2-1.4l-1.3,0v4.7h1.3C107.8,49.5,108.4,49.1,108.4,48.3z"/>
		<path class="st2" d="M96.5,55.7v-2.1c0-0.8-0.6-1.3-1.4-1.3h-1.2v4.8l1.3-0.1C96.1,57,96.5,56.6,96.5,55.7z"/>
		<path class="st2" d="M96.4,47.9v-1.8c0-0.9-0.4-1.3-1.2-1.4l-1.3,0v4.4h1.3C95.8,49.1,96.4,48.8,96.4,47.9z"/>
		<path class="st2" d="M168.1,47.5v-1.3c0-1.6-0.6-2.4-1.7-2.3l-1.6,0.1v5.6h1.5C167.5,49.6,168.1,48.9,168.1,47.5z"/>
		<polygon class="st2" points="129.8,46.1 129.4,46.1 128.5,52.6 130.7,52.7 		"/>
		<path class="st2" d="M189.5,45.1L189.5,45.1l0-1.8c0-2.9-1.2-5.3-3.3-6.8c-2-1.4-4.2-1.6-5.3-1.6c-0.2,0-0.4,0-0.7,0c0,0,0,0,0,0
			c-0.3,0-0.5,0-0.8,0.1l0,0c-18.8,2.7-40.5,4.1-63.6,4.1c-13.8,0-27-0.7-39.5-2l0,0l-0.1,0c0,0,0,0,0,0c-7.4-0.7-14.5-1.6-21.3-2.6
			v0l-0.1,0c-0.1,0-0.3,0-0.4,0c-0.8,0-1.5,0.3-2,0.8v0h0c-0.7,0.6-1.1,1.4-1.1,2.3v30.8c0,0.9,0,1.1-0.3,1.2c-1,0.3-2,0.7-3.1,1.1
			c0,0-0.1,0-0.1,0l-0.1,0c0,0,0,0-0.1,0c-1.2,0.5-1.9,1.6-2,2.9c-0.1,2.4,2.6,3.9,2.7,3.9c1.1,0.5,2.5,0.8,4,1.1
			c3.3,0.6,7.4,1.3,10.8,4.9c0.8,0.9,1.9,1.4,2.9,1.4c0.5,0,1.1-0.1,1.6-0.4c0,0,0,0,0.1,0l0.1-0.1c0.1,0,0.1-0.1,0.1-0.1
			c19.8-12,48.4-14.6,68.9-14.6c18.8,0,33.5,2.1,40.7,3.3c0,0,0,0,0.1,0c0,0,0.1,0,0.1,0l0.1,0c0.1,0,0.2,0,0.4,0.1
			c0.2,0,0.4,0.1,0.6,0.1c7.8,0,9.9-6.5,10.5-10.2c0.1-0.7,0.2-1.4,0.2-2.3c0-0.2,0-0.2,0-0.2C189.6,48.5,189.5,45.1,189.5,45.1z
			 M160.7,40.4c0-0.1,0-0.1,0.1-0.1l5.9-0.6c0.2,0,0.5,0,0.7,0c3.2,0,5.1,2.2,5.1,6.2c0,2.4-0.8,4-2.5,4.9c1.8,0.7,2.2,2.9,2.2,5
			l0.3,6.2c0,0.1,0,0.3,0,0.4l0.1,2.8c0,0,0,0.1,0,0.1c0,0,0,0-0.1,0c0,0,0,0,0,0l-0.2,0c-0.7-0.2-1.5-0.4-1.6-0.4
			c0,0-0.2-0.1-0.5-0.1l-2.1-0.4c-0.1,0-0.1-0.1-0.1-0.1v-0.2c0-1,0-3.6,0-4.3c0-0.9-0.1-3.8-0.1-3.9c0-1.9-0.7-2.9-2-2.9h-1.1v10.5
			c0,0,0,0.1,0,0.1c0,0-0.1,0-0.1,0l-0.1,0c0,0-1.7-0.3-2-0.4c-0.1,0-0.5-0.1-1.6-0.3l-0.2,0c-0.1,0-0.1-0.1-0.1-0.1V40.4z
			 M150,41.1c0-0.1,0.1-0.1,0.1-0.1l8.3-0.6c0,0,0.1,0,0.1,0c0,0,0,0.1,0,0.1v3.7c0,0.1-0.1,0.1-0.1,0.1l-4.4,0.1v4.1h3.5
			c0.1,0,0.1,0.1,0.1,0.1v3.5c0,0.1-0.1,0.1-0.1,0.1H154v5.3l4.4,0.4c0.1,0,0.1,0.1,0.1,0.1v4.2c0,0,0,0.1,0,0.1c0,0-0.1,0-0.1,0
			c0,0,0,0,0,0l-0.1,0c0,0-3.6-0.6-4.3-0.7c-0.9-0.1-3.7-0.5-3.7-0.5l-0.1,0c-0.1,0-0.1-0.1-0.1-0.1V41.1z M137.2,41.8
			c0-0.1,0-0.1,0.1-0.1l3.7-0.1c0,0,0.1,0,0.1,0c0,0,0,0.1,0,0.1v6.8l3.3-7c0,0,0.1-0.1,0.1-0.1l3.5-0.2c0,0,0.1,0,0.1,0.1
			c0,0,0,0.1,0,0.1l-3.3,7.4l3.4,12.1c0,0,0,0.1,0,0.1c0,0-0.1,0-0.1,0l0,0l-4-0.4c0,0-0.1,0-0.1-0.1l0-0.1l-2-7.6l-0.9,1.4v5.9
			c0,0,0,0.1,0,0.1c0,0-0.1,0-0.1,0l-3.7-0.3c-0.1,0-0.1-0.1-0.1-0.1V41.8z M127.4,42c0-0.1,0.1-0.1,0.1-0.1l4.4-0.1
			c0.1,0,0.1,0,0.1,0.1l3.7,17.9c0,0,0,0.1,0,0.1c0,0-0.1,0-0.1,0h0l-0.2,0c-0.1,0-1.1-0.1-1.7-0.1l-1.9-0.1c-0.1,0-0.1,0-0.1-0.1
			l-0.6-3.8l-3-0.1l-0.6,3.7c0,0.1-0.1,0.1-0.1,0.1l-0.1,0c0,0-1.3,0-1.7,0c-0.4,0-1.4,0-1.4,0l-0.1,0c0,0-0.1,0-0.1,0
			c0,0,0-0.1,0-0.1L127.4,42z M114.3,42.1c0-0.1,0.1-0.1,0.1-0.1h8c0.1,0,0.1,0.1,0.1,0.1v3.3c0,0.1-0.1,0.1-0.1,0.1h-4.2v3.1h3.3
			c0.1,0,0.1,0.1,0.1,0.1v3.3c0,0.1-0.1,0.1-0.1,0.1h-3.3V56h4.2c0.1,0,0.1,0.1,0.1,0.1v3.3c0,0,0,0.1,0,0.1c0,0-0.1,0-0.1,0h-0.1
			c0,0-2.5,0-3,0c-3.4,0-4.7,0-4.7,0l-0.1,0h0c0,0-0.1,0-0.1,0c0,0,0-0.1,0-0.1V42.1z M102.2,41.8C102.2,41.8,102.2,41.8,102.2,41.8
			c0.1-0.1,0.1-0.1,0.1-0.1l5,0.2c1.6,0,2.8,0.4,3.6,1.2c0.8,0.8,1.2,2,1.2,3.6c0,1.7-0.8,3.3-2,4.1c1.4,0.5,1.7,1.7,1.8,3.3
			c0,0,0,0,0,0l0.2,5.5c0,0.1-0.1,0.1-0.1,0.1l-3.4,0.1c0,0-0.1,0-0.1,0c0,0,0-0.1,0-0.1l-0.2-5.9c0-1.1-0.4-1.5-1.3-1.5l-1,0v7.4
			c0,0.1,0,0.1-0.1,0.1l-3.5,0.2h0c0,0-0.1,0-0.1,0c0,0,0-0.1,0-0.1V41.8z M89.9,41.3C89.9,41.2,89.9,41.2,89.9,41.3
			c0.1-0.1,0.1-0.1,0.1-0.1l5.7,0.3c2.9,0.2,4.3,1.8,4.3,5c0,1.5-0.5,3.4-2,4.3c1.3,0.7,2.1,2.3,2.1,4.3c0,3.2-1.5,5.3-4,5.5
			L90,61.1c0,0,0,0,0,0c0,0-0.1,0-0.1,0c0,0,0-0.1,0-0.1V41.3z M75.7,40.2C75.7,40.2,75.7,40.1,75.7,40.2c0.1-0.1,0.1-0.1,0.1-0.1
			l8.5,0.7c0.1,0,0.1,0.1,0.1,0.1v3.8c0,0,0,0.1,0,0.1c0,0-0.1,0-0.1,0L80,44.7v3.7l3.4,0c0.1,0,0.1,0.1,0.1,0.1v3.6
			c0,0.1-0.1,0.1-0.1,0.1L80,52.3v5.8l4.3-0.4c0,0,0.1,0,0.1,0c0,0,0,0.1,0,0.1v3.8c0,0.1,0,0.1-0.1,0.1l-8.5,1.4c0,0,0,0,0,0
			c0,0-0.1,0-0.1,0c0,0,0-0.1,0-0.1V40.2z M62,44.7c0-3.6,2-5.9,5.1-5.9c0.3,0,0.7,0,0.9,0c3.4,0.4,5.3,2.5,5.3,5.9V48
			c0,0.1-0.1,0.1-0.1,0.1h-4.1C69,48.1,69,48.1,69,48v-3.3c0-1-0.4-1.5-1.3-1.5c-0.8,0-1.2,0.4-1.2,1.4v14.8c0,1.1,0.2,1.6,1,1.7h0
			c0.1,0,0.3,0,0.3,0c0.9-0.1,1.2-0.6,1.2-1.6V55c0-0.1,0-0.1,0.1-0.1l4.1-0.3c0,0,0.1,0,0.1,0c0,0,0,0.1,0,0.1v4.7
			c0,3.4-1.8,5.4-5.4,5.9c-0.3,0-0.7,0-1,0h-0.3c-2.8,0-4.6-2.4-4.6-5.9V44.7z M54.1,37.6C54.1,37.5,54.1,37.5,54.1,37.6
			c0.1-0.1,0.1-0.1,0.1-0.1l4.9,0.7c0.1,0,0.1,0.1,0.1,0.1V67c0,0.1,0,0.1-0.1,0.1l-4.9,1.5c0,0,0,0,0,0c0,0-0.1,0-0.1,0
			c0,0-0.1-0.1-0.1-0.1V37.6z M178.6,70.2c-0.2,0-0.4-0.1-0.4-0.1c-0.1,0-0.1,0-0.2,0c0,0-0.1,0-0.1,0c-27.7-4.8-81-7-111.7,11.7
			l-0.1,0.1c-0.3,0.2-0.8-0.1-1-0.4c-5.8-6.1-13.3-5.3-15.7-6.6c-0.2-0.1-1.4-1.1-0.8-1.3l0.1,0c5-1.7,11.7-3.9,16.2-5l3.3-0.8
			c14.6-3.4,32.2-5.4,51-5.4c20.3,0,39.1,2.3,54.4,6.2c1.1,0.3,4.7,1.3,5.1,1.5c0,0,0.1,0,0.1,0.1C178.8,70.1,178.8,70.2,178.6,70.2
			z M186.5,46.2c0,0.1-0.1,0.1-0.1,0.1h0l-4.5,0.2h0c-0.1,0-0.1-0.1-0.1-0.1v0l-0.2-2.8c-0.1-0.9-0.8-1.3-1.2-1.2
			c-0.4,0-1.3,0.2-1.3,1.5c0,0.2,0.1,1.5,0.2,2c0.2,1,1.3,2.7,3,4.7c0.3,0.4,0.6,0.7,0.9,1c1.7,1.9,3.1,3.5,3.2,6.3l0.1,2.5
			c0,5.3-3.1,6.9-5.8,6.9c-0.1,0-0.5,0-0.6,0c-2.5,0-5.7-1.8-5.9-6.6l-0.1-3.5v0c0-0.1,0.1-0.1,0.1-0.1h0c0.7,0.1,3.9,0.4,4.6,0.5
			l0,0c0.1,0,0.1,0.1,0.1,0.1l0,0c0.1,3,0.2,3.7,0.2,3.7c0.1,1,0.7,1.2,1.1,1.2h0.2c0.4,0,1-0.3,1-1.2l0-2.8c0-2.2-1.1-3.2-2.3-4.6
			c-0.3-0.3-0.6-0.7-0.9-1c-1.8-2.2-3.6-4.6-3.6-7.3l0-1.7c0-4.4,3.6-6,5.8-6.2c0.1,0,0.4,0,0.5,0c2.1,0,5.7,1,5.7,5.4L186.5,46.2
			L186.5,46.2z"/>
	</g>
	<rect y="0.1" class="st7" width="235" height="119"/>
</g>
<g id="legal" class="st0">
</g>
</svg>
